<?xml version="1.0" encoding="utf-8"?>
<!-- Generator: Adobe Illustrator 27.3.1, SVG Export Plug-In . SVG Version: 6.00 Build 0)  -->
<svg version="1.1" id="Layer_1" xmlns="http://www.w3.org/2000/svg" xmlns:xlink="http://www.w3.org/1999/xlink" x="0px" y="0px"
	 viewBox="0 0 1600 900" style="enable-background:new 0 0 1600 900;" xml:space="preserve">
<style type="text/css">
	.st0{fill:#FFFFFF;}
	.st1{fill:#6833FA;}
	.st2{fill:#343CFF;}
	.st3{fill:#00C66D;}
	.st4{fill:#E6504F;}
	.st5{enable-background:new    ;}
</style>
<rect class="st0" width="1600" height="900"/>
<g>
	<g>
		<g>
			<path class="st1" d="M133.9,372.1V284h15.7l26.1,58.8h1.9l26-58.8h15.8v88.1h-11.8v-75.2l0.8,0.2l-25,56.7h-14.5l-25.1-56.7
				l1-0.2v75.2L133.9,372.1L133.9,372.1z"/>
			<path class="st1" d="M265.6,374c-7.6,0-13.5-2.5-17.6-7.5s-6.2-12.2-6.2-21.6v-37.4h11.6v39.7c0,5.1,1.4,9,4.1,11.9
				c2.7,2.9,6.4,4.3,11.1,4.3c4.8,0,8.8-1.5,11.8-4.6c3.1-3.1,4.6-7.3,4.6-12.7v-38.5h11.6v64.6h-9.2v-27.6h1.4
				c0,6.4-0.8,11.7-2.5,16.1s-4.2,7.7-7.5,10s-7.6,3.4-12.7,3.4L265.6,374L265.6,374z"/>
			<path class="st1" d="M310.9,293.1V284h20.5v9.2h-20.5V293.1z M319.8,372.1V284h11.6v88.1H319.8z"/>
			<path class="st1" d="M344.2,316.3v-8.7h44.4v8.7H344.2z M378.8,372.8c-4.8,0-9-0.7-12.5-2.1s-6.2-3.7-8.1-7.1
				c-1.9-3.3-2.8-7.9-2.8-13.6v-62.1h11.1v63.5c0,3.5,0.9,6.1,2.8,8s4.6,2.8,8,2.8h11.3v10.4h-9.8V372.8z"/>
			<path class="st1" d="M398.3,316.8v-9.2h21.5v9.2H398.3z M411.5,297.2c-2.6,0-4.5-0.7-5.7-2.1s-1.9-3.1-1.9-5.2s0.6-3.8,1.9-5.2
				c1.2-1.4,3.2-2.1,5.7-2.1c2.6,0,4.5,0.7,5.7,2.1s1.9,3.1,1.9,5.2s-0.6,3.8-1.9,5.2C416,296.6,414,297.2,411.5,297.2z
				 M408.2,372.1v-64.5h11.6v64.5H408.2z"/>
			<path class="st1" d="M439.1,343.5v-9.9H484v9.9H439.1z"/>
			<path class="st1" d="M530.5,374.3c-5.6,0-10.5-1-14.6-2.9c-4.1-1.9-7.4-4.5-10-7.7s-4.5-6.7-5.7-10.7c-1.2-3.9-1.9-8-1.9-12.1
				v-2.2c0-4.2,0.6-8.2,1.9-12.2c1.2-3.9,3.2-7.5,5.7-10.7c2.6-3.2,5.9-5.7,9.8-7.6c4-1.9,8.7-2.8,14.1-2.8c7,0,12.8,1.5,17.3,4.5
				s7.9,6.9,10.1,11.7c2.2,4.8,3.3,9.8,3.3,15.2v5.2h-57.2v-8.7h48.8l-2.7,4.7c0-4.6-0.7-8.6-2.2-11.9c-1.4-3.3-3.6-5.9-6.5-7.8
				s-6.6-2.8-11-2.8c-4.6,0-8.4,1-11.4,3.1s-5.3,4.9-6.8,8.6c-1.5,3.6-2.2,7.8-2.2,12.6c0,4.6,0.7,8.7,2.2,12.4
				c1.5,3.7,3.8,6.6,6.9,8.7c3.1,2.1,7.1,3.2,12,3.2c5.1,0,9.2-1.1,12.4-3.4s5.1-4.9,5.7-7.8h10.9c-0.9,4.4-2.7,8.3-5.3,11.5
				c-2.7,3.2-6,5.7-10,7.4C540.1,373.4,535.6,374.3,530.5,374.3z"/>
			<path class="st1" d="M594.9,373.8c-4.8,0-9-0.8-12.5-2.5c-3.5-1.6-6.2-4-8.1-7.2c-1.9-3.1-2.8-6.9-2.8-11.3c0-4.6,1-8.4,3.1-11.5
				s5-5.4,9-6.9c3.9-1.6,8.7-2.4,14.2-2.4h17.5v8.7h-18c-4.7,0-8.3,1.1-10.7,3.4c-2.5,2.3-3.7,5.2-3.7,8.7s1.2,6.4,3.7,8.6
				s6.1,3.3,10.7,3.3c2.7,0,5.4-0.5,7.8-1.5c2.5-1,4.6-2.7,6.2-5.1c1.6-2.4,2.6-5.7,2.7-9.8l3.1,4.6c-0.4,4.6-1.5,8.4-3.3,11.5
				s-4.3,5.5-7.5,7.1C603.2,373,599.4,373.8,594.9,373.8z M616,372.1v-19.3h-1.9v-22.3c0-4.4-1.1-7.8-3.4-10
				c-2.3-2.3-5.7-3.4-10.1-3.4c-2.5,0-5.1,0-7.7,0.1c-2.7,0.1-5.2,0.2-7.6,0.2c-2.4,0.1-4.5,0.2-6.3,0.4v-10.1
				c1.8-0.2,3.6-0.3,5.6-0.4s4-0.2,6.1-0.2s4.1-0.1,6-0.1c6.6,0,12,0.8,16.2,2.4s7.3,4.1,9.3,7.7c2,3.5,3,8.3,3,14.4v40.8H616V372.1
				z"/>
			<path class="st1" d="M646.4,372.1v-64.5h9.2v26.6h-0.5c0-9.4,2.1-16.3,6.2-20.7c4.1-4.4,10.4-6.6,18.7-6.6h2.2v10.4H678
				c-6.4,0-11.4,1.7-14.8,5.1c-3.5,3.4-5.2,8.4-5.2,14.8v34.9L646.4,372.1L646.4,372.1z"/>
			<path class="st1" d="M695.9,372.1v-64.5h9.2v27.6h-1.4c0-6.4,0.9-11.7,2.6-16.1c1.7-4.4,4.4-7.7,7.9-10s8-3.4,13.4-3.4h0.5
				c8.1,0,14.1,2.5,18,7.6s5.9,12.4,5.9,22v36.8h-11.6v-39.2c0-5-1.4-9-4.2-12s-6.7-4.5-11.6-4.5c-5.1,0-9.2,1.6-12.3,4.7
				s-4.7,7.3-4.7,12.6v38.5h-11.7V372.1z"/>
			<path class="st1" d="M766.4,316.8v-9.2h21.5v9.2H766.4z M779.6,297.2c-2.6,0-4.5-0.7-5.7-2.1s-1.9-3.1-1.9-5.2s0.6-3.8,1.9-5.2
				c1.2-1.4,3.2-2.1,5.7-2.1c2.6,0,4.5,0.7,5.7,2.1s1.9,3.1,1.9,5.2s-0.6,3.8-1.9,5.2C784.1,296.6,782.1,297.2,779.6,297.2z
				 M776.3,372.1v-64.5h11.6v64.5H776.3z"/>
			<path class="st1" d="M810.4,372.1v-64.5h9.2v27.6h-1.4c0-6.4,0.9-11.7,2.6-16.1c1.7-4.4,4.4-7.7,7.9-10s8-3.4,13.4-3.4h0.5
				c8.1,0,14.1,2.5,18,7.6s5.9,12.4,5.9,22v36.8h-11.6v-39.2c0-5-1.4-9-4.2-12s-6.7-4.5-11.6-4.5c-5.1,0-9.2,1.6-12.3,4.7
				s-4.7,7.3-4.7,12.6v38.5h-11.7V372.1z"/>
			<path class="st1" d="M912,397.2c-3,0-6-0.1-9-0.4c-3-0.2-5.9-0.6-8.6-1V386c2.9,0.4,5.9,0.7,9.1,1c3.2,0.3,6.2,0.4,9,0.4
				c5.9,0,10.6-0.8,14.1-2.4s6-4,7.6-7.4c1.6-3.3,2.4-7.6,2.4-12.9v-12.3l3.9-9.2c-0.2,6.5-1.6,11.9-4.1,16.2
				c-2.5,4.3-5.7,7.5-9.7,9.7c-4,2.1-8.4,3.2-13.2,3.2c-4.5,0-8.6-0.9-12.4-2.6c-3.7-1.7-7-4.1-9.7-7.2s-4.8-6.6-6.3-10.6
				s-2.2-8.2-2.2-12.6v-2.2c0-4.5,0.8-8.7,2.3-12.6s3.7-7.3,6.4-10.2c2.7-2.9,6-5.1,9.8-6.8c3.8-1.6,8-2.4,12.6-2.4
				c5.4,0,10.1,1.1,14.2,3.4c4.1,2.3,7.3,5.6,9.7,10s3.7,9.8,3.9,16.1l-3.4,0.1v-27.5h9.2v56.9c0,7.7-1.2,14-3.6,18.8
				c-2.4,4.8-6.2,8.3-11.3,10.6C927.5,396.1,920.6,397.2,912,397.2z M915.5,362c3.9,0,7.4-0.8,10.6-2.5c3.2-1.7,5.7-4.1,7.6-7.3
				c1.9-3.2,2.8-7,2.8-11.4v-5.6c0-4.3-1-8-3-11s-4.5-5.2-7.7-6.8c-3.1-1.5-6.6-2.3-10.3-2.3c-4.2,0-7.9,1-11.1,2.9
				c-3.2,1.9-5.7,4.6-7.5,8.1s-2.7,7.6-2.7,12.4c0,4.7,0.9,8.9,2.7,12.4s4.3,6.3,7.5,8.1C907.8,361,911.4,362,915.5,362z"/>
			<path class="st2" d="M133.9,494.9v-89.1h11.8v89.1H133.9z M143.3,494.9V484h22c5.3,0,10-0.9,14.2-2.6c4.1-1.7,7.7-4.1,10.6-7.2
				c2.9-3.1,5.2-6.6,6.7-10.7s2.3-8.5,2.3-13.3c0-5-0.8-9.5-2.3-13.6s-3.8-7.6-6.7-10.6s-6.5-5.3-10.6-6.9s-8.9-2.4-14.2-2.4h-22
				v-10.9h20.8c8,0,14.9,1.2,20.8,3.7c5.9,2.5,10.8,5.8,14.7,9.9s6.8,8.8,8.8,13.9c1.9,5.1,2.9,10.3,2.9,15.6v2.7
				c0,5.2-1,10.3-2.9,15.5s-4.9,9.8-8.8,14c-3.9,4.2-8.8,7.5-14.7,10.1c-5.9,2.5-12.8,3.8-20.8,3.8h-20.8V494.9z"/>
			<path class="st2" d="M255.1,496.6c-5.6,0-10.5-1-14.6-2.9s-7.4-4.5-10-7.7s-4.5-6.7-5.7-10.7c-1.2-3.9-1.9-8-1.9-12.1V461
				c0-4.2,0.6-8.2,1.9-12.2c1.2-3.9,3.2-7.5,5.7-10.7c2.6-3.2,5.9-5.7,9.8-7.6c4-1.9,8.7-2.8,14.1-2.8c7,0,12.8,1.5,17.3,4.5
				s7.9,6.9,10.1,11.7c2.2,4.8,3.3,9.8,3.3,15.2v5.2H228v-8.7h48.8l-2.7,4.7c0-4.6-0.7-8.6-2.2-11.9c-1.4-3.3-3.6-5.9-6.5-7.8
				s-6.6-2.8-11-2.8c-4.6,0-8.4,1-11.4,3.1s-5.3,5-6.8,8.6s-2.2,7.8-2.2,12.6c0,4.6,0.7,8.7,2.2,12.4c1.5,3.7,3.8,6.6,6.9,8.7
				c3.1,2.1,7.1,3.2,12,3.2c5.1,0,9.2-1.1,12.4-3.4s5.1-4.9,5.7-7.8h10.9c-0.9,4.4-2.7,8.2-5.3,11.5c-2.7,3.2-6,5.7-10,7.4
				C264.7,495.7,260.2,496.6,255.1,496.6z"/>
			<path class="st2" d="M328.5,496.6c-4.6,0-8.8-0.8-12.7-2.5c-3.9-1.7-7.2-4.1-10.1-7.1c-2.9-3.1-5.1-6.6-6.6-10.6
				c-1.6-4-2.4-8.4-2.4-13v-2.2c0-4.6,0.8-8.9,2.3-12.9s3.7-7.6,6.5-10.6c2.8-3.1,6.1-5.5,9.9-7.2s8.1-2.6,12.7-2.6
				c4.9,0,9.4,1,13.4,3.1s7.3,5.3,9.9,9.6c2.6,4.3,4,10,4.3,16.9l-4.8-7.7v-43.3h11.6v88.1h-9.2V466h3.4c-0.3,7.3-1.9,13.3-4.6,17.8
				s-6.2,7.8-10.3,9.9C337.7,495.6,333.3,496.6,328.5,496.6z M330.1,486.4c3.9,0,7.5-0.9,10.7-2.7c3.2-1.8,5.8-4.3,7.7-7.7
				c1.9-3.3,2.9-7.3,2.9-11.8v-5.6c0-4.4-1-8.2-3-11.3c-2-3.1-4.6-5.5-7.8-7.1c-3.3-1.6-6.8-2.5-10.7-2.5c-4.3,0-8,1-11.3,3
				s-5.8,4.8-7.6,8.5c-1.8,3.6-2.7,7.9-2.7,12.8s0.9,9.2,2.8,12.9c1.9,3.7,4.4,6.5,7.7,8.5C322.2,485.5,325.9,486.4,330.1,486.4z"/>
			<path class="st2" d="M407.1,496.3c-7.6,0-13.5-2.5-17.6-7.5s-6.2-12.2-6.2-21.6v-37.4h11.6v39.7c0,5.1,1.4,9,4.1,11.9
				s6.4,4.3,11.1,4.3c4.8,0,8.8-1.5,11.8-4.6c3.1-3.1,4.6-7.3,4.6-12.7v-38.5h11.6v64.6H429v-27.6h1.4c0,6.4-0.8,11.7-2.5,16.1
				s-4.2,7.7-7.5,10s-7.6,3.4-12.7,3.4L407.1,496.3L407.1,496.3z"/>
			<path class="st2" d="M488.3,496.6c-5.6,0-10.4-1-14.4-2.9c-4.1-1.9-7.4-4.5-10.1-7.8s-4.6-6.9-6-10.8c-1.3-3.9-2-7.9-2-11.8v-2.2
				c0-4.1,0.7-8.1,2-12.1c1.3-3.9,3.3-7.5,6-10.7s6.1-5.7,10.1-7.7c4-1.9,8.7-2.9,14.1-2.9s10.2,1,14.5,3s7.8,4.8,10.4,8.5
				c2.6,3.7,4.1,8,4.4,13h-11.1c-0.6-4-2.4-7.4-5.6-10.1c-3.1-2.7-7.4-4-12.7-4c-4.6,0-8.4,1-11.5,3.1s-5.4,5-6.9,8.6
				s-2.3,7.7-2.3,12.3c0,4.4,0.8,8.5,2.3,12.1c1.5,3.7,3.8,6.6,6.9,8.7s7,3.2,11.7,3.2c3.6,0,6.8-0.6,9.4-1.9c2.7-1.3,4.8-3,6.4-5.2
				s2.6-4.6,2.9-7.4h11.1c-0.2,5.1-1.7,9.5-4.4,13.2s-6.2,6.6-10.6,8.6C498.7,495.6,493.7,496.6,488.3,496.6z"/>
			<path class="st2" d="M524.3,438.6v-8.7h44.4v8.7H524.3z M558.9,495.1c-4.8,0-9-0.7-12.5-2.1s-6.2-3.7-8.1-7.1
				c-1.9-3.3-2.8-7.9-2.8-13.6v-62.1h11.1v63.5c0,3.5,0.9,6.1,2.8,8c1.9,1.9,4.6,2.8,8,2.8h11.3v10.4h-9.8V495.1z"/>
			<path class="st2" d="M578.4,439.1v-9.2h21.5v9.2H578.4z M591.6,419.6c-2.6,0-4.5-0.7-5.7-2.1s-1.9-3.1-1.9-5.2s0.6-3.8,1.9-5.2
				c1.2-1.4,3.2-2.1,5.7-2.1c2.6,0,4.5,0.7,5.7,2.1s1.9,3.1,1.9,5.2s-0.6,3.8-1.9,5.2C596.1,418.9,594.2,419.6,591.6,419.6z
				 M588.3,494.4v-64.5h11.6v64.5H588.3z"/>
			<path class="st2" d="M652.1,496.6c-5.6,0-10.6-1-14.8-2.9c-4.3-1.9-7.9-4.5-10.8-7.7c-2.9-3.2-5.2-6.7-6.6-10.7
				c-1.5-3.9-2.2-8-2.2-12.1V461c0-4.1,0.8-8.2,2.3-12.1c1.5-4,3.8-7.6,6.8-10.7c3-3.2,6.6-5.7,10.9-7.6c4.3-1.9,9.1-2.8,14.6-2.8
				s10.3,0.9,14.6,2.8s7.9,4.4,10.9,7.6s5.2,6.8,6.8,10.7c1.5,4,2.3,8,2.3,12.1v2.2c0,4.1-0.7,8.1-2.2,12.1
				c-1.5,3.9-3.7,7.5-6.6,10.7c-2.9,3.2-6.5,5.7-10.8,7.7C662.7,495.6,657.7,496.6,652.1,496.6z M652.1,486.2c4.8,0,9-1.1,12.4-3.2
				s6-5,7.8-8.6s2.7-7.7,2.7-12.2c0-4.6-0.9-8.7-2.8-12.3c-1.9-3.6-4.5-6.5-7.9-8.6s-7.5-3.1-12.3-3.1c-4.7,0-8.7,1-12.2,3.1
				s-6.1,5-8,8.6s-2.8,7.7-2.8,12.3c0,4.5,0.9,8.6,2.7,12.2s4.4,6.5,7.8,8.6C643.1,485.1,647.2,486.2,652.1,486.2z"/>
			<path class="st2" d="M704,494.4v-64.5h9.2v27.6h-1.4c0-6.4,0.9-11.7,2.6-16.1c1.7-4.4,4.4-7.7,7.9-10s8-3.4,13.4-3.4h0.5
				c8.1,0,14.1,2.5,18,7.6s5.9,12.4,5.9,22v36.8h-11.6v-39.2c0-5-1.4-9-4.2-12s-6.7-4.5-11.6-4.5c-5.1,0-9.2,1.6-12.3,4.7
				s-4.7,7.3-4.7,12.6v38.5H704V494.4z"/>
			<path class="st2" d="M802.4,496.3c-8.5,0-15-1.8-19.6-5.4s-7-8.6-7.2-14.8h10.9c0.2,2.5,1.4,4.8,3.8,7.1
				c2.4,2.2,6.4,3.3,12.1,3.3c5.1,0,9.1-1,11.8-3.1s4.1-4.6,4.1-7.5c0-2.7-1-4.7-3-6.2s-5.3-2.5-9.8-3l-7-0.7
				c-6.1-0.6-11.1-2.5-15-5.5s-5.8-7.3-5.8-12.7c0-4.1,1-7.6,3.1-10.6c2.1-2.9,5-5.2,8.7-6.8c3.7-1.6,8-2.4,12.8-2.4
				c7.2,0,13.1,1.6,17.6,4.8c4.5,3.2,6.8,8,7,14.4H816c-0.1-2.6-1.3-4.8-3.6-6.6c-2.3-1.8-5.7-2.7-10.2-2.7s-7.9,0.9-10.3,2.8
				c-2.3,1.9-3.5,4.2-3.5,7c0,2.4,0.8,4.3,2.5,5.8c1.6,1.4,4.4,2.4,8.2,2.8l7,0.7c6.9,0.7,12.5,2.6,16.7,5.7s6.3,7.5,6.3,13.1
				c0,4-1.1,7.6-3.4,10.7c-2.3,3.1-5.5,5.5-9.5,7.2C812.2,495.5,807.6,496.3,802.4,496.3z"/>
			<path class="st3" d="M134.2,616.7v-88.1H146v88.1H134.2z"/>
			<path class="st3" d="M170.1,616.7v-64.5h9.2v27.6h-1.4c0-6.4,0.9-11.7,2.6-16.1c1.7-4.4,4.4-7.7,7.9-10s8-3.4,13.4-3.4h0.5
				c8.1,0,14.1,2.5,18,7.6s5.9,12.4,5.9,22v36.8h-11.6v-39.2c0-5-1.4-9-4.2-12s-6.7-4.5-11.6-4.5c-5.1,0-9.2,1.6-12.3,4.7
				c-3.1,3.1-4.7,7.3-4.7,12.6v38.5L170.1,616.7L170.1,616.7z"/>
			<path class="st3" d="M275.1,618.9c-5.6,0-10.4-1-14.4-2.9c-4.1-1.9-7.4-4.5-10.1-7.8c-2.7-3.3-4.6-6.9-6-10.8
				c-1.3-3.9-2-7.9-2-11.8v-2.2c0-4.1,0.7-8.1,2-12.1c1.3-3.9,3.3-7.5,6-10.7s6.1-5.7,10.1-7.7c4-1.9,8.7-2.9,14.1-2.9
				s10.2,1,14.5,3s7.8,4.8,10.4,8.5s4.1,8,4.4,13H293c-0.6-4-2.4-7.4-5.6-10.1c-3.1-2.7-7.4-4-12.7-4c-4.6,0-8.4,1-11.5,3.1
				s-5.4,5-6.9,8.6s-2.3,7.7-2.3,12.3c0,4.4,0.8,8.5,2.3,12.1c1.5,3.7,3.8,6.6,6.9,8.7c3.1,2.1,7,3.2,11.7,3.2
				c3.6,0,6.8-0.6,9.4-1.9c2.7-1.3,4.8-3,6.4-5.2s2.6-4.6,2.9-7.4h11.1c-0.2,5.1-1.7,9.5-4.4,13.2c-2.7,3.7-6.2,6.6-10.6,8.6
				C285.5,617.9,280.5,618.9,275.1,618.9z"/>
			<path class="st3" d="M350.3,618.9c-5.6,0-10.6-1-14.8-2.9c-4.3-1.9-7.9-4.5-10.8-7.7s-5.2-6.7-6.6-10.7c-1.5-3.9-2.2-8-2.2-12.1
				v-2.2c0-4.1,0.8-8.2,2.3-12.1c1.5-4,3.8-7.6,6.8-10.7c3-3.2,6.6-5.7,10.9-7.6c4.3-1.9,9.1-2.8,14.6-2.8s10.3,0.9,14.6,2.8
				c4.3,1.9,7.9,4.4,10.9,7.6c3,3.2,5.2,6.8,6.8,10.7c1.5,4,2.3,8,2.3,12.1v2.2c0,4.1-0.7,8.1-2.2,12.1c-1.5,3.9-3.7,7.5-6.6,10.7
				s-6.5,5.7-10.8,7.7C360.8,617.9,355.9,618.9,350.3,618.9z M350.3,608.5c4.8,0,9-1.1,12.4-3.2c3.4-2.1,6-5,7.8-8.6
				s2.7-7.7,2.7-12.2c0-4.6-0.9-8.7-2.8-12.3s-4.5-6.5-7.9-8.6s-7.5-3.1-12.3-3.1c-4.7,0-8.7,1-12.2,3.1s-6.1,5-8,8.6
				s-2.8,7.7-2.8,12.3c0,4.5,0.9,8.6,2.7,12.2s4.4,6.5,7.8,8.6C341.3,607.4,345.4,608.5,350.3,608.5z"/>
			<path class="st3" d="M402.2,616.7v-64.5h9.2v27.6H410c0-6.3,0.8-11.6,2.5-16c1.6-4.4,4.1-7.7,7.4-10.1c3.3-2.3,7.5-3.5,12.6-3.5
				h0.5c5.1,0,9.3,1.2,12.6,3.5c3.3,2.3,5.8,5.7,7.4,10.1c1.6,4.4,2.4,9.7,2.4,16H452c0-6.3,0.8-11.6,2.5-16s4.2-7.7,7.5-10.1
				c3.3-2.3,7.5-3.5,12.6-3.5h0.5c5.1,0,9.3,1.2,12.7,3.5s5.9,5.7,7.5,10.1c1.6,4.4,2.5,9.7,2.5,16v36.8h-11.6v-39.4
				c0-5.2-1.3-9.3-3.9-12.1c-2.6-2.9-6.2-4.3-10.7-4.3c-4.7,0-8.6,1.5-11.5,4.5s-4.3,7.2-4.3,12.6v38.6h-11.6v-39.4
				c0-5.2-1.3-9.3-3.9-12.1c-2.6-2.9-6.2-4.3-10.7-4.3c-4.7,0-8.6,1.5-11.5,4.5s-4.3,7.2-4.3,12.6v38.6h-11.6V616.7z"/>
			<path class="st3" d="M546.4,618.9c-5.6,0-10.5-1-14.6-2.9s-7.4-4.5-10-7.7s-4.5-6.7-5.7-10.7c-1.2-3.9-1.9-8-1.9-12.1v-2.2
				c0-4.2,0.6-8.2,1.9-12.2c1.2-3.9,3.2-7.5,5.7-10.7c2.6-3.2,5.9-5.7,9.8-7.6c4-1.9,8.7-2.8,14.1-2.8c7,0,12.8,1.5,17.3,4.5
				s7.9,6.9,10.1,11.7c2.2,4.8,3.3,9.8,3.3,15.2v5.2h-57.2V578H568l-2.7,4.7c0-4.6-0.7-8.6-2.2-11.9c-1.4-3.3-3.6-5.9-6.5-7.8
				c-2.9-1.8-6.6-2.8-11-2.8c-4.6,0-8.4,1-11.4,3.1s-5.3,4.9-6.8,8.6c-1.5,3.6-2.2,7.8-2.2,12.6c0,4.6,0.7,8.7,2.2,12.4
				s3.8,6.6,6.9,8.7c3.1,2.1,7.1,3.2,12,3.2c5.1,0,9.2-1.1,12.4-3.4c3.2-2.3,5.1-4.9,5.7-7.8h10.9c-0.9,4.4-2.7,8.2-5.3,11.5
				c-2.7,3.2-6,5.7-10,7.4C556.1,618.1,551.5,618.9,546.4,618.9z"/>
			<path class="st4" d="M124.3,661.5v-10.6h65.4v10.6H124.3z M151.1,739v-79.9h11.8V739H151.1z"/>
			<path class="st4" d="M221.8,740.7c-4.8,0-9-0.8-12.5-2.5c-3.5-1.6-6.2-4-8.1-7.2c-1.9-3.1-2.8-6.9-2.8-11.3c0-4.6,1-8.4,3.1-11.5
				s5-5.4,9-6.9c3.9-1.6,8.7-2.4,14.2-2.4h17.5v8.7h-18c-4.7,0-8.3,1.1-10.7,3.4c-2.5,2.3-3.7,5.2-3.7,8.7s1.2,6.4,3.7,8.6
				c2.5,2.2,6.1,3.3,10.7,3.3c2.7,0,5.4-0.5,7.8-1.5c2.5-1,4.6-2.7,6.2-5.1c1.6-2.4,2.6-5.7,2.7-9.8l3.1,4.6
				c-0.4,4.6-1.5,8.4-3.3,11.5s-4.3,5.5-7.5,7.1C230.2,739.9,226.3,740.7,221.8,740.7z M242.9,739v-19.3H241v-22.3
				c0-4.4-1.1-7.8-3.4-10s-5.7-3.4-10.1-3.4c-2.5,0-5.1,0-7.7,0.1c-2.7,0.1-5.2,0.2-7.6,0.2c-2.4,0.1-4.5,0.2-6.3,0.4v-10.1
				c1.8-0.2,3.6-0.3,5.6-0.4c2-0.1,4-0.2,6.1-0.2s4.1-0.1,6-0.1c6.6,0,12,0.8,16.2,2.4c4.2,1.6,7.3,4.1,9.3,7.7c2,3.5,3,8.3,3,14.4
				V739H242.9z"/>
			<path class="st4" d="M265.6,739l23.1-33.9l-0.4,2.4l-21.6-33h12.8l15.6,24.3h1.7l14.7-24.3h12l-20.4,32.1l0.4-2.2l24.1,34.5
				h-12.8l-18.1-26.2H295L277.6,739H265.6z"/>
			<path class="st4" d="M368.4,741.2c-5.6,0-10.5-1-14.6-2.9s-7.4-4.5-10-7.7s-4.5-6.7-5.7-10.7c-1.2-3.9-1.9-8-1.9-12.1v-2.2
				c0-4.2,0.6-8.2,1.9-12.2c1.2-3.9,3.2-7.5,5.7-10.7c2.6-3.2,5.9-5.7,9.8-7.6c4-1.9,8.7-2.8,14.1-2.8c7,0,12.8,1.5,17.3,4.5
				s7.9,6.9,10.1,11.7s3.3,9.8,3.3,15.2v5.2h-57.2v-8.7H390l-2.7,4.7c0-4.6-0.7-8.6-2.2-11.9s-3.6-5.9-6.5-7.8s-6.6-2.8-11-2.8
				c-4.6,0-8.4,1-11.4,3.1s-5.3,5-6.8,8.6s-2.2,7.8-2.2,12.6c0,4.6,0.7,8.7,2.2,12.4s3.8,6.6,6.9,8.7c3.1,2.1,7.1,3.2,12,3.2
				c5.1,0,9.2-1.1,12.4-3.4c3.2-2.3,5.1-4.9,5.7-7.8h10.9c-0.9,4.4-2.7,8.3-5.3,11.5c-2.7,3.2-6,5.7-10,7.4S373.4,741.2,368.4,741.2
				z"/>
			<path class="st4" d="M436,741c-8.5,0-15-1.8-19.6-5.4c-4.6-3.6-7-8.6-7.2-14.8H420c0.2,2.5,1.4,4.8,3.8,7.1
				c2.4,2.2,6.4,3.3,12.1,3.3c5.1,0,9.1-1,11.8-3.1c2.7-2.1,4.1-4.6,4.1-7.5c0-2.7-1-4.7-3-6.2s-5.3-2.5-9.8-3l-7-0.7
				c-6.1-0.6-11.1-2.5-15-5.5s-5.8-7.3-5.8-12.7c0-4.1,1-7.6,3.1-10.6c2.1-2.9,5-5.2,8.7-6.8s8-2.4,12.8-2.4
				c7.2,0,13.1,1.6,17.6,4.8s6.8,8,7,14.4h-10.9c-0.1-2.6-1.3-4.8-3.6-6.6s-5.7-2.7-10.2-2.7s-7.9,0.9-10.3,2.8
				c-2.3,1.9-3.5,4.2-3.5,7c0,2.4,0.8,4.3,2.5,5.8c1.6,1.4,4.4,2.4,8.1,2.8l7,0.7c6.9,0.7,12.5,2.6,16.7,5.7
				c4.2,3.1,6.3,7.5,6.3,13.1c0,4-1.1,7.6-3.4,10.7c-2.3,3.1-5.5,5.5-9.5,7.2C445.8,740.1,441.2,741,436,741z"/>
		</g>
	</g>
	<g class="st5">
		<path d="M149.7,159.9c-2.5,0-4.6-0.4-6.3-1.3c-1.7-0.9-3.2-2-4.3-3.4c-1.1-1.4-1.9-2.9-2.4-4.6c-0.5-1.6-0.8-3.2-0.8-4.8v-0.7
			c0-1.7,0.3-3.4,0.8-5c0.5-1.7,1.3-3.2,2.4-4.5c1.1-1.4,2.5-2.4,4.2-3.3c1.7-0.8,3.7-1.2,6.1-1.2c2.4,0,4.4,0.4,6.1,1.2
			c1.7,0.8,3.1,2,4.1,3.5c1,1.5,1.7,3.3,1.9,5.3h-2.9c-0.2-1.6-0.7-3-1.6-4.1c-0.9-1.1-1.9-1.9-3.3-2.5c-1.3-0.6-2.8-0.8-4.4-0.8
			c-1.7,0-3.3,0.3-4.6,0.9c-1.3,0.6-2.4,1.5-3.3,2.6c-0.9,1.1-1.5,2.3-2,3.8c-0.5,1.4-0.7,2.9-0.7,4.5c0,1.5,0.2,3,0.7,4.4
			c0.4,1.4,1.1,2.7,2,3.8c0.9,1.1,2,2,3.4,2.6c1.4,0.6,2.9,1,4.7,1c2.5,0,4.6-0.6,6.3-1.9c1.7-1.3,2.8-3.1,3.2-5.5h2.9
			c-0.3,1.9-0.9,3.6-2,5.1c-1,1.5-2.4,2.7-4.2,3.6C154.2,159.4,152.1,159.9,149.7,159.9z"/>
		<path d="M176.1,159.9c-1.7,0-3.2-0.3-4.5-0.9c-1.3-0.6-2.4-1.4-3.3-2.4c-0.9-1-1.6-2.1-2-3.3c-0.5-1.2-0.7-2.5-0.7-3.8V149
			c0-1.3,0.2-2.5,0.7-3.8c0.5-1.2,1.2-2.4,2.1-3.3c0.9-1,2-1.8,3.3-2.4c1.3-0.6,2.8-0.9,4.4-0.9c1.7,0,3.2,0.3,4.5,0.9
			c1.3,0.6,2.4,1.4,3.3,2.4c0.9,1,1.6,2.1,2.1,3.3c0.5,1.2,0.7,2.5,0.7,3.8v0.5c0,1.3-0.2,2.5-0.7,3.8c-0.5,1.2-1.1,2.3-2,3.3
			c-0.9,1-2,1.8-3.3,2.4C179.3,159.6,177.8,159.9,176.1,159.9z M176.1,157.3c1.7,0,3.1-0.4,4.2-1.1s2-1.7,2.6-2.9s0.9-2.6,0.9-4
			c0-1.5-0.3-2.9-0.9-4.1c-0.6-1.2-1.5-2.2-2.7-2.9c-1.2-0.7-2.5-1.1-4.1-1.1c-1.6,0-2.9,0.4-4.1,1.1c-1.2,0.7-2,1.7-2.7,2.9
			c-0.6,1.2-0.9,2.6-0.9,4.1c0,1.5,0.3,2.8,0.9,4s1.5,2.2,2.6,2.9C173.1,157,174.5,157.3,176.1,157.3z"/>
		<path d="M189.7,134.1v-2.3h5.7v2.3H189.7z M192.6,159.2v-27.5h2.8v27.5H192.6z"/>
		<path d="M211.6,159.9c-1.7,0-3.2-0.3-4.5-0.9c-1.3-0.6-2.4-1.4-3.3-2.4c-0.9-1-1.6-2.1-2-3.3c-0.5-1.2-0.7-2.5-0.7-3.8V149
			c0-1.3,0.2-2.5,0.7-3.8c0.5-1.2,1.2-2.4,2.1-3.3c0.9-1,2-1.8,3.3-2.4c1.3-0.6,2.8-0.9,4.4-0.9c1.7,0,3.2,0.3,4.5,0.9
			c1.3,0.6,2.4,1.4,3.3,2.4c0.9,1,1.6,2.1,2.1,3.3c0.5,1.2,0.7,2.5,0.7,3.8v0.5c0,1.3-0.2,2.5-0.7,3.8c-0.5,1.2-1.1,2.3-2,3.3
			c-0.9,1-2,1.8-3.3,2.4C214.8,159.6,213.3,159.9,211.6,159.9z M211.6,157.3c1.7,0,3.1-0.4,4.2-1.1s2-1.7,2.6-2.9s0.9-2.6,0.9-4
			c0-1.5-0.3-2.9-0.9-4.1c-0.6-1.2-1.5-2.2-2.7-2.9c-1.2-0.7-2.5-1.1-4.1-1.1c-1.6,0-2.9,0.4-4.1,1.1c-1.2,0.7-2,1.7-2.7,2.9
			c-0.6,1.2-0.9,2.6-0.9,4.1c0,1.5,0.3,2.8,0.9,4s1.5,2.2,2.6,2.9C208.6,157,210,157.3,211.6,157.3z"/>
		<path d="M227.9,159.2v-19.9h2.3v8.3h-0.2c0-2.9,0.6-5.1,1.9-6.5c1.3-1.4,3.3-2.1,6-2.1h0.6v2.6h-1.2c-2.2,0-3.8,0.6-4.9,1.7
			s-1.7,2.8-1.7,4.9v11H227.9z"/>
		<path d="M252.4,159.2v-27.5h2.9v27.5H252.4z M254.5,134.3v-2.6h12.9v2.6H254.5z M254.5,146.5v-2.6l12.2,0v2.6L254.5,146.5z"/>
		<path d="M277.6,159.8c-1.4,0-2.6-0.3-3.7-0.8c-1.1-0.5-1.9-1.2-2.5-2.2s-0.9-2.1-0.9-3.5c0-1.3,0.3-2.5,0.9-3.4
			c0.6-0.9,1.5-1.6,2.7-2.1s2.6-0.7,4.2-0.7h5.8v2.1h-6c-1.6,0-2.8,0.4-3.6,1.1c-0.8,0.8-1.3,1.8-1.3,3c0,1.3,0.4,2.3,1.3,3
			c0.9,0.7,2.1,1.1,3.6,1.1c0.9,0,1.8-0.2,2.7-0.5c0.9-0.3,1.6-0.9,2.1-1.7c0.6-0.8,0.9-1.9,0.9-3.4l0.8,1.2
			c-0.1,1.5-0.5,2.7-1.1,3.7c-0.6,1-1.4,1.7-2.4,2.2C280.2,159.5,279,159.8,277.6,159.8z M284.3,159.2v-6h-0.5v-7.1
			c0-1.5-0.4-2.6-1.2-3.4c-0.8-0.8-2-1.2-3.6-1.2c-0.8,0-1.5,0-2.3,0c-0.8,0-1.5,0.1-2.2,0.1c-0.7,0-1.3,0.1-1.8,0.1v-2.5
			c0.6,0,1.1-0.1,1.7-0.2c0.6,0,1.2-0.1,1.8-0.1c0.6,0,1.2,0,1.8,0c2,0,3.7,0.3,4.9,0.8s2.2,1.3,2.7,2.4c0.6,1.1,0.9,2.5,0.9,4.2
			v12.8H284.3z"/>
		<path d="M293.6,159.2v-19.9h2.3v8.4h-0.5c0-1.8,0.3-3.4,0.8-4.7c0.5-1.3,1.3-2.4,2.3-3.1c1-0.7,2.3-1.1,3.9-1.1h0.1
			c1.6,0,2.9,0.4,3.9,1.1c1,0.7,1.8,1.8,2.3,3.1c0.5,1.3,0.8,2.9,0.8,4.8h-0.9c0-1.8,0.3-3.4,0.8-4.7c0.5-1.3,1.3-2.4,2.3-3.1
			c1-0.7,2.4-1.1,3.9-1.1h0.1c1.6,0,2.9,0.4,3.9,1.1c1,0.7,1.8,1.8,2.3,3.1c0.5,1.3,0.8,2.9,0.8,4.8v11.6H320V147
			c0-1.8-0.4-3.1-1.3-4.2c-0.9-1-2.1-1.5-3.7-1.5c-1.7,0-3,0.5-3.9,1.6c-1,1.1-1.4,2.5-1.4,4.3v12h-2.8V147c0-1.8-0.4-3.1-1.3-4.2
			c-0.9-1-2.1-1.5-3.7-1.5c-1.7,0-3,0.5-3.9,1.6c-1,1.1-1.4,2.5-1.4,4.3v12H293.6z"/>
		<path d="M327.7,141.6v-2.3h6v2.3H327.7z M331.5,135.6c-0.7,0-1.2-0.2-1.5-0.5c-0.3-0.4-0.5-0.8-0.5-1.4s0.2-1,0.5-1.4
			s0.8-0.5,1.5-0.5s1.2,0.2,1.5,0.5c0.3,0.4,0.5,0.8,0.5,1.4s-0.2,1-0.5,1.4C332.7,135.5,332.2,135.6,331.5,135.6z M330.9,159.2
			v-19.9h2.8v19.9H330.9z"/>
		<path d="M338.4,134.1v-2.3h5.7v2.3H338.4z M341.3,159.2v-27.5h2.8v27.5H341.3z"/>
		<path d="M349.2,141.6v-2.3h6v2.3H349.2z M353,135.6c-0.7,0-1.2-0.2-1.5-0.5c-0.3-0.4-0.5-0.8-0.5-1.4s0.2-1,0.5-1.4
			s0.8-0.5,1.5-0.5s1.2,0.2,1.5,0.5c0.3,0.4,0.5,0.8,0.5,1.4s-0.2,1-0.5,1.4C354.2,135.5,353.7,135.6,353,135.6z M352.4,159.2v-19.9
			h2.8v19.9H352.4z"/>
		<path d="M371,159.9c-1.7,0-3.2-0.3-4.4-0.9c-1.3-0.6-2.3-1.4-3.1-2.4c-0.8-1-1.4-2.1-1.8-3.3c-0.4-1.2-0.6-2.5-0.6-3.8V149
			c0-1.3,0.2-2.5,0.6-3.8c0.4-1.2,1-2.3,1.8-3.3c0.8-1,1.8-1.8,3-2.4c1.2-0.6,2.6-0.9,4.3-0.9c2.1,0,3.8,0.5,5.2,1.4
			c1.4,0.9,2.4,2.1,3.1,3.6s1.1,3,1.1,4.6v1.5h-17.8v-2.2h15.8l-0.7,1.1c0-1.5-0.3-2.8-0.8-3.9c-0.5-1.1-1.3-2-2.3-2.6
			c-1-0.6-2.2-1-3.7-1c-1.6,0-2.8,0.4-3.9,1.1c-1,0.7-1.8,1.7-2.3,2.9c-0.5,1.2-0.8,2.6-0.8,4.1c0,1.5,0.3,2.9,0.8,4.1
			c0.5,1.2,1.3,2.2,2.4,3c1.1,0.7,2.4,1.1,4,1.1c1.7,0,3.1-0.4,4.2-1.2c1.1-0.8,1.7-1.7,2-2.8h2.6c-0.3,1.3-0.8,2.5-1.6,3.4
			c-0.8,1-1.8,1.7-3,2.2C373.9,159.6,372.5,159.9,371,159.9z"/>
		<path d="M391.8,159.8c-2.6,0-4.5-0.6-5.9-1.7c-1.4-1.1-2.1-2.6-2.1-4.5h2.6c0,1,0.5,1.8,1.3,2.6c0.8,0.8,2.2,1.2,4.1,1.2
			c1.8,0,3.1-0.4,4-1.1c0.9-0.7,1.3-1.6,1.3-2.7c0-1-0.4-1.7-1.1-2.3c-0.7-0.5-1.8-0.9-3.2-1l-2.3-0.2c-1.8-0.2-3.3-0.8-4.4-1.7
			c-1.1-0.9-1.7-2.2-1.7-3.8c0-1.2,0.3-2.2,0.9-3.1c0.6-0.9,1.4-1.6,2.5-2.1s2.4-0.7,3.9-0.7c2.1,0,3.9,0.5,5.2,1.5
			c1.3,1,2,2.4,2.1,4.3h-2.6c0-1-0.4-1.8-1.2-2.4c-0.8-0.7-1.9-1-3.4-1c-1.6,0-2.7,0.3-3.5,1c-0.8,0.7-1.1,1.5-1.1,2.5
			c0,0.8,0.3,1.5,0.9,2.1c0.6,0.5,1.5,0.9,2.7,1l2.3,0.2c2,0.2,3.6,0.8,4.9,1.7c1.3,0.9,1.9,2.3,1.9,4c0,1.2-0.3,2.2-1,3.2
			c-0.7,0.9-1.6,1.7-2.8,2.2C394.8,159.5,393.4,159.8,391.8,159.8z"/>
	</g>
</g>
</svg>
