<?xml version="1.0" encoding="utf-8"?>
<!-- Generator: Adobe Illustrator 27.3.1, SVG Export Plug-In . SVG Version: 6.00 Build 0)  -->
<svg version="1.1" id="Layer_1" xmlns="http://www.w3.org/2000/svg" xmlns:xlink="http://www.w3.org/1999/xlink" x="0px" y="0px"
	 viewBox="0 0 1600 950" style="enable-background:new 0 0 1600 950;" xml:space="preserve">
<style type="text/css">
	.st0{fill:#6833FA;}
	.st1{fill:#E6504F;}
	.st2{fill:#FFFFFF;}
	.st3{fill:#343CFF;}
	.st4{fill:#9269FF;}
	.st5{fill:#2FE78E;}
	.st6{fill:#F27B7B;}
	.st7{fill:#2B83FF;}
	.st8{fill:#C9B5FF;}
	.st9{fill:#7DF1C0;}
	.st10{fill:#FFC0BA;}
	.st11{fill:#8CBCFF;}
	.st12{fill:#DACCFF;}
	.st13{fill:#BCF3E1;}
	.st14{fill:#FFD7D4;}
	.st15{fill:#BDD8FF;}
	.st16{fill:#F5F0FF;}
	.st17{fill:#F4FFF9;}
	.st18{fill:#FFF5F5;}
	.st19{fill:#ECE5FE;}
	.st20{fill:#333333;}
	.st21{fill:#808080;}
	.st22{fill:#B2B2B2;}
	.st23{fill:#CCCCCC;}
	.st24{fill:#F2F2F2;}
	.st25{fill:#D9D9D9;}
	.st26{fill:#E0FAF0;}
	.st27{fill:#FFE8E8;}
	.st28{fill:#D9E8FF;}
	.st29{fill:#EFF1FF;}
	.st30{fill:#00C66D;}
	.st31{enable-background:new    ;}
</style>
<rect x="1199.5" y="435.6" class="st0" width="399.9" height="190.3"/>
<rect x="799.8" y="435.6" class="st1" width="399.7" height="190"/>
<rect x="799.8" y="108.1" width="799.9" height="327.6"/>
<g>
	<rect x="-0.2" y="108" class="st2" width="799.9" height="327.6"/>
</g>
<rect x="-0.2" y="435.6" class="st3" width="399.9" height="190.3"/>
<rect x="1199.5" y="626" class="st4" width="399.9" height="114.1"/>
<rect x="399.7" y="625.9" class="st5" width="400.1" height="114.1"/>
<rect x="799.8" y="625.9" class="st6" width="399.7" height="114.1"/>
<rect x="-0.1" y="626" class="st7" width="399.9" height="114.1"/>
<rect x="1199.5" y="739" class="st8" width="399.9" height="73.5"/>
<rect x="399.7" y="739.1" class="st9" width="400.1" height="73.5"/>
<rect x="799.8" y="739.1" class="st10" width="399.7" height="73.5"/>
<rect x="-0.1" y="739" class="st11" width="399.9" height="73.5"/>
<rect x="1199.5" y="807.2" class="st12" width="399.9" height="48.4"/>
<rect x="399.7" y="807.3" class="st13" width="400.1" height="48.4"/>
<rect x="799.8" y="807.3" class="st14" width="399.7" height="48.4"/>
<rect x="-0.1" y="807.2" class="st15" width="399.9" height="48.4"/>
<rect x="1199.5" y="900.7" class="st16" width="399.9" height="48.4"/>
<rect x="399.7" y="900.6" class="st17" width="400.1" height="48.4"/>
<rect x="799.8" y="900.6" class="st18" width="399.7" height="48.4"/>
<rect x="1199.5" y="854" class="st19" width="399.9" height="48.4"/>
<rect x="1008.9" y="-0.1" class="st20" width="591.1" height="108.2"/>
<rect x="654.4" y="0" class="st21" width="354.5" height="108.2"/>
<rect x="444.8" y="-0.1" class="st22" width="212.6" height="108.2"/>
<rect x="301.2" y="0" class="st23" width="144.3" height="108.2"/>
<rect x="-0.5" y="-0.1" class="st24" width="152.1" height="108.2"/>
<rect x="150.1" y="-0.1" class="st25" width="150.3" height="108.2"/>
<rect x="399.7" y="853.9" class="st26" width="400.1" height="48.4"/>
<rect x="799.8" y="853.9" class="st27" width="399.7" height="48.4"/>
<rect x="-0.1" y="853.9" class="st28" width="399.9" height="48.4"/>
<rect x="-0.1" y="900.6" class="st29" width="399.9" height="48.4"/>
<rect x="399.7" y="435.6" class="st30" width="400.1" height="190"/>
<g class="st31">
	<path d="M19,412.1v-1h10.3v1H19z M19.6,407.7v-1h10.2v1H19.6z M20.7,416l2-13.1H24l-2,13.1H20.7z M24.9,416l2-13.1h1.2l-2,13.1
		H24.9z"/>
	<path d="M32.6,416v-13.1h1.4V416H32.6z M33.6,404.1v-1.2h6.1v1.2H33.6z M33.6,409.9v-1.2l5.8,0v1.2L33.6,409.9z"/>
	<path d="M42.6,416v-13.1H44V416H42.6z M43.6,404.1v-1.2h6.1v1.2H43.6z M43.6,409.9v-1.2l5.8,0v1.2L43.6,409.9z"/>
	<path d="M52.7,416v-13.1H54V416H52.7z M53.7,404.1v-1.2h6.1v1.2H53.7z M53.7,409.9v-1.2l5.8,0v1.2L53.7,409.9z"/>
	<path d="M62.7,416v-13.1h1.4V416H62.7z M63.7,404.1v-1.2h6.1v1.2H63.7z M63.7,409.9v-1.2l5.8,0v1.2L63.7,409.9z"/>
	<path d="M72.8,416v-13.1h1.4V416H72.8z M73.8,404.1v-1.2h6.1v1.2H73.8z M73.8,409.9v-1.2l5.8,0v1.2L73.8,409.9z"/>
	<path d="M82.8,416v-13.1h1.4V416H82.8z M83.9,404.1v-1.2H90v1.2H83.9z M83.9,409.9v-1.2l5.8,0v1.2L83.9,409.9z"/>
</g>
<g class="st31">
	<path d="M19,90.7v-1h10.3v1H19z M19.6,86.3v-1h10.2v1H19.6z M20.7,94.6l2-13.1H24l-2,13.1H20.7z M24.9,94.6l2-13.1h1.2l-2,13.1
		H24.9z"/>
	<path d="M32.6,94.6V81.5h1.4v13.1H32.6z M33.6,82.7v-1.2h6.1v1.2H33.6z M33.6,88.5v-1.2l5.8,0v1.2L33.6,88.5z"/>
	<path d="M42,94.6v-2c0-0.5,0.1-1,0.2-1.3s0.4-0.7,0.8-1c0.4-0.3,0.8-0.6,1.5-0.9l2.6-1.2c0.6-0.3,1.1-0.7,1.5-1.1
		c0.4-0.5,0.6-1.1,0.6-1.8c0-0.9-0.3-1.6-0.8-2.2c-0.5-0.5-1.2-0.8-2.1-0.8c-0.9,0-1.6,0.3-2.1,0.8c-0.5,0.5-0.8,1.2-0.8,2.2h-1.3
		c0-0.8,0.2-1.5,0.5-2.1s0.8-1.1,1.4-1.5c0.6-0.4,1.4-0.5,2.3-0.5c0.9,0,1.7,0.2,2.3,0.5s1.1,0.8,1.4,1.5s0.5,1.3,0.5,2v0.3
		c0,0.9-0.3,1.7-0.8,2.3c-0.5,0.6-1.2,1.1-2.1,1.6l-2.6,1.2c-0.6,0.3-1,0.6-1.2,0.9c-0.2,0.3-0.3,0.7-0.3,1.1V94L43,93.4h7.6v1.2H42
		z"/>
	<path d="M53.7,94.6V81.5H55v13.1H53.7z M54.7,82.7v-1.2h6.1v1.2H54.7z M54.7,88.5v-1.2l5.8,0v1.2L54.7,88.5z"/>
	<path d="M63.1,94.6v-2c0-0.5,0.1-1,0.2-1.3s0.4-0.7,0.8-1c0.4-0.3,0.8-0.6,1.5-0.9l2.6-1.2c0.6-0.3,1.1-0.7,1.5-1.1
		c0.4-0.5,0.6-1.1,0.6-1.8c0-0.9-0.3-1.6-0.8-2.2c-0.5-0.5-1.2-0.8-2.1-0.8c-0.9,0-1.6,0.3-2.1,0.8c-0.5,0.5-0.8,1.2-0.8,2.2H63
		c0-0.8,0.2-1.5,0.5-2.1s0.8-1.1,1.4-1.5c0.6-0.4,1.4-0.5,2.3-0.5c0.9,0,1.7,0.2,2.3,0.5s1.1,0.8,1.4,1.5s0.5,1.3,0.5,2v0.3
		c0,0.9-0.3,1.7-0.8,2.3c-0.5,0.6-1.2,1.1-2.1,1.6L66,90.5c-0.6,0.3-1,0.6-1.2,0.9c-0.2,0.3-0.3,0.7-0.3,1.1V94l-0.4-0.6h7.6v1.2
		H63.1z"/>
	<path d="M74.7,94.6V81.5h1.4v13.1H74.7z M75.7,82.7v-1.2h6.1v1.2H75.7z M75.7,88.5v-1.2l5.8,0v1.2L75.7,88.5z"/>
	<path d="M84.2,94.6v-2c0-0.5,0.1-1,0.2-1.3s0.4-0.7,0.8-1c0.4-0.3,0.8-0.6,1.5-0.9l2.6-1.2c0.6-0.3,1.1-0.7,1.5-1.1
		c0.4-0.5,0.6-1.1,0.6-1.8c0-0.9-0.3-1.6-0.8-2.2c-0.5-0.5-1.2-0.8-2.1-0.8c-0.9,0-1.6,0.3-2.1,0.8c-0.5,0.5-0.8,1.2-0.8,2.2h-1.3
		c0-0.8,0.2-1.5,0.5-2.1s0.8-1.1,1.4-1.5c0.6-0.4,1.4-0.5,2.3-0.5c0.9,0,1.7,0.2,2.3,0.5s1.1,0.8,1.4,1.5s0.5,1.3,0.5,2v0.3
		c0,0.9-0.3,1.7-0.8,2.3c-0.5,0.6-1.2,1.1-2.1,1.6l-2.6,1.2c-0.6,0.3-1,0.6-1.2,0.9c-0.2,0.3-0.3,0.7-0.3,1.1V94l-0.4-0.6h7.6v1.2
		H84.2z"/>
</g>
<g class="st31">
	<path d="M169.8,90.7v-1H180v1H169.8z M170.4,86.3v-1h10.2v1H170.4z M171.5,94.6l2-13.1h1.2l-2,13.1H171.5z M175.7,94.6l2-13.1h1.2
		l-2,13.1H175.7z"/>
	<path d="M183.4,94.6V81.4h1.4v13.2H183.4z M184.4,94.6v-1.3h3.6c0.9,0,1.7-0.1,2.3-0.4s1.2-0.7,1.7-1.2s0.8-1.1,1-1.7
		c0.2-0.6,0.3-1.3,0.3-2.1c0-0.8-0.1-1.5-0.4-2.1s-0.6-1.2-1-1.7c-0.5-0.5-1-0.9-1.7-1.1c-0.7-0.3-1.4-0.4-2.3-0.4h-3.6v-1.3h3.4
		c1.2,0,2.2,0.2,3.1,0.5s1.6,0.8,2.2,1.5c0.6,0.6,1,1.3,1.3,2.1c0.3,0.8,0.4,1.5,0.4,2.3v0.3c0,0.8-0.1,1.5-0.4,2.3
		c-0.3,0.8-0.7,1.5-1.3,2.1c-0.6,0.6-1.3,1.1-2.1,1.5c-0.9,0.4-1.9,0.6-3.1,0.6H184.4z"/>
	<path d="M201.2,81.1c0.9,0,1.6,0.2,2.2,0.5c0.6,0.3,1.1,0.7,1.5,1.3s0.7,1.2,0.8,2c0.2,0.8,0.3,1.6,0.3,2.5v0.8
		c0,2.1-0.5,3.8-1.5,4.9c-1,1.1-2.5,1.7-4.5,1.7c-0.4,0-0.8,0-1.1,0s-0.7-0.1-1-0.1v-1.2c0.4,0.1,0.7,0.1,1.1,0.1c0.3,0,0.7,0,1.1,0
		c1.1,0,2-0.2,2.7-0.7c0.7-0.4,1.2-1.1,1.5-1.9c0.3-0.8,0.5-1.8,0.5-3v-1.3l0.4-1.1c0,0.9-0.2,1.7-0.5,2.3c-0.3,0.6-0.8,1.1-1.4,1.5
		c-0.6,0.3-1.4,0.5-2.2,0.5c-0.9,0-1.7-0.2-2.4-0.6s-1.1-0.9-1.5-1.6c-0.3-0.7-0.5-1.4-0.5-2.2c0-0.8,0.2-1.6,0.5-2.2
		c0.3-0.7,0.8-1.2,1.5-1.6C199.3,81.3,200.2,81.1,201.2,81.1z M201.2,82.3c-0.7,0-1.3,0.1-1.8,0.4c-0.5,0.3-0.8,0.7-1.1,1.2
		c-0.2,0.5-0.4,1-0.4,1.7c0,0.6,0.1,1.2,0.4,1.6c0.2,0.5,0.6,0.9,1.1,1.1c0.5,0.3,1.1,0.4,1.8,0.4c0.7,0,1.3-0.1,1.8-0.4
		c0.5-0.3,0.9-0.6,1.2-1.1c0.3-0.5,0.4-1.1,0.4-1.7c0-0.6-0.1-1.1-0.4-1.6c-0.2-0.5-0.6-0.9-1.1-1.2
		C202.5,82.5,201.9,82.3,201.2,82.3z"/>
	<path d="M209.4,94.6V81.4h1.4v13.2H209.4z M210.4,94.6v-1.3h3.6c0.9,0,1.7-0.1,2.3-0.4s1.2-0.7,1.7-1.2s0.8-1.1,1-1.7
		c0.2-0.6,0.3-1.3,0.3-2.1c0-0.8-0.1-1.5-0.4-2.1s-0.6-1.2-1-1.7c-0.5-0.5-1-0.9-1.7-1.1c-0.7-0.3-1.4-0.4-2.3-0.4h-3.6v-1.3h3.4
		c1.2,0,2.2,0.2,3.1,0.5s1.6,0.8,2.2,1.5c0.6,0.6,1,1.3,1.3,2.1c0.3,0.8,0.4,1.5,0.4,2.3v0.3c0,0.8-0.1,1.5-0.4,2.3
		c-0.3,0.8-0.7,1.5-1.3,2.1c-0.6,0.6-1.3,1.1-2.1,1.5c-0.9,0.4-1.9,0.6-3.1,0.6H210.4z"/>
	<path d="M227.2,81.1c0.9,0,1.6,0.2,2.2,0.5c0.6,0.3,1.1,0.7,1.5,1.3s0.7,1.2,0.8,2c0.2,0.8,0.3,1.6,0.3,2.5v0.8
		c0,2.1-0.5,3.8-1.5,4.9c-1,1.1-2.5,1.7-4.5,1.7c-0.4,0-0.8,0-1.1,0s-0.7-0.1-1-0.1v-1.2c0.4,0.1,0.7,0.1,1.1,0.1c0.3,0,0.7,0,1.1,0
		c1.1,0,2-0.2,2.7-0.7c0.7-0.4,1.2-1.1,1.5-1.9c0.3-0.8,0.5-1.8,0.5-3v-1.3l0.4-1.1c0,0.9-0.2,1.7-0.5,2.3c-0.3,0.6-0.8,1.1-1.4,1.5
		c-0.6,0.3-1.4,0.5-2.2,0.5c-0.9,0-1.7-0.2-2.4-0.6s-1.1-0.9-1.5-1.6c-0.3-0.7-0.5-1.4-0.5-2.2c0-0.8,0.2-1.6,0.5-2.2
		c0.3-0.7,0.8-1.2,1.5-1.6C225.4,81.3,226.2,81.1,227.2,81.1z M227.2,82.3c-0.7,0-1.3,0.1-1.8,0.4c-0.5,0.3-0.8,0.7-1.1,1.2
		c-0.2,0.5-0.4,1-0.4,1.7c0,0.6,0.1,1.2,0.4,1.6c0.2,0.5,0.6,0.9,1.1,1.1c0.5,0.3,1.1,0.4,1.8,0.4c0.7,0,1.3-0.1,1.8-0.4
		c0.5-0.3,0.9-0.6,1.2-1.1c0.3-0.5,0.4-1.1,0.4-1.7c0-0.6-0.1-1.1-0.4-1.6c-0.2-0.5-0.6-0.9-1.1-1.2
		C228.6,82.5,227.9,82.3,227.2,82.3z"/>
	<path d="M235.4,94.6V81.4h1.4v13.2H235.4z M236.4,94.6v-1.3h3.6c0.9,0,1.7-0.1,2.3-0.4s1.2-0.7,1.7-1.2s0.8-1.1,1-1.7
		c0.2-0.6,0.3-1.3,0.3-2.1c0-0.8-0.1-1.5-0.4-2.1s-0.6-1.2-1-1.7c-0.5-0.5-1-0.9-1.7-1.1c-0.7-0.3-1.4-0.4-2.3-0.4h-3.6v-1.3h3.4
		c1.2,0,2.2,0.2,3.1,0.5s1.6,0.8,2.2,1.5c0.6,0.6,1,1.3,1.3,2.1c0.3,0.8,0.4,1.5,0.4,2.3v0.3c0,0.8-0.1,1.5-0.4,2.3
		c-0.3,0.8-0.7,1.5-1.3,2.1c-0.6,0.6-1.3,1.1-2.1,1.5c-0.9,0.4-1.9,0.6-3.1,0.6H236.4z"/>
	<path d="M253.2,81.1c0.9,0,1.6,0.2,2.2,0.5c0.6,0.3,1.1,0.7,1.5,1.3s0.7,1.2,0.8,2c0.2,0.8,0.3,1.6,0.3,2.5v0.8
		c0,2.1-0.5,3.8-1.5,4.9c-1,1.1-2.5,1.7-4.5,1.7c-0.4,0-0.8,0-1.1,0s-0.7-0.1-1-0.1v-1.2c0.4,0.1,0.7,0.1,1.1,0.1c0.3,0,0.7,0,1.1,0
		c1.1,0,2-0.2,2.7-0.7c0.7-0.4,1.2-1.1,1.5-1.9c0.3-0.8,0.5-1.8,0.5-3v-1.3l0.4-1.1c0,0.9-0.2,1.7-0.5,2.3c-0.3,0.6-0.8,1.1-1.4,1.5
		c-0.6,0.3-1.4,0.5-2.2,0.5c-0.9,0-1.7-0.2-2.4-0.6s-1.1-0.9-1.5-1.6c-0.3-0.7-0.5-1.4-0.5-2.2c0-0.8,0.2-1.6,0.5-2.2
		c0.3-0.7,0.8-1.2,1.5-1.6C251.4,81.3,252.2,81.1,253.2,81.1z M253.2,82.3c-0.7,0-1.3,0.1-1.8,0.4c-0.5,0.3-0.8,0.7-1.1,1.2
		c-0.2,0.5-0.4,1-0.4,1.7c0,0.6,0.1,1.2,0.4,1.6c0.2,0.5,0.6,0.9,1.1,1.1c0.5,0.3,1.1,0.4,1.8,0.4c0.7,0,1.3-0.1,1.8-0.4
		c0.5-0.3,0.9-0.6,1.2-1.1c0.3-0.5,0.4-1.1,0.4-1.7c0-0.6-0.1-1.1-0.4-1.6c-0.2-0.5-0.6-0.9-1.1-1.2C254.6,82.5,254,82.3,253.2,82.3
		z"/>
</g>
<g class="st31">
	<path d="M318.8,90.7v-1h10.3v1H318.8z M319.5,86.3v-1h10.2v1H319.5z M320.6,94.6l2-13.1h1.2l-2,13.1H320.6z M324.8,94.6l2-13.1h1.2
		l-2,13.1H324.8z"/>
	<path d="M338,94.9c-1.2,0-2.2-0.2-3-0.6s-1.5-1-2-1.6c-0.5-0.7-0.9-1.4-1.1-2.2c-0.2-0.8-0.4-1.5-0.4-2.3v-0.3
		c0-0.8,0.1-1.6,0.4-2.4c0.2-0.8,0.6-1.5,1.1-2.2c0.5-0.6,1.2-1.2,2-1.6c0.8-0.4,1.8-0.6,2.9-0.6c1.1,0,2.1,0.2,2.9,0.6
		c0.8,0.4,1.5,0.9,2,1.7c0.5,0.7,0.8,1.6,0.9,2.5h-1.4c-0.1-0.8-0.3-1.4-0.8-1.9c-0.4-0.5-0.9-0.9-1.6-1.2c-0.6-0.3-1.3-0.4-2.1-0.4
		c-0.8,0-1.6,0.1-2.2,0.4c-0.6,0.3-1.2,0.7-1.6,1.2c-0.4,0.5-0.7,1.1-1,1.8c-0.2,0.7-0.3,1.4-0.3,2.2c0,0.7,0.1,1.4,0.3,2.1
		c0.2,0.7,0.5,1.3,1,1.8c0.4,0.5,1,1,1.6,1.3c0.6,0.3,1.4,0.5,2.3,0.5c1.2,0,2.2-0.3,3-0.9s1.3-1.5,1.5-2.6h1.4
		c-0.1,0.9-0.4,1.7-0.9,2.4c-0.5,0.7-1.2,1.3-2,1.7S339.2,94.9,338,94.9z"/>
	<path d="M352.3,94.9c-1.2,0-2.2-0.2-3-0.6s-1.5-1-2-1.6c-0.5-0.7-0.9-1.4-1.1-2.2c-0.2-0.8-0.4-1.5-0.4-2.3v-0.3
		c0-0.8,0.1-1.6,0.4-2.4c0.2-0.8,0.6-1.5,1.1-2.2c0.5-0.6,1.2-1.2,2-1.6c0.8-0.4,1.8-0.6,2.9-0.6c1.1,0,2.1,0.2,2.9,0.6
		c0.8,0.4,1.5,0.9,2,1.7c0.5,0.7,0.8,1.6,0.9,2.5h-1.4c-0.1-0.8-0.3-1.4-0.8-1.9c-0.4-0.5-0.9-0.9-1.6-1.2c-0.6-0.3-1.3-0.4-2.1-0.4
		c-0.8,0-1.6,0.1-2.2,0.4c-0.6,0.3-1.2,0.7-1.6,1.2c-0.4,0.5-0.7,1.1-1,1.8c-0.2,0.7-0.3,1.4-0.3,2.2c0,0.7,0.1,1.4,0.3,2.1
		c0.2,0.7,0.5,1.3,1,1.8c0.4,0.5,1,1,1.6,1.3c0.6,0.3,1.4,0.5,2.3,0.5c1.2,0,2.2-0.3,3-0.9s1.3-1.5,1.5-2.6h1.4
		c-0.1,0.9-0.4,1.7-0.9,2.4c-0.5,0.7-1.2,1.3-2,1.7S353.4,94.9,352.3,94.9z"/>
	<path d="M366.5,94.9c-1.2,0-2.2-0.2-3-0.6s-1.5-1-2-1.6c-0.5-0.7-0.9-1.4-1.1-2.2c-0.2-0.8-0.4-1.5-0.4-2.3v-0.3
		c0-0.8,0.1-1.6,0.4-2.4c0.2-0.8,0.6-1.5,1.1-2.2c0.5-0.6,1.2-1.2,2-1.6c0.8-0.4,1.8-0.6,2.9-0.6c1.1,0,2.1,0.2,2.9,0.6
		c0.8,0.4,1.5,0.9,2,1.7c0.5,0.7,0.8,1.6,0.9,2.5h-1.4c-0.1-0.8-0.3-1.4-0.8-1.9c-0.4-0.5-0.9-0.9-1.6-1.2c-0.6-0.3-1.3-0.4-2.1-0.4
		c-0.8,0-1.6,0.1-2.2,0.4c-0.6,0.3-1.2,0.7-1.6,1.2c-0.4,0.5-0.7,1.1-1,1.8c-0.2,0.7-0.3,1.4-0.3,2.2c0,0.7,0.1,1.4,0.3,2.1
		c0.2,0.7,0.5,1.3,1,1.8c0.4,0.5,1,1,1.6,1.3c0.6,0.3,1.4,0.5,2.3,0.5c1.2,0,2.2-0.3,3-0.9s1.3-1.5,1.5-2.6h1.4
		c-0.1,0.9-0.4,1.7-0.9,2.4c-0.5,0.7-1.2,1.3-2,1.7S367.7,94.9,366.5,94.9z"/>
	<path d="M380.8,94.9c-1.2,0-2.2-0.2-3-0.6s-1.5-1-2-1.6c-0.5-0.7-0.9-1.4-1.1-2.2c-0.2-0.8-0.4-1.5-0.4-2.3v-0.3
		c0-0.8,0.1-1.6,0.4-2.4c0.2-0.8,0.6-1.5,1.1-2.2c0.5-0.6,1.2-1.2,2-1.6c0.8-0.4,1.8-0.6,2.9-0.6c1.1,0,2.1,0.2,2.9,0.6
		c0.8,0.4,1.5,0.9,2,1.7c0.5,0.7,0.8,1.6,0.9,2.5h-1.4c-0.1-0.8-0.3-1.4-0.8-1.9c-0.4-0.5-0.9-0.9-1.6-1.2c-0.6-0.3-1.3-0.4-2.1-0.4
		c-0.8,0-1.6,0.1-2.2,0.4c-0.6,0.3-1.2,0.7-1.6,1.2c-0.4,0.5-0.7,1.1-1,1.8c-0.2,0.7-0.3,1.4-0.3,2.2c0,0.7,0.1,1.4,0.3,2.1
		c0.2,0.7,0.5,1.3,1,1.8c0.4,0.5,1,1,1.6,1.3c0.6,0.3,1.4,0.5,2.3,0.5c1.2,0,2.2-0.3,3-0.9s1.3-1.5,1.5-2.6h1.4
		c-0.1,0.9-0.4,1.7-0.9,2.4c-0.5,0.7-1.2,1.3-2,1.7S382,94.9,380.8,94.9z"/>
	<path d="M395.1,94.9c-1.2,0-2.2-0.2-3-0.6s-1.5-1-2-1.6c-0.5-0.7-0.9-1.4-1.1-2.2c-0.2-0.8-0.4-1.5-0.4-2.3v-0.3
		c0-0.8,0.1-1.6,0.4-2.4c0.2-0.8,0.6-1.5,1.1-2.2c0.5-0.6,1.2-1.2,2-1.6c0.8-0.4,1.8-0.6,2.9-0.6c1.1,0,2.1,0.2,2.9,0.6
		c0.8,0.4,1.5,0.9,2,1.7c0.5,0.7,0.8,1.6,0.9,2.5h-1.4c-0.1-0.8-0.3-1.4-0.8-1.9c-0.4-0.5-0.9-0.9-1.6-1.2c-0.6-0.3-1.3-0.4-2.1-0.4
		c-0.8,0-1.6,0.1-2.2,0.4c-0.6,0.3-1.2,0.7-1.6,1.2c-0.4,0.5-0.7,1.1-1,1.8c-0.2,0.7-0.3,1.4-0.3,2.2c0,0.7,0.1,1.4,0.3,2.1
		c0.2,0.7,0.5,1.3,1,1.8c0.4,0.5,1,1,1.6,1.3c0.6,0.3,1.4,0.5,2.3,0.5c1.2,0,2.2-0.3,3-0.9s1.3-1.5,1.5-2.6h1.4
		c-0.1,0.9-0.4,1.7-0.9,2.4c-0.5,0.7-1.2,1.3-2,1.7S396.2,94.9,395.1,94.9z"/>
	<path d="M409.3,94.9c-1.2,0-2.2-0.2-3-0.6s-1.5-1-2-1.6c-0.5-0.7-0.9-1.4-1.1-2.2c-0.2-0.8-0.4-1.5-0.4-2.3v-0.3
		c0-0.8,0.1-1.6,0.4-2.4c0.2-0.8,0.6-1.5,1.1-2.2c0.5-0.6,1.2-1.2,2-1.6c0.8-0.4,1.8-0.6,2.9-0.6c1.1,0,2.1,0.2,2.9,0.6
		c0.8,0.4,1.5,0.9,2,1.7c0.5,0.7,0.8,1.6,0.9,2.5h-1.4c-0.1-0.8-0.3-1.4-0.8-1.9c-0.4-0.5-0.9-0.9-1.6-1.2c-0.6-0.3-1.3-0.4-2.1-0.4
		c-0.8,0-1.6,0.1-2.2,0.4c-0.6,0.3-1.2,0.7-1.6,1.2c-0.4,0.5-0.7,1.1-1,1.8c-0.2,0.7-0.3,1.4-0.3,2.2c0,0.7,0.1,1.4,0.3,2.1
		c0.2,0.7,0.5,1.3,1,1.8c0.4,0.5,1,1,1.6,1.3c0.6,0.3,1.4,0.5,2.3,0.5c1.2,0,2.2-0.3,3-0.9s1.3-1.5,1.5-2.6h1.4
		c-0.1,0.9-0.4,1.7-0.9,2.4c-0.5,0.7-1.2,1.3-2,1.7S410.5,94.9,409.3,94.9z"/>
</g>
<g class="st31">
	<path d="M462.5,90.7v-1h10.3v1H462.5z M463.1,86.3v-1h10.2v1H463.1z M464.2,94.6l2-13.1h1.2l-2,13.1H464.2z M468.4,94.6l2-13.1h1.2
		l-2,13.1H468.4z"/>
	<path d="M476.1,94.6V81.4h1.4v13.2H476.1z M477.1,88.3v-0.9h3.4c0.8,0,1.4-0.2,1.8-0.7c0.4-0.4,0.6-1,0.6-1.7
		c0-0.7-0.2-1.3-0.6-1.7c-0.4-0.4-1-0.7-1.8-0.7h-3.4v-1.2h3.1c1.4,0,2.4,0.3,3,0.9s1,1.5,1,2.5v0.2c0,0.8-0.2,1.4-0.5,1.8
		c-0.3,0.5-0.8,0.8-1.4,1s-1.3,0.3-2.1,0.3H477.1z M477.1,94.6v-1.2h3.8c0.8,0,1.4-0.2,1.8-0.7c0.4-0.4,0.7-1,0.7-1.8
		c0-0.7-0.2-1.3-0.6-1.8s-1-0.7-1.8-0.7h-3.8v-0.9h3.6c0.8,0,1.5,0.1,2.1,0.3c0.6,0.2,1.1,0.6,1.4,1.1s0.5,1.1,0.5,1.9v0.2
		c0,0.7-0.1,1.3-0.4,1.9c-0.3,0.5-0.7,0.9-1.3,1.2s-1.4,0.4-2.3,0.4H477.1z"/>
	<path d="M487.6,94.6v-2c0-0.5,0.1-1,0.2-1.3s0.4-0.7,0.8-1c0.4-0.3,0.8-0.6,1.5-0.9l2.6-1.2c0.6-0.3,1.1-0.7,1.5-1.1
		c0.4-0.5,0.6-1.1,0.6-1.8c0-0.9-0.3-1.6-0.8-2.2c-0.5-0.5-1.2-0.8-2.1-0.8c-0.9,0-1.6,0.3-2.1,0.8c-0.5,0.5-0.8,1.2-0.8,2.2h-1.3
		c0-0.8,0.2-1.5,0.5-2.1s0.8-1.1,1.4-1.5c0.6-0.4,1.4-0.5,2.3-0.5c0.9,0,1.7,0.2,2.3,0.5s1.1,0.8,1.4,1.5s0.5,1.3,0.5,2v0.3
		c0,0.9-0.3,1.7-0.8,2.3c-0.5,0.6-1.2,1.1-2.1,1.6l-2.6,1.2c-0.6,0.3-1,0.6-1.2,0.9c-0.2,0.3-0.3,0.7-0.3,1.1V94l-0.4-0.6h7.6v1.2
		H487.6z"/>
	<path d="M499.2,94.6V81.4h1.4v13.2H499.2z M500.2,88.3v-0.9h3.4c0.8,0,1.4-0.2,1.8-0.7c0.4-0.4,0.6-1,0.6-1.7
		c0-0.7-0.2-1.3-0.6-1.7c-0.4-0.4-1-0.7-1.8-0.7h-3.4v-1.2h3.1c1.4,0,2.4,0.3,3,0.9s1,1.5,1,2.5v0.2c0,0.8-0.2,1.4-0.5,1.8
		c-0.3,0.5-0.8,0.8-1.4,1s-1.3,0.3-2.1,0.3H500.2z M500.2,94.6v-1.2h3.8c0.8,0,1.4-0.2,1.8-0.7c0.4-0.4,0.7-1,0.7-1.8
		c0-0.7-0.2-1.3-0.6-1.8s-1-0.7-1.8-0.7h-3.8v-0.9h3.6c0.8,0,1.5,0.1,2.1,0.3c0.6,0.2,1.1,0.6,1.4,1.1s0.5,1.1,0.5,1.9v0.2
		c0,0.7-0.1,1.3-0.4,1.9c-0.3,0.5-0.7,0.9-1.3,1.2s-1.4,0.4-2.3,0.4H500.2z"/>
	<path d="M510.7,94.6v-2c0-0.5,0.1-1,0.2-1.3s0.4-0.7,0.8-1c0.4-0.3,0.8-0.6,1.5-0.9l2.6-1.2c0.6-0.3,1.1-0.7,1.5-1.1
		c0.4-0.5,0.6-1.1,0.6-1.8c0-0.9-0.3-1.6-0.8-2.2c-0.5-0.5-1.2-0.8-2.1-0.8c-0.9,0-1.6,0.3-2.1,0.8c-0.5,0.5-0.8,1.2-0.8,2.2h-1.3
		c0-0.8,0.2-1.5,0.5-2.1s0.8-1.1,1.4-1.5c0.6-0.4,1.4-0.5,2.3-0.5c0.9,0,1.7,0.2,2.3,0.5s1.1,0.8,1.4,1.5s0.5,1.3,0.5,2v0.3
		c0,0.9-0.3,1.7-0.8,2.3c-0.5,0.6-1.2,1.1-2.1,1.6l-2.6,1.2c-0.6,0.3-1,0.6-1.2,0.9c-0.2,0.3-0.3,0.7-0.3,1.1V94l-0.4-0.6h7.6v1.2
		H510.7z"/>
	<path d="M522.3,94.6V81.4h1.4v13.2H522.3z M523.3,88.3v-0.9h3.4c0.8,0,1.4-0.2,1.8-0.7c0.4-0.4,0.6-1,0.6-1.7
		c0-0.7-0.2-1.3-0.6-1.7c-0.4-0.4-1-0.7-1.8-0.7h-3.4v-1.2h3.1c1.4,0,2.4,0.3,3,0.9s1,1.5,1,2.5v0.2c0,0.8-0.2,1.4-0.5,1.8
		c-0.3,0.5-0.8,0.8-1.4,1s-1.3,0.3-2.1,0.3H523.3z M523.3,94.6v-1.2h3.8c0.8,0,1.4-0.2,1.8-0.7c0.4-0.4,0.7-1,0.7-1.8
		c0-0.7-0.2-1.3-0.6-1.8s-1-0.7-1.8-0.7h-3.8v-0.9h3.6c0.8,0,1.5,0.1,2.1,0.3c0.6,0.2,1.1,0.6,1.4,1.1s0.5,1.1,0.5,1.9v0.2
		c0,0.7-0.1,1.3-0.4,1.9c-0.3,0.5-0.7,0.9-1.3,1.2s-1.4,0.4-2.3,0.4H523.3z"/>
	<path d="M533.8,94.6v-2c0-0.5,0.1-1,0.2-1.3s0.4-0.7,0.8-1c0.4-0.3,0.8-0.6,1.5-0.9l2.6-1.2c0.6-0.3,1.1-0.7,1.5-1.1
		c0.4-0.5,0.6-1.1,0.6-1.8c0-0.9-0.3-1.6-0.8-2.2c-0.5-0.5-1.2-0.8-2.1-0.8c-0.9,0-1.6,0.3-2.1,0.8c-0.5,0.5-0.8,1.2-0.8,2.2h-1.3
		c0-0.8,0.2-1.5,0.5-2.1s0.8-1.1,1.4-1.5c0.6-0.4,1.4-0.5,2.3-0.5c0.9,0,1.7,0.2,2.3,0.5s1.1,0.8,1.4,1.5s0.5,1.3,0.5,2v0.3
		c0,0.9-0.3,1.7-0.8,2.3c-0.5,0.6-1.2,1.1-2.1,1.6l-2.6,1.2c-0.6,0.3-1,0.6-1.2,0.9c-0.2,0.3-0.3,0.7-0.3,1.1V94l-0.4-0.6h7.6v1.2
		H533.8z"/>
</g>
<g class="st31">
	<path d="M676.2,90.7v-1h10.3v1H676.2z M676.8,86.3v-1H687v1H676.8z M677.9,94.6l2-13.1h1.2l-2,13.1H677.9z M682.1,94.6l2-13.1h1.2
		l-2,13.1H682.1z"/>
	<path d="M693.4,94.9c-0.9,0-1.8-0.2-2.5-0.5c-0.7-0.3-1.3-0.8-1.6-1.4c-0.4-0.6-0.6-1.3-0.6-2c0-0.6,0.1-1.1,0.4-1.5
		c0.2-0.4,0.5-0.8,0.9-1.1c0.4-0.3,0.8-0.5,1.3-0.7v-0.2c-0.4-0.1-0.7-0.3-1-0.6c-0.3-0.3-0.6-0.6-0.8-0.9c-0.2-0.4-0.3-0.8-0.3-1.3
		c0-0.7,0.2-1.3,0.6-1.8s0.9-0.9,1.5-1.2c0.6-0.3,1.4-0.4,2.1-0.4c0.8,0,1.5,0.1,2.2,0.4c0.6,0.3,1.1,0.7,1.5,1.2
		c0.4,0.5,0.6,1.1,0.6,1.8c0,0.5-0.1,0.9-0.3,1.3c-0.2,0.4-0.4,0.7-0.8,0.9c-0.3,0.3-0.7,0.5-1,0.6v0.2c0.5,0.1,0.9,0.4,1.3,0.7
		c0.4,0.3,0.7,0.7,0.9,1.1c0.2,0.4,0.3,0.9,0.3,1.5c0,0.8-0.2,1.4-0.6,2c-0.4,0.6-0.9,1-1.6,1.4C695.1,94.7,694.3,94.9,693.4,94.9z
		 M693.4,93.7c0.7,0,1.3-0.1,1.8-0.4s0.9-0.6,1.2-1s0.4-0.9,0.4-1.5s-0.1-1-0.4-1.5s-0.6-0.7-1.1-1c-0.5-0.2-1.1-0.4-1.8-0.4
		c-0.7,0-1.3,0.1-1.8,0.4c-0.5,0.2-0.9,0.6-1.1,1s-0.4,0.9-0.4,1.5s0.1,1,0.4,1.5s0.6,0.8,1.1,1S692.7,93.7,693.4,93.7z M693.4,87
		c0.9,0,1.6-0.2,2.1-0.6c0.5-0.4,0.8-1,0.8-1.8c0-0.8-0.3-1.4-0.8-1.8c-0.5-0.4-1.2-0.6-2.1-0.6c-0.9,0-1.6,0.2-2.1,0.6
		c-0.5,0.4-0.8,1-0.8,1.8c0,0.8,0.3,1.4,0.8,1.8C691.8,86.8,692.5,87,693.4,87z"/>
	<path d="M705.6,94.9c-0.9,0-1.7-0.2-2.4-0.5c-0.7-0.3-1.2-0.8-1.6-1.4s-0.7-1.3-0.9-2c-0.2-0.8-0.3-1.6-0.3-2.5v-0.8
		c0-1.3,0.2-2.4,0.6-3.4s1-1.7,1.7-2.3s1.7-0.8,2.9-0.8c1.2,0,2.1,0.3,2.9,0.8s1.3,1.3,1.7,2.3c0.4,1,0.6,2.1,0.6,3.4v0.8
		c0,0.9-0.1,1.8-0.3,2.5c-0.2,0.8-0.5,1.5-0.9,2s-1,1-1.6,1.4S706.5,94.9,705.6,94.9z M705.6,93.6c1.3,0,2.3-0.5,2.9-1.4
		s0.9-2.3,0.9-4.3c0-2-0.3-3.5-1-4.4c-0.6-0.9-1.6-1.3-2.9-1.3c-1.3,0-2.2,0.4-2.9,1.3c-0.6,0.9-1,2.3-1,4.3c0,1.9,0.3,3.4,0.9,4.3
		C703.4,93.2,704.3,93.6,705.6,93.6z"/>
	<path d="M717.9,94.9c-0.9,0-1.8-0.2-2.5-0.5c-0.7-0.3-1.3-0.8-1.6-1.4c-0.4-0.6-0.6-1.3-0.6-2c0-0.6,0.1-1.1,0.4-1.5
		c0.2-0.4,0.5-0.8,0.9-1.1c0.4-0.3,0.8-0.5,1.3-0.7v-0.2c-0.4-0.1-0.7-0.3-1-0.6c-0.3-0.3-0.6-0.6-0.8-0.9c-0.2-0.4-0.3-0.8-0.3-1.3
		c0-0.7,0.2-1.3,0.6-1.8s0.9-0.9,1.5-1.2c0.6-0.3,1.4-0.4,2.1-0.4c0.8,0,1.5,0.1,2.2,0.4c0.6,0.3,1.1,0.7,1.5,1.2
		c0.4,0.5,0.6,1.1,0.6,1.8c0,0.5-0.1,0.9-0.3,1.3c-0.2,0.4-0.4,0.7-0.8,0.9c-0.3,0.3-0.7,0.5-1,0.6v0.2c0.5,0.1,0.9,0.4,1.3,0.7
		c0.4,0.3,0.7,0.7,0.9,1.1c0.2,0.4,0.3,0.9,0.3,1.5c0,0.8-0.2,1.4-0.6,2c-0.4,0.6-0.9,1-1.6,1.4C719.6,94.7,718.8,94.9,717.9,94.9z
		 M717.9,93.7c0.7,0,1.3-0.1,1.8-0.4s0.9-0.6,1.2-1s0.4-0.9,0.4-1.5s-0.1-1-0.4-1.5s-0.6-0.7-1.1-1c-0.5-0.2-1.1-0.4-1.8-0.4
		c-0.7,0-1.3,0.1-1.8,0.4c-0.5,0.2-0.9,0.6-1.1,1s-0.4,0.9-0.4,1.5s0.1,1,0.4,1.5s0.6,0.8,1.1,1S717.1,93.7,717.9,93.7z M717.9,87
		c0.9,0,1.6-0.2,2.1-0.6c0.5-0.4,0.8-1,0.8-1.8c0-0.8-0.3-1.4-0.8-1.8c-0.5-0.4-1.2-0.6-2.1-0.6c-0.9,0-1.6,0.2-2.1,0.6
		c-0.5,0.4-0.8,1-0.8,1.8c0,0.8,0.3,1.4,0.8,1.8C716.3,86.8,717,87,717.9,87z"/>
	<path d="M730.1,94.9c-0.9,0-1.7-0.2-2.4-0.5c-0.7-0.3-1.2-0.8-1.6-1.4s-0.7-1.3-0.9-2c-0.2-0.8-0.3-1.6-0.3-2.5v-0.8
		c0-1.3,0.2-2.4,0.6-3.4s1-1.7,1.7-2.3s1.7-0.8,2.9-0.8c1.2,0,2.1,0.3,2.9,0.8s1.3,1.3,1.7,2.3c0.4,1,0.6,2.1,0.6,3.4v0.8
		c0,0.9-0.1,1.8-0.3,2.5c-0.2,0.8-0.5,1.5-0.9,2s-1,1-1.6,1.4S731,94.9,730.1,94.9z M730.1,93.6c1.3,0,2.3-0.5,2.9-1.4
		s0.9-2.3,0.9-4.3c0-2-0.3-3.5-1-4.4c-0.6-0.9-1.6-1.3-2.9-1.3c-1.3,0-2.2,0.4-2.9,1.3c-0.6,0.9-1,2.3-1,4.3c0,1.9,0.3,3.4,0.9,4.3
		C727.8,93.2,728.8,93.6,730.1,93.6z"/>
	<path d="M742.3,94.9c-0.9,0-1.8-0.2-2.5-0.5c-0.7-0.3-1.3-0.8-1.6-1.4c-0.4-0.6-0.6-1.3-0.6-2c0-0.6,0.1-1.1,0.4-1.5
		c0.2-0.4,0.5-0.8,0.9-1.1c0.4-0.3,0.8-0.5,1.3-0.7v-0.2c-0.4-0.1-0.7-0.3-1-0.6c-0.3-0.3-0.6-0.6-0.8-0.9c-0.2-0.4-0.3-0.8-0.3-1.3
		c0-0.7,0.2-1.3,0.6-1.8s0.9-0.9,1.5-1.2c0.6-0.3,1.4-0.4,2.1-0.4c0.8,0,1.5,0.1,2.2,0.4c0.6,0.3,1.1,0.7,1.5,1.2
		c0.4,0.5,0.6,1.1,0.6,1.8c0,0.5-0.1,0.9-0.3,1.3c-0.2,0.4-0.4,0.7-0.8,0.9c-0.3,0.3-0.7,0.5-1,0.6v0.2c0.5,0.1,0.9,0.4,1.3,0.7
		c0.4,0.3,0.7,0.7,0.9,1.1c0.2,0.4,0.3,0.9,0.3,1.5c0,0.8-0.2,1.4-0.6,2c-0.4,0.6-0.9,1-1.6,1.4C744.1,94.7,743.3,94.9,742.3,94.9z
		 M742.3,93.7c0.7,0,1.3-0.1,1.8-0.4s0.9-0.6,1.2-1s0.4-0.9,0.4-1.5s-0.1-1-0.4-1.5s-0.6-0.7-1.1-1c-0.5-0.2-1.1-0.4-1.8-0.4
		c-0.7,0-1.3,0.1-1.8,0.4c-0.5,0.2-0.9,0.6-1.1,1s-0.4,0.9-0.4,1.5s0.1,1,0.4,1.5s0.6,0.8,1.1,1S741.6,93.7,742.3,93.7z M742.3,87
		c0.9,0,1.6-0.2,2.1-0.6c0.5-0.4,0.8-1,0.8-1.8c0-0.8-0.3-1.4-0.8-1.8c-0.5-0.4-1.2-0.6-2.1-0.6c-0.9,0-1.6,0.2-2.1,0.6
		c-0.5,0.4-0.8,1-0.8,1.8c0,0.8,0.3,1.4,0.8,1.8C740.8,86.8,741.5,87,742.3,87z"/>
	<path d="M754.6,94.9c-0.9,0-1.7-0.2-2.4-0.5c-0.7-0.3-1.2-0.8-1.6-1.4s-0.7-1.3-0.9-2c-0.2-0.8-0.3-1.6-0.3-2.5v-0.8
		c0-1.3,0.2-2.4,0.6-3.4s1-1.7,1.7-2.3s1.7-0.8,2.9-0.8c1.2,0,2.1,0.3,2.9,0.8s1.3,1.3,1.7,2.3c0.4,1,0.6,2.1,0.6,3.4v0.8
		c0,0.9-0.1,1.8-0.3,2.5c-0.2,0.8-0.5,1.5-0.9,2s-1,1-1.6,1.4S755.5,94.9,754.6,94.9z M754.6,93.6c1.3,0,2.3-0.5,2.9-1.4
		s0.9-2.3,0.9-4.3c0-2-0.3-3.5-1-4.4c-0.6-0.9-1.6-1.3-2.9-1.3c-1.3,0-2.2,0.4-2.9,1.3c-0.6,0.9-1,2.3-1,4.3c0,1.9,0.3,3.4,0.9,4.3
		C752.3,93.2,753.3,93.6,754.6,93.6z"/>
</g>
<g class="st31">
	<path class="st2" d="M1026.3,90.7v-1h10.3v1H1026.3z M1027,86.3v-1h10.2v1H1027z M1028,94.6l2-13.1h1.2l-2,13.1H1028z M1032.2,94.6
		l2-13.1h1.2l-2,13.1H1032.2z"/>
	<path class="st2" d="M1043.2,94.9c-1,0-1.8-0.2-2.4-0.6c-0.7-0.4-1.2-0.9-1.5-1.5c-0.3-0.6-0.5-1.3-0.5-2.1h1.3
		c0,0.9,0.3,1.6,0.8,2.2s1.3,0.8,2.3,0.8c0.6,0,1.2-0.1,1.7-0.4c0.5-0.2,0.8-0.6,1.1-1c0.3-0.4,0.4-1,0.4-1.5c0-0.9-0.3-1.6-0.8-2.2
		s-1.3-0.8-2.3-0.8c-0.4,0-0.7,0-1,0.1s-0.5,0.2-0.7,0.3l-0.7-1.3l5.2-4.1l-0.1-0.3h-6.6v-1.2h7.8v1.9l-4.6,3.6l-0.9,0
		c0.2-0.1,0.5-0.2,0.7-0.2c0.3-0.1,0.6-0.1,1-0.1c0.9,0,1.7,0.2,2.4,0.5c0.7,0.4,1.2,0.8,1.5,1.4c0.3,0.6,0.5,1.3,0.5,2v0.3
		c0,0.7-0.2,1.3-0.5,2c-0.3,0.6-0.9,1.1-1.5,1.5C1045,94.7,1044.2,94.9,1043.2,94.9z"/>
	<path class="st2" d="M1054.1,94.9c-1,0-1.8-0.2-2.4-0.6c-0.7-0.4-1.2-0.9-1.5-1.5c-0.3-0.6-0.5-1.3-0.5-2.1h1.3
		c0,0.9,0.3,1.6,0.8,2.2s1.3,0.8,2.3,0.8c0.6,0,1.2-0.1,1.7-0.4c0.5-0.2,0.8-0.6,1.1-1c0.3-0.4,0.4-1,0.4-1.5c0-0.9-0.3-1.6-0.8-2.2
		s-1.3-0.8-2.3-0.8c-0.4,0-0.7,0-1,0.1s-0.5,0.2-0.7,0.3l-0.7-1.3l5.2-4.1l-0.1-0.3h-6.6v-1.2h7.8v1.9l-4.6,3.6l-0.9,0
		c0.2-0.1,0.5-0.2,0.7-0.2c0.3-0.1,0.6-0.1,1-0.1c0.9,0,1.7,0.2,2.4,0.5c0.7,0.4,1.2,0.8,1.5,1.4c0.3,0.6,0.5,1.3,0.5,2v0.3
		c0,0.7-0.2,1.3-0.5,2c-0.3,0.6-0.9,1.1-1.5,1.5C1055.9,94.7,1055.1,94.9,1054.1,94.9z"/>
	<path class="st2" d="M1065.1,94.9c-1,0-1.8-0.2-2.4-0.6c-0.7-0.4-1.2-0.9-1.5-1.5c-0.3-0.6-0.5-1.3-0.5-2.1h1.3
		c0,0.9,0.3,1.6,0.8,2.2s1.3,0.8,2.3,0.8c0.6,0,1.2-0.1,1.7-0.4c0.5-0.2,0.8-0.6,1.1-1c0.3-0.4,0.4-1,0.4-1.5c0-0.9-0.3-1.6-0.8-2.2
		c-0.6-0.6-1.3-0.8-2.3-0.8c-0.4,0-0.7,0-1,0.1s-0.5,0.2-0.7,0.3l-0.7-1.3l5.2-4.1l-0.1-0.3h-6.6v-1.2h7.8v1.9l-4.6,3.6l-0.9,0
		c0.2-0.1,0.5-0.2,0.7-0.2c0.3-0.1,0.6-0.1,1-0.1c0.9,0,1.7,0.2,2.4,0.5c0.7,0.4,1.2,0.8,1.5,1.4c0.3,0.6,0.5,1.3,0.5,2v0.3
		c0,0.7-0.2,1.3-0.5,2c-0.3,0.6-0.9,1.1-1.5,1.5C1066.8,94.7,1066,94.9,1065.1,94.9z"/>
	<path class="st2" d="M1076,94.9c-1,0-1.8-0.2-2.4-0.6c-0.7-0.4-1.2-0.9-1.5-1.5s-0.5-1.3-0.5-2.1h1.3c0,0.9,0.3,1.6,0.8,2.2
		c0.6,0.5,1.3,0.8,2.3,0.8c0.6,0,1.2-0.1,1.7-0.4c0.5-0.2,0.8-0.6,1.1-1c0.3-0.4,0.4-1,0.4-1.5c0-0.9-0.3-1.6-0.8-2.2
		c-0.6-0.6-1.3-0.8-2.3-0.8c-0.4,0-0.7,0-1,0.1s-0.5,0.2-0.7,0.3l-0.7-1.3l5.2-4.1l-0.1-0.3h-6.6v-1.2h7.8v1.9l-4.6,3.6l-0.9,0
		c0.2-0.1,0.5-0.2,0.7-0.2c0.3-0.1,0.6-0.1,1-0.1c0.9,0,1.7,0.2,2.4,0.5c0.7,0.4,1.2,0.8,1.5,1.4s0.5,1.3,0.5,2v0.3
		c0,0.7-0.2,1.3-0.5,2s-0.8,1.1-1.5,1.5C1077.8,94.7,1077,94.9,1076,94.9z"/>
	<path class="st2" d="M1086.9,94.9c-1,0-1.8-0.2-2.4-0.6c-0.7-0.4-1.2-0.9-1.5-1.5s-0.5-1.3-0.5-2.1h1.3c0,0.9,0.3,1.6,0.8,2.2
		c0.6,0.5,1.3,0.8,2.3,0.8c0.6,0,1.2-0.1,1.7-0.4c0.5-0.2,0.8-0.6,1.1-1c0.3-0.4,0.4-1,0.4-1.5c0-0.9-0.3-1.6-0.8-2.2
		c-0.6-0.6-1.3-0.8-2.3-0.8c-0.4,0-0.7,0-1,0.1s-0.5,0.2-0.7,0.3l-0.7-1.3l5.2-4.1l-0.1-0.3h-6.6v-1.2h7.8v1.9l-4.6,3.6l-0.9,0
		c0.2-0.1,0.5-0.2,0.7-0.2c0.3-0.1,0.6-0.1,1-0.1c0.9,0,1.7,0.2,2.4,0.5c0.7,0.4,1.2,0.8,1.5,1.4s0.5,1.3,0.5,2v0.3
		c0,0.7-0.2,1.3-0.5,2s-0.8,1.1-1.5,1.5C1088.7,94.7,1087.9,94.9,1086.9,94.9z"/>
	<path class="st2" d="M1097.9,94.9c-1,0-1.8-0.2-2.4-0.6c-0.7-0.4-1.2-0.9-1.5-1.5c-0.3-0.6-0.5-1.3-0.5-2.1h1.3
		c0,0.9,0.3,1.6,0.8,2.2c0.6,0.5,1.3,0.8,2.3,0.8c0.6,0,1.2-0.1,1.7-0.4c0.5-0.2,0.8-0.6,1.1-1c0.3-0.4,0.4-1,0.4-1.5
		c0-0.9-0.3-1.6-0.8-2.2s-1.3-0.8-2.3-0.8c-0.4,0-0.7,0-1,0.1s-0.5,0.2-0.7,0.3l-0.7-1.3l5.2-4.1l-0.1-0.3h-6.6v-1.2h7.8v1.9
		l-4.6,3.6l-0.9,0c0.2-0.1,0.5-0.2,0.7-0.2c0.3-0.1,0.6-0.1,1-0.1c0.9,0,1.7,0.2,2.4,0.5c0.7,0.4,1.2,0.8,1.5,1.4
		c0.3,0.6,0.5,1.3,0.5,2v0.3c0,0.7-0.2,1.3-0.5,2c-0.3,0.6-0.8,1.1-1.5,1.5C1099.6,94.7,1098.8,94.9,1097.9,94.9z"/>
</g>
<g class="st31">
	<path class="st2" d="M812.6,412.1v-1h10.3v1H812.6z M813.3,407.7v-1h10.2v1H813.3z M814.4,416l2-13.1h1.2l-2,13.1H814.4z
		 M818.6,416l2-13.1h1.2l-2,13.1H818.6z"/>
	<path class="st2" d="M830.8,416.3c-0.9,0-1.7-0.2-2.4-0.5s-1.2-0.8-1.6-1.4s-0.7-1.3-0.9-2s-0.3-1.6-0.3-2.5V409
		c0-1.3,0.2-2.4,0.6-3.4s1-1.7,1.7-2.3s1.7-0.8,2.9-0.8s2.1,0.3,2.9,0.8c0.8,0.6,1.3,1.3,1.7,2.3s0.6,2.1,0.6,3.4v0.8
		c0,0.9-0.1,1.8-0.3,2.5c-0.2,0.8-0.5,1.5-0.9,2c-0.4,0.6-1,1-1.6,1.4S831.7,416.3,830.8,416.3z M830.8,415.1c1.3,0,2.3-0.5,2.9-1.4
		s0.9-2.3,0.9-4.3c0-2-0.3-3.5-1-4.4c-0.6-0.9-1.6-1.3-2.9-1.3c-1.3,0-2.2,0.4-2.9,1.3c-0.6,0.9-1,2.3-1,4.3c0,1.9,0.3,3.4,0.9,4.3
		C828.5,414.6,829.5,415.1,830.8,415.1z"/>
	<path class="st2" d="M844,416.3c-0.9,0-1.7-0.2-2.4-0.5s-1.2-0.8-1.6-1.4c-0.4-0.6-0.7-1.3-0.9-2c-0.2-0.8-0.3-1.6-0.3-2.5V409
		c0-1.3,0.2-2.4,0.6-3.4s1-1.7,1.7-2.3c0.8-0.6,1.7-0.8,2.9-0.8c1.2,0,2.1,0.3,2.9,0.8s1.3,1.3,1.7,2.3s0.6,2.1,0.6,3.4v0.8
		c0,0.9-0.1,1.8-0.3,2.5s-0.5,1.5-0.9,2s-1,1-1.6,1.4S844.9,416.3,844,416.3z M844,415.1c1.3,0,2.3-0.5,2.9-1.4
		c0.6-0.9,0.9-2.3,0.9-4.3c0-2-0.3-3.5-1-4.4c-0.6-0.9-1.6-1.3-2.9-1.3c-1.3,0-2.2,0.4-2.9,1.3c-0.6,0.9-1,2.3-1,4.3
		c0,1.9,0.3,3.4,0.9,4.3C841.7,414.6,842.7,415.1,844,415.1z"/>
	<path class="st2" d="M857.2,416.3c-0.9,0-1.7-0.2-2.4-0.5s-1.2-0.8-1.6-1.4c-0.4-0.6-0.7-1.3-0.9-2c-0.2-0.8-0.3-1.6-0.3-2.5V409
		c0-1.3,0.2-2.4,0.6-3.4s1-1.7,1.7-2.3c0.8-0.6,1.7-0.8,2.9-0.8c1.2,0,2.1,0.3,2.9,0.8s1.3,1.3,1.7,2.3s0.6,2.1,0.6,3.4v0.8
		c0,0.9-0.1,1.8-0.3,2.5s-0.5,1.5-0.9,2s-1,1-1.6,1.4S858.1,416.3,857.2,416.3z M857.2,415.1c1.3,0,2.3-0.5,2.9-1.4
		c0.6-0.9,0.9-2.3,0.9-4.3c0-2-0.3-3.5-1-4.4c-0.6-0.9-1.6-1.3-2.9-1.3c-1.3,0-2.2,0.4-2.9,1.3c-0.6,0.9-1,2.3-1,4.3
		c0,1.9,0.3,3.4,0.9,4.3C854.9,414.6,855.9,415.1,857.2,415.1z"/>
	<path class="st2" d="M870.4,416.3c-0.9,0-1.7-0.2-2.4-0.5c-0.7-0.3-1.2-0.8-1.6-1.4s-0.7-1.3-0.9-2c-0.2-0.8-0.3-1.6-0.3-2.5V409
		c0-1.3,0.2-2.4,0.6-3.4s1-1.7,1.7-2.3s1.7-0.8,2.9-0.8c1.2,0,2.1,0.3,2.9,0.8c0.8,0.6,1.3,1.3,1.7,2.3c0.4,1,0.6,2.1,0.6,3.4v0.8
		c0,0.9-0.1,1.8-0.3,2.5s-0.5,1.5-0.9,2c-0.4,0.6-1,1-1.6,1.4S871.3,416.3,870.4,416.3z M870.4,415.1c1.3,0,2.3-0.5,2.9-1.4
		s0.9-2.3,0.9-4.3c0-2-0.3-3.5-1-4.4c-0.6-0.9-1.6-1.3-2.9-1.3c-1.3,0-2.2,0.4-2.9,1.3c-0.6,0.9-1,2.3-1,4.3c0,1.9,0.3,3.4,0.9,4.3
		C868.1,414.6,869.1,415.1,870.4,415.1z"/>
	<path class="st2" d="M883.6,416.3c-0.9,0-1.7-0.2-2.4-0.5c-0.7-0.3-1.2-0.8-1.6-1.4c-0.4-0.6-0.7-1.3-0.9-2s-0.3-1.6-0.3-2.5V409
		c0-1.3,0.2-2.4,0.6-3.4s1-1.7,1.7-2.3c0.8-0.6,1.7-0.8,2.9-0.8c1.2,0,2.1,0.3,2.9,0.8s1.3,1.3,1.7,2.3c0.4,1,0.6,2.1,0.6,3.4v0.8
		c0,0.9-0.1,1.8-0.3,2.5c-0.2,0.8-0.5,1.5-0.9,2s-1,1-1.6,1.4S884.5,416.3,883.6,416.3z M883.6,415.1c1.3,0,2.3-0.5,2.9-1.4
		c0.6-0.9,0.9-2.3,0.9-4.3c0-2-0.3-3.5-1-4.4c-0.6-0.9-1.6-1.3-2.9-1.3c-1.3,0-2.2,0.4-2.9,1.3c-0.6,0.9-1,2.3-1,4.3
		c0,1.9,0.3,3.4,0.9,4.3C881.3,414.6,882.3,415.1,883.6,415.1z"/>
	<path class="st2" d="M896.8,416.3c-0.9,0-1.7-0.2-2.4-0.5c-0.7-0.3-1.2-0.8-1.6-1.4c-0.4-0.6-0.7-1.3-0.9-2s-0.3-1.6-0.3-2.5V409
		c0-1.3,0.2-2.4,0.6-3.4s1-1.7,1.7-2.3c0.8-0.6,1.7-0.8,2.9-0.8c1.2,0,2.1,0.3,2.9,0.8s1.3,1.3,1.7,2.3c0.4,1,0.6,2.1,0.6,3.4v0.8
		c0,0.9-0.1,1.8-0.3,2.5c-0.2,0.8-0.5,1.5-0.9,2s-1,1-1.6,1.4S897.7,416.3,896.8,416.3z M896.8,415.1c1.3,0,2.3-0.5,2.9-1.4
		c0.6-0.9,0.9-2.3,0.9-4.3c0-2-0.3-3.5-1-4.4c-0.6-0.9-1.6-1.3-2.9-1.3c-1.3,0-2.2,0.4-2.9,1.3c-0.6,0.9-1,2.3-1,4.3
		c0,1.9,0.3,3.4,0.9,4.3C894.5,414.6,895.5,415.1,896.8,415.1z"/>
</g>
<g class="st31">
	<path class="st2" d="M19,606v-1h10.3v1H19z M19.6,601.7v-1h10.2v1H19.6z M20.7,609.9l2-13.1H24l-2,13.1H20.7z M24.9,609.9l2-13.1
		h1.2l-2,13.1H24.9z"/>
	<path class="st2" d="M35.9,610.2c-1,0-1.8-0.2-2.4-0.6c-0.7-0.4-1.2-0.9-1.5-1.5c-0.3-0.6-0.5-1.3-0.5-2.1h1.3
		c0,0.9,0.3,1.6,0.8,2.2c0.6,0.5,1.3,0.8,2.3,0.8c0.6,0,1.2-0.1,1.7-0.4c0.5-0.2,0.8-0.6,1.1-1c0.3-0.4,0.4-1,0.4-1.5
		c0-0.9-0.3-1.6-0.8-2.2c-0.6-0.6-1.3-0.8-2.3-0.8c-0.4,0-0.7,0-1,0.1s-0.5,0.2-0.7,0.3l-0.7-1.3l5.2-4.1l-0.1-0.3h-6.6v-1.2h7.8
		v1.9l-4.6,3.6l-0.9,0c0.2-0.1,0.5-0.2,0.7-0.2c0.3-0.1,0.6-0.1,1-0.1c0.9,0,1.7,0.2,2.4,0.5c0.7,0.4,1.2,0.8,1.5,1.4
		c0.3,0.6,0.5,1.3,0.5,2v0.3c0,0.7-0.2,1.3-0.5,2c-0.3,0.6-0.9,1.1-1.5,1.5C37.6,610,36.8,610.2,35.9,610.2z"/>
	<path class="st2" d="M42.4,606.6V605l5.6-8.4l0.9,0.7l-5.3,8l0.1,0.3h8.5v1.1H42.4z M49.2,609.9v-9.2h1.3v9.2H49.2z"/>
	<path class="st2" d="M58.1,610.2c-1,0-1.8-0.2-2.4-0.6c-0.7-0.4-1.2-0.9-1.5-1.5c-0.3-0.6-0.5-1.3-0.5-2.1H55
		c0,0.9,0.3,1.6,0.8,2.2c0.6,0.5,1.3,0.8,2.3,0.8c0.6,0,1.2-0.1,1.7-0.4c0.5-0.2,0.8-0.6,1.1-1c0.3-0.4,0.4-1,0.4-1.5
		c0-0.9-0.3-1.6-0.8-2.2c-0.6-0.6-1.3-0.8-2.3-0.8c-0.4,0-0.7,0-1,0.1s-0.5,0.2-0.7,0.3l-0.7-1.3l5.2-4.1l-0.1-0.3h-6.6v-1.2H62v1.9
		l-4.6,3.6l-0.9,0c0.2-0.1,0.5-0.2,0.7-0.2c0.3-0.1,0.6-0.1,1-0.1c0.9,0,1.7,0.2,2.4,0.5c0.7,0.4,1.2,0.8,1.5,1.4
		c0.3,0.6,0.5,1.3,0.5,2v0.3c0,0.7-0.2,1.3-0.5,2c-0.3,0.6-0.9,1.1-1.5,1.5C59.9,610,59.1,610.2,58.1,610.2z"/>
	<path class="st2" d="M71.4,610.2c-1.2,0-2.2-0.2-3-0.6s-1.5-1-2-1.6c-0.5-0.7-0.9-1.4-1.1-2.2c-0.2-0.8-0.4-1.5-0.4-2.3v-0.3
		c0-0.8,0.1-1.6,0.4-2.4c0.2-0.8,0.6-1.5,1.1-2.2c0.5-0.6,1.2-1.2,2-1.6c0.8-0.4,1.8-0.6,2.9-0.6c1.1,0,2.1,0.2,2.9,0.6
		c0.8,0.4,1.5,0.9,2,1.7c0.5,0.7,0.8,1.6,0.9,2.5h-1.4c-0.1-0.8-0.3-1.4-0.8-1.9c-0.4-0.5-0.9-0.9-1.6-1.2c-0.6-0.3-1.3-0.4-2.1-0.4
		c-0.8,0-1.6,0.1-2.2,0.4c-0.6,0.3-1.2,0.7-1.6,1.2c-0.4,0.5-0.7,1.1-1,1.8c-0.2,0.7-0.3,1.4-0.3,2.2c0,0.7,0.1,1.4,0.3,2.1
		c0.2,0.7,0.5,1.3,1,1.8c0.4,0.5,1,1,1.6,1.3c0.6,0.3,1.4,0.5,2.3,0.5c1.2,0,2.2-0.3,3-0.9s1.3-1.5,1.5-2.6h1.4
		c-0.1,0.9-0.4,1.7-0.9,2.4c-0.5,0.7-1.2,1.3-2,1.7S72.5,610.2,71.4,610.2z"/>
	<path class="st2" d="M80,609.9v-13.1h1.4v13.1H80z M81,598v-1.2h6.1v1.2H81z M81,603.9v-1.2l5.8,0v1.2L81,603.9z"/>
	<path class="st2" d="M90.1,609.9v-13.1h1.4v13.1H90.1z M91.1,598v-1.2h6.1v1.2H91.1z M91.1,603.9v-1.2l5.8,0v1.2L91.1,603.9z"/>
</g>
<g class="st31">
	<path d="M19,715.6v-1h10.3v1H19z M19.6,711.2v-1h10.2v1H19.6z M20.7,719.4l2-13.1H24l-2,13.1H20.7z M24.9,719.4l2-13.1h1.2l-2,13.1
		H24.9z"/>
	<path d="M32,719.4v-2c0-0.5,0.1-1,0.2-1.3s0.4-0.7,0.8-1c0.4-0.3,0.8-0.6,1.5-0.9l2.6-1.2c0.6-0.3,1.1-0.7,1.5-1.1
		c0.4-0.5,0.6-1.1,0.6-1.8c0-0.9-0.3-1.6-0.8-2.2c-0.5-0.5-1.2-0.8-2.1-0.8c-0.9,0-1.6,0.3-2.1,0.8c-0.5,0.5-0.8,1.2-0.8,2.2h-1.3
		c0-0.8,0.2-1.5,0.5-2.1s0.8-1.1,1.4-1.5c0.6-0.4,1.4-0.5,2.3-0.5c0.9,0,1.7,0.2,2.3,0.5s1.1,0.8,1.4,1.5s0.5,1.3,0.5,2v0.3
		c0,0.9-0.3,1.7-0.8,2.3c-0.5,0.6-1.2,1.1-2.1,1.6l-2.6,1.2c-0.6,0.3-1,0.6-1.2,0.9c-0.2,0.3-0.3,0.7-0.3,1.1v1.6l-0.4-0.6h7.6v1.2
		H32z"/>
	<path d="M43.6,719.5v-13.2H45v13.2H43.6z M44.6,713.1v-0.9H48c0.8,0,1.4-0.2,1.8-0.7c0.4-0.4,0.6-1,0.6-1.7c0-0.7-0.2-1.3-0.6-1.7
		c-0.4-0.4-1-0.7-1.8-0.7h-3.4v-1.2h3.1c1.4,0,2.4,0.3,3,0.9s1,1.5,1,2.5v0.2c0,0.8-0.2,1.4-0.5,1.8c-0.3,0.5-0.8,0.8-1.4,1
		s-1.3,0.3-2.1,0.3H44.6z M44.6,719.5v-1.2h3.8c0.8,0,1.4-0.2,1.8-0.7c0.4-0.4,0.7-1,0.7-1.8c0-0.7-0.2-1.3-0.6-1.8s-1-0.7-1.8-0.7
		h-3.8v-0.9h3.6c0.8,0,1.5,0.1,2.1,0.3c0.6,0.2,1.1,0.6,1.4,1.1s0.5,1.1,0.5,1.9v0.2c0,0.7-0.1,1.3-0.4,1.9
		c-0.3,0.5-0.7,0.9-1.3,1.2s-1.4,0.4-2.3,0.4H44.6z"/>
	<path d="M59.3,719.7c-0.9,0-1.8-0.2-2.5-0.5c-0.7-0.3-1.3-0.8-1.6-1.4c-0.4-0.6-0.6-1.3-0.6-2c0-0.6,0.1-1.1,0.4-1.5
		c0.2-0.4,0.5-0.8,0.9-1.1c0.4-0.3,0.8-0.5,1.3-0.7v-0.2c-0.4-0.1-0.7-0.3-1-0.6c-0.3-0.3-0.6-0.6-0.8-0.9c-0.2-0.4-0.3-0.8-0.3-1.3
		c0-0.7,0.2-1.3,0.6-1.8s0.9-0.9,1.5-1.2c0.6-0.3,1.4-0.4,2.1-0.4c0.8,0,1.5,0.1,2.2,0.4c0.6,0.3,1.1,0.7,1.5,1.2
		c0.4,0.5,0.6,1.1,0.6,1.8c0,0.5-0.1,0.9-0.3,1.3c-0.2,0.4-0.4,0.7-0.8,0.9c-0.3,0.3-0.7,0.5-1,0.6v0.2c0.5,0.1,0.9,0.4,1.3,0.7
		c0.4,0.3,0.7,0.7,0.9,1.1c0.2,0.4,0.3,0.9,0.3,1.5c0,0.8-0.2,1.4-0.6,2c-0.4,0.6-0.9,1-1.6,1.4C61.1,719.6,60.2,719.7,59.3,719.7z
		 M59.3,718.6c0.7,0,1.3-0.1,1.8-0.4s0.9-0.6,1.2-1s0.4-0.9,0.4-1.5s-0.1-1-0.4-1.5s-0.6-0.7-1.1-1c-0.5-0.2-1.1-0.4-1.8-0.4
		c-0.7,0-1.3,0.1-1.8,0.4c-0.5,0.2-0.9,0.6-1.1,1s-0.4,0.9-0.4,1.5s0.1,1,0.4,1.5s0.6,0.8,1.1,1S58.6,718.6,59.3,718.6z M59.3,711.9
		c0.9,0,1.6-0.2,2.1-0.6c0.5-0.4,0.8-1,0.8-1.8c0-0.8-0.3-1.4-0.8-1.8c-0.5-0.4-1.2-0.6-2.1-0.6c-0.9,0-1.6,0.2-2.1,0.6
		c-0.5,0.4-0.8,1-0.8,1.8c0,0.8,0.3,1.4,0.8,1.8C57.7,711.7,58.4,711.9,59.3,711.9z"/>
	<path d="M70.3,719.7c-1,0-1.8-0.2-2.4-0.6c-0.7-0.4-1.2-0.9-1.5-1.5c-0.3-0.6-0.5-1.3-0.5-2.1h1.3c0,0.9,0.3,1.6,0.8,2.2
		c0.6,0.5,1.3,0.8,2.3,0.8c0.6,0,1.2-0.1,1.7-0.4c0.5-0.2,0.8-0.6,1.1-1c0.3-0.4,0.4-1,0.4-1.5c0-0.9-0.3-1.6-0.8-2.2
		c-0.6-0.6-1.3-0.8-2.3-0.8c-0.4,0-0.7,0-1,0.1s-0.5,0.2-0.7,0.3l-0.7-1.3l5.2-4.1l-0.1-0.3h-6.6v-1.2h7.8v1.9l-4.6,3.6l-0.9,0
		c0.2-0.1,0.5-0.2,0.7-0.2c0.3-0.1,0.6-0.1,1-0.1c0.9,0,1.7,0.2,2.4,0.5c0.7,0.4,1.2,0.8,1.5,1.4c0.3,0.6,0.5,1.3,0.5,2v0.3
		c0,0.7-0.2,1.3-0.5,2c-0.3,0.6-0.9,1.1-1.5,1.5C72,719.6,71.2,719.7,70.3,719.7z"/>
	<path d="M77.9,719.4v-13.1h1.4v13.1H77.9z M78.9,707.6v-1.2h6.1v1.2H78.9z M78.9,713.4v-1.2l5.8,0v1.2L78.9,713.4z"/>
	<path d="M88,719.4v-13.1h1.4v13.1H88z M89,707.6v-1.2h6.1v1.2H89z M89,713.4v-1.2l5.8,0v1.2L89,713.4z"/>
</g>
<g class="st31">
	<path d="M19,782v-1h10.3v1H19z M19.6,777.6v-1h10.2v1H19.6z M20.7,785.9l2-13.1H24l-2,13.1H20.7z M24.9,785.9l2-13.1h1.2l-2,13.1
		H24.9z"/>
	<path d="M36.2,786.2c-0.9,0-1.8-0.2-2.5-0.5c-0.7-0.3-1.3-0.8-1.6-1.4c-0.4-0.6-0.6-1.3-0.6-2c0-0.6,0.1-1.1,0.4-1.5
		c0.2-0.4,0.5-0.8,0.9-1.1c0.4-0.3,0.8-0.5,1.3-0.7v-0.2c-0.4-0.1-0.7-0.3-1-0.6c-0.3-0.3-0.6-0.6-0.8-0.9c-0.2-0.4-0.3-0.8-0.3-1.3
		c0-0.7,0.2-1.3,0.6-1.8s0.9-0.9,1.5-1.2c0.6-0.3,1.4-0.4,2.1-0.4c0.8,0,1.5,0.1,2.2,0.4c0.6,0.3,1.1,0.7,1.5,1.2
		c0.4,0.5,0.6,1.1,0.6,1.8c0,0.5-0.1,0.9-0.3,1.3c-0.2,0.4-0.4,0.7-0.8,0.9c-0.3,0.3-0.7,0.5-1,0.6v0.2c0.5,0.1,0.9,0.4,1.3,0.7
		c0.4,0.3,0.7,0.7,0.9,1.1c0.2,0.4,0.3,0.9,0.3,1.5c0,0.8-0.2,1.4-0.6,2c-0.4,0.6-0.9,1-1.6,1.4C37.9,786,37.1,786.2,36.2,786.2z
		 M36.2,785c0.7,0,1.3-0.1,1.8-0.4s0.9-0.6,1.2-1s0.4-0.9,0.4-1.5s-0.1-1-0.4-1.5s-0.6-0.7-1.1-1c-0.5-0.2-1.1-0.4-1.8-0.4
		c-0.7,0-1.3,0.1-1.8,0.4c-0.5,0.2-0.9,0.6-1.1,1s-0.4,0.9-0.4,1.5s0.1,1,0.4,1.5s0.6,0.8,1.1,1S35.5,785,36.2,785z M36.2,778.3
		c0.9,0,1.6-0.2,2.1-0.6c0.5-0.4,0.8-1,0.8-1.8c0-0.8-0.3-1.4-0.8-1.8c-0.5-0.4-1.2-0.6-2.1-0.6c-0.9,0-1.6,0.2-2.1,0.6
		c-0.5,0.4-0.8,1-0.8,1.8c0,0.8,0.3,1.4,0.8,1.8C34.6,778.1,35.3,778.3,36.2,778.3z"/>
	<path d="M49.4,786.2c-1.2,0-2.2-0.2-3-0.6s-1.5-1-2-1.6c-0.5-0.7-0.9-1.4-1.1-2.2c-0.2-0.8-0.4-1.5-0.4-2.3v-0.3
		c0-0.8,0.1-1.6,0.4-2.4c0.2-0.8,0.6-1.5,1.1-2.2c0.5-0.6,1.2-1.2,2-1.6c0.8-0.4,1.8-0.6,2.9-0.6c1.1,0,2.1,0.2,2.9,0.6
		c0.8,0.4,1.5,0.9,2,1.7c0.5,0.7,0.8,1.6,0.9,2.5h-1.4c-0.1-0.8-0.3-1.4-0.8-1.9c-0.4-0.5-0.9-0.9-1.6-1.2c-0.6-0.3-1.3-0.4-2.1-0.4
		c-0.8,0-1.6,0.1-2.2,0.4c-0.6,0.3-1.2,0.7-1.6,1.2c-0.4,0.5-0.7,1.1-1,1.8c-0.2,0.7-0.3,1.4-0.3,2.2c0,0.7,0.1,1.4,0.3,2.1
		c0.2,0.7,0.5,1.3,1,1.8c0.4,0.5,1,1,1.6,1.3c0.6,0.3,1.4,0.5,2.3,0.5c1.2,0,2.2-0.3,3-0.9s1.3-1.5,1.5-2.6h1.4
		c-0.1,0.9-0.4,1.7-0.9,2.4c-0.5,0.7-1.2,1.3-2,1.7S50.6,786.2,49.4,786.2z"/>
	<path d="M58.1,785.9v-13.2h1.4v13.2H58.1z M59.1,779.6v-0.9h3.4c0.8,0,1.4-0.2,1.8-0.7c0.4-0.4,0.6-1,0.6-1.7
		c0-0.7-0.2-1.3-0.6-1.7c-0.4-0.4-1-0.7-1.8-0.7h-3.4v-1.2h3.1c1.4,0,2.4,0.3,3,0.9s1,1.5,1,2.5v0.2c0,0.8-0.2,1.4-0.5,1.8
		c-0.3,0.5-0.8,0.8-1.4,1s-1.3,0.3-2.1,0.3H59.1z M59.1,785.9v-1.2H63c0.8,0,1.4-0.2,1.8-0.7c0.4-0.4,0.7-1,0.7-1.8
		c0-0.7-0.2-1.3-0.6-1.8s-1-0.7-1.8-0.7h-3.8v-0.9h3.6c0.8,0,1.5,0.1,2.1,0.3c0.6,0.2,1.1,0.6,1.4,1.1s0.5,1.1,0.5,1.9v0.2
		c0,0.7-0.1,1.3-0.4,1.9c-0.3,0.5-0.7,0.9-1.3,1.2s-1.4,0.4-2.3,0.4H59.1z"/>
	<path d="M75.7,786.2c-1.2,0-2.2-0.2-3-0.6s-1.5-1-2-1.6c-0.5-0.7-0.9-1.4-1.1-2.2c-0.2-0.8-0.4-1.5-0.4-2.3v-0.3
		c0-0.8,0.1-1.6,0.4-2.4c0.2-0.8,0.6-1.5,1.1-2.2c0.5-0.6,1.2-1.2,2-1.6c0.8-0.4,1.8-0.6,2.9-0.6c1.1,0,2.1,0.2,2.9,0.6
		c0.8,0.4,1.5,0.9,2,1.7c0.5,0.7,0.8,1.6,0.9,2.5H80c-0.1-0.8-0.3-1.4-0.8-1.9c-0.4-0.5-0.9-0.9-1.6-1.2c-0.6-0.3-1.3-0.4-2.1-0.4
		c-0.8,0-1.6,0.1-2.2,0.4c-0.6,0.3-1.2,0.7-1.6,1.2c-0.4,0.5-0.7,1.1-1,1.8c-0.2,0.7-0.3,1.4-0.3,2.2c0,0.7,0.1,1.4,0.3,2.1
		c0.2,0.7,0.5,1.3,1,1.8c0.4,0.5,1,1,1.6,1.3c0.6,0.3,1.4,0.5,2.3,0.5c1.2,0,2.2-0.3,3-0.9s1.3-1.5,1.5-2.6h1.4
		c-0.1,0.9-0.4,1.7-0.9,2.4c-0.5,0.7-1.2,1.3-2,1.7S76.9,786.2,75.7,786.2z"/>
	<path d="M84.4,785.9v-13.1h1.4v13.1H84.4z M85.4,774v-1.2h6.1v1.2H85.4z M85.4,779.8v-1.2l5.8,0v1.2L85.4,779.8z"/>
	<path d="M94.4,785.9v-13.1h1.4v13.1H94.4z M95.4,774v-1.2h6.1v1.2H95.4z M95.4,779.8v-1.2l5.8,0v1.2L95.4,779.8z"/>
</g>
<g class="st31">
	<path d="M19,835.9v-1h10.3v1H19z M19.6,831.5v-1h10.2v1H19.6z M20.7,839.7l2-13.1H24l-2,13.1H20.7z M24.9,839.7l2-13.1h1.2l-2,13.1
		H24.9z"/>
	<path d="M32.6,839.8v-13.2h1.4v13.2H32.6z M33.6,833.4v-0.9H37c0.8,0,1.4-0.2,1.8-0.7c0.4-0.4,0.6-1,0.6-1.7c0-0.7-0.2-1.3-0.6-1.7
		c-0.4-0.4-1-0.7-1.8-0.7h-3.4v-1.2h3.1c1.4,0,2.4,0.3,3,0.9s1,1.5,1,2.5v0.2c0,0.8-0.2,1.4-0.5,1.8c-0.3,0.5-0.8,0.8-1.4,1
		s-1.3,0.3-2.1,0.3H33.6z M33.6,839.8v-1.2h3.8c0.8,0,1.4-0.2,1.8-0.7c0.4-0.4,0.7-1,0.7-1.8c0-0.7-0.2-1.3-0.6-1.8s-1-0.7-1.8-0.7
		h-3.8v-0.9h3.6c0.8,0,1.5,0.1,2.1,0.3c0.6,0.2,1.1,0.6,1.4,1.1s0.5,1.1,0.5,1.9v0.2c0,0.7-0.1,1.3-0.4,1.9
		c-0.3,0.5-0.7,0.9-1.3,1.2s-1.4,0.4-2.3,0.4H33.6z"/>
	<path d="M44.7,839.8v-13.2H46v13.2H44.7z M45.7,839.8v-1.3h3.6c0.9,0,1.7-0.1,2.3-0.4s1.2-0.7,1.7-1.2s0.8-1.1,1-1.7
		c0.2-0.6,0.3-1.3,0.3-2.1c0-0.8-0.1-1.5-0.4-2.1s-0.6-1.2-1-1.7c-0.5-0.5-1-0.9-1.7-1.1c-0.7-0.3-1.4-0.4-2.3-0.4h-3.6v-1.3h3.4
		c1.2,0,2.2,0.2,3.1,0.5s1.6,0.8,2.2,1.5c0.6,0.6,1,1.3,1.3,2.1c0.3,0.8,0.4,1.5,0.4,2.3v0.3c0,0.8-0.1,1.5-0.4,2.3
		c-0.3,0.8-0.7,1.5-1.3,2.1c-0.6,0.6-1.3,1.1-2.1,1.5c-0.9,0.4-1.9,0.6-3.1,0.6H45.7z"/>
	<path d="M58.9,839.8v-13.2h1.4v13.2H58.9z M59.9,839.8v-1.3h3.6c0.9,0,1.7-0.1,2.3-0.4s1.2-0.7,1.7-1.2s0.8-1.1,1-1.7
		c0.2-0.6,0.3-1.3,0.3-2.1c0-0.8-0.1-1.5-0.4-2.1s-0.6-1.2-1-1.7c-0.5-0.5-1-0.9-1.7-1.1c-0.7-0.3-1.4-0.4-2.3-0.4h-3.6v-1.3h3.4
		c1.2,0,2.2,0.2,3.1,0.5s1.6,0.8,2.2,1.5c0.6,0.6,1,1.3,1.3,2.1c0.3,0.8,0.4,1.5,0.4,2.3v0.3c0,0.8-0.1,1.5-0.4,2.3
		c-0.3,0.8-0.7,1.5-1.3,2.1c-0.6,0.6-1.3,1.1-2.1,1.5c-0.9,0.4-1.9,0.6-3.1,0.6H59.9z"/>
	<path d="M76.8,840.1c-0.9,0-1.8-0.2-2.5-0.5c-0.7-0.3-1.3-0.8-1.6-1.4c-0.4-0.6-0.6-1.3-0.6-2c0-0.6,0.1-1.1,0.4-1.5
		c0.2-0.4,0.5-0.8,0.9-1.1c0.4-0.3,0.8-0.5,1.3-0.7v-0.2c-0.4-0.1-0.7-0.3-1-0.6c-0.3-0.3-0.6-0.6-0.8-0.9c-0.2-0.4-0.3-0.8-0.3-1.3
		c0-0.7,0.2-1.3,0.6-1.8s0.9-0.9,1.5-1.2c0.6-0.3,1.4-0.4,2.1-0.4c0.8,0,1.5,0.1,2.2,0.4c0.6,0.3,1.1,0.7,1.5,1.2
		c0.4,0.5,0.6,1.1,0.6,1.8c0,0.5-0.1,0.9-0.3,1.3c-0.2,0.4-0.4,0.7-0.8,0.9c-0.3,0.3-0.7,0.5-1,0.6v0.2c0.5,0.1,0.9,0.4,1.3,0.7
		c0.4,0.3,0.7,0.7,0.9,1.1c0.2,0.4,0.3,0.9,0.3,1.5c0,0.8-0.2,1.4-0.6,2c-0.4,0.6-0.9,1-1.6,1.4C78.6,839.9,77.8,840.1,76.8,840.1z
		 M76.8,838.9c0.7,0,1.3-0.1,1.8-0.4s0.9-0.6,1.2-1s0.4-0.9,0.4-1.5s-0.1-1-0.4-1.5s-0.6-0.7-1.1-1c-0.5-0.2-1.1-0.4-1.8-0.4
		c-0.7,0-1.3,0.1-1.8,0.4c-0.5,0.2-0.9,0.6-1.1,1s-0.4,0.9-0.4,1.5s0.1,1,0.4,1.5s0.6,0.8,1.1,1S76.1,838.9,76.8,838.9z M76.8,832.2
		c0.9,0,1.6-0.2,2.1-0.6c0.5-0.4,0.8-1,0.8-1.8c0-0.8-0.3-1.4-0.8-1.8c-0.5-0.4-1.2-0.6-2.1-0.6c-0.9,0-1.6,0.2-2.1,0.6
		c-0.5,0.4-0.8,1-0.8,1.8c0,0.8,0.3,1.4,0.8,1.8C75.2,832,75.9,832.2,76.8,832.2z"/>
	<path d="M84.5,839.7v-13.1h1.4v13.1H84.5z M85.5,827.9v-1.2h6.1v1.2H85.5z M85.5,833.7v-1.2l5.8,0v1.2L85.5,833.7z"/>
	<path d="M94.6,839.7v-13.1h1.4v13.1H94.6z M95.6,827.9v-1.2h6.1v1.2H95.6z M95.6,833.7v-1.2l5.8,0v1.2L95.6,833.7z"/>
</g>
<g class="st31">
	<path d="M19,884.4v-1h10.3v1H19z M19.6,880v-1h10.2v1H19.6z M20.7,888.2l2-13.1H24l-2,13.1H20.7z M24.9,888.2l2-13.1h1.2l-2,13.1
		H24.9z"/>
	<path d="M36.1,888.5c-1,0-1.8-0.2-2.5-0.6c-0.7-0.4-1.2-0.9-1.5-1.6c-0.3-0.7-0.5-1.4-0.5-2.1h1.3c0,0.6,0.1,1.1,0.4,1.6
		c0.3,0.5,0.6,0.8,1.1,1.1s1.1,0.4,1.7,0.4c0.7,0,1.3-0.1,1.7-0.4c0.5-0.3,0.8-0.6,1.1-1.1c0.3-0.5,0.4-1,0.4-1.6
		c0-0.6-0.1-1.1-0.4-1.6c-0.3-0.5-0.6-0.9-1.1-1.1s-1.1-0.4-1.8-0.4c-0.5,0-1,0.1-1.4,0.2c-0.5,0.2-0.9,0.4-1.2,0.7h-1.2l0.7-6.9
		h6.5v1.2h-5.8l0.4-0.5l-0.5,5.4l-0.4-0.1c0.4-0.4,0.8-0.7,1.3-0.9c0.5-0.2,1.1-0.3,1.7-0.3c1,0,1.8,0.2,2.5,0.6
		c0.7,0.4,1.2,0.9,1.5,1.6s0.5,1.3,0.5,2v0.2c0,0.7-0.2,1.4-0.5,2c-0.3,0.6-0.9,1.2-1.5,1.6C38,888.3,37.1,888.5,36.1,888.5z"/>
	<path d="M46.9,888.5c-1,0-1.8-0.2-2.4-0.6c-0.7-0.4-1.2-0.9-1.5-1.5c-0.3-0.6-0.5-1.3-0.5-2.1h1.3c0,0.9,0.3,1.6,0.8,2.2
		c0.6,0.5,1.3,0.8,2.3,0.8c0.6,0,1.2-0.1,1.7-0.4c0.5-0.2,0.8-0.6,1.1-1c0.3-0.4,0.4-1,0.4-1.5c0-0.9-0.3-1.6-0.8-2.2
		c-0.6-0.6-1.3-0.8-2.3-0.8c-0.4,0-0.7,0-1,0.1s-0.5,0.2-0.7,0.3l-0.7-1.3l5.2-4.1l-0.1-0.3H43v-1.2h7.8v1.9l-4.6,3.6l-0.9,0
		c0.2-0.1,0.5-0.2,0.7-0.2c0.3-0.1,0.6-0.1,1-0.1c0.9,0,1.7,0.2,2.4,0.5c0.7,0.4,1.2,0.8,1.5,1.4c0.3,0.6,0.5,1.3,0.5,2v0.3
		c0,0.7-0.2,1.3-0.5,2c-0.3,0.6-0.9,1.1-1.5,1.5C48.7,888.3,47.9,888.5,46.9,888.5z"/>
	<path d="M56.3,888.2v-12.4l0.6,0.5h-3.6v-1.2h4.3v13.1H56.3z"/>
	<path d="M63.8,888.2v-12.4l0.6,0.5h-3.6v-1.2h4.3v13.1H63.8z"/>
	<path d="M73,874.8c0.9,0,1.6,0.2,2.2,0.5c0.6,0.3,1.1,0.7,1.5,1.3s0.7,1.2,0.8,2c0.2,0.8,0.3,1.6,0.3,2.5v0.8
		c0,2.1-0.5,3.8-1.5,4.9c-1,1.1-2.5,1.7-4.5,1.7c-0.4,0-0.8,0-1.1,0s-0.7-0.1-1-0.1V887c0.4,0.1,0.7,0.1,1.1,0.1c0.3,0,0.7,0,1.1,0
		c1.1,0,2-0.2,2.7-0.7c0.7-0.4,1.2-1.1,1.5-1.9c0.3-0.8,0.5-1.8,0.5-3v-1.3l0.4-1.1c0,0.9-0.2,1.7-0.5,2.3c-0.3,0.6-0.8,1.1-1.4,1.5
		c-0.6,0.3-1.4,0.5-2.2,0.5c-0.9,0-1.7-0.2-2.4-0.6s-1.1-0.9-1.5-1.6c-0.3-0.7-0.5-1.4-0.5-2.2c0-0.8,0.2-1.6,0.5-2.2
		c0.3-0.7,0.8-1.2,1.5-1.6C71.2,875,72,874.8,73,874.8z M73,876c-0.7,0-1.3,0.1-1.8,0.4c-0.5,0.3-0.8,0.7-1.1,1.2
		c-0.2,0.5-0.4,1-0.4,1.7c0,0.6,0.1,1.2,0.4,1.6c0.2,0.5,0.6,0.9,1.1,1.1c0.5,0.3,1.1,0.4,1.8,0.4c0.7,0,1.3-0.1,1.8-0.4
		c0.5-0.3,0.9-0.6,1.2-1.1c0.3-0.5,0.4-1.1,0.4-1.7c0-0.6-0.1-1.1-0.4-1.6c-0.2-0.5-0.6-0.9-1.1-1.2C74.4,876.1,73.8,876,73,876z"/>
	<path d="M85.8,888.5c-0.9,0-1.7-0.2-2.4-0.5c-0.7-0.3-1.2-0.8-1.6-1.4s-0.7-1.3-0.9-2c-0.2-0.8-0.3-1.6-0.3-2.5v-0.8
		c0-1.3,0.2-2.4,0.6-3.4s1-1.7,1.7-2.3s1.7-0.8,2.9-0.8c1.2,0,2.1,0.3,2.9,0.8s1.3,1.3,1.7,2.3c0.4,1,0.6,2.1,0.6,3.4v0.8
		c0,0.9-0.1,1.8-0.3,2.5c-0.2,0.8-0.5,1.5-0.9,2s-1,1-1.6,1.4S86.7,888.5,85.8,888.5z M85.8,887.3c1.3,0,2.3-0.5,2.9-1.4
		s0.9-2.3,0.9-4.3c0-2-0.3-3.5-1-4.4c-0.6-0.9-1.6-1.3-2.9-1.3c-1.3,0-2.2,0.4-2.9,1.3c-0.6,0.9-1,2.3-1,4.3c0,1.9,0.3,3.4,0.9,4.3
		C83.6,886.9,84.5,887.3,85.8,887.3z"/>
</g>
<g class="st31">
	<path d="M19,932.8v-1h10.3v1H19z M19.6,928.5v-1h10.2v1H19.6z M20.7,936.7l2-13.1H24l-2,13.1H20.7z M24.9,936.7l2-13.1h1.2l-2,13.1
		H24.9z"/>
	<path d="M32.6,936.7v-13.1h1.4v13.1H32.6z M33.6,924.8v-1.2H40v1.2H33.6z M33.6,930.7v-1.2h5.9v1.2H33.6z M33.6,936.7v-1.2h6.6v1.2
		H33.6z"/>
	<path d="M43.4,936.7v-13.1h1.4v13.1H43.4z M44.4,924.8v-1.2h6.1v1.2H44.4z M44.4,930.7v-1.2l5.8,0v1.2L44.4,930.7z"/>
	<path d="M53.5,936.7v-13.1h1.4v13.1H53.5z M54.5,924.8v-1.2h6.1v1.2H54.5z M54.5,930.7v-1.2l5.8,0v1.2L54.5,930.7z"/>
	<path d="M65.3,936.7v-12.4l0.6,0.5h-3.6v-1.2h4.3v13.1H65.3z"/>
	<path d="M71,936.7v-13.1h1.4v13.1H71z M72,924.8v-1.2h6.1v1.2H72z M72,930.7v-1.2l5.8,0v1.2L72,930.7z"/>
	<path d="M81,936.7v-13.1h1.4v13.1H81z M82,924.8v-1.2h6.1v1.2H82z M82,930.7v-1.2l5.8,0v1.2L82,930.7z"/>
</g>
<g class="st31">
	<path class="st2" d="M417.6,606v-1h10.3v1H417.6z M418.2,601.7v-1h10.2v1H418.2z M419.3,609.9l2-13.1h1.2l-2,13.1H419.3z
		 M423.5,609.9l2-13.1h1.2l-2,13.1H423.5z"/>
	<path class="st2" d="M435.8,610.2c-0.9,0-1.7-0.2-2.4-0.5c-0.7-0.3-1.2-0.8-1.6-1.4s-0.7-1.3-0.9-2c-0.2-0.8-0.3-1.6-0.3-2.5v-0.8
		c0-1.3,0.2-2.4,0.6-3.4s1-1.7,1.7-2.3s1.7-0.8,2.9-0.8c1.2,0,2.1,0.3,2.9,0.8s1.3,1.3,1.7,2.3c0.4,1,0.6,2.1,0.6,3.4v0.8
		c0,0.9-0.1,1.8-0.3,2.5c-0.2,0.8-0.5,1.5-0.9,2s-1,1-1.6,1.4S436.7,610.2,435.8,610.2z M435.8,609c1.3,0,2.3-0.5,2.9-1.4
		s0.9-2.3,0.9-4.3c0-2-0.3-3.5-1-4.4c-0.6-0.9-1.6-1.3-2.9-1.3c-1.3,0-2.2,0.4-2.9,1.3c-0.6,0.9-1,2.3-1,4.3c0,1.9,0.3,3.4,0.9,4.3
		C433.5,608.5,434.5,609,435.8,609z"/>
	<path class="st2" d="M449,610.2c-0.9,0-1.7-0.2-2.4-0.5c-0.7-0.3-1.2-0.8-1.6-1.4s-0.7-1.3-0.9-2c-0.2-0.8-0.3-1.6-0.3-2.5v-0.8
		c0-1.3,0.2-2.4,0.6-3.4s1-1.7,1.7-2.3s1.7-0.8,2.9-0.8c1.2,0,2.1,0.3,2.9,0.8s1.3,1.3,1.7,2.3c0.4,1,0.6,2.1,0.6,3.4v0.8
		c0,0.9-0.1,1.8-0.3,2.5c-0.2,0.8-0.5,1.5-0.9,2s-1,1-1.6,1.4S449.9,610.2,449,610.2z M449,609c1.3,0,2.3-0.5,2.9-1.4
		s0.9-2.3,0.9-4.3c0-2-0.3-3.5-1-4.4c-0.6-0.9-1.6-1.3-2.9-1.3c-1.3,0-2.2,0.4-2.9,1.3c-0.6,0.9-1,2.3-1,4.3c0,1.9,0.3,3.4,0.9,4.3
		C446.7,608.5,447.7,609,449,609z"/>
	<path class="st2" d="M463.2,610.2c-1.2,0-2.2-0.2-3-0.6s-1.5-1-2-1.6c-0.5-0.7-0.9-1.4-1.1-2.2c-0.2-0.8-0.4-1.5-0.4-2.3v-0.3
		c0-0.8,0.1-1.6,0.4-2.4c0.2-0.8,0.6-1.5,1.1-2.2c0.5-0.6,1.2-1.2,2-1.6c0.8-0.4,1.8-0.6,2.9-0.6c1.1,0,2.1,0.2,2.9,0.6
		c0.8,0.4,1.5,0.9,2,1.7c0.5,0.7,0.8,1.6,0.9,2.5h-1.4c-0.1-0.8-0.3-1.4-0.8-1.9c-0.4-0.5-0.9-0.9-1.6-1.2c-0.6-0.3-1.3-0.4-2.1-0.4
		c-0.8,0-1.6,0.1-2.2,0.4c-0.6,0.3-1.2,0.7-1.6,1.2c-0.4,0.5-0.7,1.1-1,1.8c-0.2,0.7-0.3,1.4-0.3,2.2c0,0.7,0.1,1.4,0.3,2.1
		c0.2,0.7,0.5,1.3,1,1.8c0.4,0.5,1,1,1.6,1.3c0.6,0.3,1.4,0.5,2.3,0.5c1.2,0,2.2-0.3,3-0.9s1.3-1.5,1.5-2.6h1.4
		c-0.1,0.9-0.4,1.7-0.9,2.4c-0.5,0.7-1.2,1.3-2,1.7S464.3,610.2,463.2,610.2z"/>
	<path class="st2" d="M476,610.2c-0.9,0-1.6-0.2-2.2-0.5c-0.6-0.3-1.1-0.7-1.5-1.3c-0.4-0.6-0.7-1.2-0.8-2c-0.2-0.8-0.3-1.6-0.3-2.5
		v-0.8c0-2.1,0.5-3.8,1.5-4.9s2.5-1.7,4.5-1.7c0.4,0,0.8,0,1.1,0c0.3,0,0.7,0.1,1,0.1v1.2c-0.4-0.1-0.7-0.1-1.1-0.1
		c-0.3,0-0.7,0-1.1,0c-1.1,0-2,0.2-2.7,0.7c-0.7,0.4-1.2,1.1-1.5,1.9s-0.5,1.8-0.5,3v1.3l-0.4,1.1c0-0.9,0.2-1.7,0.5-2.3
		c0.3-0.6,0.8-1.1,1.4-1.5c0.6-0.3,1.4-0.5,2.2-0.5c0.9,0,1.7,0.2,2.4,0.6c0.6,0.4,1.1,0.9,1.5,1.6c0.3,0.7,0.5,1.4,0.5,2.2
		c0,0.8-0.2,1.6-0.5,2.2c-0.3,0.7-0.8,1.2-1.5,1.6C477.8,610,477,610.2,476,610.2z M476,609.1c0.7,0,1.3-0.1,1.8-0.4
		c0.5-0.3,0.8-0.7,1.1-1.2c0.2-0.5,0.4-1,0.4-1.7s-0.1-1.2-0.4-1.6c-0.2-0.5-0.6-0.9-1.1-1.1c-0.5-0.3-1.1-0.4-1.8-0.4
		c-0.7,0-1.3,0.1-1.8,0.4s-0.9,0.6-1.2,1.1c-0.3,0.5-0.4,1.1-0.4,1.7c0,0.6,0.1,1.1,0.4,1.6c0.2,0.5,0.6,0.9,1.1,1.2
		S475.3,609.1,476,609.1z"/>
	<path class="st2" d="M487.7,610.2c-0.9,0-1.6-0.2-2.2-0.5c-0.6-0.3-1.1-0.7-1.5-1.3c-0.4-0.6-0.7-1.2-0.8-2
		c-0.2-0.8-0.3-1.6-0.3-2.5v-0.8c0-2.1,0.5-3.8,1.5-4.9s2.5-1.7,4.5-1.7c0.4,0,0.8,0,1.1,0c0.3,0,0.7,0.1,1,0.1v1.2
		c-0.4-0.1-0.7-0.1-1.1-0.1c-0.3,0-0.7,0-1.1,0c-1.1,0-2,0.2-2.7,0.7c-0.7,0.4-1.2,1.1-1.5,1.9s-0.5,1.8-0.5,3v1.3l-0.4,1.1
		c0-0.9,0.2-1.7,0.5-2.3c0.3-0.6,0.8-1.1,1.4-1.5c0.6-0.3,1.4-0.5,2.2-0.5c0.9,0,1.7,0.2,2.4,0.6c0.6,0.4,1.1,0.9,1.5,1.6
		c0.3,0.7,0.5,1.4,0.5,2.2c0,0.8-0.2,1.6-0.5,2.2c-0.3,0.7-0.8,1.2-1.5,1.6C489.6,610,488.7,610.2,487.7,610.2z M487.7,609.1
		c0.7,0,1.3-0.1,1.8-0.4c0.5-0.3,0.8-0.7,1.1-1.2c0.2-0.5,0.4-1,0.4-1.7s-0.1-1.2-0.4-1.6c-0.2-0.5-0.6-0.9-1.1-1.1
		c-0.5-0.3-1.1-0.4-1.8-0.4c-0.7,0-1.3,0.1-1.8,0.4s-0.9,0.6-1.2,1.1c-0.3,0.5-0.4,1.1-0.4,1.7c0,0.6,0.1,1.1,0.4,1.6
		c0.2,0.5,0.6,0.9,1.1,1.2S487,609.1,487.7,609.1z"/>
	<path class="st2" d="M495.3,610v-13.2h1.4V610H495.3z M496.3,610v-1.3h3.6c0.9,0,1.7-0.1,2.3-0.4s1.2-0.7,1.7-1.2s0.8-1.1,1-1.7
		c0.2-0.6,0.3-1.3,0.3-2.1c0-0.8-0.1-1.5-0.4-2.1s-0.6-1.2-1-1.7c-0.5-0.5-1-0.9-1.7-1.1c-0.7-0.3-1.4-0.4-2.3-0.4h-3.6v-1.3h3.4
		c1.2,0,2.2,0.2,3.1,0.5s1.6,0.8,2.2,1.5c0.6,0.6,1,1.3,1.3,2.1c0.3,0.8,0.4,1.5,0.4,2.3v0.3c0,0.8-0.1,1.5-0.4,2.3
		c-0.3,0.8-0.7,1.5-1.3,2.1c-0.6,0.6-1.3,1.1-2.1,1.5c-0.9,0.4-1.9,0.6-3.1,0.6H496.3z"/>
</g>
<g class="st31">
	<path d="M417.6,715.6v-1h10.3v1H417.6z M418.2,711.2v-1h10.2v1H418.2z M419.3,719.4l2-13.1h1.2l-2,13.1H419.3z M423.5,719.4l2-13.1
		h1.2l-2,13.1H423.5z"/>
	<path d="M430.6,719.4v-2c0-0.5,0.1-1,0.2-1.3s0.4-0.7,0.8-1c0.4-0.3,0.8-0.6,1.5-0.9l2.6-1.2c0.6-0.3,1.1-0.7,1.5-1.1
		c0.4-0.5,0.6-1.1,0.6-1.8c0-0.9-0.3-1.6-0.8-2.2c-0.5-0.5-1.2-0.8-2.1-0.8c-0.9,0-1.6,0.3-2.1,0.8c-0.5,0.5-0.8,1.2-0.8,2.2h-1.3
		c0-0.8,0.2-1.5,0.5-2.1s0.8-1.1,1.4-1.5c0.6-0.4,1.4-0.5,2.3-0.5c0.9,0,1.7,0.2,2.3,0.5s1.1,0.8,1.4,1.5s0.5,1.3,0.5,2v0.3
		c0,0.9-0.3,1.7-0.8,2.3c-0.5,0.6-1.2,1.1-2.1,1.6l-2.6,1.2c-0.6,0.3-1,0.6-1.2,0.9c-0.2,0.3-0.3,0.7-0.3,1.1v1.6l-0.4-0.6h7.6v1.2
		H430.6z"/>
	<path d="M442.2,719.4v-13.1h1.4v13.1H442.2z M443.2,707.6v-1.2h6.1v1.2H443.2z M443.2,713.4v-1.2l5.8,0v1.2L443.2,713.4z"/>
	<path d="M452.3,719.4v-13.1h1.4v13.1H452.3z M453.3,707.6v-1.2h6.4v1.2H453.3z M453.3,713.4v-1.2h5.9v1.2H453.3z M453.3,719.4v-1.2
		h6.6v1.2H453.3z"/>
	<path d="M463.8,719.4l5.5-11.8l-0.1-0.2H462v-1.2h8.5v1.7l-5.3,11.4H463.8z M462,709.7v-3.4h1.1v3.4H462z"/>
	<path d="M476.8,719.7c-0.9,0-1.8-0.2-2.5-0.5c-0.7-0.3-1.3-0.8-1.6-1.4c-0.4-0.6-0.6-1.3-0.6-2c0-0.6,0.1-1.1,0.4-1.5
		c0.2-0.4,0.5-0.8,0.9-1.1c0.4-0.3,0.8-0.5,1.3-0.7v-0.2c-0.4-0.1-0.7-0.3-1-0.6c-0.3-0.3-0.6-0.6-0.8-0.9c-0.2-0.4-0.3-0.8-0.3-1.3
		c0-0.7,0.2-1.3,0.6-1.8s0.9-0.9,1.5-1.2c0.6-0.3,1.4-0.4,2.1-0.4c0.8,0,1.5,0.1,2.2,0.4c0.6,0.3,1.1,0.7,1.5,1.2
		c0.4,0.5,0.6,1.1,0.6,1.8c0,0.5-0.1,0.9-0.3,1.3c-0.2,0.4-0.4,0.7-0.8,0.9c-0.3,0.3-0.7,0.5-1,0.6v0.2c0.5,0.1,0.9,0.4,1.3,0.7
		c0.4,0.3,0.7,0.7,0.9,1.1c0.2,0.4,0.3,0.9,0.3,1.5c0,0.8-0.2,1.4-0.6,2c-0.4,0.6-0.9,1-1.6,1.4
		C478.6,719.6,477.8,719.7,476.8,719.7z M476.8,718.6c0.7,0,1.3-0.1,1.8-0.4s0.9-0.6,1.2-1s0.4-0.9,0.4-1.5s-0.1-1-0.4-1.5
		s-0.6-0.7-1.1-1c-0.5-0.2-1.1-0.4-1.8-0.4c-0.7,0-1.3,0.1-1.8,0.4c-0.5,0.2-0.9,0.6-1.1,1s-0.4,0.9-0.4,1.5s0.1,1,0.4,1.5
		s0.6,0.8,1.1,1S476.1,718.6,476.8,718.6z M476.8,711.9c0.9,0,1.6-0.2,2.1-0.6c0.5-0.4,0.8-1,0.8-1.8c0-0.8-0.3-1.4-0.8-1.8
		c-0.5-0.4-1.2-0.6-2.1-0.6c-0.9,0-1.6,0.2-2.1,0.6c-0.5,0.4-0.8,1-0.8,1.8c0,0.8,0.3,1.4,0.8,1.8
		C475.3,711.7,476,711.9,476.8,711.9z"/>
	<path d="M484.5,719.4v-13.1h1.4v13.1H484.5z M485.6,707.6v-1.2h6.4v1.2H485.6z M485.6,713.4v-1.2h5.9v1.2H485.6z M485.6,719.4v-1.2
		h6.6v1.2H485.6z"/>
</g>
<g class="st31">
	<path d="M417.6,782v-1h10.3v1H417.6z M418.2,777.6v-1h10.2v1H418.2z M419.3,785.9l2-13.1h1.2l-2,13.1H419.3z M423.5,785.9l2-13.1
		h1.2l-2,13.1H423.5z"/>
	<path d="M431.9,785.9l5.5-11.8l-0.1-0.2h-7.2v-1.2h8.5v1.7l-5.3,11.4H431.9z M430.1,776.1v-3.4h1.1v3.4H430.1z"/>
	<path d="M441.3,785.9v-13.2h1.4v13.2H441.3z M442.4,785.9v-1.3h3.6c0.9,0,1.7-0.1,2.3-0.4s1.2-0.7,1.7-1.2s0.8-1.1,1-1.7
		c0.2-0.6,0.3-1.3,0.3-2.1c0-0.8-0.1-1.5-0.4-2.1s-0.6-1.2-1-1.7c-0.5-0.5-1-0.9-1.7-1.1c-0.7-0.3-1.4-0.4-2.3-0.4h-3.6v-1.3h3.4
		c1.2,0,2.2,0.2,3.1,0.5s1.6,0.8,2.2,1.5c0.6,0.6,1,1.3,1.3,2.1c0.3,0.8,0.4,1.5,0.4,2.3v0.3c0,0.8-0.1,1.5-0.4,2.3
		c-0.3,0.8-0.7,1.5-1.3,2.1c-0.6,0.6-1.3,1.1-2.1,1.5c-0.9,0.4-1.9,0.6-3.1,0.6H442.4z"/>
	<path d="M455.6,785.9v-13.1h1.4v13.1H455.6z M456.6,774v-1.2h6.1v1.2H456.6z M456.6,779.8v-1.2l5.8,0v1.2L456.6,779.8z"/>
	<path d="M467.4,785.9v-12.4l0.6,0.5h-3.6v-1.2h4.3v13.1H467.4z"/>
	<path d="M478.7,786.2c-1.2,0-2.2-0.2-3-0.6s-1.5-1-2-1.6c-0.5-0.7-0.9-1.4-1.1-2.2c-0.2-0.8-0.4-1.5-0.4-2.3v-0.3
		c0-0.8,0.1-1.6,0.4-2.4c0.2-0.8,0.6-1.5,1.1-2.2c0.5-0.6,1.2-1.2,2-1.6c0.8-0.4,1.8-0.6,2.9-0.6c1.1,0,2.1,0.2,2.9,0.6
		c0.8,0.4,1.5,0.9,2,1.7c0.5,0.7,0.8,1.6,0.9,2.5H483c-0.1-0.8-0.3-1.4-0.8-1.9c-0.4-0.5-0.9-0.9-1.6-1.2c-0.6-0.3-1.3-0.4-2.1-0.4
		c-0.8,0-1.6,0.1-2.2,0.4c-0.6,0.3-1.2,0.7-1.6,1.2c-0.4,0.5-0.7,1.1-1,1.8c-0.2,0.7-0.3,1.4-0.3,2.2c0,0.7,0.1,1.4,0.3,2.1
		c0.2,0.7,0.5,1.3,1,1.8c0.4,0.5,1,1,1.6,1.3c0.6,0.3,1.4,0.5,2.3,0.5c1.2,0,2.2-0.3,3-0.9s1.3-1.5,1.5-2.6h1.4
		c-0.1,0.9-0.4,1.7-0.9,2.4c-0.5,0.7-1.2,1.3-2,1.7S479.9,786.2,478.7,786.2z"/>
	<path d="M492,786.2c-0.9,0-1.7-0.2-2.4-0.5c-0.7-0.3-1.2-0.8-1.6-1.4s-0.7-1.3-0.9-2c-0.2-0.8-0.3-1.6-0.3-2.5v-0.8
		c0-1.3,0.2-2.4,0.6-3.4s1-1.7,1.7-2.3s1.7-0.8,2.9-0.8c1.2,0,2.1,0.3,2.9,0.8s1.3,1.3,1.7,2.3c0.4,1,0.6,2.1,0.6,3.4v0.8
		c0,0.9-0.1,1.8-0.3,2.5c-0.2,0.8-0.5,1.5-0.9,2s-1,1-1.6,1.4S492.9,786.2,492,786.2z M492,785c1.3,0,2.3-0.5,2.9-1.4
		s0.9-2.3,0.9-4.3c0-2-0.3-3.5-1-4.4c-0.6-0.9-1.6-1.3-2.9-1.3c-1.3,0-2.2,0.4-2.9,1.3c-0.6,0.9-1,2.3-1,4.3c0,1.9,0.3,3.4,0.9,4.3
		C489.7,784.5,490.7,785,492,785z"/>
</g>
<g class="st31">
	<path d="M417.6,835.9v-1h10.3v1H417.6z M418.2,831.5v-1h10.2v1H418.2z M419.3,839.7l2-13.1h1.2l-2,13.1H419.3z M423.5,839.7l2-13.1
		h1.2l-2,13.1H423.5z"/>
	<path d="M431.2,839.8v-13.2h1.4v13.2H431.2z M432.2,833.4v-0.9h3.4c0.8,0,1.4-0.2,1.8-0.7c0.4-0.4,0.6-1,0.6-1.7
		c0-0.7-0.2-1.3-0.6-1.7c-0.4-0.4-1-0.7-1.8-0.7h-3.4v-1.2h3.1c1.4,0,2.4,0.3,3,0.9s1,1.5,1,2.5v0.2c0,0.8-0.2,1.4-0.5,1.8
		c-0.3,0.5-0.8,0.8-1.4,1s-1.3,0.3-2.1,0.3H432.2z M432.2,839.8v-1.2h3.8c0.8,0,1.4-0.2,1.8-0.7c0.4-0.4,0.7-1,0.7-1.8
		c0-0.7-0.2-1.3-0.6-1.8s-1-0.7-1.8-0.7h-3.8v-0.9h3.6c0.8,0,1.5,0.1,2.1,0.3c0.6,0.2,1.1,0.6,1.4,1.1s0.5,1.1,0.5,1.9v0.2
		c0,0.7-0.1,1.3-0.4,1.9c-0.3,0.5-0.7,0.9-1.3,1.2s-1.4,0.4-2.3,0.4H432.2z"/>
	<path d="M448.8,840.1c-1.2,0-2.2-0.2-3-0.6s-1.5-1-2-1.6c-0.5-0.7-0.9-1.4-1.1-2.2c-0.2-0.8-0.4-1.5-0.4-2.3V833
		c0-0.8,0.1-1.6,0.4-2.4c0.2-0.8,0.6-1.5,1.1-2.2c0.5-0.6,1.2-1.2,2-1.6c0.8-0.4,1.8-0.6,2.9-0.6c1.1,0,2.1,0.2,2.9,0.6
		c0.8,0.4,1.5,0.9,2,1.7c0.5,0.7,0.8,1.6,0.9,2.5h-1.4c-0.1-0.8-0.3-1.4-0.8-1.9c-0.4-0.5-0.9-0.9-1.6-1.2c-0.6-0.3-1.3-0.4-2.1-0.4
		c-0.8,0-1.6,0.1-2.2,0.4c-0.6,0.3-1.2,0.7-1.6,1.2c-0.4,0.5-0.7,1.1-1,1.8c-0.2,0.7-0.3,1.4-0.3,2.2c0,0.7,0.1,1.4,0.3,2.1
		c0.2,0.7,0.5,1.3,1,1.8c0.4,0.5,1,1,1.6,1.3c0.6,0.3,1.4,0.5,2.3,0.5c1.2,0,2.2-0.3,3-0.9s1.3-1.5,1.5-2.6h1.4
		c-0.1,0.9-0.4,1.7-0.9,2.4c-0.5,0.7-1.2,1.3-2,1.7S449.9,840.1,448.8,840.1z"/>
	<path d="M457.5,839.7v-13.1h1.4v13.1H457.5z M458.5,827.9v-1.2h6.1v1.2H458.5z M458.5,833.7v-1.2l5.8,0v1.2L458.5,833.7z"/>
	<path d="M470.8,840.1c-1,0-1.8-0.2-2.4-0.6c-0.7-0.4-1.2-0.9-1.5-1.5c-0.3-0.6-0.5-1.3-0.5-2.1h1.3c0,0.9,0.3,1.6,0.8,2.2
		c0.6,0.5,1.3,0.8,2.3,0.8c0.6,0,1.2-0.1,1.7-0.4c0.5-0.2,0.8-0.6,1.1-1c0.3-0.4,0.4-1,0.4-1.5c0-0.9-0.3-1.6-0.8-2.2
		c-0.6-0.6-1.3-0.8-2.3-0.8c-0.4,0-0.7,0-1,0.1s-0.5,0.2-0.7,0.3l-0.7-1.3l5.2-4.1l-0.1-0.3h-6.6v-1.2h7.8v1.9l-4.6,3.6l-0.9,0
		c0.2-0.1,0.5-0.2,0.7-0.2c0.3-0.1,0.6-0.1,1-0.1c0.9,0,1.7,0.2,2.4,0.5c0.7,0.4,1.2,0.8,1.5,1.4c0.3,0.6,0.5,1.3,0.5,2v0.3
		c0,0.7-0.2,1.3-0.5,2c-0.3,0.6-0.9,1.1-1.5,1.5C472.6,839.9,471.8,840.1,470.8,840.1z"/>
	<path d="M478.4,839.7v-13.1h1.4v13.1H478.4z M479.5,827.9v-1.2h6.4v1.2H479.5z M479.5,833.7v-1.2h5.9v1.2H479.5z M479.5,839.7v-1.2
		h6.6v1.2H479.5z"/>
	<path d="M491,839.7v-12.4l0.6,0.5H488v-1.2h4.3v13.1H491z"/>
</g>
<g class="st31">
	<path d="M417.6,884.4v-1h10.3v1H417.6z M418.2,880v-1h10.2v1H418.2z M419.3,888.2l2-13.1h1.2l-2,13.1H419.3z M423.5,888.2l2-13.1
		h1.2l-2,13.1H423.5z"/>
	<path d="M431.2,888.2v-13.1h1.4v13.1H431.2z M432.2,876.4v-1.2h6.4v1.2H432.2z M432.2,882.2V881h5.9v1.2H432.2z M432.2,888.2V887
		h6.6v1.2H432.2z"/>
	<path d="M446.6,888.5c-0.9,0-1.7-0.2-2.4-0.5c-0.7-0.3-1.2-0.8-1.6-1.4s-0.7-1.3-0.9-2c-0.2-0.8-0.3-1.6-0.3-2.5v-0.8
		c0-1.3,0.2-2.4,0.6-3.4s1-1.7,1.7-2.3s1.7-0.8,2.9-0.8c1.2,0,2.1,0.3,2.9,0.8s1.3,1.3,1.7,2.3c0.4,1,0.6,2.1,0.6,3.4v0.8
		c0,0.9-0.1,1.8-0.3,2.5c-0.2,0.8-0.5,1.5-0.9,2s-1,1-1.6,1.4S447.5,888.5,446.6,888.5z M446.6,887.3c1.3,0,2.3-0.5,2.9-1.4
		s0.9-2.3,0.9-4.3c0-2-0.3-3.5-1-4.4c-0.6-0.9-1.6-1.3-2.9-1.3c-1.3,0-2.2,0.4-2.9,1.3c-0.6,0.9-1,2.3-1,4.3c0,1.9,0.3,3.4,0.9,4.3
		C444.3,886.9,445.3,887.3,446.6,887.3z"/>
	<path d="M455.2,888.2v-13.1h1.4v13.1H455.2z M456.2,876.3v-1.2h6.1v1.2H456.2z M456.2,882.2v-1.2l5.8,0v1.2L456.2,882.2z"/>
	<path d="M463.1,888.2l4.8-13.1h2.4l5,13.1h-1.4l-4.7-12.2l0.7,0.4h-1.9l0.8-0.4l-4.5,12.2H463.1z M465.7,884.1l0.4-1.2h6.1l0.5,1.2
		H465.7z"/>
	<path d="M478,888.2v-13.1h1.4v13.1H478z M479,876.3v-1.2h6.1v1.2H479z M479,882.2v-1.2l5.8,0v1.2L479,882.2z"/>
	<path d="M492.6,888.5c-0.9,0-1.7-0.2-2.4-0.5c-0.7-0.3-1.2-0.8-1.6-1.4s-0.7-1.3-0.9-2c-0.2-0.8-0.3-1.6-0.3-2.5v-0.8
		c0-1.3,0.2-2.4,0.6-3.4s1-1.7,1.7-2.3s1.7-0.8,2.9-0.8c1.2,0,2.1,0.3,2.9,0.8s1.3,1.3,1.7,2.3c0.4,1,0.6,2.1,0.6,3.4v0.8
		c0,0.9-0.1,1.8-0.3,2.5c-0.2,0.8-0.5,1.5-0.9,2s-1,1-1.6,1.4S493.5,888.5,492.6,888.5z M492.6,887.3c1.3,0,2.3-0.5,2.9-1.4
		s0.9-2.3,0.9-4.3c0-2-0.3-3.5-1-4.4c-0.6-0.9-1.6-1.3-2.9-1.3c-1.3,0-2.2,0.4-2.9,1.3c-0.6,0.9-1,2.3-1,4.3c0,1.9,0.3,3.4,0.9,4.3
		C490.3,886.9,491.3,887.3,492.6,887.3z"/>
</g>
<g class="st31">
	<path d="M417.6,932.8v-1h10.3v1H417.6z M418.2,928.5v-1h10.2v1H418.2z M419.3,936.7l2-13.1h1.2l-2,13.1H419.3z M423.5,936.7l2-13.1
		h1.2l-2,13.1H423.5z"/>
	<path d="M431.2,936.7v-13.1h1.4v13.1H431.2z M432.2,924.8v-1.2h6.1v1.2H432.2z M432.2,930.7v-1.2l5.8,0v1.2L432.2,930.7z"/>
	<path d="M440.1,933.4v-1.7l5.6-8.4l0.9,0.7l-5.3,8l0.1,0.3h8.5v1.1H440.1z M447,936.7v-9.2h1.3v9.2H447z"/>
	<path d="M452.6,936.7v-13.1h1.4v13.1H452.6z M453.6,924.8v-1.2h6.1v1.2H453.6z M453.6,930.7v-1.2l5.8,0v1.2L453.6,930.7z"/>
	<path d="M462.6,936.7v-13.1h1.4v13.1H462.6z M463.6,924.8v-1.2h6.1v1.2H463.6z M463.6,930.7v-1.2l5.8,0v1.2L463.6,930.7z"/>
	<path d="M472.7,936.7v-13.1h1.4v13.1H472.7z M473.7,924.8v-1.2h6.1v1.2H473.7z M473.7,930.7v-1.2l5.8,0v1.2L473.7,930.7z"/>
	<path d="M486.3,923.3c0.9,0,1.6,0.2,2.2,0.5c0.6,0.3,1.1,0.7,1.5,1.3s0.7,1.2,0.8,2c0.2,0.8,0.3,1.6,0.3,2.5v0.8
		c0,2.1-0.5,3.8-1.5,4.9c-1,1.1-2.5,1.7-4.5,1.7c-0.4,0-0.8,0-1.1,0s-0.7-0.1-1-0.1v-1.2c0.4,0.1,0.7,0.1,1.1,0.1c0.3,0,0.7,0,1.1,0
		c1.1,0,2-0.2,2.7-0.7c0.7-0.4,1.2-1.1,1.5-1.9c0.3-0.8,0.5-1.8,0.5-3v-1.3l0.4-1.1c0,0.9-0.2,1.7-0.5,2.3c-0.3,0.6-0.8,1.1-1.4,1.5
		c-0.6,0.3-1.4,0.5-2.2,0.5c-0.9,0-1.7-0.2-2.4-0.6s-1.1-0.9-1.5-1.6c-0.3-0.7-0.5-1.4-0.5-2.2c0-0.8,0.2-1.6,0.5-2.2
		c0.3-0.7,0.8-1.2,1.5-1.6C484.4,923.5,485.2,923.3,486.3,923.3z M486.3,924.4c-0.7,0-1.3,0.1-1.8,0.4c-0.5,0.3-0.8,0.7-1.1,1.2
		c-0.2,0.5-0.4,1-0.4,1.7c0,0.6,0.1,1.2,0.4,1.6c0.2,0.5,0.6,0.9,1.1,1.1c0.5,0.3,1.1,0.4,1.8,0.4c0.7,0,1.3-0.1,1.8-0.4
		c0.5-0.3,0.9-0.6,1.2-1.1c0.3-0.5,0.4-1.1,0.4-1.7c0-0.6-0.1-1.1-0.4-1.6c-0.2-0.5-0.6-0.9-1.1-1.2
		C487.6,924.6,487,924.4,486.3,924.4z"/>
</g>
<g class="st31">
	<path class="st2" d="M812.6,606v-1h10.3v1H812.6z M813.3,601.7v-1h10.2v1H813.3z M814.4,609.9l2-13.1h1.2l-2,13.1H814.4z
		 M818.6,609.9l2-13.1h1.2l-2,13.1H818.6z"/>
	<path class="st2" d="M826.2,609.9v-13.1h1.4v13.1H826.2z M827.3,598v-1.2h6.4v1.2H827.3z M827.3,603.9v-1.2h5.9v1.2H827.3z
		 M827.3,609.9v-1.2h6.6v1.2H827.3z"/>
	<path class="st2" d="M841.2,610.2c-0.9,0-1.6-0.2-2.2-0.5c-0.6-0.3-1.1-0.7-1.5-1.3c-0.4-0.6-0.7-1.2-0.8-2
		c-0.2-0.8-0.3-1.6-0.3-2.5v-0.8c0-2.1,0.5-3.8,1.5-4.9s2.5-1.7,4.5-1.7c0.4,0,0.8,0,1.1,0c0.3,0,0.7,0.1,1,0.1v1.2
		c-0.4-0.1-0.7-0.1-1.1-0.1c-0.3,0-0.7,0-1.1,0c-1.1,0-2,0.2-2.7,0.7c-0.7,0.4-1.2,1.1-1.5,1.9s-0.5,1.8-0.5,3v1.3l-0.4,1.1
		c0-0.9,0.2-1.7,0.5-2.3c0.3-0.6,0.8-1.1,1.4-1.5s1.4-0.5,2.2-0.5c0.9,0,1.7,0.2,2.4,0.6c0.6,0.4,1.1,0.9,1.5,1.6
		c0.3,0.7,0.5,1.4,0.5,2.2c0,0.8-0.2,1.6-0.5,2.2c-0.3,0.7-0.8,1.2-1.5,1.6C843.1,610,842.2,610.2,841.2,610.2z M841.2,609.1
		c0.7,0,1.3-0.1,1.8-0.4c0.5-0.3,0.8-0.7,1.1-1.2c0.2-0.5,0.4-1,0.4-1.7s-0.1-1.2-0.4-1.6c-0.2-0.5-0.6-0.9-1.1-1.1
		s-1.1-0.4-1.8-0.4c-0.7,0-1.3,0.1-1.8,0.4s-0.9,0.6-1.2,1.1c-0.3,0.5-0.4,1.1-0.4,1.7c0,0.6,0.1,1.1,0.4,1.6
		c0.2,0.5,0.6,0.9,1.1,1.2C839.9,608.9,840.5,609.1,841.2,609.1z"/>
	<path class="st2" d="M852.4,610.2c-1,0-1.8-0.2-2.5-0.6c-0.7-0.4-1.2-0.9-1.5-1.6c-0.3-0.7-0.5-1.4-0.5-2.1h1.3
		c0,0.6,0.1,1.1,0.4,1.6s0.6,0.8,1.1,1.1c0.5,0.3,1.1,0.4,1.7,0.4c0.7,0,1.3-0.1,1.7-0.4c0.5-0.3,0.8-0.6,1.1-1.1
		c0.3-0.5,0.4-1,0.4-1.6c0-0.6-0.1-1.1-0.4-1.6c-0.3-0.5-0.6-0.9-1.1-1.1s-1.1-0.4-1.8-0.4c-0.5,0-1,0.1-1.4,0.2
		c-0.5,0.2-0.9,0.4-1.2,0.7h-1.2l0.7-6.9h6.5v1.2H850l0.4-0.5l-0.5,5.4l-0.4-0.1c0.4-0.4,0.8-0.7,1.3-0.9c0.5-0.2,1.1-0.3,1.7-0.3
		c1,0,1.8,0.2,2.5,0.6c0.7,0.4,1.2,0.9,1.5,1.6c0.3,0.6,0.5,1.3,0.5,2v0.2c0,0.7-0.2,1.4-0.5,2c-0.3,0.6-0.9,1.2-1.5,1.6
		C854.2,610,853.4,610.2,852.4,610.2z"/>
	<path class="st2" d="M864.4,610.2c-0.9,0-1.7-0.2-2.4-0.5c-0.7-0.3-1.2-0.8-1.6-1.4c-0.4-0.6-0.7-1.3-0.9-2s-0.3-1.6-0.3-2.5v-0.8
		c0-1.3,0.2-2.4,0.6-3.4s1-1.7,1.7-2.3c0.8-0.6,1.7-0.8,2.9-0.8c1.2,0,2.1,0.3,2.9,0.8s1.3,1.3,1.7,2.3c0.4,1,0.6,2.1,0.6,3.4v0.8
		c0,0.9-0.1,1.8-0.3,2.5c-0.2,0.8-0.5,1.5-0.9,2s-1,1-1.6,1.4S865.4,610.2,864.4,610.2z M864.4,609c1.3,0,2.3-0.5,2.9-1.4
		c0.6-0.9,0.9-2.3,0.9-4.3c0-2-0.3-3.5-1-4.4c-0.6-0.9-1.6-1.3-2.9-1.3c-1.3,0-2.2,0.4-2.9,1.3c-0.6,0.9-1,2.3-1,4.3
		c0,1.9,0.3,3.4,0.9,4.3C862.2,608.5,863.1,609,864.4,609z"/>
	<path class="st2" d="M872,606.6V605l5.6-8.4l0.9,0.7l-5.3,8l0.1,0.3h8.5v1.1H872z M878.8,609.9v-9.2h1.3v9.2H878.8z"/>
	<path class="st2" d="M884.4,609.9v-13.1h1.4v13.1H884.4z M885.4,598v-1.2h6.1v1.2H885.4z M885.4,603.9v-1.2l5.8,0v1.2L885.4,603.9z
		"/>
</g>
<g class="st31">
	<path d="M812.6,715.6v-1h10.3v1H812.6z M813.3,711.2v-1h10.2v1H813.3z M814.4,719.4l2-13.1h1.2l-2,13.1H814.4z M818.6,719.4l2-13.1
		h1.2l-2,13.1H818.6z"/>
	<path d="M826.2,719.4v-13.1h1.4v13.1H826.2z M827.2,707.6v-1.2h6.1v1.2H827.2z M827.2,713.4v-1.2l5.8,0v1.2L827.2,713.4z"/>
	<path d="M835.7,719.4v-2c0-0.5,0.1-1,0.2-1.3c0.1-0.4,0.4-0.7,0.8-1c0.4-0.3,0.8-0.6,1.5-0.9l2.6-1.2c0.6-0.3,1.1-0.7,1.5-1.1
		c0.4-0.5,0.6-1.1,0.6-1.8c0-0.9-0.3-1.6-0.8-2.2c-0.5-0.5-1.2-0.8-2.1-0.8c-0.9,0-1.6,0.3-2.1,0.8c-0.5,0.5-0.8,1.2-0.8,2.2h-1.3
		c0-0.8,0.2-1.5,0.5-2.1c0.3-0.6,0.8-1.1,1.4-1.5c0.6-0.4,1.4-0.5,2.3-0.5c0.9,0,1.7,0.2,2.3,0.5s1.1,0.8,1.4,1.5s0.5,1.3,0.5,2v0.3
		c0,0.9-0.3,1.7-0.8,2.3c-0.5,0.6-1.2,1.1-2.1,1.6l-2.6,1.2c-0.6,0.3-1,0.6-1.2,0.9c-0.2,0.3-0.3,0.7-0.3,1.1v1.6l-0.4-0.6h7.6v1.2
		H835.7z"/>
	<path d="M848,719.4l5.5-11.8l-0.1-0.2h-7.2v-1.2h8.5v1.7l-5.3,11.4H848z M846.2,709.7v-3.4h1.1v3.4H846.2z"/>
	<path d="M857.5,719.5v-13.2h1.4v13.2H857.5z M858.5,713.1v-0.9h3.4c0.8,0,1.4-0.2,1.8-0.7c0.4-0.4,0.6-1,0.6-1.7
		c0-0.7-0.2-1.3-0.6-1.7c-0.4-0.4-1-0.7-1.8-0.7h-3.4v-1.2h3.1c1.4,0,2.4,0.3,3,0.9c0.7,0.6,1,1.5,1,2.5v0.2c0,0.8-0.2,1.4-0.5,1.8
		c-0.3,0.5-0.8,0.8-1.4,1s-1.3,0.3-2.1,0.3H858.5z M858.5,719.5v-1.2h3.8c0.8,0,1.4-0.2,1.8-0.7c0.4-0.4,0.7-1,0.7-1.8
		c0-0.7-0.2-1.3-0.6-1.8s-1-0.7-1.8-0.7h-3.8v-0.9h3.6c0.8,0,1.5,0.1,2.1,0.3c0.6,0.2,1.1,0.6,1.4,1.1c0.3,0.5,0.5,1.1,0.5,1.9v0.2
		c0,0.7-0.2,1.3-0.4,1.9c-0.3,0.5-0.7,0.9-1.3,1.2s-1.4,0.4-2.3,0.4H858.5z"/>
	<path d="M870.2,719.4l5.5-11.8l-0.1-0.2h-7.2v-1.2h8.5v1.7l-5.3,11.4H870.2z M868.5,709.7v-3.4h1.2v3.4H868.5z"/>
	<path d="M879.7,719.5v-13.2h1.4v13.2H879.7z M880.7,713.1v-0.9h3.4c0.8,0,1.4-0.2,1.8-0.7c0.4-0.4,0.6-1,0.6-1.7
		c0-0.7-0.2-1.3-0.6-1.7c-0.4-0.4-1-0.7-1.8-0.7h-3.4v-1.2h3.1c1.4,0,2.4,0.3,3,0.9c0.7,0.6,1,1.5,1,2.5v0.2c0,0.8-0.2,1.4-0.5,1.8
		c-0.3,0.5-0.8,0.8-1.4,1s-1.3,0.3-2.1,0.3H880.7z M880.7,719.5v-1.2h3.8c0.8,0,1.4-0.2,1.8-0.7c0.4-0.4,0.7-1,0.7-1.8
		c0-0.7-0.2-1.3-0.6-1.8s-1-0.7-1.8-0.7h-3.8v-0.9h3.6c0.8,0,1.5,0.1,2.1,0.3c0.6,0.2,1.1,0.6,1.4,1.1c0.3,0.5,0.5,1.1,0.5,1.9v0.2
		c0,0.7-0.1,1.3-0.4,1.9c-0.3,0.5-0.7,0.9-1.3,1.2s-1.4,0.4-2.3,0.4H880.7z"/>
</g>
<g class="st31">
	<path d="M812.6,782v-1h10.3v1H812.6z M813.3,777.6v-1h10.2v1H813.3z M814.4,785.9l2-13.1h1.2l-2,13.1H814.4z M818.6,785.9l2-13.1
		h1.2l-2,13.1H818.6z"/>
	<path d="M826.2,785.9v-13.1h1.4v13.1H826.2z M827.2,774v-1.2h6.1v1.2H827.2z M827.2,779.8v-1.2l5.8,0v1.2L827.2,779.8z"/>
	<path d="M836.3,785.9v-13.1h1.4v13.1H836.3z M837.3,774v-1.2h6.1v1.2H837.3z M837.3,779.8v-1.2l5.8,0v1.2L837.3,779.8z"/>
	<path d="M851.8,786.2c-1.2,0-2.2-0.2-3-0.6s-1.5-1-2-1.6c-0.5-0.7-0.9-1.4-1.1-2.2c-0.2-0.8-0.4-1.5-0.4-2.3v-0.3
		c0-0.8,0.1-1.6,0.4-2.4s0.6-1.5,1.1-2.2c0.5-0.6,1.2-1.2,2-1.6c0.8-0.4,1.8-0.6,2.9-0.6c1.1,0,2.1,0.2,2.9,0.6
		c0.8,0.4,1.5,0.9,2,1.7c0.5,0.7,0.8,1.6,0.9,2.5h-1.4c-0.1-0.8-0.3-1.4-0.8-1.9s-0.9-0.9-1.6-1.2c-0.6-0.3-1.3-0.4-2.1-0.4
		c-0.8,0-1.6,0.1-2.2,0.4c-0.6,0.3-1.2,0.7-1.6,1.2c-0.4,0.5-0.7,1.1-1,1.8c-0.2,0.7-0.3,1.4-0.3,2.2c0,0.7,0.1,1.4,0.3,2.1
		c0.2,0.7,0.5,1.3,1,1.8c0.4,0.5,1,1,1.6,1.3c0.6,0.3,1.4,0.5,2.3,0.5c1.2,0,2.2-0.3,3-0.9s1.3-1.5,1.5-2.6h1.4
		c-0.1,0.9-0.4,1.7-0.9,2.4c-0.5,0.7-1.2,1.3-2,1.7S853,786.2,851.8,786.2z"/>
	<path d="M865.1,786.2c-0.9,0-1.7-0.2-2.4-0.5c-0.7-0.3-1.2-0.8-1.6-1.4s-0.7-1.3-0.9-2c-0.2-0.8-0.3-1.6-0.3-2.5v-0.8
		c0-1.3,0.2-2.4,0.6-3.4s1-1.7,1.7-2.3s1.7-0.8,2.9-0.8c1.2,0,2.1,0.3,2.9,0.8c0.8,0.6,1.3,1.3,1.7,2.3c0.4,1,0.6,2.1,0.6,3.4v0.8
		c0,0.9-0.1,1.8-0.3,2.5s-0.5,1.5-0.9,2c-0.4,0.6-1,1-1.6,1.4S866,786.2,865.1,786.2z M865.1,785c1.3,0,2.3-0.5,2.9-1.4
		s0.9-2.3,0.9-4.3c0-2-0.3-3.5-1-4.4c-0.6-0.9-1.6-1.3-2.9-1.3c-1.3,0-2.2,0.4-2.9,1.3c-0.6,0.9-1,2.3-1,4.3c0,1.9,0.3,3.4,0.9,4.3
		C862.8,784.5,863.8,785,865.1,785z"/>
	<path d="M873.7,785.9v-13.2h1.4v13.2H873.7z M874.7,779.6v-0.9h3.4c0.8,0,1.4-0.2,1.8-0.7c0.4-0.4,0.6-1,0.6-1.7
		c0-0.7-0.2-1.3-0.6-1.7c-0.4-0.4-1-0.7-1.8-0.7h-3.4v-1.2h3.1c1.4,0,2.4,0.3,3,0.9s1,1.5,1,2.5v0.2c0,0.8-0.2,1.4-0.5,1.8
		c-0.3,0.5-0.8,0.8-1.4,1c-0.6,0.2-1.3,0.3-2.1,0.3H874.7z M874.7,785.9v-1.2h3.8c0.8,0,1.4-0.2,1.8-0.7c0.4-0.4,0.7-1,0.7-1.8
		c0-0.7-0.2-1.3-0.6-1.8c-0.4-0.4-1-0.7-1.8-0.7h-3.8v-0.9h3.6c0.8,0,1.5,0.1,2.1,0.3c0.6,0.2,1.1,0.6,1.4,1.1s0.5,1.1,0.5,1.9v0.2
		c0,0.7-0.1,1.3-0.4,1.9c-0.3,0.5-0.7,0.9-1.3,1.2c-0.6,0.3-1.4,0.4-2.3,0.4H874.7z"/>
	<path d="M884.2,785.9l4.8-13.1h2.4l5,13.1H895l-4.7-12.2l0.7,0.4h-1.9l0.8-0.4l-4.5,12.2H884.2z M886.8,781.7l0.4-1.2h6.1l0.5,1.2
		H886.8z"/>
</g>
<g class="st31">
	<path d="M812.6,835.9v-1h10.3v1H812.6z M813.3,831.5v-1h10.2v1H813.3z M814.4,839.7l2-13.1h1.2l-2,13.1H814.4z M818.6,839.7l2-13.1
		h1.2l-2,13.1H818.6z"/>
	<path d="M826.2,839.7v-13.1h1.4v13.1H826.2z M827.2,827.9v-1.2h6.1v1.2H827.2z M827.2,833.7v-1.2l5.8,0v1.2L827.2,833.7z"/>
	<path d="M836.3,839.7v-13.1h1.4v13.1H836.3z M837.3,827.9v-1.2h6.1v1.2H837.3z M837.3,833.7v-1.2l5.8,0v1.2L837.3,833.7z"/>
	<path d="M846.3,839.8v-13.2h1.4v13.2H846.3z M847.4,839.8v-1.3h3.6c0.9,0,1.7-0.1,2.3-0.4s1.2-0.7,1.7-1.2s0.8-1.1,1-1.7
		c0.2-0.6,0.3-1.3,0.3-2.1c0-0.8-0.1-1.5-0.3-2.1s-0.6-1.2-1-1.7c-0.5-0.5-1-0.9-1.7-1.1s-1.4-0.4-2.3-0.4h-3.6v-1.3h3.4
		c1.2,0,2.2,0.2,3.1,0.5c0.9,0.4,1.6,0.8,2.2,1.5c0.6,0.6,1,1.3,1.3,2.1c0.3,0.8,0.4,1.5,0.4,2.3v0.3c0,0.8-0.1,1.5-0.4,2.3
		c-0.3,0.8-0.7,1.5-1.3,2.1c-0.6,0.6-1.3,1.1-2.1,1.5s-1.9,0.6-3.1,0.6H847.4z"/>
	<path d="M861.3,839.7l5.5-11.8l-0.1-0.2h-7.2v-1.2h8.5v1.7l-5.3,11.4H861.3z M859.5,830v-3.4h1.2v3.4H859.5z"/>
	<path d="M870.8,839.8v-13.2h1.4v13.2H870.8z M871.8,839.8v-1.3h3.6c0.9,0,1.7-0.1,2.3-0.4c0.7-0.3,1.2-0.7,1.7-1.2s0.8-1.1,1-1.7
		c0.2-0.6,0.3-1.3,0.3-2.1c0-0.8-0.1-1.5-0.4-2.1c-0.2-0.6-0.6-1.2-1-1.7c-0.5-0.5-1-0.9-1.7-1.1s-1.4-0.4-2.3-0.4h-3.6v-1.3h3.4
		c1.2,0,2.2,0.2,3.1,0.5s1.6,0.8,2.2,1.5c0.6,0.6,1,1.3,1.3,2.1c0.3,0.8,0.4,1.5,0.4,2.3v0.3c0,0.8-0.1,1.5-0.4,2.3
		c-0.3,0.8-0.7,1.5-1.3,2.1c-0.6,0.6-1.3,1.1-2.1,1.5c-0.9,0.4-1.9,0.6-3.1,0.6H871.8z"/>
	<path d="M883.9,836.5v-1.7l5.6-8.4l0.9,0.7l-5.3,8l0.1,0.3h8.5v1.1H883.9z M890.8,839.7v-9.2h1.3v9.2H890.8z"/>
</g>
<g class="st31">
	<path d="M812.6,884.4v-1h10.3v1H812.6z M813.3,880v-1h10.2v1H813.3z M814.4,888.2l2-13.1h1.2l-2,13.1H814.4z M818.6,888.2l2-13.1
		h1.2l-2,13.1H818.6z"/>
	<path d="M826.2,888.2v-13.1h1.4v13.1H826.2z M827.2,876.3v-1.2h6.1v1.2H827.2z M827.2,882.2v-1.2l5.8,0v1.2L827.2,882.2z"/>
	<path d="M836.3,888.2v-13.1h1.4v13.1H836.3z M837.3,876.3v-1.2h6.1v1.2H837.3z M837.3,882.2v-1.2l5.8,0v1.2L837.3,882.2z"/>
	<path d="M846.3,888.2v-13.1h1.4v13.1H846.3z M847.4,876.4v-1.2h6.4v1.2H847.4z M847.4,882.2V881h5.9v1.2H847.4z M847.4,888.2V887
		h6.6v1.2H847.4z"/>
	<path d="M860.8,888.5c-0.9,0-1.8-0.2-2.5-0.5c-0.7-0.3-1.3-0.8-1.6-1.4c-0.4-0.6-0.6-1.3-0.6-2c0-0.6,0.1-1.1,0.3-1.5
		c0.2-0.4,0.5-0.8,0.9-1.1c0.4-0.3,0.8-0.5,1.3-0.7v-0.2c-0.4-0.1-0.7-0.3-1-0.6c-0.3-0.3-0.6-0.6-0.8-0.9c-0.2-0.4-0.3-0.8-0.3-1.3
		c0-0.7,0.2-1.3,0.6-1.8s0.9-0.9,1.5-1.2s1.4-0.4,2.1-0.4c0.8,0,1.5,0.1,2.2,0.4s1.1,0.7,1.5,1.2s0.6,1.1,0.6,1.8
		c0,0.5-0.1,0.9-0.3,1.3c-0.2,0.4-0.4,0.7-0.8,0.9c-0.3,0.3-0.7,0.5-1,0.6v0.2c0.5,0.1,0.9,0.4,1.3,0.7c0.4,0.3,0.7,0.7,0.9,1.1
		c0.2,0.4,0.3,0.9,0.3,1.5c0,0.8-0.2,1.4-0.6,2c-0.4,0.6-0.9,1-1.6,1.4C862.6,888.4,861.7,888.5,860.8,888.5z M860.8,887.4
		c0.7,0,1.3-0.1,1.8-0.4c0.5-0.2,0.9-0.6,1.2-1s0.4-0.9,0.4-1.5s-0.1-1-0.4-1.5c-0.3-0.4-0.6-0.7-1.1-1c-0.5-0.2-1.1-0.4-1.8-0.4
		c-0.7,0-1.3,0.1-1.8,0.4c-0.5,0.2-0.9,0.6-1.1,1s-0.4,0.9-0.4,1.5s0.1,1,0.4,1.5s0.6,0.8,1.1,1S860.1,887.4,860.8,887.4z
		 M860.8,880.7c0.9,0,1.6-0.2,2.1-0.6c0.5-0.4,0.8-1,0.8-1.8c0-0.8-0.3-1.4-0.8-1.8c-0.5-0.4-1.2-0.6-2.1-0.6
		c-0.9,0-1.6,0.2-2.1,0.6c-0.5,0.4-0.8,1-0.8,1.8c0,0.8,0.3,1.4,0.8,1.8C859.2,880.5,859.9,880.7,860.8,880.7z"/>
	<path d="M868.5,888.2v-13.1h1.4v13.1H868.5z M869.5,876.4v-1.2h6.4v1.2H869.5z M869.5,882.2V881h5.9v1.2H869.5z M869.5,888.2V887
		h6.6v1.2H869.5z"/>
	<path d="M882.9,888.5c-0.9,0-1.8-0.2-2.5-0.5c-0.7-0.3-1.3-0.8-1.6-1.4c-0.4-0.6-0.6-1.3-0.6-2c0-0.6,0.1-1.1,0.4-1.5
		c0.2-0.4,0.5-0.8,0.9-1.1s0.8-0.5,1.3-0.7v-0.2c-0.4-0.1-0.7-0.3-1-0.6c-0.3-0.3-0.6-0.6-0.8-0.9c-0.2-0.4-0.3-0.8-0.3-1.3
		c0-0.7,0.2-1.3,0.6-1.8s0.9-0.9,1.5-1.2c0.6-0.3,1.4-0.4,2.1-0.4c0.8,0,1.5,0.1,2.2,0.4c0.6,0.3,1.1,0.7,1.5,1.2
		c0.4,0.5,0.6,1.1,0.6,1.8c0,0.5-0.1,0.9-0.3,1.3c-0.2,0.4-0.4,0.7-0.8,0.9c-0.3,0.3-0.7,0.5-1,0.6v0.2c0.5,0.1,0.9,0.4,1.3,0.7
		c0.4,0.3,0.7,0.7,0.9,1.1c0.2,0.4,0.3,0.9,0.3,1.5c0,0.8-0.2,1.4-0.6,2c-0.4,0.6-0.9,1-1.6,1.4
		C884.7,888.4,883.8,888.5,882.9,888.5z M882.9,887.4c0.7,0,1.3-0.1,1.8-0.4c0.5-0.2,0.9-0.6,1.2-1s0.4-0.9,0.4-1.5s-0.1-1-0.4-1.5
		c-0.3-0.4-0.6-0.7-1.1-1c-0.5-0.2-1.1-0.4-1.8-0.4c-0.7,0-1.3,0.1-1.8,0.4c-0.5,0.2-0.9,0.6-1.1,1s-0.4,0.9-0.4,1.5s0.1,1,0.4,1.5
		s0.6,0.8,1.1,1S882.2,887.4,882.9,887.4z M882.9,880.7c0.9,0,1.6-0.2,2.1-0.6c0.5-0.4,0.8-1,0.8-1.8c0-0.8-0.3-1.4-0.8-1.8
		c-0.5-0.4-1.2-0.6-2.1-0.6c-0.9,0-1.6,0.2-2.1,0.6c-0.5,0.4-0.8,1-0.8,1.8c0,0.8,0.3,1.4,0.8,1.8
		C881.3,880.5,882,880.7,882.9,880.7z"/>
</g>
<g class="st31">
	<path d="M812.6,932.8v-1h10.3v1H812.6z M813.3,928.5v-1h10.2v1H813.3z M814.4,936.7l2-13.1h1.2l-2,13.1H814.4z M818.6,936.7l2-13.1
		h1.2l-2,13.1H818.6z"/>
	<path d="M826.2,936.7v-13.1h1.4v13.1H826.2z M827.2,924.8v-1.2h6.1v1.2H827.2z M827.2,930.7v-1.2l5.8,0v1.2L827.2,930.7z"/>
	<path d="M836.3,936.7v-13.1h1.4v13.1H836.3z M837.3,924.8v-1.2h6.1v1.2H837.3z M837.3,930.7v-1.2l5.8,0v1.2L837.3,930.7z"/>
	<path d="M846.3,936.7v-13.1h1.4v13.1H846.3z M847.4,924.8v-1.2h6.1v1.2H847.4z M847.4,930.7v-1.2l5.8,0v1.2L847.4,930.7z"/>
	<path d="M860,937c-1,0-1.8-0.2-2.5-0.6c-0.7-0.4-1.2-0.9-1.5-1.6c-0.3-0.7-0.5-1.4-0.5-2.1h1.3c0,0.6,0.1,1.1,0.4,1.6
		s0.6,0.8,1.1,1.1c0.5,0.3,1.1,0.4,1.7,0.4c0.7,0,1.3-0.1,1.7-0.4c0.5-0.3,0.8-0.6,1.1-1.1c0.3-0.5,0.4-1,0.4-1.6
		c0-0.6-0.1-1.1-0.4-1.6c-0.3-0.5-0.6-0.9-1.1-1.1s-1.1-0.4-1.8-0.4c-0.5,0-1,0.1-1.4,0.2c-0.5,0.2-0.9,0.4-1.2,0.7h-1.2l0.7-6.9
		h6.5v1.2h-5.8l0.4-0.5l-0.5,5.4l-0.4-0.1c0.4-0.4,0.8-0.7,1.3-0.9c0.5-0.2,1.1-0.3,1.7-0.3c1,0,1.8,0.2,2.5,0.6
		c0.7,0.4,1.2,0.9,1.5,1.6c0.3,0.6,0.5,1.3,0.5,2v0.2c0,0.7-0.2,1.4-0.5,2c-0.3,0.6-0.9,1.2-1.5,1.6C861.8,936.8,861,937,860,937z"
		/>
	<path d="M867.5,936.7v-13.1h1.4v13.1H867.5z M868.5,924.8v-1.2h6.1v1.2H868.5z M868.5,930.7v-1.2l5.8,0v1.2L868.5,930.7z"/>
	<path d="M881.1,937c-1,0-1.8-0.2-2.5-0.6c-0.7-0.4-1.2-0.9-1.5-1.6c-0.3-0.7-0.5-1.4-0.5-2.1h1.3c0,0.6,0.1,1.1,0.4,1.6
		c0.3,0.5,0.6,0.8,1.1,1.1s1.1,0.4,1.7,0.4c0.7,0,1.3-0.1,1.7-0.4c0.5-0.3,0.8-0.6,1.1-1.1c0.3-0.5,0.4-1,0.4-1.6
		c0-0.6-0.1-1.1-0.4-1.6c-0.3-0.5-0.6-0.9-1.1-1.1c-0.5-0.3-1.1-0.4-1.8-0.4c-0.5,0-1,0.1-1.4,0.2c-0.5,0.2-0.9,0.4-1.2,0.7h-1.2
		l0.7-6.9h6.5v1.2h-5.8l0.4-0.5l-0.5,5.4l-0.4-0.1c0.4-0.4,0.8-0.7,1.3-0.9c0.5-0.2,1.1-0.3,1.7-0.3c1,0,1.8,0.2,2.5,0.6
		s1.2,0.9,1.5,1.6s0.5,1.3,0.5,2v0.2c0,0.7-0.2,1.4-0.5,2c-0.3,0.6-0.9,1.2-1.5,1.6C882.9,936.8,882.1,937,881.1,937z"/>
</g>
<g class="st31">
	<path class="st2" d="M1214.8,606v-1h10.3v1H1214.8z M1215.5,601.7v-1h10.2v1H1215.5z M1216.6,609.9l2-13.1h1.2l-2,13.1H1216.6z
		 M1220.8,609.9l2-13.1h1.2l-2,13.1H1220.8z"/>
	<path class="st2" d="M1232.6,610.2c-0.9,0-1.6-0.2-2.2-0.5c-0.6-0.3-1.1-0.7-1.5-1.3c-0.4-0.6-0.7-1.2-0.8-2
		c-0.2-0.8-0.3-1.6-0.3-2.5v-0.8c0-2.1,0.5-3.8,1.5-4.9c1-1.1,2.5-1.7,4.5-1.7c0.4,0,0.8,0,1.1,0c0.3,0,0.7,0.1,1,0.1v1.2
		c-0.4-0.1-0.7-0.1-1.1-0.1c-0.3,0-0.7,0-1.1,0c-1.1,0-2,0.2-2.7,0.7c-0.7,0.4-1.2,1.1-1.5,1.9c-0.3,0.8-0.5,1.8-0.5,3v1.3l-0.4,1.1
		c0-0.9,0.2-1.7,0.5-2.3c0.3-0.6,0.8-1.1,1.4-1.5c0.6-0.3,1.4-0.5,2.2-0.5c0.9,0,1.7,0.2,2.4,0.6c0.6,0.4,1.1,0.9,1.5,1.6
		c0.3,0.7,0.5,1.4,0.5,2.2c0,0.8-0.2,1.6-0.5,2.2c-0.3,0.7-0.8,1.2-1.5,1.6C1234.4,610,1233.6,610.2,1232.6,610.2z M1232.6,609.1
		c0.7,0,1.3-0.1,1.8-0.4c0.5-0.3,0.8-0.7,1.1-1.2c0.2-0.5,0.4-1,0.4-1.7s-0.1-1.2-0.3-1.6c-0.2-0.5-0.6-0.9-1.1-1.1
		c-0.5-0.3-1.1-0.4-1.8-0.4c-0.7,0-1.3,0.1-1.8,0.4c-0.5,0.3-0.9,0.6-1.2,1.1c-0.3,0.5-0.4,1.1-0.4,1.7c0,0.6,0.1,1.1,0.4,1.6
		c0.2,0.5,0.6,0.9,1.1,1.2S1231.9,609.1,1232.6,609.1z"/>
	<path class="st2" d="M1243.8,610.2c-0.9,0-1.8-0.2-2.5-0.5c-0.7-0.3-1.3-0.8-1.6-1.4c-0.4-0.6-0.6-1.3-0.6-2c0-0.6,0.1-1.1,0.3-1.5
		c0.2-0.4,0.5-0.8,0.9-1.1c0.4-0.3,0.8-0.5,1.3-0.7v-0.2c-0.4-0.1-0.7-0.3-1-0.6c-0.3-0.3-0.6-0.6-0.8-0.9c-0.2-0.4-0.3-0.8-0.3-1.3
		c0-0.7,0.2-1.3,0.6-1.8s0.9-0.9,1.5-1.2s1.4-0.4,2.1-0.4c0.8,0,1.5,0.1,2.2,0.4s1.1,0.7,1.5,1.2s0.6,1.1,0.6,1.8
		c0,0.5-0.1,0.9-0.3,1.3c-0.2,0.4-0.4,0.7-0.8,0.9c-0.3,0.3-0.7,0.5-1,0.6v0.2c0.5,0.1,0.9,0.4,1.3,0.7c0.4,0.3,0.7,0.7,0.9,1.1
		c0.2,0.4,0.3,0.9,0.3,1.5c0,0.8-0.2,1.4-0.6,2c-0.4,0.6-0.9,1-1.6,1.4C1245.6,610,1244.8,610.2,1243.8,610.2z M1243.8,609.1
		c0.7,0,1.3-0.1,1.8-0.4c0.5-0.2,0.9-0.6,1.2-1s0.4-0.9,0.4-1.5s-0.1-1-0.4-1.5c-0.3-0.4-0.6-0.7-1.1-1c-0.5-0.2-1.1-0.4-1.8-0.4
		c-0.7,0-1.3,0.1-1.8,0.4c-0.5,0.2-0.9,0.6-1.1,1s-0.4,0.9-0.4,1.5s0.1,1,0.4,1.5s0.6,0.8,1.1,1S1243.1,609.1,1243.8,609.1z
		 M1243.8,602.4c0.9,0,1.6-0.2,2.1-0.6c0.5-0.4,0.8-1,0.8-1.8c0-0.8-0.3-1.4-0.8-1.8c-0.5-0.4-1.2-0.6-2.1-0.6
		c-0.9,0-1.6,0.2-2.1,0.6c-0.5,0.4-0.8,1-0.8,1.8c0,0.8,0.3,1.4,0.8,1.8C1242.2,602.2,1242.9,602.4,1243.8,602.4z"/>
	<path class="st2" d="M1254.8,610.2c-1,0-1.8-0.2-2.4-0.6c-0.7-0.4-1.2-0.9-1.5-1.5c-0.3-0.6-0.5-1.3-0.5-2.1h1.3
		c0,0.9,0.3,1.6,0.8,2.2s1.3,0.8,2.3,0.8c0.6,0,1.2-0.1,1.7-0.4c0.5-0.2,0.8-0.6,1.1-1c0.3-0.4,0.4-1,0.4-1.5c0-0.9-0.3-1.6-0.8-2.2
		c-0.6-0.6-1.3-0.8-2.3-0.8c-0.4,0-0.7,0-1,0.1s-0.5,0.2-0.7,0.3l-0.7-1.3l5.2-4.1l-0.1-0.3h-6.6v-1.2h7.8v1.9l-4.6,3.6l-0.9,0
		c0.2-0.1,0.5-0.2,0.7-0.2c0.3-0.1,0.6-0.1,1-0.1c0.9,0,1.7,0.2,2.4,0.5c0.7,0.4,1.2,0.8,1.5,1.4c0.3,0.6,0.5,1.3,0.5,2v0.3
		c0,0.7-0.2,1.3-0.5,2c-0.3,0.6-0.9,1.1-1.5,1.5C1256.5,610,1255.7,610.2,1254.8,610.2z"/>
	<path class="st2" d="M1265.7,610.2c-1,0-1.8-0.2-2.4-0.6c-0.7-0.4-1.2-0.9-1.5-1.5c-0.3-0.6-0.5-1.3-0.5-2.1h1.3
		c0,0.9,0.3,1.6,0.8,2.2s1.3,0.8,2.3,0.8c0.6,0,1.2-0.1,1.7-0.4c0.5-0.2,0.8-0.6,1.1-1c0.3-0.4,0.4-1,0.4-1.5c0-0.9-0.3-1.6-0.8-2.2
		c-0.6-0.6-1.3-0.8-2.3-0.8c-0.4,0-0.7,0-1,0.1s-0.5,0.2-0.7,0.3l-0.7-1.3l5.2-4.1l-0.1-0.3h-6.6v-1.2h7.8v1.9l-4.6,3.6l-0.9,0
		c0.2-0.1,0.5-0.2,0.7-0.2c0.3-0.1,0.6-0.1,1-0.1c0.9,0,1.7,0.2,2.4,0.5c0.7,0.4,1.2,0.8,1.5,1.4c0.3,0.6,0.5,1.3,0.5,2v0.3
		c0,0.7-0.2,1.3-0.5,2c-0.3,0.6-0.9,1.1-1.5,1.5C1267.5,610,1266.7,610.2,1265.7,610.2z"/>
	<path class="st2" d="M1273.4,609.9v-13.1h1.4v13.1H1273.4z M1274.4,598v-1.2h6.1v1.2H1274.4z M1274.4,603.9v-1.2l5.8,0v1.2
		L1274.4,603.9z"/>
	<path class="st2" d="M1281.2,609.9l4.8-13.1h2.4l5,13.1h-1.4l-4.7-12.2l0.7,0.4h-1.9l0.8-0.4l-4.5,12.2H1281.2z M1283.8,605.7
		l0.4-1.2h6.1l0.5,1.2H1283.8z"/>
</g>
<g class="st31">
	<path d="M1214.8,715.6v-1h10.3v1H1214.8z M1215.5,711.2v-1h10.2v1H1215.5z M1216.6,719.4l2-13.1h1.2l-2,13.1H1216.6z M1220.8,719.4
		l2-13.1h1.2l-2,13.1H1220.8z"/>
	<path d="M1232,706c0.9,0,1.6,0.2,2.2,0.5c0.6,0.3,1.1,0.7,1.5,1.3s0.7,1.2,0.8,2c0.2,0.8,0.3,1.6,0.3,2.5v0.8
		c0,2.1-0.5,3.8-1.5,4.9c-1,1.1-2.5,1.7-4.5,1.7c-0.4,0-0.8,0-1.1,0s-0.7-0.1-1-0.1v-1.2c0.4,0.1,0.7,0.1,1.1,0.1c0.3,0,0.7,0,1.1,0
		c1.1,0,2-0.2,2.7-0.7c0.7-0.4,1.2-1.1,1.5-1.9c0.3-0.8,0.5-1.8,0.5-3v-1.3l0.4-1.1c0,0.9-0.2,1.7-0.5,2.3c-0.3,0.6-0.8,1.1-1.4,1.5
		c-0.6,0.3-1.4,0.5-2.2,0.5c-0.9,0-1.7-0.2-2.4-0.6s-1.1-0.9-1.5-1.6c-0.3-0.7-0.5-1.4-0.5-2.2c0-0.8,0.2-1.6,0.5-2.2
		c0.3-0.7,0.8-1.2,1.5-1.6C1230.1,706.2,1231,706,1232,706z M1232,707.2c-0.7,0-1.3,0.1-1.8,0.4s-0.8,0.7-1.1,1.2
		c-0.2,0.5-0.4,1-0.4,1.7c0,0.6,0.1,1.2,0.3,1.6c0.2,0.5,0.6,0.9,1.1,1.1c0.5,0.3,1.1,0.4,1.8,0.4c0.7,0,1.3-0.1,1.8-0.4
		c0.5-0.3,0.9-0.6,1.2-1.1c0.3-0.5,0.4-1.1,0.4-1.7c0-0.6-0.1-1.1-0.4-1.6c-0.2-0.5-0.6-0.9-1.1-1.2
		C1233.3,707.3,1232.7,707.2,1232,707.2z"/>
	<path d="M1239.6,719.4v-2c0-0.5,0.1-1,0.2-1.3c0.1-0.4,0.4-0.7,0.8-1c0.4-0.3,0.8-0.6,1.5-0.9l2.6-1.2c0.6-0.3,1.1-0.7,1.5-1.1
		c0.4-0.5,0.6-1.1,0.6-1.8c0-0.9-0.3-1.6-0.8-2.2c-0.5-0.5-1.2-0.8-2.1-0.8c-0.9,0-1.6,0.3-2.1,0.8c-0.5,0.5-0.8,1.2-0.8,2.2h-1.3
		c0-0.8,0.2-1.5,0.5-2.1c0.3-0.6,0.8-1.1,1.4-1.5c0.6-0.4,1.4-0.5,2.3-0.5c0.9,0,1.7,0.2,2.3,0.5s1.1,0.8,1.4,1.5s0.5,1.3,0.5,2v0.3
		c0,0.9-0.3,1.7-0.8,2.3c-0.5,0.6-1.2,1.1-2.1,1.6l-2.6,1.2c-0.6,0.3-1,0.6-1.2,0.9c-0.2,0.3-0.3,0.7-0.3,1.1v1.6l-0.4-0.6h7.6v1.2
		H1239.6z"/>
	<path d="M1255.4,719.8c-0.9,0-1.6-0.2-2.2-0.5c-0.6-0.3-1.1-0.7-1.5-1.3s-0.7-1.2-0.8-2c-0.2-0.8-0.3-1.6-0.3-2.5v-0.8
		c0-2.1,0.5-3.8,1.5-4.9c1-1.1,2.5-1.7,4.5-1.7c0.4,0,0.8,0,1.1,0c0.3,0,0.7,0.1,1,0.1v1.2c-0.4-0.1-0.7-0.1-1.1-0.1
		c-0.3,0-0.7,0-1.1,0c-1.1,0-2,0.2-2.7,0.7c-0.7,0.4-1.2,1.1-1.5,1.9c-0.3,0.8-0.5,1.8-0.5,3v1.3l-0.4,1.1c0-0.9,0.2-1.7,0.5-2.3
		c0.3-0.6,0.8-1.1,1.4-1.5c0.6-0.3,1.4-0.5,2.2-0.5c0.9,0,1.7,0.2,2.4,0.6c0.6,0.4,1.1,0.9,1.5,1.6c0.3,0.7,0.5,1.4,0.5,2.2
		c0,0.8-0.2,1.6-0.5,2.2c-0.3,0.7-0.8,1.2-1.5,1.6C1257.2,719.6,1256.4,719.8,1255.4,719.8z M1255.4,718.6c0.7,0,1.3-0.1,1.8-0.4
		c0.5-0.3,0.8-0.7,1.1-1.2c0.2-0.5,0.4-1,0.4-1.7s-0.1-1.2-0.4-1.6c-0.2-0.5-0.6-0.9-1.1-1.1s-1.1-0.4-1.8-0.4
		c-0.7,0-1.3,0.1-1.8,0.4c-0.5,0.3-0.9,0.6-1.2,1.1c-0.3,0.5-0.4,1.1-0.4,1.7c0,0.6,0.1,1.1,0.4,1.6c0.2,0.5,0.6,0.9,1.1,1.2
		S1254.6,718.6,1255.4,718.6z"/>
	<path d="M1266.5,706c0.9,0,1.6,0.2,2.2,0.5c0.6,0.3,1.1,0.7,1.5,1.3s0.7,1.2,0.8,2c0.2,0.8,0.3,1.6,0.3,2.5v0.8
		c0,2.1-0.5,3.8-1.5,4.9c-1,1.1-2.5,1.7-4.5,1.7c-0.4,0-0.8,0-1.1,0s-0.7-0.1-1-0.1v-1.2c0.4,0.1,0.7,0.1,1.1,0.1c0.3,0,0.7,0,1.1,0
		c1.1,0,2-0.2,2.7-0.7c0.7-0.4,1.2-1.1,1.5-1.9c0.3-0.8,0.5-1.8,0.5-3v-1.3l0.4-1.1c0,0.9-0.2,1.7-0.5,2.3c-0.3,0.6-0.8,1.1-1.4,1.5
		c-0.6,0.3-1.4,0.5-2.2,0.5c-0.9,0-1.7-0.2-2.4-0.6s-1.1-0.9-1.5-1.6c-0.3-0.7-0.5-1.4-0.5-2.2c0-0.8,0.2-1.6,0.5-2.2
		c0.3-0.7,0.8-1.2,1.5-1.6C1264.6,706.2,1265.5,706,1266.5,706z M1266.5,707.2c-0.7,0-1.3,0.1-1.8,0.4s-0.8,0.7-1.1,1.2
		c-0.2,0.5-0.4,1-0.4,1.7c0,0.6,0.1,1.2,0.3,1.6c0.2,0.5,0.6,0.9,1.1,1.1c0.5,0.3,1.1,0.4,1.8,0.4c0.7,0,1.3-0.1,1.8-0.4
		c0.5-0.3,0.9-0.6,1.2-1.1c0.3-0.5,0.4-1.1,0.4-1.7c0-0.6-0.1-1.1-0.4-1.6c-0.2-0.5-0.6-0.9-1.1-1.2
		C1267.8,707.3,1267.2,707.2,1266.5,707.2z"/>
	<path d="M1274.7,719.4v-13.1h1.4v13.1H1274.7z M1275.7,707.6v-1.2h6.1v1.2H1275.7z M1275.7,713.4v-1.2l5.8,0v1.2L1275.7,713.4z"/>
	<path d="M1284.8,719.4v-13.1h1.4v13.1H1284.8z M1285.8,707.6v-1.2h6.1v1.2H1285.8z M1285.8,713.4v-1.2l5.8,0v1.2L1285.8,713.4z"/>
</g>
<g class="st31">
	<path d="M1214.8,782v-1h10.3v1H1214.8z M1215.5,777.6v-1h10.2v1H1215.5z M1216.6,785.9l2-13.1h1.2l-2,13.1H1216.6z M1220.8,785.9
		l2-13.1h1.2l-2,13.1H1220.8z"/>
	<path d="M1234,786.2c-1.2,0-2.2-0.2-3-0.6s-1.5-1-2-1.6c-0.5-0.7-0.9-1.4-1.1-2.2c-0.2-0.8-0.4-1.5-0.4-2.3v-0.3
		c0-0.8,0.1-1.6,0.4-2.4s0.6-1.5,1.1-2.2c0.5-0.6,1.2-1.2,2-1.6c0.8-0.4,1.8-0.6,2.9-0.6c1.1,0,2.1,0.2,2.9,0.6
		c0.8,0.4,1.5,0.9,2,1.7c0.5,0.7,0.8,1.6,0.9,2.5h-1.4c-0.1-0.8-0.3-1.4-0.8-1.9s-0.9-0.9-1.6-1.2c-0.6-0.3-1.3-0.4-2.1-0.4
		c-0.8,0-1.6,0.1-2.2,0.4c-0.6,0.3-1.2,0.7-1.6,1.2c-0.4,0.5-0.7,1.1-1,1.8c-0.2,0.7-0.3,1.4-0.3,2.2c0,0.7,0.1,1.4,0.3,2.1
		c0.2,0.7,0.5,1.3,1,1.8c0.4,0.5,1,1,1.6,1.3c0.6,0.3,1.4,0.5,2.3,0.5c1.2,0,2.2-0.3,3-0.9s1.3-1.5,1.5-2.6h1.4
		c-0.1,0.9-0.4,1.7-0.9,2.4c-0.5,0.7-1.2,1.3-2,1.7S1235.2,786.2,1234,786.2z"/>
	<path d="M1246.2,772.4c0.9,0,1.6,0.2,2.2,0.5c0.6,0.3,1.1,0.7,1.5,1.3s0.7,1.2,0.8,2c0.2,0.8,0.3,1.6,0.3,2.5v0.8
		c0,2.1-0.5,3.8-1.5,4.9c-1,1.1-2.5,1.7-4.5,1.7c-0.4,0-0.8,0-1.1,0c-0.3,0-0.7-0.1-1-0.1v-1.2c0.4,0.1,0.7,0.1,1.1,0.1
		c0.3,0,0.7,0,1.1,0c1.1,0,2-0.2,2.7-0.7c0.7-0.4,1.2-1.1,1.5-1.9c0.3-0.8,0.5-1.8,0.5-3V778l0.4-1.1c0,0.9-0.2,1.7-0.5,2.3
		c-0.3,0.6-0.8,1.1-1.4,1.5c-0.6,0.3-1.4,0.5-2.2,0.5c-0.9,0-1.7-0.2-2.4-0.6s-1.1-0.9-1.5-1.6c-0.3-0.7-0.5-1.4-0.5-2.2
		c0-0.8,0.2-1.6,0.5-2.2c0.3-0.7,0.8-1.2,1.5-1.6C1244.4,772.6,1245.2,772.4,1246.2,772.4z M1246.2,773.6c-0.7,0-1.3,0.1-1.8,0.4
		s-0.8,0.7-1.1,1.2c-0.2,0.5-0.4,1-0.4,1.7c0,0.6,0.1,1.2,0.3,1.6c0.2,0.5,0.6,0.9,1.1,1.1c0.5,0.3,1.1,0.4,1.8,0.4
		c0.7,0,1.3-0.1,1.8-0.4c0.5-0.3,0.9-0.6,1.2-1.1c0.3-0.5,0.4-1.1,0.4-1.7c0-0.6-0.1-1.1-0.4-1.6c-0.2-0.5-0.6-0.9-1.1-1.2
		C1247.6,773.8,1247,773.6,1246.2,773.6z"/>
	<path d="M1254.5,785.9v-13.2h1.4v13.2H1254.5z M1255.5,779.6v-0.9h3.4c0.8,0,1.4-0.2,1.8-0.7c0.4-0.4,0.6-1,0.6-1.7
		c0-0.7-0.2-1.3-0.6-1.7c-0.4-0.4-1-0.7-1.8-0.7h-3.4v-1.2h3.1c1.4,0,2.4,0.3,3,0.9s1,1.5,1,2.5v0.2c0,0.8-0.2,1.4-0.5,1.8
		s-0.8,0.8-1.4,1c-0.6,0.2-1.3,0.3-2.1,0.3H1255.5z M1255.5,785.9v-1.2h3.8c0.8,0,1.4-0.2,1.8-0.7c0.4-0.4,0.7-1,0.7-1.8
		c0-0.7-0.2-1.3-0.6-1.8c-0.4-0.4-1-0.7-1.8-0.7h-3.8v-0.9h3.6c0.8,0,1.5,0.1,2.1,0.3c0.6,0.2,1.1,0.6,1.4,1.1s0.5,1.1,0.5,1.9v0.2
		c0,0.7-0.2,1.3-0.4,1.9c-0.3,0.5-0.7,0.9-1.3,1.2c-0.6,0.3-1.4,0.4-2.3,0.4H1255.5z"/>
	<path d="M1270.1,786.2c-1,0-1.8-0.2-2.5-0.6c-0.7-0.4-1.2-0.9-1.5-1.6c-0.3-0.7-0.5-1.4-0.5-2.1h1.3c0,0.6,0.1,1.1,0.4,1.6
		s0.6,0.8,1.1,1.1s1.1,0.4,1.7,0.4c0.7,0,1.3-0.1,1.7-0.4c0.5-0.3,0.8-0.6,1.1-1.1c0.3-0.5,0.4-1,0.4-1.6c0-0.6-0.1-1.1-0.4-1.6
		c-0.3-0.5-0.6-0.9-1.1-1.1c-0.5-0.3-1.1-0.4-1.8-0.4c-0.5,0-1,0.1-1.4,0.2c-0.5,0.2-0.9,0.4-1.2,0.7h-1.2l0.7-6.9h6.5v1.2h-5.8
		l0.4-0.5l-0.5,5.4l-0.4-0.1c0.4-0.4,0.8-0.7,1.3-0.9c0.5-0.2,1.1-0.3,1.7-0.3c1,0,1.8,0.2,2.5,0.6c0.7,0.4,1.2,0.9,1.5,1.6
		s0.5,1.3,0.5,2v0.2c0,0.7-0.2,1.4-0.5,2c-0.3,0.6-0.9,1.2-1.5,1.6C1271.9,786,1271.1,786.2,1270.1,786.2z"/>
	<path d="M1277.6,785.9v-13.1h1.4v13.1H1277.6z M1278.6,774v-1.2h6.1v1.2H1278.6z M1278.6,779.8v-1.2l5.8,0v1.2L1278.6,779.8z"/>
	<path d="M1287.7,785.9v-13.1h1.4v13.1H1287.7z M1288.7,774v-1.2h6.1v1.2H1288.7z M1288.7,779.8v-1.2l5.8,0v1.2L1288.7,779.8z"/>
</g>
<g class="st31">
	<path d="M1214.8,835.9v-1h10.3v1H1214.8z M1215.5,831.5v-1h10.2v1H1215.5z M1216.6,839.7l2-13.1h1.2l-2,13.1H1216.6z M1220.8,839.7
		l2-13.1h1.2l-2,13.1H1220.8z"/>
	<path d="M1228.5,839.8v-13.2h1.4v13.2H1228.5z M1229.5,839.8v-1.3h3.6c0.9,0,1.7-0.1,2.3-0.4c0.7-0.3,1.2-0.7,1.7-1.2
		s0.8-1.1,1-1.7c0.2-0.6,0.3-1.3,0.3-2.1c0-0.8-0.1-1.5-0.4-2.1c-0.2-0.6-0.6-1.2-1-1.7c-0.5-0.5-1-0.9-1.7-1.1s-1.4-0.4-2.3-0.4
		h-3.6v-1.3h3.4c1.2,0,2.2,0.2,3.1,0.5s1.6,0.8,2.2,1.5c0.6,0.6,1,1.3,1.3,2.1c0.3,0.8,0.4,1.5,0.4,2.3v0.3c0,0.8-0.1,1.5-0.4,2.3
		c-0.3,0.8-0.7,1.5-1.3,2.1c-0.6,0.6-1.3,1.1-2.1,1.5c-0.9,0.4-1.9,0.6-3.1,0.6H1229.5z"/>
	<path d="M1240.9,839.7l4.8-13.1h2.4l5,13.1h-1.4l-4.7-12.2l0.7,0.4h-1.9l0.8-0.4l-4.5,12.2H1240.9z M1243.5,835.6l0.4-1.2h6.1
		l0.5,1.2H1243.5z"/>
	<path d="M1261,840.1c-1.2,0-2.2-0.2-3-0.6s-1.5-1-2-1.6c-0.5-0.7-0.9-1.4-1.1-2.2c-0.2-0.8-0.4-1.5-0.4-2.3V833
		c0-0.8,0.1-1.6,0.4-2.4c0.2-0.8,0.6-1.5,1.2-2.2c0.5-0.6,1.2-1.2,2-1.6c0.8-0.4,1.8-0.6,2.9-0.6c1.1,0,2.1,0.2,2.9,0.6
		c0.8,0.4,1.5,0.9,2,1.7c0.5,0.7,0.8,1.6,0.9,2.5h-1.4c-0.1-0.8-0.3-1.4-0.8-1.9c-0.4-0.5-0.9-0.9-1.6-1.2c-0.6-0.3-1.3-0.4-2.1-0.4
		c-0.8,0-1.6,0.1-2.2,0.4c-0.6,0.3-1.2,0.7-1.6,1.2s-0.7,1.1-1,1.8c-0.2,0.7-0.3,1.4-0.3,2.2c0,0.7,0.1,1.4,0.3,2.1
		c0.2,0.7,0.5,1.3,1,1.8c0.4,0.5,1,1,1.6,1.3c0.6,0.3,1.4,0.5,2.3,0.5c1.2,0,2.2-0.3,3-0.9c0.8-0.6,1.3-1.5,1.5-2.6h1.4
		c-0.1,0.9-0.4,1.7-0.9,2.4c-0.5,0.7-1.2,1.3-2,1.7S1262.2,840.1,1261,840.1z"/>
	<path d="M1275.3,840.1c-1.2,0-2.2-0.2-3-0.6s-1.5-1-2-1.6c-0.5-0.7-0.9-1.4-1.1-2.2s-0.4-1.5-0.4-2.3V833c0-0.8,0.1-1.6,0.4-2.4
		c0.2-0.8,0.6-1.5,1.1-2.2s1.2-1.2,2-1.6c0.8-0.4,1.8-0.6,2.9-0.6c1.1,0,2.1,0.2,2.9,0.6c0.8,0.4,1.5,0.9,2,1.7
		c0.5,0.7,0.8,1.6,0.9,2.5h-1.4c-0.1-0.8-0.3-1.4-0.8-1.9c-0.4-0.5-0.9-0.9-1.6-1.2c-0.6-0.3-1.3-0.4-2.1-0.4
		c-0.8,0-1.6,0.1-2.2,0.4c-0.6,0.3-1.2,0.7-1.6,1.2c-0.4,0.5-0.7,1.1-1,1.8c-0.2,0.7-0.3,1.4-0.3,2.2c0,0.7,0.1,1.4,0.3,2.1
		c0.2,0.7,0.5,1.3,1,1.8c0.4,0.5,1,1,1.6,1.3c0.6,0.3,1.4,0.5,2.3,0.5c1.2,0,2.2-0.3,3-0.9s1.3-1.5,1.5-2.6h1.4
		c-0.1,0.9-0.4,1.7-0.9,2.4c-0.5,0.7-1.2,1.3-2,1.7S1276.4,840.1,1275.3,840.1z"/>
	<path d="M1283.9,839.7v-13.1h1.4v13.1H1283.9z M1284.9,827.9v-1.2h6.1v1.2H1284.9z M1284.9,833.7v-1.2l5.8,0v1.2L1284.9,833.7z"/>
	<path d="M1294,839.7v-13.1h1.4v13.1H1294z M1295,827.9v-1.2h6.1v1.2H1295z M1295,833.7v-1.2l5.8,0v1.2L1295,833.7z"/>
</g>
<g class="st31">
	<path d="M1214.8,884.4v-1h10.3v1H1214.8z M1215.5,880v-1h10.2v1H1215.5z M1216.6,888.2l2-13.1h1.2l-2,13.1H1216.6z M1220.8,888.2
		l2-13.1h1.2l-2,13.1H1220.8z"/>
	<path d="M1228.5,888.2v-13.1h1.4v13.1H1228.5z M1229.5,876.4v-1.2h6.4v1.2H1229.5z M1229.5,882.2V881h5.9v1.2H1229.5z
		 M1229.5,888.2V887h6.6v1.2H1229.5z"/>
	<path d="M1244.8,888.5c-1.2,0-2.2-0.2-3-0.6s-1.5-1-2-1.6c-0.5-0.7-0.9-1.4-1.1-2.2c-0.2-0.8-0.4-1.5-0.4-2.3v-0.3
		c0-0.8,0.1-1.6,0.4-2.4c0.2-0.8,0.6-1.5,1.2-2.2c0.5-0.6,1.2-1.2,2-1.6c0.8-0.4,1.8-0.6,2.9-0.6c1.1,0,2.1,0.2,2.9,0.6
		c0.8,0.4,1.5,0.9,2,1.7c0.5,0.7,0.8,1.6,0.9,2.5h-1.4c-0.1-0.8-0.3-1.4-0.8-1.9c-0.4-0.5-0.9-0.9-1.6-1.2c-0.6-0.3-1.3-0.4-2.1-0.4
		c-0.8,0-1.6,0.1-2.2,0.4c-0.6,0.3-1.2,0.7-1.6,1.2s-0.7,1.1-1,1.8c-0.2,0.7-0.3,1.4-0.3,2.2c0,0.7,0.1,1.4,0.3,2.1
		c0.2,0.7,0.5,1.3,1,1.8c0.4,0.5,1,1,1.6,1.3c0.6,0.3,1.4,0.5,2.3,0.5c1.2,0,2.2-0.3,3-0.9c0.8-0.6,1.3-1.5,1.5-2.6h1.4
		c-0.1,0.9-0.4,1.7-0.9,2.4c-0.5,0.7-1.2,1.3-2,1.7S1245.9,888.5,1244.8,888.5z"/>
	<path d="M1253.4,888.2v-13.1h1.4v13.1H1253.4z M1254.5,876.4v-1.2h6.4v1.2H1254.5z M1254.5,882.2V881h5.9v1.2H1254.5z
		 M1254.5,888.2V887h6.6v1.2H1254.5z"/>
	<path d="M1267.8,888.5c-1,0-1.8-0.2-2.5-0.6c-0.7-0.4-1.2-0.9-1.5-1.6c-0.3-0.7-0.5-1.4-0.5-2.1h1.3c0,0.6,0.1,1.1,0.4,1.6
		c0.3,0.5,0.6,0.8,1.1,1.1s1.1,0.4,1.7,0.4c0.7,0,1.3-0.1,1.7-0.4c0.5-0.3,0.8-0.6,1.1-1.1c0.3-0.5,0.4-1,0.4-1.6
		c0-0.6-0.1-1.1-0.4-1.6c-0.3-0.5-0.6-0.9-1.1-1.1c-0.5-0.3-1.1-0.4-1.8-0.4c-0.5,0-1,0.1-1.4,0.2c-0.5,0.2-0.9,0.4-1.2,0.7h-1.2
		l0.7-6.9h6.5v1.2h-5.8l0.4-0.5l-0.5,5.4l-0.4-0.1c0.4-0.4,0.8-0.7,1.3-0.9c0.5-0.2,1.1-0.3,1.7-0.3c1,0,1.8,0.2,2.5,0.6
		s1.2,0.9,1.5,1.6s0.5,1.3,0.5,2v0.2c0,0.7-0.2,1.4-0.5,2c-0.3,0.6-0.9,1.2-1.5,1.6C1269.7,888.3,1268.8,888.5,1267.8,888.5z"/>
	<path d="M1275.3,888.2v-13.1h1.4v13.1H1275.3z M1276.3,876.3v-1.2h6.1v1.2H1276.3z M1276.3,882.2v-1.2l5.8,0v1.2L1276.3,882.2z"/>
	<path d="M1285.4,888.2v-13.1h1.4v13.1H1285.4z M1286.4,876.4v-1.2h6.4v1.2H1286.4z M1286.4,882.2V881h5.9v1.2H1286.4z
		 M1286.4,888.2V887h6.6v1.2H1286.4z"/>
</g>
<g class="st31">
	<path d="M1214.8,932.8v-1h10.3v1H1214.8z M1215.5,928.5v-1h10.2v1H1215.5z M1216.6,936.7l2-13.1h1.2l-2,13.1H1216.6z M1220.8,936.7
		l2-13.1h1.2l-2,13.1H1220.8z"/>
	<path d="M1228.5,936.7v-13.1h1.4v13.1H1228.5z M1229.5,924.8v-1.2h6.1v1.2H1229.5z M1229.5,930.7v-1.2l5.8,0v1.2L1229.5,930.7z"/>
	<path d="M1242.1,937c-1,0-1.8-0.2-2.5-0.6c-0.7-0.4-1.2-0.9-1.5-1.6c-0.3-0.7-0.5-1.4-0.5-2.1h1.3c0,0.6,0.1,1.1,0.4,1.6
		s0.6,0.8,1.1,1.1s1.1,0.4,1.7,0.4c0.7,0,1.3-0.1,1.7-0.4c0.5-0.3,0.8-0.6,1.1-1.1c0.3-0.5,0.4-1,0.4-1.6c0-0.6-0.1-1.1-0.4-1.6
		c-0.3-0.5-0.6-0.9-1.1-1.1c-0.5-0.3-1.1-0.4-1.8-0.4c-0.5,0-1,0.1-1.4,0.2c-0.5,0.2-0.9,0.4-1.2,0.7h-1.2l0.7-6.9h6.5v1.2h-5.8
		l0.4-0.5l-0.5,5.4l-0.4-0.1c0.4-0.4,0.8-0.7,1.3-0.9c0.5-0.2,1.1-0.3,1.7-0.3c1,0,1.8,0.2,2.5,0.6c0.7,0.4,1.2,0.9,1.5,1.6
		s0.5,1.3,0.5,2v0.2c0,0.7-0.2,1.4-0.5,2c-0.3,0.6-0.9,1.2-1.5,1.6C1243.9,936.8,1243.1,937,1242.1,937z"/>
	<path d="M1249.6,936.7v-13.1h1.4v13.1H1249.6z M1250.6,924.8v-1.2h6.1v1.2H1250.6z M1250.6,930.7v-1.2l5.8,0v1.2L1250.6,930.7z"/>
	<path d="M1264.2,937c-0.9,0-1.7-0.2-2.4-0.5s-1.2-0.8-1.6-1.4c-0.4-0.6-0.7-1.3-0.9-2c-0.2-0.8-0.3-1.6-0.3-2.5v-0.8
		c0-1.3,0.2-2.4,0.6-3.4s1-1.7,1.7-2.3c0.8-0.6,1.7-0.8,2.9-0.8c1.2,0,2.1,0.3,2.9,0.8s1.3,1.3,1.7,2.3s0.6,2.1,0.6,3.4v0.8
		c0,0.9-0.1,1.8-0.3,2.5s-0.5,1.5-0.9,2s-1,1-1.6,1.4S1265.1,937,1264.2,937z M1264.2,935.8c1.3,0,2.3-0.5,2.9-1.4
		c0.6-0.9,0.9-2.3,0.9-4.3c0-2-0.3-3.5-1-4.4c-0.6-0.9-1.6-1.3-2.9-1.3c-1.3,0-2.2,0.4-2.9,1.3c-0.6,0.9-1,2.3-1,4.3
		c0,1.9,0.3,3.4,0.9,4.3C1261.9,935.3,1262.9,935.8,1264.2,935.8z"/>
	<path d="M1272.8,936.7v-13.1h1.4v13.1H1272.8z M1273.9,924.8v-1.2h6.1v1.2H1273.9z M1273.9,930.7v-1.2l5.8,0v1.2L1273.9,930.7z"/>
	<path d="M1282.9,936.7v-13.1h1.4v13.1H1282.9z M1283.9,924.8v-1.2h6.1v1.2H1283.9z M1283.9,930.7v-1.2l5.8,0v1.2L1283.9,930.7z"/>
</g>
</svg>
