<?xml version="1.0" encoding="utf-8"?>
<!-- Generator: Adobe Illustrator 27.3.1, SVG Export Plug-In . SVG Version: 6.00 Build 0)  -->
<svg version="1.1" id="Layer_1" xmlns="http://www.w3.org/2000/svg" xmlns:xlink="http://www.w3.org/1999/xlink" x="0px" y="0px"
	 viewBox="0 0 1600 623" style="enable-background:new 0 0 1600 623;" xml:space="preserve">
<style type="text/css">
	.st0{fill:#FFFFFF;}
	.st1{fill:none;stroke:#6833FA;stroke-width:1.4388;}
	.st2{fill:#6833FA;}
	.st3{fill:#2FE78E;}
	.st4{fill:#2B83FF;}
	.st5{fill:#F27B7B;}
	.st6{fill:none;stroke:#2FE78E;stroke-width:1.4388;}
	.st7{fill:none;stroke:#2B83FF;stroke-width:1.4388;}
	.st8{fill:none;stroke:#F27B7B;stroke-width:1.4388;}
	.st9{fill:#CCCCCC;}
	.st10{fill:none;stroke:#CCCCCC;stroke-width:1.4388;}
	.st11{fill:none;stroke:#000000;stroke-width:1.4388;}
	.st12{fill-rule:evenodd;clip-rule:evenodd;}
	.st13{fill:none;stroke:#000000;stroke-width:2.8776;}
	.st14{fill:none;stroke:#000000;stroke-width:1.4388;stroke-linejoin:round;}
	.st15{fill:#FFFFFF;stroke:#000000;stroke-width:1.4388;stroke-linejoin:round;}
	.st16{fill:none;stroke:#FFFFFF;stroke-width:1.4388;stroke-linejoin:round;}
	.st17{fill-rule:evenodd;clip-rule:evenodd;fill:#FFFFFF;}
	.st18{fill-rule:evenodd;clip-rule:evenodd;fill:#FFFFFF;filter:url(#Adobe_OpacityMaskFilter);}
	.st19{mask:url(#path-62-inside-1_1701_3128_00000081637345432769619500000013381636781964690051_);}
	.st20{fill:none;stroke:#CCCCCC;stroke-width:1.4388;stroke-linejoin:round;}
	.st21{fill:#9269FF;stroke:#000000;stroke-width:1.4388;stroke-linejoin:round;}
	.st22{fill:#9269FF;}
	
		.st23{fill-rule:evenodd;clip-rule:evenodd;fill:#FFFFFF;filter:url(#Adobe_OpacityMaskFilter_00000088129650578088039560000005509459611436619398_);}
	.st24{mask:url(#path-81-inside-2_1701_3128_00000036930319978486422000000015591711674308866459_);fill:#CCCCCC;}
	.st25{fill:#FFFFFF;stroke:#CCCCCC;stroke-width:1.4388;}
	.st26{fill-rule:evenodd;clip-rule:evenodd;fill:#2B83FF;}
	
		.st27{fill-rule:evenodd;clip-rule:evenodd;fill:#FFFFFF;filter:url(#Adobe_OpacityMaskFilter_00000070113113267413750480000012540798444365647243_);}
	.st28{mask:url(#path-84-inside-3_1701_3128_00000071518449709056499960000007303146950373975187_);}
	.st29{fill:#2B83FF;stroke:#000000;stroke-width:1.4388;}
	.st30{fill-rule:evenodd;clip-rule:evenodd;fill:#F27B7B;}
	.st31{fill:#F27B7B;stroke:#000000;stroke-width:1.4388;}
	.st32{fill:#2FE78E;stroke:#000000;stroke-width:1.4388;stroke-linejoin:round;}
	.st33{fill-rule:evenodd;clip-rule:evenodd;fill:#030708;}
	.st34{fill:none;stroke:#030708;stroke-width:1.4388;}
	.st35{fill:none;stroke:#030708;stroke-width:1.4388;stroke-linejoin:round;}
	.st36{fill:none;stroke:#FFFFFF;stroke-width:1.4388;}
	.st37{fill:#00C66D;}
	.st38{fill:none;stroke:#7DF1C0;stroke-width:1.4388;}
	.st39{fill:none;stroke:#8CBCFF;stroke-width:1.4388;}
	.st40{fill:#808080;}
	.st41{fill:none;stroke:#B2B2B2;stroke-width:1.4388;}
	.st42{fill:none;stroke:#FFC0BA;stroke-width:1.4388;}
</style>
<rect x="-0.5" y="0.5" class="st0" width="1600" height="622"/>
<g>
	<circle class="st1" cx="448.9" cy="400.7" r="13.7"/>
	<circle class="st1" cx="448.9" cy="400.7" r="13.7"/>
	<circle class="st2" cx="448.9" cy="400.7" r="8.6"/>
	<circle class="st1" cx="391.4" cy="400.7" r="13.7"/>
	<circle class="st1" cx="506.5" cy="400.7" r="13.7"/>
	<circle class="st3" cx="1151.1" cy="281.3" r="14.4"/>
	<circle class="st4" cx="1151.1" cy="341.7" r="14.4"/>
	<circle class="st5" cx="1151.1" cy="400.7" r="14.4"/>
	<circle class="st6" cx="1093.5" cy="281.3" r="13.7"/>
	<circle class="st7" cx="1093.5" cy="341.7" r="13.7"/>
	<circle class="st8" cx="1093.5" cy="400.7" r="13.7"/>
	<path class="st3" d="M1208.6,281.3c0,7.9,0,6.5,0,14.4c-7.9,0-14.4-6.4-14.4-14.4c0-7.9,6.4-14.4,14.4-14.4
		C1208.6,271.9,1208.6,273.3,1208.6,281.3z"/>
	<path class="st9" d="M1208.6,281.3c0-7.9,0-6.5,0-14.4c7.9,0,14.4,6.4,14.4,14.4c0,7.9-6.4,14.4-14.4,14.4
		C1208.6,290.6,1208.6,289.2,1208.6,281.3z"/>
	<path class="st4" d="M1210.1,341.7c0,7.9,0,6.5,0,14.4c-7.9,0-14.4-6.4-14.4-14.4c0-7.9,6.4-14.4,14.4-14.4
		C1210.1,332.4,1210.1,333.8,1210.1,341.7z"/>
	<path class="st9" d="M1210.1,341.7c0-7.9,0-6.5,0-14.4c7.9,0,14.4,6.4,14.4,14.4c0,7.9-6.4,14.4-14.4,14.4
		C1210.1,351.1,1210.1,349.7,1210.1,341.7z"/>
	<path class="st5" d="M1207.2,400.7c0,7.9,0,6.5,0,14.4c-7.9,0-14.4-6.4-14.4-14.4c0-7.9,6.4-14.4,14.4-14.4
		C1207.2,391.4,1207.2,392.8,1207.2,400.7z"/>
	<path class="st9" d="M1207.2,400.7c0-7.9,0-6.5,0-14.4c7.9,0,14.4,6.4,14.4,14.4c0,7.9-6.4,14.4-14.4,14.4
		C1207.2,410.1,1207.2,408.7,1207.2,400.7z"/>
	<circle class="st9" cx="1151.1" cy="222.3" r="14.4"/>
	<circle class="st10" cx="1093.5" cy="222.3" r="13.7"/>
	<circle class="st11" cx="570.5" cy="274.8" r="7.2"/>
	<path class="st11" d="M570.5,270.5v8.6 M574.8,274.8h-8.6"/>
	<path class="st12" d="M561.2,275.6c-0.5-0.1-1-0.1-1.5-0.1c-5.6,0-10.1,4.5-10.1,10.1s4.5,10.1,10.1,10.1s10.1-4.5,10.1-10.1
		c0-0.5,0-1-0.1-1.5c-0.5,0-1-0.1-1.5-0.3c0.1,0.6,0.2,1.1,0.2,1.7c0,4.8-3.9,8.6-8.6,8.6s-8.6-3.9-8.6-8.6c0-4.8,3.9-8.6,8.6-8.6
		c0.6,0,1.2,0.1,1.7,0.2C561.3,276.7,561.2,276.2,561.2,275.6z"/>
	<circle class="st11" cx="621.6" cy="281.3" r="13.7"/>
	<path class="st13" d="M621.6,279.1v9.4"/>
	<path d="M623.4,275.9c0,1-0.8,1.8-1.8,1.8c-1,0-1.8-0.8-1.8-1.8c0-1,0.8-1.8,1.8-1.8C622.6,274.1,623.4,274.9,623.4,275.9z"/>
	<path class="st13" d="M448.9,345.3V336"/>
	<path d="M447.1,348.5c0-1,0.8-1.8,1.8-1.8c1,0,1.8,0.8,1.8,1.8c0,1-0.8,1.8-1.8,1.8C447.9,350.3,447.1,349.5,447.1,348.5z"/>
	<path class="st14" d="M435.1,351.4l13.3-21.7c0.3-0.5,0.9-0.5,1.2,0l13.3,21.7c0.3,0.5-0.1,1.1-0.6,1.1h-26.5
		C435.1,352.5,434.8,351.9,435.1,351.4z"/>
	<path class="st15" d="M498.6,337.4c0-0.4,0.3-0.7,0.7-0.7h14.4c0.4,0,0.7,0.3,0.7,0.7v14.4c0,0.4-0.3,0.7-0.7,0.7h-14.4
		c-0.4,0-0.7-0.3-0.7-0.7V337.4z"/>
	<path class="st14" d="M510.8,338.8v11.5"/>
	<path class="st14" d="M506.5,338.8v11.5"/>
	<path class="st14" d="M502.2,338.8v11.5"/>
	<path class="st15" d="M497.9,332.4h17.3c0.4,0,0.7,0.3,0.7,0.7v2.9c0,0.4-0.3,0.7-0.7,0.7h-17.3c-0.4,0-0.7-0.3-0.7-0.7v-2.9
		C497.1,332.7,497.5,332.4,497.9,332.4z"/>
	<path class="st14" d="M502.2,329.5h8.6"/>
	<path d="M549.7,335.2c0,0.4,0.3,0.7,0.7,0.7h6.5c0.4,0,0.7-0.3,0.7-0.7s-0.3-0.7-0.7-0.7h-5.8v-5.8c0-0.4-0.3-0.7-0.7-0.7
		s-0.7,0.3-0.7,0.7V335.2z M553.3,331.3l-3.4,3.4l1,1l3.4-3.4L553.3,331.3z M578.4,341.7c0-13.1-15.9-19.7-25.1-10.4l1,1
		c8.4-8.4,22.7-2.4,22.7,9.4H578.4z"/>
	<path d="M573.8,351.4l-0.5-0.5L573.8,351.4z M578.4,347.5c0-0.4-0.3-0.7-0.7-0.7h-6.5c-0.4,0-0.7,0.3-0.7,0.7s0.3,0.7,0.7,0.7h5.8
		v5.8c0,0.4,0.3,0.7,0.7,0.7s0.7-0.3,0.7-0.7V347.5z M574.3,351.9l3.9-3.9l-1-1l-3.9,3.9L574.3,351.9z M549.7,341.7
		c0,12.9,15.5,19.3,24.6,10.2l-1-1c-8.2,8.2-22.2,2.4-22.2-9.2H549.7z"/>
	<path class="st11" d="M613.7,351.8c0,1.2-1,2.2-2.2,2.2c-1.2,0-2.2-1-2.2-2.2s1-2.2,2.2-2.2C612.7,349.6,613.7,350.6,613.7,351.8z"
		/>
	<path class="st11" d="M613.7,341.7c0,1.2-1,2.2-2.2,2.2c-1.2,0-2.2-1-2.2-2.2c0-1.2,1-2.2,2.2-2.2
		C612.7,339.6,613.7,340.5,613.7,341.7z"/>
	<path d="M611.5,334.5c1.6,0,2.9-1.3,2.9-2.9c0-1.6-1.3-2.9-2.9-2.9s-2.9,1.3-2.9,2.9C608.6,333.2,609.9,334.5,611.5,334.5z"/>
	<path class="st11" d="M623.7,351.8c0,1.2-1,2.2-2.2,2.2c-1.2,0-2.2-1-2.2-2.2s1-2.2,2.2-2.2C622.8,349.6,623.7,350.6,623.7,351.8z"
		/>
	<path class="st11" d="M623.7,341.7c0,1.2-1,2.2-2.2,2.2c-1.2,0-2.2-1-2.2-2.2c0-1.2,1-2.2,2.2-2.2
		C622.8,339.6,623.7,340.5,623.7,341.7z"/>
	<path d="M621.6,334.5c1.6,0,2.9-1.3,2.9-2.9c0-1.6-1.3-2.9-2.9-2.9s-2.9,1.3-2.9,2.9C618.7,333.2,620,334.5,621.6,334.5z"/>
	<path d="M631.7,354.7c1.6,0,2.9-1.3,2.9-2.9c0-1.6-1.3-2.9-2.9-2.9s-2.9,1.3-2.9,2.9C628.8,353.4,630.1,354.7,631.7,354.7z"/>
	<path d="M631.7,344.6c1.6,0,2.9-1.3,2.9-2.9c0-1.6-1.3-2.9-2.9-2.9s-2.9,1.3-2.9,2.9C628.8,343.3,630.1,344.6,631.7,344.6z"/>
	<path d="M631.7,334.5c1.6,0,2.9-1.3,2.9-2.9c0-1.6-1.3-2.9-2.9-2.9s-2.9,1.3-2.9,2.9C628.8,333.2,630.1,334.5,631.7,334.5z"/>
	<path class="st14" d="M675.5,333.1l8.6,8.6l-8.6,8.6"/>
	<path class="st14" d="M739.6,350.3l-8.6-8.6l8.6-8.6"/>
	<path class="st14" d="M802.9,337.4l-8.6,8.6l-8.6-8.6"/>
	<path class="st14" d="M843.2,346l8.6-8.6l8.6,8.6"/>
	<circle class="st2" cx="621.6" cy="400.7" r="14.4"/>
	<path class="st16" d="M630.3,400.8h-17.3"/>
	<path class="st16" d="M621.6,409.3v-17.3"/>
	<circle class="st9" cx="679.1" cy="400.7" r="14.4"/>
	<path class="st14" d="M687.9,400.8h-17.3"/>
	<path class="st14" d="M679.1,409.3v-17.3"/>
	<path class="st14" d="M745.4,400.8h-17.3"/>
	<path class="st14" d="M736.7,409.3v-17.3"/>
	<circle class="st2" cx="794.2" cy="400.7" r="14.4"/>
	<path class="st16" d="M803,400.8h-17.3"/>
	<circle class="st9" cx="851.8" cy="400.7" r="14.4"/>
	<path class="st14" d="M860.5,400.8h-17.3"/>
	<path class="st17" d="M378.4,330.2c-0.8,0-1.4,0.6-1.4,1.4v12.9c0,0.8,0.6,1.4,1.4,1.4h5.8v5.7c0,1.3,1.6,1.9,2.5,1l6.2-6.7h11.4
		c0.8,0,1.4-0.6,1.4-1.4v-12.9c0-0.8-0.6-1.4-1.4-1.4H378.4z"/>
	<defs>
		<filter id="Adobe_OpacityMaskFilter" filterUnits="userSpaceOnUse" x="375.6" y="328.8" width="31.7" height="25.9">
			<feColorMatrix  type="matrix" values="1 0 0 0 0  0 1 0 0 0  0 0 1 0 0  0 0 0 1 0"/>
		</filter>
	</defs>
	
		<mask maskUnits="userSpaceOnUse" x="375.6" y="328.8" width="31.7" height="25.9" id="path-62-inside-1_1701_3128_00000081637345432769619500000013381636781964690051_">
		<path class="st18" d="M378.4,330.2c-0.8,0-1.4,0.6-1.4,1.4v12.9c0,0.8,0.6,1.4,1.4,1.4h5.8v5.7c0,1.3,1.6,1.9,2.5,1l6.2-6.7h11.4
			c0.8,0,1.4-0.6,1.4-1.4v-12.9c0-0.8-0.6-1.4-1.4-1.4H378.4z"/>
	</mask>
	<path class="st19" d="M384.2,346h1.4c0-0.8-0.6-1.4-1.4-1.4V346z M386.7,352.7l1.1,1L386.7,352.7z M392.9,346v-1.4
		c-0.4,0-0.8,0.2-1.1,0.5L392.9,346z M378.4,331.6L378.4,331.6v-2.9c-1.6,0-2.9,1.3-2.9,2.9H378.4z M378.4,344.6v-12.9h-2.9v12.9
		H378.4z M378.4,344.6L378.4,344.6h-2.9c0,1.6,1.3,2.9,2.9,2.9V344.6z M384.2,344.6h-5.8v2.9h5.8V344.6z M385.6,351.7V346h-2.9v5.7
		H385.6z M385.6,351.7L385.6,351.7h-2.9c0,2.6,3.2,3.9,5,2L385.6,351.7z M391.9,345l-6.2,6.7l2.1,2l6.2-6.7L391.9,345z M404.3,344.6
		h-11.4v2.9h11.4V344.6z M404.3,344.6v2.9c1.6,0,2.9-1.3,2.9-2.9H404.3z M404.3,331.6v12.9h2.9v-12.9H404.3z M404.3,331.6h2.9
		c0-1.6-1.3-2.9-2.9-2.9V331.6z M378.4,331.6h25.9v-2.9h-25.9V331.6z"/>
	<circle class="st11" cx="506.5" cy="274.1" r="6.5"/>
	<path class="st11" d="M517.3,288.6L517.3,288.6L517.3,288.6L517.3,288.6L517.3,288.6L517.3,288.6L517.3,288.6L517.3,288.6
		L517.3,288.6L517.3,288.6v0.1v0v0v0v0v0v0v0v0v0v0v0v0v0v0v0v0v0v0v0v0v0v0v0v0v0v0v0v0v0v0v0v0v0v0v0v0v0v0v0v0v0v0v0v0v0v0v0v0v0
		v0v0v0v0v0v0v0v0v0v0v0v0v0v0v0v0v0v0v0v0v0v0v0v0v0v0v0v0v0v0v0v0v0v0v0v0v0v0v0v0v0v0v0v0v0v0v0v0v0v0v0v0v0v0v0v0v0v0v0v0v0v0v0
		v0v0v0v0v0v0v0v0v0v0v0v0v0v0v0v0v0v0v0v0v0v0v0v0v0v0v0v0v0v0v0v0v0v0v0v0v0v0v0v0v0v0v0v0v0v0v0v0v0v0v0v0v0v0v0v0v0v0v0v0v0v0v0
		v0v0v0v0v0v0v0v0v0v0v0v0v0v0v0v0v0v0v0v0v0v0v0v0v0v0v0v0v0v0v0v0v0v0v0v0v0v0v0v0v0v0v0v0v0v0v0v0v0v0v0v0v0v0v0v0v0v0v0v0v0v0v0
		v0v0v0v0v0v0v0v0v0v0v0v0v0v0v0v0v0v0v0v0v0v0v0v0v0v0v0v0v0v0v0v0v0v0v0v0v0v0v0v0v0v0v0v0v0v0v0v0v0v0v0v0v0v0v0v0v0v0v0v0v0v0v0
		v0v0v0v0v0v0v0v0v0v0v0v0v0v0v0v0v0v0v0v0v0v0v0v0v0v0v0v0v0v0v0v0v0v0v0v0v0v0v0v0v0v0v0v0v0v0v0v0v0v0v0v0v0v0v0v0v0v0v0v0v0v0v0
		v0v0v0v0v0v0v0v0v0v0v0v0v0v0v0v0v0v0v0v0v0v0v0v0v0v0v0v0v0v0v0v0v0v0v0v0v0v0v0v0v0v0v0v0v0v0v0v0v0v0v0v0v0v0v0v0v0v0v0v0v0v0v0
		v0v0v0v0v0v0v0v0v0v0v0v0v0v0v0v0v0v0v0v0v0v0v0v0v0v0v0v0v0v0v0v0v0v0v0v0v0v0v0v0v0v0v0v0v0v0v0v0v0v0v0v0v0v0v0v0v0v0v0v0v0v0v0
		v0v0v0v0v0v0v0v0v0v0v0v0c0,0.4-0.3,0.7-0.7,0.7h0h0h0h0h0h0h0h0h0h0h0h0h0h0h0h0h0h0h0h0h0h0h0h0h0h0h0h0h0h0h0h0h0h0h0h0h0h0h0h0
		h0h0h0h0h0h0h0h0h0h0h0h0h0h0h0h0h0h0h0h0h0h0h0h0h0h0h0h0h0h0h0h0h0h0h0h0h0h0h0h0h0h0h0h0h0h0h0h0h0h0h0h0h0h0h0h0h0h0h0h0h0h0h0
		h0h0h0h0h0h0h0h0h0h0h0h0h0h0h0h0h0h0h0h0h0h0h0h0h0h0h0h0h0h0h0h0h0h0h0h0h0h0h0h0h0h0h0h0h0h0h0h0h0h0h0h0h0h0h0h0h0h0h0h0h0h0h0
		h0h0h0h0h0h0h0h0h0h0h0h0h0h0h0h0h0h0h0h0h0h0h0h0h0h0h0h0h0h0h0h0h0h0h0h0h0h0h0h0h0h0h0h0h0h0h0h0h0h0h0h0h0h0h0h0h0h0h0h0h0h0h0
		h0h0h0h0h0h0h0h0h0h0h0h0h0h0h0h0h0h0h0h0h0h0h0h0h0h0h0h0h0h0h0h0h0h0h0h0h0h0h0h0h0h0h0h0h0h0h0h0h0h0h0h0h0h0h0h0h0h0h0h0h0h0h0
		h0h0h0h0h0h0h0h0h0h0h0h0h0h0h0h0h0h0h0h0h0h0h0h0h0h0h0h0h0h0h0h0h0h0h0h0h0h0h0h0h0h0h0h0h0h0h0h0h0h0h0h0h0h0h0h0h0h0h0h0h0h0h0
		h0h0h0h0h0h0h0h0h0h0h0h0h0h0h0h0h0h0h0h0h0h0h0h0h0h0h0h0h0h0h0h0h0h0h0h0h0h0h0h0h0h0h0h0h0h0h0h0h0h0h0h0h0h0h0h0h0h0h0h0h0h0h0
		h0h0h0h0h0h0h0h0h0h0h0h0h0h0h0h0h0h0h0h0h0h0h0h0h0h0h0h0h0h0h0h0h0h0h0h0h0h0h0h0h0h0h0h0h0h0h0h0h0h0h0h0h0h0h0h0h0h0h0h0h0h0h0
		h0h0h0h0h0h0h0h0h0h0h0h0h0h0h0h0h0h0h0h0h0h0h0h0h0h0h0h0h0h0h0c-0.4,0-0.7-0.3-0.7-0.7c0-0.9,0-1.7,0-2.4c0-1,0-2,0-3.3
		c0-2.1,1.1-4.1,3.1-5.6c1.9-1.5,4.7-2.4,7.7-2.4s5.8,0.9,7.7,2.4C516.1,284.4,517.3,286.4,517.3,288.6z"/>
	<path class="st12" d="M395.7,278.4v1.4c0,2.4-1.9,4.3-4.3,4.3s-4.3-1.9-4.3-4.3v-1.4h-1.4v1.4c0,3.2,2.6,5.8,5.8,5.8
		c3.2,0,5.8-2.6,5.8-5.8v-1.4H395.7z M395.7,275.5h1.4v-2.9c0-3.2-2.6-5.8-5.8-5.8c-3.2,0-5.8,2.6-5.8,5.8v2.9h1.4v-2.9
		c0-2.4,1.9-4.3,4.3-4.3s4.3,1.9,4.3,4.3V275.5z"/>
	<path class="st11" d="M386.4,275.5v5.8c0,3.2,2.6,5.8,5.8,5.8h5"/>
	<path class="st15" d="M382.8,279.1H400c0.4,0,0.7,0.3,0.7,0.7v14.4c0,0.4-0.3,0.7-0.7,0.7h-17.3c-0.4,0-0.7-0.3-0.7-0.7v-14.4
		C382,279.4,382.4,279.1,382.8,279.1z"/>
	<path d="M393.2,284.5c0,1-0.8,1.8-1.8,1.8c-1,0-1.8-0.8-1.8-1.8c0-1,0.8-1.8,1.8-1.8C392.4,282.7,393.2,283.5,393.2,284.5z"/>
	<path d="M390.7,285.6h1.4l1.4,5.8h-4.3L390.7,285.6z"/>
	<path class="st12" d="M453.3,281.3v1.4c0,2.4-1.9,4.3-4.3,4.3s-4.3-1.9-4.3-4.3v-1.4h-1.4v1.4c0,3.2,2.6,5.8,5.8,5.8
		s5.8-2.6,5.8-5.8v-1.4H453.3z M453.3,278.4h1.4v-2.9c0-3.2-2.6-5.8-5.8-5.8s-5.8,2.6-5.8,5.8v2.9h1.4v-2.9c0-2.4,1.9-4.3,4.3-4.3
		s4.3,1.9,4.3,4.3V278.4z"/>
	<path class="st11" d="M443.9,275.5v5.8c0,3.2,2.6,5.8,5.8,5.8h5"/>
	<path class="st15" d="M440.3,279.1h17.3c0.4,0,0.7,0.3,0.7,0.7v14.4c0,0.4-0.3,0.7-0.7,0.7h-17.3c-0.4,0-0.7-0.3-0.7-0.7v-14.4
		C439.6,279.4,439.9,279.1,440.3,279.1z"/>
	<path d="M450.7,284.5c0,1-0.8,1.8-1.8,1.8c-1,0-1.8-0.8-1.8-1.8c0-1,0.8-1.8,1.8-1.8C449.9,282.7,450.7,283.5,450.7,284.5z"/>
	<path d="M448.2,285.6h1.4l1.4,5.8h-4.3L448.2,285.6z"/>
	<path class="st20" d="M666.2,218h17.3v17.3h-8.6c-4.8,0-8.6-3.9-8.6-8.6V218z"/>
	<path class="st20" d="M666.2,218l8.6-8.6h17.3 M692.1,209.3v17.3l-8.6,8.6 M692.1,209.3l-8.6,8.6"/>
	<path class="st21" d="M666.2,277h17.3v17.3h-8.6c-4.8,0-8.6-3.9-8.6-8.6V277z"/>
	<path class="st22" d="M666.2,277l8.6-8.6h17.3v17.3l-8.6,8.6V277H666.2z"/>
	<path class="st14" d="M692.1,268.3h-17.3l-8.6,8.6h17.3 M692.1,268.3v17.3l-8.6,8.6V277 M692.1,268.3l-8.6,8.6"/>
	<path class="st17" d="M785.6,210.8h17.3v23h-17.3c-3.2,0-5.8-5.2-5.8-11.5C779.9,215.9,782.4,210.8,785.6,210.8z"/>
	<defs>
		
			<filter id="Adobe_OpacityMaskFilter_00000008148237994405618400000007126808895921287600_" filterUnits="userSpaceOnUse" x="778.4" y="209.3" width="25.9" height="25.9">
			<feColorMatrix  type="matrix" values="1 0 0 0 0  0 1 0 0 0  0 0 1 0 0  0 0 0 1 0"/>
		</filter>
	</defs>
	
		<mask maskUnits="userSpaceOnUse" x="778.4" y="209.3" width="25.9" height="25.9" id="path-81-inside-2_1701_3128_00000036930319978486422000000015591711674308866459_">
		
			<path style="fill-rule:evenodd;clip-rule:evenodd;fill:#FFFFFF;filter:url(#Adobe_OpacityMaskFilter_00000008148237994405618400000007126808895921287600_);" d="
			M785.6,210.8h17.3v23h-17.3c-3.2,0-5.8-5.2-5.8-11.5C779.9,215.9,782.4,210.8,785.6,210.8z"/>
	</mask>
	<path class="st24" d="M802.9,210.8h1.4v-1.4h-1.4V210.8z M802.9,233.8v1.4h1.4v-1.4H802.9z M785.6,212.2h17.3v-2.9h-17.3V212.2z
		 M801.4,210.8v23h2.9v-23H801.4z M802.9,232.4h-17.3v2.9h17.3V232.4z M785.6,232.4c-0.8,0-1.8-0.6-2.8-2.6
		c-0.9-1.8-1.5-4.5-1.5-7.5h-2.9c0,3.4,0.7,6.5,1.8,8.8c1.1,2.2,2.9,4.2,5.4,4.2V232.4z M781.3,222.3c0-3,0.6-5.7,1.5-7.5
		c1-1.9,2-2.6,2.8-2.6v-2.9c-2.4,0-4.2,1.9-5.4,4.2c-1.2,2.3-1.8,5.4-1.8,8.8H781.3z"/>
	<path class="st25" d="M807.9,222.3c0,3.1-0.6,5.9-1.6,7.8c-1,2-2.3,3-3.4,3c-1.2,0-2.4-1-3.4-3c-1-2-1.6-4.7-1.6-7.8
		c0-3.1,0.6-5.9,1.6-7.8c1-2,2.3-3,3.4-3c1.2,0,2.4,1,3.4,3C807.3,216.4,807.9,219.2,807.9,222.3z"/>
	<path class="st26" d="M785.6,269.8h17.3v23h-17.3c-3.2,0-5.8-5.2-5.8-11.5C779.9,274.9,782.4,269.8,785.6,269.8z"/>
	<defs>
		
			<filter id="Adobe_OpacityMaskFilter_00000091699048334580354030000011294217171064925887_" filterUnits="userSpaceOnUse" x="778.4" y="268.3" width="25.9" height="25.9">
			<feColorMatrix  type="matrix" values="1 0 0 0 0  0 1 0 0 0  0 0 1 0 0  0 0 0 1 0"/>
		</filter>
	</defs>
	
		<mask maskUnits="userSpaceOnUse" x="778.4" y="268.3" width="25.9" height="25.9" id="path-84-inside-3_1701_3128_00000071518449709056499960000007303146950373975187_">
		
			<path style="fill-rule:evenodd;clip-rule:evenodd;fill:#FFFFFF;filter:url(#Adobe_OpacityMaskFilter_00000091699048334580354030000011294217171064925887_);" d="
			M785.6,269.8h17.3v23h-17.3c-3.2,0-5.8-5.2-5.8-11.5C779.9,274.9,782.4,269.8,785.6,269.8z"/>
	</mask>
	<path class="st28" d="M802.9,269.8h1.4v-1.4h-1.4V269.8z M802.9,292.8v1.4h1.4v-1.4H802.9z M785.6,271.2h17.3v-2.9h-17.3V271.2z
		 M801.4,269.8v23h2.9v-23H801.4z M802.9,291.4h-17.3v2.9h17.3V291.4z M785.6,291.4c-0.8,0-1.8-0.6-2.8-2.6
		c-0.9-1.8-1.5-4.5-1.5-7.5h-2.9c0,3.4,0.7,6.5,1.8,8.8c1.1,2.2,2.9,4.2,5.4,4.2V291.4z M781.3,281.3c0-3,0.6-5.7,1.5-7.5
		c1-1.9,2-2.6,2.8-2.6v-2.9c-2.4,0-4.2,1.9-5.4,4.2c-1.2,2.3-1.8,5.4-1.8,8.8H781.3z"/>
	<path class="st29" d="M807.9,281.3c0,3.1-0.6,5.9-1.6,7.8c-1,2-2.3,3-3.4,3c-1.2,0-2.4-1-3.4-3c-1-2-1.6-4.7-1.6-7.8
		c0-3.1,0.6-5.9,1.6-7.8c1-2,2.3-3,3.4-3c1.2,0,2.4,1,3.4,3C807.3,275.4,807.9,278.2,807.9,281.3z"/>
	<path class="st17" d="M862.1,225.3c1.7-1.7,2.7-4,2.7-6.6c0-5.2-4.2-9.4-9.4-9.4c-2.6,0-4.9,1-6.6,2.7l0,0l-7.3,7.3l13.2,13.2
		L862.1,225.3L862.1,225.3z"/>
	<path class="st9" d="M862.1,225.3l-0.5-0.5c-0.3,0.3-0.3,0.7,0,1L862.1,225.3z M848.8,212l-0.5,0.5c0.3,0.3,0.7,0.3,1,0L848.8,212z
		 M848.8,212l0.5-0.5c-0.3-0.3-0.7-0.3-1,0L848.8,212z M841.6,219.3l-0.5-0.5c-0.3,0.3-0.3,0.7,0,1L841.6,219.3z M854.8,232.5
		l-0.5,0.5c0.1,0.1,0.3,0.2,0.5,0.2c0.2,0,0.4-0.1,0.5-0.2L854.8,232.5z M862.1,225.3l0.5,0.5c0.3-0.3,0.3-0.7,0-1L862.1,225.3z
		 M864,218.7c0,2.4-0.9,4.5-2.5,6l1,1c1.8-1.8,2.9-4.3,2.9-7.1H864z M855.4,210.1c4.8,0,8.6,3.9,8.6,8.6h1.4
		c0-5.6-4.5-10.1-10.1-10.1V210.1z M849.3,212.5c1.6-1.5,3.7-2.5,6-2.5v-1.4c-2.7,0-5.2,1.1-7.1,2.9L849.3,212.5z M848.3,212.5
		L848.3,212.5l1-1l0,0L848.3,212.5z M842.1,219.8l7.3-7.3l-1-1l-7.3,7.3L842.1,219.8z M855.3,232l-13.2-13.2l-1,1l13.2,13.2
		L855.3,232z M861.6,224.8l-7.3,7.3l1,1l7.3-7.3L861.6,224.8z M861.6,225.8L861.6,225.8l1-1l0,0L861.6,225.8z"/>
	<circle class="st25" cx="848.2" cy="225.9" r="9.4"/>
	<path class="st30" d="M862.1,284.2c1.7-1.7,2.7-4,2.7-6.6c0-5.2-4.2-9.4-9.4-9.4c-2.6,0-4.9,1-6.6,2.7l0,0l-7.3,7.3l13.2,13.2
		L862.1,284.2L862.1,284.2z"/>
	<path d="M862.1,284.2l-0.5-0.5c-0.3,0.3-0.3,0.7,0,1L862.1,284.2z M848.8,271l-0.5,0.5c0.3,0.3,0.7,0.3,1,0L848.8,271z M848.8,271
		l0.5-0.5c-0.3-0.3-0.7-0.3-1,0L848.8,271z M841.6,278.3l-0.5-0.5c-0.3,0.3-0.3,0.7,0,1L841.6,278.3z M854.8,291.5l-0.5,0.5
		c0.1,0.1,0.3,0.2,0.5,0.2c0.2,0,0.4-0.1,0.5-0.2L854.8,291.5z M862.1,284.3l0.5,0.5c0.3-0.3,0.3-0.7,0-1L862.1,284.3z M864,277.7
		c0,2.4-0.9,4.5-2.5,6l1,1c1.8-1.8,2.9-4.3,2.9-7.1H864z M855.4,269.1c4.8,0,8.6,3.9,8.6,8.6h1.4c0-5.6-4.5-10.1-10.1-10.1V269.1z
		 M849.3,271.5c1.6-1.5,3.7-2.5,6-2.5v-1.4c-2.7,0-5.2,1.1-7.1,2.9L849.3,271.5z M848.3,271.5L848.3,271.5l1-1l0,0L848.3,271.5z
		 M842.1,278.8l7.3-7.3l-1-1l-7.3,7.3L842.1,278.8z M855.3,291l-13.2-13.2l-1,1l13.2,13.2L855.3,291z M861.6,283.7l-7.3,7.3l1,1
		l7.3-7.3L861.6,283.7z M861.6,284.7L861.6,284.7l1-1l0,0L861.6,284.7z"/>
	<circle class="st31" cx="848.2" cy="284.9" r="9.4"/>
	<rect x="723.7" y="218" class="st20" width="17.3" height="17.3"/>
	<path class="st20" d="M732.4,209.3h17.3v17.3l-8.6,8.6V218h-17.3L732.4,209.3z"/>
	<path class="st20" d="M741,218l8.6-8.6"/>
	<rect x="723.7" y="277" class="st32" width="17.3" height="17.3"/>
	<path class="st32" d="M732.4,268.3h17.3v17.3l-8.6,8.6V277h-17.3L732.4,268.3z"/>
	<path class="st14" d="M741,277l8.6-8.6"/>
	<path class="st11" d="M618.7,211.5c4.4,0,7.9,3.5,7.9,7.9c0,4.4-3.5,7.9-7.9,7.9c-4.4,0-7.9-3.5-7.9-7.9
		C610.8,215,614.3,211.5,618.7,211.5z"/>
	<path class="st11" d="M624.5,225.2l8.6,8.6"/>
	<path class="st33" d="M564.6,222.8c-0.2-0.2-0.4-0.3-0.5-0.5c-0.2-0.2-0.3-0.3-0.5-0.5l1-1c0.1,0.2,0.3,0.4,0.5,0.5
		c0.2,0.2,0.4,0.3,0.5,0.5L564.6,222.8z M565.8,223.6c2.7,1.4,6.1,1,8.4-1.3c2.8-2.8,2.8-7.4,0-10.2c-2.8-2.8-7.4-2.8-10.2,0
		c-2.3,2.3-2.7,5.7-1.3,8.4l1.1-1.1c-0.9-2.1-0.5-4.6,1.2-6.3c2.2-2.2,5.9-2.2,8.1,0s2.2,5.9,0,8.1c-1.7,1.7-4.2,2.1-6.3,1.2
		L565.8,223.6z"/>
	<path class="st33" d="M563.5,221.8c0.2,0.2,0.4,0.3,0.5,0.5c0.2,0.2,0.3,0.3,0.5,0.5l-1,1c-0.1-0.2-0.3-0.4-0.5-0.5
		c-0.2-0.2-0.4-0.3-0.5-0.5L563.5,221.8z M562.3,221c-2.7-1.4-6.1-1-8.4,1.3c-2.8,2.8-2.8,7.4,0,10.2c2.8,2.8,7.4,2.8,10.2,0
		c2.3-2.3,2.7-5.7,1.3-8.4l-1.1,1.1c0.9,2.1,0.5,4.6-1.2,6.3c-2.2,2.2-5.9,2.2-8.1,0c-2.2-2.2-2.2-5.9,0-8.1
		c1.7-1.7,4.2-2.1,6.3-1.2L562.3,221z"/>
	<path class="st11" d="M557.9,228.4l12.2-12.2"/>
	<path class="st11" d="M495,230.9h16.5"/>
	<path class="st34" d="M501.5,214.9c0-0.3,0.2-0.5,0.4-0.6l7.9-3.9c0.2-0.1,0.4-0.1,0.6,0l7.9,3.9c0.2,0.1,0.4,0.4,0.4,0.6v0.2
		c0,0.4-0.3,0.7-0.7,0.7h-15.8c-0.4,0-0.7-0.3-0.7-0.7V214.9z"/>
	<rect x="514.4" y="215.8" class="st34" width="2.9" height="10.1"/>
	<path class="st33" d="M509.4,216.5h1.4v5.8h1.4v-5.8v-1.4h-1.4h-1.4h-1.4v1.4v5.8h1.4V216.5z"/>
	<path class="st33" d="M503.6,216.5h1.4v5.8h1.4v-5.8v-1.4h-1.4h-1.4h-1.4v1.4v5.8h1.4V216.5z"/>
	<path class="st12" d="M513.7,226.6h5.8v-1.4h-5.8V226.6z"/>
	<path class="st35" d="M495,224.5h15.8c0.4,0,0.7,0.3,0.7,0.7v8.6c0,0.4-0.3,0.7-0.7,0.7H495c-0.4,0-0.7-0.3-0.7-0.7v-8.6
		C494.3,224.8,494.6,224.5,495,224.5z"/>
	<path class="st34" d="M436.7,215.3c0-0.3,0.2-0.5,0.4-0.6l11.5-5.8c0.2-0.1,0.4-0.1,0.6,0l11.5,5.8c0.2,0.1,0.4,0.4,0.4,0.6v1.3
		c0,0.4-0.3,0.7-0.7,0.7h-23c-0.4,0-0.7-0.3-0.7-0.7V215.3z"/>
	<path class="st11" d="M436,231.6h25.9 M436,234.5h25.9"/>
	<rect x="438.1" y="217.3" class="st34" width="4.3" height="14.4"/>
	<rect x="446.8" y="217.3" class="st34" width="4.3" height="14.4"/>
	<rect x="455.4" y="217.3" class="st34" width="4.3" height="14.4"/>
	<path class="st35" d="M378.4,214.4h25.9c0.4,0,0.7,0.3,0.7,0.7v14.4c0,0.4-0.3,0.7-0.7,0.7h-25.9c-0.4,0-0.7-0.3-0.7-0.7v-14.4
		C377.7,214.7,378,214.4,378.4,214.4z"/>
	<path class="st11" d="M378.4,225.2h25.9"/>
	<circle class="st2" cx="564" cy="400.7" r="14.4"/>
	<path class="st36" d="M558.3,399.8l4.9,5.2l8.1-8.6"/>
	<path class="st37" d="M928.7,285.6v-9.5h1.4v9.5H928.7z M925.5,276.4v-1.3h7.8v1.3H925.5z M939.6,285.6v-2.3h-0.2v-2.7
		c0-0.5-0.1-0.9-0.4-1.2c-0.3-0.3-0.7-0.4-1.2-0.4c-0.3,0-0.6,0-0.9,0c-0.3,0-0.6,0-0.9,0c-0.3,0-0.5,0-0.7,0v-1.2
		c0.2,0,0.4,0,0.7,0c0.2,0,0.5,0,0.7,0c0.2,0,0.5,0,0.7,0c0.8,0,1.4,0.1,1.9,0.3c0.5,0.2,0.9,0.5,1.1,0.9c0.2,0.4,0.4,1,0.4,1.7v4.9
		H939.6z M937,285.8c-0.6,0-1.1-0.1-1.5-0.3c-0.4-0.2-0.7-0.5-1-0.9c-0.2-0.4-0.3-0.8-0.3-1.4c0-0.5,0.1-1,0.4-1.4
		c0.2-0.4,0.6-0.6,1.1-0.8c0.5-0.2,1-0.3,1.7-0.3h2.1v1h-2.1c-0.6,0-1,0.1-1.3,0.4c-0.3,0.3-0.4,0.6-0.4,1s0.1,0.8,0.4,1
		c0.3,0.3,0.7,0.4,1.3,0.4c0.3,0,0.6-0.1,0.9-0.2c0.3-0.1,0.5-0.3,0.7-0.6c0.2-0.3,0.3-0.7,0.3-1.2l0.4,0.5c0,0.5-0.2,1-0.4,1.4
		c-0.2,0.4-0.5,0.6-0.9,0.8C938,285.7,937.6,285.8,937,285.8z M942.6,285.6l2.7-4l0,0.3l-2.6-3.9h1.5l1.9,2.9h0.2l1.8-2.9h1.4
		l-2.4,3.8l0-0.3l2.9,4.1h-1.5l-2.2-3.1h-0.2l-2.1,3.1H942.6z M955.1,285.9c-0.7,0-1.3-0.1-1.7-0.3c-0.5-0.2-0.9-0.5-1.2-0.9
		c-0.3-0.4-0.5-0.8-0.7-1.3c-0.1-0.5-0.2-0.9-0.2-1.4v-0.3c0-0.5,0.1-1,0.2-1.5c0.2-0.5,0.4-0.9,0.7-1.3c0.3-0.4,0.7-0.7,1.2-0.9
		c0.5-0.2,1-0.3,1.7-0.3c0.8,0,1.5,0.2,2.1,0.5c0.5,0.4,0.9,0.8,1.2,1.4c0.3,0.6,0.4,1.2,0.4,1.8v0.6h-6.8v-1h5.8l-0.3,0.6
		c0-0.5-0.1-1-0.3-1.4c-0.2-0.4-0.4-0.7-0.8-0.9c-0.3-0.2-0.8-0.3-1.3-0.3c-0.5,0-1,0.1-1.4,0.4c-0.4,0.2-0.6,0.6-0.8,1
		c-0.2,0.4-0.3,0.9-0.3,1.5c0,0.5,0.1,1,0.3,1.5c0.2,0.4,0.5,0.8,0.8,1c0.4,0.2,0.8,0.4,1.4,0.4c0.6,0,1.1-0.1,1.5-0.4
		c0.4-0.3,0.6-0.6,0.7-0.9h1.3c-0.1,0.5-0.3,1-0.6,1.4s-0.7,0.7-1.2,0.9C956.2,285.8,955.7,285.9,955.1,285.9z M964.2,285.9
		c-0.5,0-1.1-0.1-1.5-0.3c-0.5-0.2-0.9-0.5-1.2-0.8c-0.3-0.4-0.6-0.8-0.8-1.3c-0.2-0.5-0.3-1-0.3-1.6v-0.3c0-0.5,0.1-1.1,0.3-1.5
		c0.2-0.5,0.4-0.9,0.8-1.3c0.3-0.4,0.7-0.6,1.2-0.8c0.5-0.2,1-0.3,1.5-0.3c0.6,0,1.1,0.1,1.6,0.4c0.5,0.2,0.9,0.6,1.2,1.1
		c0.3,0.5,0.5,1.2,0.5,2l-0.6-0.9v-5.2h1.4v10.5h-1.1v-3.4h0.4c0,0.9-0.2,1.6-0.5,2.1c-0.3,0.5-0.7,0.9-1.2,1.2
		C965.3,285.7,964.7,285.9,964.2,285.9z M964.4,284.7c0.5,0,0.9-0.1,1.3-0.3c0.4-0.2,0.7-0.5,0.9-0.9c0.2-0.4,0.3-0.9,0.3-1.4v-0.7
		c0-0.5-0.1-1-0.4-1.3c-0.2-0.4-0.5-0.7-0.9-0.8c-0.4-0.2-0.8-0.3-1.3-0.3c-0.5,0-1,0.1-1.4,0.4c-0.4,0.2-0.7,0.6-0.9,1
		c-0.2,0.4-0.3,0.9-0.3,1.5s0.1,1.1,0.3,1.5c0.2,0.4,0.5,0.8,0.9,1C963.4,284.5,963.9,284.7,964.4,284.7z M975.1,285.6v-10.5h1.4
		v10.5H975.1z M979.8,285.6v-7.7h1.1v3.3h-0.2c0-0.8,0.1-1.4,0.3-1.9c0.2-0.5,0.5-0.9,0.9-1.2c0.4-0.3,1-0.4,1.6-0.4h0.1
		c1,0,1.7,0.3,2.1,0.9c0.5,0.6,0.7,1.5,0.7,2.6v4.4H985v-4.7c0-0.6-0.2-1.1-0.5-1.4c-0.3-0.4-0.8-0.5-1.4-0.5
		c-0.6,0-1.1,0.2-1.5,0.6s-0.6,0.9-0.6,1.5v4.6H979.8z M992.6,285.9c-0.7,0-1.2-0.1-1.7-0.3c-0.5-0.2-0.9-0.5-1.2-0.9
		c-0.3-0.4-0.6-0.8-0.7-1.3c-0.2-0.5-0.2-0.9-0.2-1.4v-0.3c0-0.5,0.1-1,0.2-1.4c0.2-0.5,0.4-0.9,0.7-1.3c0.3-0.4,0.7-0.7,1.2-0.9
		s1-0.3,1.7-0.3s1.2,0.1,1.7,0.4c0.5,0.2,0.9,0.6,1.2,1c0.3,0.4,0.5,0.9,0.5,1.5h-1.3c-0.1-0.5-0.3-0.9-0.7-1.2
		c-0.4-0.3-0.9-0.5-1.5-0.5c-0.5,0-1,0.1-1.4,0.4c-0.4,0.2-0.6,0.6-0.8,1s-0.3,0.9-0.3,1.5c0,0.5,0.1,1,0.3,1.5
		c0.2,0.4,0.5,0.8,0.8,1c0.4,0.2,0.8,0.4,1.4,0.4c0.4,0,0.8-0.1,1.1-0.2c0.3-0.2,0.6-0.4,0.8-0.6s0.3-0.6,0.3-0.9h1.3
		c0,0.6-0.2,1.1-0.5,1.6c-0.3,0.4-0.7,0.8-1.3,1C993.8,285.7,993.3,285.9,992.6,285.9z M1001.9,285.9c-0.7,0-1.3-0.1-1.8-0.3
		c-0.5-0.2-0.9-0.5-1.3-0.9c-0.3-0.4-0.6-0.8-0.8-1.3c-0.2-0.5-0.3-0.9-0.3-1.4v-0.3c0-0.5,0.1-1,0.3-1.4c0.2-0.5,0.5-0.9,0.8-1.3
		c0.4-0.4,0.8-0.7,1.3-0.9c0.5-0.2,1.1-0.3,1.7-0.3c0.7,0,1.2,0.1,1.7,0.3c0.5,0.2,0.9,0.5,1.3,0.9c0.4,0.4,0.6,0.8,0.8,1.3
		c0.2,0.5,0.3,0.9,0.3,1.4v0.3c0,0.5-0.1,1-0.3,1.4c-0.2,0.5-0.4,0.9-0.8,1.3c-0.3,0.4-0.8,0.7-1.3,0.9
		C1003.2,285.7,1002.6,285.9,1001.9,285.9z M1001.9,284.6c0.6,0,1.1-0.1,1.5-0.4c0.4-0.3,0.7-0.6,0.9-1c0.2-0.4,0.3-0.9,0.3-1.5
		c0-0.5-0.1-1-0.3-1.5c-0.2-0.4-0.5-0.8-0.9-1c-0.4-0.2-0.9-0.4-1.5-0.4c-0.6,0-1,0.1-1.5,0.4c-0.4,0.2-0.7,0.6-0.9,1
		c-0.2,0.4-0.3,0.9-0.3,1.5c0,0.5,0.1,1,0.3,1.5c0.2,0.4,0.5,0.8,0.9,1C1000.9,284.5,1001.4,284.6,1001.9,284.6z M1008.5,285.6v-7.7
		h1.1v3.3h-0.2c0-0.7,0.1-1.4,0.3-1.9c0.2-0.5,0.5-0.9,0.9-1.2c0.4-0.3,0.9-0.4,1.5-0.4h0.1c0.6,0,1.1,0.1,1.5,0.4
		c0.4,0.3,0.7,0.7,0.9,1.2c0.2,0.5,0.3,1.2,0.3,1.9h-0.4c0-0.7,0.1-1.4,0.3-1.9c0.2-0.5,0.5-0.9,0.9-1.2c0.4-0.3,0.9-0.4,1.5-0.4
		h0.1c0.6,0,1.1,0.1,1.5,0.4c0.4,0.3,0.7,0.7,0.9,1.2c0.2,0.5,0.3,1.2,0.3,1.9v4.4h-1.4v-4.7c0-0.6-0.2-1.1-0.5-1.4
		c-0.3-0.3-0.7-0.5-1.3-0.5c-0.6,0-1,0.2-1.4,0.5c-0.3,0.4-0.5,0.9-0.5,1.5v4.6h-1.4v-4.7c0-0.6-0.2-1.1-0.5-1.4
		c-0.3-0.3-0.7-0.5-1.3-0.5c-0.6,0-1,0.2-1.4,0.5c-0.3,0.4-0.5,0.9-0.5,1.5v4.6H1008.5z M1026,285.9c-0.7,0-1.3-0.1-1.7-0.3
		c-0.5-0.2-0.9-0.5-1.2-0.9c-0.3-0.4-0.5-0.8-0.7-1.3c-0.1-0.5-0.2-0.9-0.2-1.4v-0.3c0-0.5,0.1-1,0.2-1.5c0.2-0.5,0.4-0.9,0.7-1.3
		c0.3-0.4,0.7-0.7,1.2-0.9c0.5-0.2,1-0.3,1.7-0.3c0.8,0,1.5,0.2,2.1,0.5c0.5,0.4,0.9,0.8,1.2,1.4c0.3,0.6,0.4,1.2,0.4,1.8v0.6h-6.8
		v-1h5.8l-0.3,0.6c0-0.5-0.1-1-0.3-1.4c-0.2-0.4-0.4-0.7-0.8-0.9s-0.8-0.3-1.3-0.3c-0.5,0-1,0.1-1.4,0.4c-0.4,0.2-0.6,0.6-0.8,1
		c-0.2,0.4-0.3,0.9-0.3,1.5c0,0.5,0.1,1,0.3,1.5c0.2,0.4,0.5,0.8,0.8,1c0.4,0.2,0.8,0.4,1.4,0.4c0.6,0,1.1-0.1,1.5-0.4
		c0.4-0.3,0.6-0.6,0.7-0.9h1.3c-0.1,0.5-0.3,1-0.6,1.4s-0.7,0.7-1.2,0.9C1027.2,285.8,1026.6,285.9,1026,285.9z"/>
	<path class="st38" d="M926.6,269.1h99.3c6.8,0,12.2,5.5,12.2,12.2l0,0c0,6.8-5.5,12.2-12.2,12.2h-99.3c-6.8,0-12.2-5.5-12.2-12.2
		l0,0C914.4,274.5,919.9,269.1,926.6,269.1z"/>
	<path class="st4" d="M927.8,346.1v-1.3h2.6c0.6,0,1.2-0.1,1.7-0.3c0.5-0.2,0.9-0.5,1.3-0.9c0.4-0.4,0.6-0.8,0.8-1.3
		c0.2-0.5,0.3-1,0.3-1.6c0-0.6-0.1-1.1-0.3-1.6c-0.2-0.5-0.5-0.9-0.8-1.3c-0.3-0.4-0.8-0.6-1.3-0.8c-0.5-0.2-1.1-0.3-1.7-0.3h-2.6
		v-1.3h2.5c0.9,0,1.8,0.1,2.5,0.4c0.7,0.3,1.3,0.7,1.7,1.2c0.5,0.5,0.8,1,1.1,1.7c0.2,0.6,0.3,1.2,0.3,1.9v0.3
		c0,0.6-0.1,1.2-0.3,1.8c-0.2,0.6-0.6,1.2-1.1,1.7c-0.5,0.5-1,0.9-1.7,1.2c-0.7,0.3-1.5,0.4-2.5,0.4H927.8z M926.7,346.1v-10.6h1.4
		v10.6H926.7z M941.5,346.3c-0.7,0-1.3-0.1-1.7-0.3c-0.5-0.2-0.9-0.5-1.2-0.9c-0.3-0.4-0.5-0.8-0.7-1.3c-0.1-0.5-0.2-0.9-0.2-1.4
		v-0.3c0-0.5,0.1-1,0.2-1.5c0.2-0.5,0.4-0.9,0.7-1.3c0.3-0.4,0.7-0.7,1.2-0.9c0.5-0.2,1-0.3,1.7-0.3c0.8,0,1.5,0.2,2.1,0.5
		c0.5,0.4,0.9,0.8,1.2,1.4c0.3,0.6,0.4,1.2,0.4,1.8v0.6h-6.8v-1h5.8l-0.3,0.6c0-0.5-0.1-1-0.3-1.4c-0.2-0.4-0.4-0.7-0.8-0.9
		c-0.3-0.2-0.8-0.3-1.3-0.3c-0.5,0-1,0.1-1.4,0.4c-0.4,0.2-0.6,0.6-0.8,1c-0.2,0.4-0.3,0.9-0.3,1.5c0,0.5,0.1,1,0.3,1.5
		c0.2,0.4,0.5,0.8,0.8,1c0.4,0.2,0.8,0.4,1.4,0.4c0.6,0,1.1-0.1,1.5-0.4c0.4-0.3,0.6-0.6,0.7-0.9h1.3c-0.1,0.5-0.3,1-0.6,1.4
		c-0.3,0.4-0.7,0.7-1.2,0.9C942.7,346.2,942.1,346.3,941.5,346.3z M950.6,346.3c-0.5,0-1.1-0.1-1.5-0.3c-0.5-0.2-0.9-0.5-1.2-0.8
		c-0.3-0.4-0.6-0.8-0.8-1.3c-0.2-0.5-0.3-1-0.3-1.6v-0.3c0-0.5,0.1-1.1,0.3-1.5c0.2-0.5,0.4-0.9,0.8-1.3c0.3-0.4,0.7-0.6,1.2-0.8
		c0.5-0.2,1-0.3,1.5-0.3c0.6,0,1.1,0.1,1.6,0.4c0.5,0.2,0.9,0.6,1.2,1.1c0.3,0.5,0.5,1.2,0.5,2l-0.6-0.9v-5.2h1.4V346h-1.1v-3.4h0.4
		c0,0.9-0.2,1.6-0.5,2.1c-0.3,0.5-0.7,0.9-1.2,1.2C951.7,346.2,951.2,346.3,950.6,346.3z M950.8,345.1c0.5,0,0.9-0.1,1.3-0.3
		c0.4-0.2,0.7-0.5,0.9-0.9c0.2-0.4,0.3-0.9,0.3-1.4v-0.7c0-0.5-0.1-1-0.4-1.3c-0.2-0.4-0.5-0.7-0.9-0.8c-0.4-0.2-0.8-0.3-1.3-0.3
		c-0.5,0-1,0.1-1.4,0.4c-0.4,0.2-0.7,0.6-0.9,1c-0.2,0.4-0.3,0.9-0.3,1.5c0,0.6,0.1,1.1,0.3,1.5c0.2,0.4,0.5,0.8,0.9,1
		C949.9,345,950.3,345.1,950.8,345.1z M960.3,346.3c-0.9,0-1.6-0.3-2.1-0.9c-0.5-0.6-0.7-1.5-0.7-2.6v-4.5h1.4v4.7
		c0,0.6,0.2,1.1,0.5,1.4c0.3,0.3,0.8,0.5,1.3,0.5c0.6,0,1-0.2,1.4-0.5c0.4-0.4,0.5-0.9,0.5-1.5v-4.6h1.4v7.7H963v-3.3h0.2
		c0,0.8-0.1,1.4-0.3,1.9c-0.2,0.5-0.5,0.9-0.9,1.2C961.5,346.1,961,346.3,960.3,346.3L960.3,346.3z M970.4,346.3
		c-0.7,0-1.2-0.1-1.7-0.3c-0.5-0.2-0.9-0.5-1.2-0.9c-0.3-0.4-0.6-0.8-0.7-1.3c-0.2-0.5-0.2-0.9-0.2-1.4v-0.3c0-0.5,0.1-1,0.2-1.4
		c0.2-0.5,0.4-0.9,0.7-1.3c0.3-0.4,0.7-0.7,1.2-0.9c0.5-0.2,1-0.3,1.7-0.3c0.6,0,1.2,0.1,1.7,0.4c0.5,0.2,0.9,0.6,1.2,1
		c0.3,0.4,0.5,0.9,0.5,1.5h-1.3c-0.1-0.5-0.3-0.9-0.7-1.2c-0.4-0.3-0.9-0.5-1.5-0.5c-0.5,0-1,0.1-1.4,0.4c-0.4,0.2-0.6,0.6-0.8,1
		c-0.2,0.4-0.3,0.9-0.3,1.5c0,0.5,0.1,1,0.3,1.5c0.2,0.4,0.5,0.8,0.8,1c0.4,0.2,0.8,0.4,1.4,0.4c0.4,0,0.8-0.1,1.1-0.2
		c0.3-0.2,0.6-0.4,0.8-0.6s0.3-0.6,0.3-0.9h1.3c0,0.6-0.2,1.1-0.5,1.6c-0.3,0.4-0.7,0.8-1.3,1C971.6,346.2,971,346.3,970.4,346.3z
		 M979.2,346.1c-0.6,0-1.1-0.1-1.5-0.2c-0.4-0.2-0.7-0.4-1-0.8c-0.2-0.4-0.3-0.9-0.3-1.6V336h1.3v7.6c0,0.4,0.1,0.7,0.3,1
		c0.2,0.2,0.6,0.3,1,0.3h1.4v1.2H979.2z M975,339.4v-1h5.3v1H975z M983,346v-7.7h1.4v7.7H983z M981.8,339.4v-1.1h2.6v1.1H981.8z
		 M983.4,337.1c-0.3,0-0.5-0.1-0.7-0.2c-0.1-0.2-0.2-0.4-0.2-0.6s0.1-0.5,0.2-0.6c0.2-0.2,0.4-0.2,0.7-0.2c0.3,0,0.5,0.1,0.7,0.2
		c0.2,0.2,0.2,0.4,0.2,0.6s-0.1,0.5-0.2,0.6C983.9,337,983.7,337.1,983.4,337.1z M991,346.3c-0.7,0-1.3-0.1-1.8-0.3
		c-0.5-0.2-0.9-0.5-1.3-0.9c-0.3-0.4-0.6-0.8-0.8-1.3c-0.2-0.5-0.3-0.9-0.3-1.4v-0.3c0-0.5,0.1-1,0.3-1.4c0.2-0.5,0.5-0.9,0.8-1.3
		c0.4-0.4,0.8-0.7,1.3-0.9c0.5-0.2,1.1-0.3,1.7-0.3c0.7,0,1.2,0.1,1.7,0.3c0.5,0.2,0.9,0.5,1.3,0.9c0.4,0.4,0.6,0.8,0.8,1.3
		c0.2,0.5,0.3,0.9,0.3,1.4v0.3c0,0.5-0.1,1-0.3,1.4c-0.2,0.5-0.4,0.9-0.8,1.3c-0.3,0.4-0.8,0.7-1.3,0.9
		C992.2,346.2,991.6,346.3,991,346.3z M991,345.1c0.6,0,1.1-0.1,1.5-0.4c0.4-0.3,0.7-0.6,0.9-1c0.2-0.4,0.3-0.9,0.3-1.5
		c0-0.5-0.1-1-0.3-1.5c-0.2-0.4-0.5-0.8-0.9-1c-0.4-0.2-0.9-0.4-1.5-0.4c-0.6,0-1,0.1-1.5,0.4c-0.4,0.2-0.7,0.6-0.9,1
		c-0.2,0.4-0.3,0.9-0.3,1.5c0,0.5,0.1,1,0.3,1.5c0.2,0.4,0.5,0.8,0.9,1C989.9,344.9,990.4,345.1,991,345.1z M997.5,346v-7.7h1.1v3.3
		h-0.2c0-0.8,0.1-1.4,0.3-1.9c0.2-0.5,0.5-0.9,0.9-1.2c0.4-0.3,1-0.4,1.6-0.4h0.1c1,0,1.7,0.3,2.1,0.9c0.5,0.6,0.7,1.5,0.7,2.6v4.4
		h-1.4v-4.7c0-0.6-0.2-1.1-0.5-1.4c-0.3-0.4-0.8-0.5-1.4-0.5c-0.6,0-1.1,0.2-1.5,0.6s-0.6,0.9-0.6,1.5v4.6H997.5z"/>
	<path class="st39" d="M926.6,329.5h76.3c6.8,0,12.2,5.5,12.2,12.2l0,0c0,6.8-5.5,12.2-12.2,12.2h-76.3c-6.8,0-12.2-5.5-12.2-12.2
		l0,0C914.4,335,919.9,329.5,926.6,329.5z"/>
	<path class="st40" d="M927.8,223v-1.2h2.3c0.5,0,0.9-0.1,1.2-0.3c0.3-0.2,0.6-0.5,0.7-0.8c0.2-0.3,0.3-0.7,0.3-1.1
		c0-0.4-0.1-0.8-0.3-1.1c-0.2-0.3-0.4-0.6-0.7-0.8c-0.3-0.2-0.7-0.3-1.2-0.3h-2.3v-1.2h2.1c0.9,0,1.6,0.1,2.2,0.4
		c0.6,0.3,1,0.7,1.3,1.2s0.4,1.1,0.4,1.8v0.2c0,0.7-0.1,1.3-0.4,1.8c-0.3,0.5-0.7,0.9-1.3,1.2c-0.6,0.3-1.3,0.4-2.2,0.4H927.8z
		 M926.7,226.6v-10.6h1.4v10.6H926.7z M939.2,226.9c-0.7,0-1.3-0.1-1.7-0.3c-0.5-0.2-0.9-0.5-1.2-0.9c-0.3-0.4-0.5-0.8-0.7-1.3
		c-0.1-0.5-0.2-0.9-0.2-1.4v-0.3c0-0.5,0.1-1,0.2-1.5c0.2-0.5,0.4-0.9,0.7-1.3c0.3-0.4,0.7-0.7,1.2-0.9c0.5-0.2,1-0.3,1.7-0.3
		c0.8,0,1.5,0.2,2.1,0.5c0.5,0.4,0.9,0.8,1.2,1.4c0.3,0.6,0.4,1.2,0.4,1.8v0.6h-6.8v-1h5.8l-0.3,0.6c0-0.5-0.1-1-0.3-1.4
		c-0.2-0.4-0.4-0.7-0.8-0.9c-0.3-0.2-0.8-0.3-1.3-0.3c-0.5,0-1,0.1-1.4,0.4c-0.4,0.2-0.6,0.6-0.8,1c-0.2,0.4-0.3,0.9-0.3,1.5
		c0,0.5,0.1,1,0.3,1.5c0.2,0.4,0.5,0.8,0.8,1c0.4,0.2,0.8,0.4,1.4,0.4c0.6,0,1.1-0.1,1.5-0.4c0.4-0.3,0.6-0.6,0.7-0.9h1.3
		c-0.1,0.5-0.3,1-0.6,1.4c-0.3,0.4-0.7,0.7-1.2,0.9C940.3,226.8,939.8,226.9,939.2,226.9z M945.1,226.6v-7.7h1.1v3.2h-0.1
		c0-1.1,0.2-1.9,0.7-2.5c0.5-0.5,1.2-0.8,2.2-0.8h0.3v1.2h-0.5c-0.8,0-1.4,0.2-1.8,0.6c-0.4,0.4-0.6,1-0.6,1.8v4.2H945.1z
		 M953.9,226.8c-1,0-1.8-0.2-2.3-0.6c-0.5-0.4-0.8-1-0.8-1.8h1.3c0,0.3,0.2,0.6,0.4,0.8c0.3,0.3,0.8,0.4,1.5,0.4
		c0.6,0,1.1-0.1,1.4-0.4c0.3-0.2,0.5-0.6,0.5-0.9c0-0.3-0.1-0.6-0.4-0.7c-0.2-0.2-0.6-0.3-1.2-0.4l-0.8-0.1
		c-0.7-0.1-1.3-0.3-1.8-0.6c-0.5-0.4-0.7-0.9-0.7-1.5c0-0.5,0.1-0.9,0.4-1.3c0.3-0.4,0.6-0.6,1-0.8c0.4-0.2,0.9-0.3,1.5-0.3
		c0.9,0,1.6,0.2,2.1,0.6c0.5,0.4,0.8,1,0.8,1.7h-1.3c0-0.3-0.2-0.6-0.4-0.8c-0.3-0.2-0.7-0.3-1.2-0.3c-0.5,0-0.9,0.1-1.2,0.3
		c-0.3,0.2-0.4,0.5-0.4,0.8c0,0.3,0.1,0.5,0.3,0.7c0.2,0.2,0.5,0.3,1,0.3l0.8,0.1c0.8,0.1,1.5,0.3,2,0.7c0.5,0.4,0.7,0.9,0.7,1.6
		c0,0.5-0.1,0.9-0.4,1.3c-0.3,0.4-0.6,0.7-1.1,0.9C955,226.7,954.5,226.8,953.9,226.8z M963,226.9c-0.7,0-1.3-0.1-1.8-0.3
		c-0.5-0.2-0.9-0.5-1.3-0.9c-0.3-0.4-0.6-0.8-0.8-1.3c-0.2-0.5-0.3-0.9-0.3-1.4v-0.3c0-0.5,0.1-1,0.3-1.4c0.2-0.5,0.5-0.9,0.8-1.3
		c0.4-0.4,0.8-0.7,1.3-0.9c0.5-0.2,1.1-0.3,1.7-0.3c0.7,0,1.2,0.1,1.7,0.3c0.5,0.2,0.9,0.5,1.3,0.9c0.4,0.4,0.6,0.8,0.8,1.3
		c0.2,0.5,0.3,0.9,0.3,1.4v0.3c0,0.5-0.1,1-0.3,1.4c-0.2,0.5-0.4,0.9-0.8,1.3c-0.3,0.4-0.8,0.7-1.3,0.9
		C964.2,226.8,963.6,226.9,963,226.9z M963,225.6c0.6,0,1.1-0.1,1.5-0.4c0.4-0.3,0.7-0.6,0.9-1c0.2-0.4,0.3-0.9,0.3-1.5
		c0-0.5-0.1-1-0.3-1.5c-0.2-0.4-0.5-0.8-0.9-1c-0.4-0.2-0.9-0.4-1.5-0.4c-0.6,0-1,0.1-1.5,0.4c-0.4,0.2-0.7,0.6-0.9,1
		c-0.2,0.4-0.3,0.9-0.3,1.5c0,0.5,0.1,1,0.3,1.5c0.2,0.4,0.5,0.8,0.9,1C961.9,225.5,962.4,225.6,963,225.6z M969.5,226.6v-7.7h1.1
		v3.3h-0.2c0-0.8,0.1-1.4,0.3-1.9c0.2-0.5,0.5-0.9,0.9-1.2c0.4-0.3,1-0.4,1.6-0.4h0.1c1,0,1.7,0.3,2.1,0.9c0.5,0.6,0.7,1.5,0.7,2.6
		v4.4h-1.4v-4.7c0-0.6-0.2-1.1-0.5-1.4c-0.3-0.4-0.8-0.5-1.4-0.5c-0.6,0-1.1,0.2-1.5,0.6c-0.4,0.4-0.6,0.9-0.6,1.5v4.6H969.5z
		 M983.7,226.6v-2.3h-0.2v-2.7c0-0.5-0.1-0.9-0.4-1.2c-0.3-0.3-0.7-0.4-1.2-0.4c-0.3,0-0.6,0-0.9,0s-0.6,0-0.9,0c-0.3,0-0.5,0-0.7,0
		v-1.2c0.2,0,0.4,0,0.7,0c0.2,0,0.5,0,0.7,0c0.2,0,0.5,0,0.7,0c0.8,0,1.4,0.1,1.9,0.3c0.5,0.2,0.9,0.5,1.1,0.9
		c0.2,0.4,0.4,1,0.4,1.7v4.9H983.7z M981.2,226.8c-0.6,0-1.1-0.1-1.5-0.3c-0.4-0.2-0.7-0.5-1-0.9c-0.2-0.4-0.3-0.8-0.3-1.4
		c0-0.5,0.1-1,0.4-1.4c0.2-0.4,0.6-0.6,1.1-0.8c0.5-0.2,1-0.3,1.7-0.3h2.1v1h-2.1c-0.6,0-1,0.1-1.3,0.4c-0.3,0.3-0.4,0.6-0.4,1
		c0,0.4,0.1,0.8,0.4,1c0.3,0.3,0.7,0.4,1.3,0.4c0.3,0,0.6-0.1,0.9-0.2c0.3-0.1,0.5-0.3,0.7-0.6c0.2-0.3,0.3-0.7,0.3-1.2l0.4,0.5
		c0,0.5-0.2,1-0.4,1.4c-0.2,0.4-0.5,0.6-0.9,0.8C982.2,226.7,981.7,226.8,981.2,226.8z M987.8,226.6v-10.5h1.4v10.5H987.8z
		 M986.7,217.2v-1.1h2.4v1.1H986.7z"/>
	<path class="st41" d="M926.6,210.1h66.2c6.8,0,12.2,5.5,12.2,12.2l0,0c0,6.8-5.5,12.2-12.2,12.2h-66.2c-6.8,0-12.2-5.5-12.2-12.2
		l0,0C914.4,215.5,919.9,210.1,926.6,210.1z"/>
	<path class="st5" d="M928.7,405v-9.5h1.4v9.5H928.7z M925.5,395.8v-1.3h7.8v1.3H925.5z M939.6,405v-2.3h-0.2v-2.7
		c0-0.5-0.1-0.9-0.4-1.2c-0.3-0.3-0.7-0.4-1.2-0.4c-0.3,0-0.6,0-0.9,0c-0.3,0-0.6,0-0.9,0c-0.3,0-0.5,0-0.7,0v-1.2
		c0.2,0,0.4,0,0.7,0c0.2,0,0.5,0,0.7,0c0.2,0,0.5,0,0.7,0c0.8,0,1.4,0.1,1.9,0.3c0.5,0.2,0.9,0.5,1.1,0.9c0.2,0.4,0.4,1,0.4,1.7v4.9
		H939.6z M937,405.2c-0.6,0-1.1-0.1-1.5-0.3c-0.4-0.2-0.7-0.5-1-0.9c-0.2-0.4-0.3-0.8-0.3-1.4c0-0.5,0.1-1,0.4-1.4
		c0.2-0.4,0.6-0.6,1.1-0.8c0.5-0.2,1-0.3,1.7-0.3h2.1v1h-2.1c-0.6,0-1,0.1-1.3,0.4c-0.3,0.3-0.4,0.6-0.4,1c0,0.4,0.1,0.8,0.4,1
		c0.3,0.3,0.7,0.4,1.3,0.4c0.3,0,0.6-0.1,0.9-0.2c0.3-0.1,0.5-0.3,0.7-0.6c0.2-0.3,0.3-0.7,0.3-1.2l0.4,0.5c0,0.5-0.2,1-0.4,1.4
		c-0.2,0.4-0.5,0.6-0.9,0.8C938,405.1,937.6,405.2,937,405.2z M942.6,405l2.7-4l0,0.3l-2.6-3.9h1.5l1.9,2.9h0.2l1.8-2.9h1.4
		l-2.4,3.8l0-0.3l2.9,4.1h-1.5l-2.2-3.1h-0.2L944,405H942.6z M956.9,401.4v-1.2h2.3c0.5,0,0.9-0.1,1.2-0.3c0.3-0.2,0.6-0.5,0.7-0.8
		c0.2-0.3,0.3-0.7,0.3-1.1c0-0.4-0.1-0.8-0.3-1.1c-0.2-0.3-0.4-0.6-0.7-0.8c-0.3-0.2-0.7-0.3-1.2-0.3h-2.3v-1.2h2.1
		c0.9,0,1.6,0.1,2.2,0.4c0.6,0.3,1,0.7,1.3,1.2c0.3,0.5,0.4,1.1,0.4,1.8v0.2c0,0.7-0.1,1.3-0.4,1.8c-0.3,0.5-0.7,0.9-1.3,1.2
		c-0.6,0.3-1.3,0.4-2.2,0.4H956.9z M955.8,405v-10.6h1.4V405H955.8z M969.7,405v-2.3h-0.2v-2.7c0-0.5-0.1-0.9-0.4-1.2
		c-0.3-0.3-0.7-0.4-1.2-0.4c-0.3,0-0.6,0-0.9,0s-0.6,0-0.9,0c-0.3,0-0.5,0-0.7,0v-1.2c0.2,0,0.4,0,0.7,0c0.2,0,0.5,0,0.7,0
		c0.2,0,0.5,0,0.7,0c0.8,0,1.4,0.1,1.9,0.3c0.5,0.2,0.9,0.5,1.1,0.9c0.2,0.4,0.4,1,0.4,1.7v4.9H969.7z M967.2,405.2
		c-0.6,0-1.1-0.1-1.5-0.3c-0.4-0.2-0.7-0.5-1-0.9c-0.2-0.4-0.3-0.8-0.3-1.4c0-0.5,0.1-1,0.4-1.4c0.2-0.4,0.6-0.6,1.1-0.8
		c0.5-0.2,1-0.3,1.7-0.3h2.1v1h-2.1c-0.6,0-1,0.1-1.3,0.4c-0.3,0.3-0.4,0.6-0.4,1c0,0.4,0.1,0.8,0.4,1c0.3,0.3,0.7,0.4,1.3,0.4
		c0.3,0,0.6-0.1,0.9-0.2c0.3-0.1,0.5-0.3,0.7-0.6c0.2-0.3,0.3-0.7,0.3-1.2l0.4,0.5c0,0.5-0.2,1-0.4,1.4c-0.2,0.4-0.5,0.6-0.9,0.8
		C968.2,405.1,967.7,405.2,967.2,405.2z M973.2,408v-1.2h1.1c0.3,0,0.6,0,0.8-0.1c0.2-0.1,0.4-0.2,0.6-0.4c0.2-0.2,0.3-0.4,0.4-0.8
		l2.4-8.1h1.4l-2.6,8.5c-0.2,0.5-0.4,0.9-0.6,1.2c-0.3,0.3-0.6,0.6-1,0.7c-0.4,0.2-0.9,0.2-1.4,0.2H973.2z M975.5,404.8v-1.2h1.7
		v1.2H975.5z M975.4,404.8l-2.7-7.5h1.4l2.6,7.5H975.4z M981.9,405v-7.7h1.1v3.3h-0.2c0-0.7,0.1-1.4,0.3-1.9
		c0.2-0.5,0.5-0.9,0.9-1.2c0.4-0.3,0.9-0.4,1.5-0.4h0.1c0.6,0,1.1,0.1,1.5,0.4c0.4,0.3,0.7,0.7,0.9,1.2c0.2,0.5,0.3,1.2,0.3,1.9
		h-0.4c0-0.7,0.1-1.4,0.3-1.9c0.2-0.5,0.5-0.9,0.9-1.2c0.4-0.3,0.9-0.4,1.5-0.4h0.1c0.6,0,1.1,0.1,1.5,0.4s0.7,0.7,0.9,1.2
		c0.2,0.5,0.3,1.2,0.3,1.9v4.4h-1.4v-4.7c0-0.6-0.2-1.1-0.5-1.4c-0.3-0.3-0.7-0.5-1.3-0.5c-0.6,0-1,0.2-1.4,0.5
		c-0.3,0.4-0.5,0.9-0.5,1.5v4.6h-1.4v-4.7c0-0.6-0.2-1.1-0.5-1.4c-0.3-0.3-0.7-0.5-1.3-0.5c-0.6,0-1,0.2-1.4,0.5
		c-0.3,0.4-0.5,0.9-0.5,1.5v4.6H981.9z M999.5,405.3c-0.7,0-1.3-0.1-1.7-0.3c-0.5-0.2-0.9-0.5-1.2-0.9c-0.3-0.4-0.5-0.8-0.7-1.3
		c-0.1-0.5-0.2-0.9-0.2-1.4V401c0-0.5,0.1-1,0.2-1.5c0.2-0.5,0.4-0.9,0.7-1.3c0.3-0.4,0.7-0.7,1.2-0.9c0.5-0.2,1-0.3,1.7-0.3
		c0.8,0,1.5,0.2,2.1,0.5c0.5,0.4,0.9,0.8,1.2,1.4c0.3,0.6,0.4,1.2,0.4,1.8v0.6h-6.8v-1h5.8l-0.3,0.6c0-0.5-0.1-1-0.3-1.4
		c-0.2-0.4-0.4-0.7-0.8-0.9c-0.3-0.2-0.8-0.3-1.3-0.3c-0.5,0-1,0.1-1.4,0.4c-0.4,0.2-0.6,0.6-0.8,1c-0.2,0.4-0.3,0.9-0.3,1.5
		c0,0.5,0.1,1,0.3,1.5c0.2,0.4,0.5,0.8,0.8,1c0.4,0.2,0.8,0.4,1.4,0.4c0.6,0,1.1-0.1,1.5-0.4c0.4-0.3,0.6-0.6,0.7-0.9h1.3
		c-0.1,0.5-0.3,1-0.6,1.4s-0.7,0.7-1.2,0.9C1000.6,405.2,1000.1,405.3,999.5,405.3z M1005.4,405v-7.7h1.1v3.3h-0.2
		c0-0.8,0.1-1.4,0.3-1.9c0.2-0.5,0.5-0.9,0.9-1.2c0.4-0.3,1-0.4,1.6-0.4h0.1c1,0,1.7,0.3,2.1,0.9c0.5,0.6,0.7,1.5,0.7,2.6v4.4h-1.4
		v-4.7c0-0.6-0.2-1.1-0.5-1.4c-0.3-0.4-0.8-0.5-1.4-0.5c-0.6,0-1.1,0.2-1.5,0.6c-0.4,0.4-0.6,0.9-0.6,1.5v4.6H1005.4z M1017.9,405.1
		c-0.6,0-1.1-0.1-1.5-0.2c-0.4-0.2-0.7-0.4-1-0.8c-0.2-0.4-0.3-0.9-0.3-1.6V395h1.3v7.6c0,0.4,0.1,0.7,0.3,1c0.2,0.2,0.6,0.3,1,0.3
		h1.4v1.2H1017.9z M1013.8,398.4v-1h5.3v1H1013.8z"/>
	<path class="st42" d="M926.6,388.5h92.1c6.8,0,12.2,5.5,12.2,12.2l0,0c0,6.8-5.5,12.2-12.2,12.2h-92.1c-6.8,0-12.2-5.5-12.2-12.2
		l0,0C914.4,394,919.9,388.5,926.6,388.5z"/>
</g>
</svg>
