<?xml version="1.0" encoding="utf-8"?>
<!-- Generator: Adobe Illustrator 27.3.1, SVG Export Plug-In . SVG Version: 6.00 Build 0)  -->
<svg version="1.1" id="Layer_1" xmlns="http://www.w3.org/2000/svg" xmlns:xlink="http://www.w3.org/1999/xlink" x="0px" y="0px"
	 viewBox="0 0 1600 623" style="enable-background:new 0 0 1600 623;" xml:space="preserve">
<style type="text/css">
	.st0{fill:#FFFFFF;}
	.st1{fill:#2B83FF;stroke:#000000;stroke-width:0.5118;stroke-linejoin:round;stroke-miterlimit:10;}
	.st2{fill:#9269FF;stroke:#000000;stroke-width:0.5118;stroke-linejoin:round;stroke-miterlimit:10;}
	.st3{fill:#87FFD1;stroke:#000000;stroke-width:0.5118;stroke-linejoin:round;stroke-miterlimit:10;}
	.st4{fill:#2FE78E;stroke:#000000;stroke-width:0.5118;stroke-linejoin:round;stroke-miterlimit:10;}
	.st5{fill:#D4FFEE;stroke:#000000;stroke-width:0.5118;stroke-linejoin:round;stroke-miterlimit:10;}
	.st6{fill:#343CFF;stroke:#000000;stroke-width:0.5118;stroke-linejoin:round;stroke-miterlimit:10;}
	.st7{fill:#6833FA;stroke:#000000;stroke-width:0.5118;stroke-linejoin:round;stroke-miterlimit:10;}
	.st8{fill:none;stroke:#000000;stroke-width:0.5118;stroke-linejoin:round;stroke-miterlimit:10;}
</style>
<rect x="-0.5" y="0.5" class="st0" width="1600" height="622"/>
<g>
	<g>
		<path d="M1145.7,380.3h-91c-16.7,0-30.3-13.6-30.3-30.3v-91c0-16.7,13.6-30.3,30.3-30.3h91c16.7,0,30.3,13.6,30.3,30.3v91
			C1176,366.7,1162.4,380.3,1145.7,380.3z"/>
		<g>
			<polygon class="st1" points="1143.3,261.3 1114.6,290.1 1085.8,290.1 1085.8,261.3 			"/>
			<polygon class="st2" points="1143.3,261.3 1143.3,318.9 1114.6,318.9 1114.6,290.1 			"/>
			<path class="st3" d="M1094.2,310.5l-28.8,28.8c-5.2-5.2-8.4-12.4-8.4-20.3v-28.8h28.8C1085.8,298.1,1089,305.3,1094.2,310.5z"/>
			<path class="st4" d="M1114.6,318.9v28.8h-28.8c-7.9,0-15.1-3.2-20.3-8.4l28.8-28.8C1099.4,315.7,1106.6,318.9,1114.6,318.9z"/>
			<path class="st5" d="M1114.6,290.1v28.8c-7.9,0-15.1-3.2-20.3-8.4c-5.2-5.2-8.4-12.4-8.4-20.3H1114.6z"/>
			<polygon class="st6" points="1085.8,261.3 1085.8,290.1 1057,290.1 			"/>
			<polygon class="st7" points="1143.3,318.9 1114.6,347.7 1114.6,318.9 			"/>
		</g>
	</g>
	<g>
		<g>
			<polygon class="st1" points="811.8,261.3 783.1,290.1 754.3,290.1 754.3,261.3 			"/>
			<polygon class="st2" points="811.8,261.3 811.8,318.9 783.1,318.9 783.1,290.1 			"/>
			<path class="st3" d="M762.7,310.5l-28.8,28.8c-5.2-5.2-8.4-12.4-8.4-20.3v-28.8h28.8C754.3,298.1,757.5,305.3,762.7,310.5z"/>
			<path class="st4" d="M783.1,318.9v28.8h-28.8c-7.9,0-15.1-3.2-20.3-8.4l28.8-28.8C767.9,315.7,775.1,318.9,783.1,318.9z"/>
			<path class="st5" d="M783.1,290.1v28.8c-7.9,0-15.1-3.2-20.3-8.4c-5.2-5.2-8.4-12.4-8.4-20.3H783.1z"/>
			<polygon class="st6" points="754.3,261.3 754.3,290.1 725.5,290.1 			"/>
			<polygon class="st7" points="811.8,318.9 783.1,347.7 783.1,318.9 			"/>
		</g>
	</g>
	<g>
		<g>
			<polygon class="st8" points="510.3,261.3 481.6,290.1 452.8,290.1 452.8,261.3 			"/>
			<polygon class="st8" points="510.3,261.3 510.3,318.9 481.6,318.9 481.6,290.1 			"/>
			<path class="st8" d="M461.2,310.5l-28.8,28.8c-5.2-5.2-8.4-12.4-8.4-20.3v-28.8h28.8C452.8,298.1,456,305.3,461.2,310.5z"/>
			<path class="st8" d="M481.6,318.9v28.8h-28.8c-7.9,0-15.1-3.2-20.3-8.4l28.8-28.8C466.4,315.7,473.6,318.9,481.6,318.9z"/>
			<path class="st8" d="M481.6,290.1v28.8c-7.9,0-15.1-3.2-20.3-8.4c-5.2-5.2-8.4-12.4-8.4-20.3H481.6z"/>
			<polygon class="st8" points="452.8,261.3 452.8,290.1 424,290.1 			"/>
			<polygon class="st8" points="510.3,318.9 481.6,347.7 481.6,318.9 			"/>
		</g>
	</g>
</g>
</svg>
