<?xml version="1.0" encoding="utf-8"?>
<!-- Generator: Adobe Illustrator 27.3.1, SVG Export Plug-In . SVG Version: 6.00 Build 0)  -->
<svg version="1.1" id="Layer_1" xmlns="http://www.w3.org/2000/svg" xmlns:xlink="http://www.w3.org/1999/xlink" x="0px" y="0px"
	 viewBox="0 0 1600 1600" style="enable-background:new 0 0 1600 1600;" xml:space="preserve">
<style type="text/css">
	.st0{fill:#BDD8FF;}
	.st1{fill:#8CBCFF;}
	.st2{fill:#ECE5FE;stroke:#000000;stroke-width:1.3635;stroke-linejoin:round;stroke-miterlimit:10;}
	.st3{fill:#BDD8FF;stroke:#000000;stroke-width:1.3635;stroke-linejoin:round;stroke-miterlimit:10;}
	.st4{fill:#2F37E5;stroke:#000000;stroke-width:1.3635;stroke-linejoin:round;stroke-miterlimit:10;}
	.st5{fill:#2B83FF;stroke:#000000;stroke-width:1.3635;stroke-linejoin:round;stroke-miterlimit:10;}
	.st6{fill:none;stroke:#000000;stroke-width:1.3635;stroke-linejoin:round;stroke-miterlimit:10;}
	.st7{fill:#2F37E5;stroke:#2F37E5;stroke-width:1.3635;stroke-linejoin:round;stroke-miterlimit:10;}
</style>
<g>
	<rect x="-0.2" y="-5.7" class="st0" width="1600.4" height="1611.4"/>
	<g>
		<path class="st1" d="M1400.2,1003.2l-101.7,102.4c-16.7,16.8-39.3,26.3-62.9,26.3l-552.2,0c-15.9,0-23.8-19.3-12.6-30.6
			l101.7-102.4c16.7-16.8,39.3-26.3,62.9-26.3l552.2,0C1403.5,972.6,1411.4,991.9,1400.2,1003.2z"/>
		<path class="st1" d="M263.5,1416.1l189-190.3c6.6-6.7,15.6-10.4,24.9-10.5l3.5,0c7.5-0.1,11.2,9,6,14.3l-189,190.3
			c-6.7,6.7-15.7,10.5-25.2,10.5h-3.2C261.9,1430.5,258.2,1421.4,263.5,1416.1z"/>
		<path class="st1" d="M625.5,1380.2h-70.4c-17.3,0-26-21.1-13.8-33.5l160.5-161.6c18.4-18.5,43.4-28.9,69.4-28.7l69.5,0.4
			c17.3,0.1,25.9,21.2,13.6,33.5l-160,161.1C676.1,1369.9,651.3,1380.2,625.5,1380.2z"/>
		<polygon class="st2" points="1109.9,469.6 961.7,618.7 961.7,917 1109.9,767.8 		"/>
		<path class="st3" d="M961.7,618.7H665.5v0c0,164.7,132.6,298.3,296.2,298.3h0V618.7z"/>
		<polygon class="st4" points="1109.9,469.6 813.6,469.6 665.5,618.7 961.7,618.7 		"/>
		<path class="st2" d="M1109.3,360.5v109.3l108.4,0c-11.8-20.6-26.1-39.8-42.4-57c-1.5-1.6-3.1-3.2-4.7-4.8l-1.7-1.8
			C1151.2,388.5,1131.1,373.2,1109.3,360.5z"/>
		<path class="st5" d="M1405.5,469.7l-296.1,0L961.3,618.8l296.1,0c0,43.8-9.4,85.3-26.2,122.8h-0.1c-13.9,30.9-32.8,59-55.9,83.3
			L1316,683.3C1371.2,629.1,1405.5,553.4,1405.5,469.7z"/>
		<path class="st3" d="M1257.4,618.8l-296.1,0l0,298.2c80.9,0,154.3-32.6,207.7-85.6l1.7-1.8c1.5-1.5,3.1-3.2,4.7-4.8
			c23-24.3,42-52.4,55.9-83.3h0.1C1248,704.1,1257.4,662.6,1257.4,618.8z"/>
		<path class="st3" d="M961.3,320.6l0,298.2l296.1,0c0-43.8-9.4-85.3-26.2-122.8h-0.1c-4-9-8.5-17.8-13.4-26.3
			c-11.8-20.6-26.1-39.8-42.4-57c-1.5-1.6-3.1-3.2-4.7-4.8l-1.7-1.8c-17.8-17.7-37.8-33-59.6-45.7
			C1065.8,335.1,1015.2,320.6,961.3,320.6z"/>
		<path class="st5" d="M1109.3,171.5L961.3,320.6c54,0,104.5,14.5,148.1,39.8c21.8,12.7,41.8,28.1,59.6,45.7l1.7,1.8
			c1.5,1.5,3.1,3.2,4.7,4.8c16.3,17.2,30.6,36.3,42.4,57c4.9,8.5,9.4,17.3,13.4,26.3h0.1c16.8,37.5,26.2,79,26.2,122.8l148.1-149.1
			c0-43.8-9.4-85.3-26.2-122.8h-0.1c-13.9-30.9-32.8-59-55.9-83.3c-1.5-1.6-3.1-3.2-4.7-4.8l-1.7-1.8
			C1263.6,204.2,1190.2,171.5,1109.3,171.5z"/>
		<path class="st3" d="M1257.4,618.8l-296.1,0l0,298.2c80.9,0,154.3-32.6,207.7-85.6l1.7-1.8c1.5-1.5,3.1-3.2,4.7-4.8
			c23-24.3,42-52.4,55.9-83.3h0.1C1248,704.1,1257.4,662.6,1257.4,618.8z"/>
		<path class="st6" d="M602.9,981.4H343.5V735.4c0-143.2,116.1-259.4,259.4-259.4h0V981.4z"/>
		<path class="st1" d="M914.2,701.1V770c0,18.5-14.9,33.6-33.3,33.6h-68.4c-18.4,0-33.3-15-33.3-33.6v-68.8
			c0-18.5,14.9-33.6,33.3-33.6h68.4C899.2,667.6,914.2,682.6,914.2,701.1z"/>
		<polygon class="st5" points="860.1,722.5 670.4,913.4 535.3,913.4 725,722.5 		"/>
		<rect x="535.3" y="913.4" class="st5" width="135.1" height="136"/>
		<polygon class="st5" points="860.1,722.5 860.1,858.4 670.4,1049.4 670.4,913.4 		"/>
		<polygon class="st7" points="493.2,1086 293,1287.6 257.3,1287.6 457.9,1085.6 		"/>
		<rect x="257.3" y="1287.6" class="st7" width="35.7" height="35.2"/>
		<polygon class="st7" points="493.2,1086 493.2,1121.2 293,1322.8 293,1287.6 		"/>
		<polygon class="st5" points="922.3,242.8 868.9,296.6 762,296.6 815.5,242.8 		"/>
		<rect x="762" y="296.6" class="st5" width="106.9" height="107.6"/>
		<polygon class="st5" points="922.3,242.8 922.3,350.4 868.9,404.2 868.9,296.6 		"/>
		<path class="st5" d="M602.9,476v261.2H343.5C343.5,592.9,459.6,476,602.9,476z"/>
	</g>
</g>
</svg>
