<?xml version="1.0" encoding="utf-8"?>
<!-- Generator: Adobe Illustrator 27.3.1, SVG Export Plug-In . SVG Version: 6.00 Build 0)  -->
<svg version="1.1" id="Layer_1" xmlns="http://www.w3.org/2000/svg" xmlns:xlink="http://www.w3.org/1999/xlink" x="0px" y="0px"
	 viewBox="0 0 1600 1600" style="enable-background:new 0 0 1600 1600;" xml:space="preserve">
<style type="text/css">
	.st0{fill:#F4FFF9;}
	.st1{fill:#BCF3E1;}
	.st2{fill:#2FE78E;}
	.st3{fill:#2FE78E;stroke:#000000;stroke-width:1.3603;stroke-linejoin:round;stroke-miterlimit:10;}
	.st4{fill:#F4FFF9;stroke:#000000;stroke-width:1.3603;stroke-linejoin:round;stroke-miterlimit:10;}
	.st5{fill:none;stroke:#000000;stroke-width:1.3603;stroke-linejoin:round;stroke-miterlimit:10;}
	.st6{fill:#00C46D;stroke:#000000;stroke-width:1.3603;stroke-linejoin:round;stroke-miterlimit:10;}
	.st7{fill:#2FE78E;stroke:#000000;stroke-width:1.3601;stroke-linejoin:round;stroke-miterlimit:10;}
	.st8{fill:#FFFFFF;stroke:#000000;stroke-width:1.3603;stroke-linejoin:round;stroke-miterlimit:10;}
</style>
<g>
	<rect x="-1.1" y="-1.1" class="st0" width="1602.1" height="1602.1"/>
	<g>
		<path class="st1" d="M1168,1158.5L1168,1158.5c-16.8,16.8-39.5,26.2-63.2,26.2h-638c-15.9,0-23.9-19.3-12.6-30.5l0.1-0.1
			c16.8-16.8,39.5-26.2,63.2-26.2l637.9,0.1C1171.3,1128,1179.3,1147.3,1168,1158.5z"/>
		<path class="st1" d="M1316.8,1230.4L1316.8,1230.4c-21.4,21.4-50.5,33.5-80.8,33.5h-51.1c-19.1,0-28.7-23.1-15.2-36.6l0,0
			c21.4-21.4,50.5-33.5,80.8-33.5h51.1C1320.8,1193.8,1330.3,1216.9,1316.8,1230.4z"/>
		<path class="st1" d="M635.6,1316.4l-85.5,85.5c-17.8,17.8-42,27.9-67.3,27.9H276.5c-16.9,0-25.4-20.5-13.5-32.5l85.5-85.5
			c17.8-17.8,42-27.9,67.3-27.9h206.4C639.1,1283.9,647.6,1304.4,635.6,1316.4z"/>
		<path class="st1" d="M982.8,1253.4l-29,29c-17.6,17.6-41.5,27.5-66.4,27.5H581.6c-16.7,0-25.1-20.2-13.3-32l29-29
			c17.6-17.6,41.5-27.5,66.4-27.5h305.9C986.2,1221.4,994.6,1241.6,982.8,1253.4z"/>
		<circle class="st2" cx="1173.3" cy="311.8" r="150.4"/>
		<path class="st3" d="M1172.9,312.2l-53,53v375.4c0,68.4-23.1,131.3-62,181.5c-26.4,20.4-56.3,36.5-88.6,47.2
			c-29.2,9.6-60.4,14.8-92.8,14.8h-374V608.6c0-68.4,23.1-131.3,62-181.4c54.2-70,139.1-115,234.4-115H1172.9z"/>
		<path class="st4" d="M1119.9,365.1v375.4c0,68.4-23.1,131.3-62,181.5c-14.9,19.3-32.2,36.7-51.4,51.8
			c-50.4,39.6-113.9,63.2-183,63.2h-374V661.5c0-95.4,45-180.2,115-234.4c50.1-38.9,113.1-62,181.5-62H1119.9z"/>
		<polygon class="st5" points="639.8,1102.4 513.3,1228.9 257.5,1228.9 383.9,1102.4 		"/>
		<polygon class="st4" points="641.3,845.1 513.3,973 257.5,973 385.4,845.1 		"/>
		<polygon class="st6" points="641.3,845.1 641.3,1100.9 513.3,1228.9 513.3,973 		"/>
		<line class="st5" x1="257.5" y1="1228.9" x2="384.6" y2="1101.7"/>
		<rect x="257.5" y="973" class="st3" width="255.9" height="255.9"/>
		
			<rect x="653.6" y="422.4" transform="matrix(-1.836970e-16 1 -1 -1.836970e-16 1278.8008 -287.6968)" class="st1" width="259.2" height="146.4"/>
		
			<rect x="456.9" y="354.1" transform="matrix(-1.836970e-16 1 -1 -1.836970e-16 1148.5951 -294.071)" class="st7" width="528.8" height="146.4"/>
		<polygon class="st7" points="794.5,691.7 709.1,777.1 709.1,248.2 794.5,162.8 		"/>
		<line class="st7" x1="648.1" y1="691.7" x2="562.8" y2="777.1"/>
		
			<rect x="371.5" y="439.5" transform="matrix(-1.836970e-16 1 -1 -1.836970e-16 1148.5951 -123.3054)" class="st7" width="528.8" height="146.4"/>
		<polyline class="st7" points="562.8,248.2 648.1,162.8 794.5,162.8 709.1,248.2 562.8,248.2 		"/>
		<path class="st1" d="M1046.6,767.4L1046.6,767.4c0,42.7-34.6,77.3-77.3,77.3h0c-42.7,0-77.3-34.6-77.3-77.3v0
			c0-42.7,34.6-77.3,77.3-77.3h0C1012,690.2,1046.6,724.8,1046.6,767.4z"/>
		<path class="st7" d="M965.7,880.3l-77.3,77.2L779.2,848.3l77.3-77.2c15.1-15.1,34.8-22.6,54.6-22.6c19.8,0,39.6,7.6,54.6,22.6
			C995.9,801.2,995.9,850.1,965.7,880.3z"/>
		<path class="st7" d="M888.5,957.5L888.5,957.5c-30.2,30.2-79.1,30.2-109.2,0l0,0c-30.2-30.2-30.2-79.1,0-109.2l0,0
			c30.2-30.2,79.1-30.2,109.2,0l0,0C918.6,878.4,918.6,927.4,888.5,957.5z"/>
		<path class="st6" d="M1172.9,312.2v375.4c0,95.4-45,180.2-115,234.4c38.9-50.1,62-113.1,62-181.5V365.1L1172.9,312.2z"/>
		<path class="st3" d="M1323.1,875.6c0,29.2-11.7,55.7-30.7,74.9l-53.1,53.1c8.6-8.8,15.7-19.2,20.9-30.6c6.1-13.4,9.4-28.3,9.4-44
			L1323.1,875.6z"/>
		<path class="st8" d="M1323.1,875.6l-53.4,53.4c0,15.7-3.4,30.6-9.4,44c-13.4,6.1-28.3,9.4-44,9.4V875.6H1323.1z"/>
		<polygon class="st6" points="1323.1,875.6 1269.7,929 1162.8,929 1216.3,875.6 		"/>
		<path class="st4" d="M1269.7,929c0,15.7-3.4,30.6-9.4,44c-5.2,11.4-12.3,21.8-20.9,30.6c-19.4,19.9-46.5,32.3-76.5,32.3v-25.1V929
			H1269.7z"/>
	</g>
</g>
</svg>
