<?xml version="1.0" encoding="utf-8"?>
<!-- Generator: Adobe Illustrator 27.3.1, SVG Export Plug-In . SVG Version: 6.00 Build 0)  -->
<svg version="1.1" id="Layer_1" xmlns="http://www.w3.org/2000/svg" xmlns:xlink="http://www.w3.org/1999/xlink" x="0px" y="0px"
	 viewBox="0 0 1600 1600" style="enable-background:new 0 0 1600 1600;" xml:space="preserve">
<style type="text/css">
	.st0{fill:#ECE5FE;}
	.st1{fill:#C9B5FF;}
	.st2{fill:#6833FA;stroke:#000000;stroke-width:1.3576;stroke-linejoin:round;stroke-miterlimit:10;}
	.st3{fill:#ECE5FE;stroke:#000000;stroke-width:1.3576;stroke-linejoin:round;stroke-miterlimit:10;}
	.st4{fill:#9269FF;stroke:#000000;stroke-width:1.3576;stroke-linejoin:round;stroke-miterlimit:10;}
	.st5{fill:#C9B5FF;stroke:#000000;stroke-width:1.3576;stroke-linejoin:round;stroke-miterlimit:10;}
	.st6{fill:#6833FA;stroke:#6833F8;stroke-width:1.3576;stroke-linejoin:round;stroke-miterlimit:10;}
	.st7{fill:#9269FF;stroke:#602FE5;stroke-width:0.4164;stroke-linejoin:round;stroke-miterlimit:10;}
	.st8{fill:#343CFF;}
	.st9{fill:#2B83FF;}
	.st10{fill:#9269FF;}
	.st11{fill:#85FFCF;}
	.st12{fill:#2FE78E;}
	.st13{fill:#E0FAF0;}
	.st14{fill:#6833FA;}
	.st15{fill:none;stroke:#000000;stroke-width:1.3576;stroke-linejoin:round;stroke-miterlimit:10;}
</style>
<rect x="-0.1" y="1" class="st0" width="1599" height="1599"/>
<g>
	<path class="st1" d="M544.4,1148.5l-60.7,60.7c-18.4,18.4-43.3,28.7-69.3,28.7H256.7c-17.5,0-26.2-21.1-13.9-33.5l60.7-60.7
		c18.4-18.4,43.3-28.7,69.3-28.7h157.7C548,1115.1,556.8,1136.2,544.4,1148.5z"/>
	<path class="st1" d="M960,1227.5l362.1-362.1c11.2-11.2,3.3-30.4-12.6-30.4l-268.7-0.2c-23.7,0-46.4,9.4-63.1,26.1l-362.3,362.3
		c-11.2,11.2-3.3,30.4,12.6,30.4l269,0C920.6,1253.6,943.3,1244.2,960,1227.5z"/>
	<polygon class="st2" points="1327.4,653 1286.4,694 936.2,1044.2 936.2,718.1 1327.4,326.9 	"/>
	
		<rect x="611.3" y="716.9" transform="matrix(-1 -1.224647e-16 1.224647e-16 -1 1547.4757 1761.1201)" class="st3" width="324.9" height="327.3"/>
	<polygon class="st3" points="1327.4,326.9 936.2,718.1 611.3,716.9 1001.8,326.4 	"/>
	<path class="st4" d="M1327.4,326.9V653h-186.9c-38.4,0-73.2-15.6-98.4-40.8L1327.4,326.9z"/>
	<path class="st5" d="M1327.4,326.9L1042,612.3c-25.2-25.2-40.8-60-40.8-98.4l0.6-187.5L1327.4,326.9z"/>
	<line class="st3" x1="1001.9" y1="652.4" x2="936.2" y2="718.1"/>
	<path class="st6" d="M520.7,1344.5h300.7c23.6,0,42.7-19.1,42.7-42.7v-129H520.7V1344.5z"/>
	<polygon class="st4" points="933.6,157.2 933.6,300.3 818.9,414.9 818.9,271.8 	"/>
	<path class="st4" d="M933.6,157.2L818.9,271.8c-21,0-41,4.5-58.9,12.7v0c-14.8,6.7-28.3,15.8-40,27l111-111.1
		C857.1,173.8,893.4,157.2,933.6,157.2z"/>
	<path class="st4" d="M818.9,271.8v143.1H675.8c0-39.1,15.7-74.6,41.1-100.3l0.9-0.8c0.7-0.8,1.5-1.5,2.3-2.3
		c11.7-11.1,25.1-20.3,40-27v0C778,276.4,797.9,271.8,818.9,271.8z"/>
	<polygon class="st3" points="520.7,1172.8 397.5,1296 366.4,1296 489.6,1172.8 	"/>
	<rect x="366.4" y="1296" class="st3" width="31.1" height="171.7"/>
	<polygon class="st3" points="520.7,1172.8 520.7,1344.5 397.5,1467.7 397.5,1296 	"/>
	<circle class="st7" cx="382" cy="1284.3" r="76.9"/>
	<polygon class="st4" points="749.9,903.4 693.3,960 580.3,960 636.8,903.4 	"/>
	<rect x="580.3" y="960" class="st4" width="113" height="113"/>
	<polygon class="st4" points="749.9,903.4 749.9,1016.5 693.3,1073 693.3,960 	"/>
	<polygon class="st8" points="341.4,427.2 289.2,479.4 237.1,531.6 341.4,531.6 	"/>
	<polygon class="st9" points="445.8,531.6 550.2,427.2 341.4,427.2 341.4,531.6 	"/>
	<polygon class="st10" points="445.8,531.6 445.8,635.9 550.2,635.9 550.2,427.2 	"/>
	<path class="st11" d="M371.9,605.5c-18.8-18.8-30.4-44.8-30.4-73.5v-0.4H237.1v103.8c0,29,11.7,55.2,30.7,74.2L371.9,605.5z"/>
	<path class="st12" d="M445.4,635.9c-28.7,0-54.7-11.6-73.5-30.4L267.8,709.6c19,19,45.2,30.7,74.2,30.7h103.8V635.9H445.4z"/>
	<path class="st13" d="M341.4,532c0,28.7,11.6,54.7,30.4,73.5l0.1-0.1l-0.1,0.1c18.8,18.8,44.8,30.4,73.5,30.4h0.4V531.6H341.4V532z
		"/>
	<polygon class="st14" points="445.8,740.3 498,688.1 550.2,635.9 445.8,635.9 	"/>
	<polygon class="st15" points="341.4,427.2 289.2,479.4 237.1,531.6 341.4,531.6 	"/>
	<polygon class="st15" points="445.8,531.6 550.2,427.2 341.4,427.2 341.4,531.6 	"/>
	<polygon class="st15" points="445.8,531.6 445.8,635.9 550.2,635.9 550.2,427.2 	"/>
	<path class="st15" d="M371.9,605.5c-18.8-18.8-30.4-44.8-30.4-73.5v-0.4H237.1v103.8c0,29,11.7,55.2,30.7,74.2L371.9,605.5z"/>
	<path class="st15" d="M445.4,635.9c-28.7,0-54.7-11.6-73.5-30.4L267.8,709.6c19,19,45.2,30.7,74.2,30.7h103.8V635.9H445.4z"/>
	<path class="st15" d="M341.4,532c0,28.7,11.6,54.7,30.4,73.5l0.1-0.1l-0.1,0.1c18.8,18.8,44.8,30.4,73.5,30.4h0.4V531.6H341.4V532z
		"/>
	<polygon class="st15" points="445.8,740.3 498,688.1 550.2,635.9 445.8,635.9 	"/>
	<path class="st1" d="M928.2,558.3l-68.3,68.3c-17.2,17.2-40.4,26.8-64.7,26.8H675.8l127.2-127.2l112.3,0.9
		C931.6,527.1,939.7,546.8,928.2,558.3z"/>
</g>
</svg>
