<svg xmlns="http://www.w3.org/2000/svg" viewBox="0 0 1920 1080" width="1920" height="1080" preserveAspectRatio="xMidYMid meet" style="width: 100%; height: 100%; transform: translate3d(0px, 0px, 0px);"><defs><clipPath id="__lottie_element_70606"><rect width="1920" height="1080" x="0" y="0"></rect></clipPath><clipPath id="__lottie_element_70611"><path d="M0,0 L1500,0 L1500,1500 L0,1500z"></path></clipPath><clipPath id="__lottie_element_70649"><path d="M0,0 L1500,0 L1500,1500 L0,1500z"></path></clipPath></defs><g clip-path="url(#__lottie_element_70606)"><g transform="matrix(1,0,0,1,0,0)" opacity="1" style="display: block;"><rect width="1920" height="1080" fill="#1f1f24"></rect></g><g clip-path="url(#__lottie_element_70611)" transform="matrix(0.6000000238418579,0,0,0.6000000238418579,509.9999694824219,89.99996948242188)" opacity="1" style="display: block;"><g transform="matrix(1,0,0,1,750,750)" opacity="1" style="display: block;"><path fill="rgb(31,31,36)" fill-opacity="1" d=" M-331.4630126953125,-572.25 C-331.4630126953125,-572.25 323.94500732421875,-559.27001953125 323.94500732421875,-559.27001953125 C323.94500732421875,-559.27001953125 659.843017578125,0 659.843017578125,0 C659.843017578125,0 -3.312000036239624,0 -3.312000036239624,0 C-3.312000036239624,0 -331.4630126953125,-572.25 -331.4630126953125,-572.25z"></path><path stroke-linecap="butt" stroke-linejoin="round" fill-opacity="0" stroke="rgb(120,86,255)" stroke-opacity="1" stroke-width="6" d=" M-331.4630126953125,-572.25 C-331.4630126953125,-572.25 323.94500732421875,-559.27001953125 323.94500732421875,-559.27001953125 C323.94500732421875,-559.27001953125 659.843017578125,0 659.843017578125,0 C659.843017578125,0 -3.312000036239624,0 -3.312000036239624,0 C-3.312000036239624,0 -331.4630126953125,-572.25 -331.4630126953125,-572.25z"></path></g><g transform="matrix(1,0,0,1,750,750)" opacity="1" style="display: block;"><g opacity="1" transform="matrix(1,0,0,1,0,0)"><path fill="rgb(31,31,36)" fill-opacity="1" d=" M-331.4630126953125,-572.25 C-331.4630126953125,-572.25 -644.5850219726562,0 -644.5850219726562,0 C-644.5850219726562,0 -331.4630126953125,572.25 -331.4630126953125,572.25 C-331.4630126953125,572.25 -3.312000036239624,0 -3.312000036239624,0 C-3.312000036239624,0 -331.4630126953125,-572.25 -331.4630126953125,-572.25z"></path><path stroke-linecap="butt" stroke-linejoin="round" fill-opacity="0" stroke="rgb(120,86,255)" stroke-opacity="1" stroke-width="6" d=" M-331.4630126953125,-572.25 C-331.4630126953125,-572.25 -644.5850219726562,0 -644.5850219726562,0 C-644.5850219726562,0 -331.4630126953125,572.25 -331.4630126953125,572.25 C-331.4630126953125,572.25 -3.312000036239624,0 -3.312000036239624,0 C-3.312000036239624,0 -331.4630126953125,-572.25 -331.4630126953125,-572.25z"></path></g></g><g transform="matrix(1,0,0,1,750,750)" opacity="1" style="display: block;"><g opacity="1" transform="matrix(1,0,0,1,0,0)"><path fill="rgb(31,31,36)" fill-opacity="1" d=" M-3.312000036239624,0 C-3.312000036239624,0 659.843017578125,0 659.843017578125,0 C659.843017578125,0 323.94500732421875,559.27001953125 323.94500732421875,559.27001953125 C323.94500732421875,559.27001953125 -331.4630126953125,572.25 -331.4630126953125,572.25 C-331.4630126953125,572.25 -3.312000036239624,0 -3.312000036239624,0z"></path><path stroke-linecap="butt" stroke-linejoin="round" fill-opacity="0" stroke="rgb(120,86,255)" stroke-opacity="1" stroke-width="6" d=" M-3.312000036239624,0 C-3.312000036239624,0 659.843017578125,0 659.843017578125,0 C659.843017578125,0 323.94500732421875,559.27001953125 323.94500732421875,559.27001953125 C323.94500732421875,559.27001953125 -331.4630126953125,572.25 -331.4630126953125,572.25 C-331.4630126953125,572.25 -3.312000036239624,0 -3.312000036239624,0z"></path></g></g><g transform="matrix(1,0,0,1,750,750)" opacity="1" style="display: block;"><g opacity="1" transform="matrix(1,0,0,1,0,0)"><path fill="rgb(31,31,36)" fill-opacity="1" d=" M-3.312000036239624,0 C-3.312000036239624,0 659.843017578125,0 659.843017578125,0 C659.843017578125,0 323.94500732421875,559.27001953125 323.94500732421875,559.27001953125 C323.94500732421875,559.27001953125 -331.4630126953125,572.25 -331.4630126953125,572.25 C-331.4630126953125,572.25 -3.312000036239624,0 -3.312000036239624,0z"></path><path stroke-linecap="butt" stroke-linejoin="miter" fill-opacity="0" stroke-miterlimit="4" stroke="rgb(120,86,255)" stroke-opacity="1" stroke-width="6" d=" M-3.312000036239624,0 C-3.312000036239624,0 659.843017578125,0 659.843017578125,0 C659.843017578125,0 323.94500732421875,559.27001953125 323.94500732421875,559.27001953125 C323.94500732421875,559.27001953125 -331.4630126953125,572.25 -331.4630126953125,572.25 C-331.4630126953125,572.25 -3.312000036239624,0 -3.312000036239624,0z"></path></g></g><g transform="matrix(1,0,0,1,750,750)" opacity="1" style="display: none;"><g opacity="1" transform="matrix(1,0,0,1,0,0)"><path fill="rgb(31,31,36)" fill-opacity="1" d=" M-463.4519958496094,-515.3900146484375 C-463.4519958496094,-515.3900146484375 188.73699951171875,-503.80999755859375 188.73699951171875,-503.80999755859375 C188.73699951171875,-503.80999755859375 628.7689819335938,-237.54100036621094 628.7689819335938,-237.54100036621094 C628.7689819335938,-237.54100036621094 -33.683998107910156,-243.1739959716797 -33.683998107910156,-243.1739959716797 C-33.683998107910156,-243.1739959716797 -463.4519958496094,-515.3900146484375 -463.4519958496094,-515.3900146484375z"></path><path stroke-linecap="round" stroke-linejoin="round" fill-opacity="0" stroke="rgb(120,86,255)" stroke-opacity="1" stroke-width="6" d=" M-463.4519958496094,-515.3900146484375 C-463.4519958496094,-515.3900146484375 188.73699951171875,-503.80999755859375 188.73699951171875,-503.80999755859375 C188.73699951171875,-503.80999755859375 628.7689819335938,-237.54100036621094 628.7689819335938,-237.54100036621094 C628.7689819335938,-237.54100036621094 -33.683998107910156,-243.1739959716797 -33.683998107910156,-243.1739959716797 C-33.683998107910156,-243.1739959716797 -463.4519958496094,-515.3900146484375 -463.4519958496094,-515.3900146484375z"></path></g></g><g transform="matrix(1,0,0,1,750,750)" opacity="1" style="display: none;"><g opacity="1" transform="matrix(1,0,0,1,0,0)"><path fill="rgb(31,31,36)" fill-opacity="1" d=" M-1.0820000171661377,1.284000039100647 C-1.0820000171661377,1.284000039100647 660.5059814453125,-1.2589999437332153 660.5059814453125,-1.2589999437332153 C660.5059814453125,-1.2589999437332153 324.6260070800781,557.9829711914062 324.6260070800781,557.9829711914062 C324.6260070800781,557.9829711914062 -329.2860107421875,573.5040283203125 -329.2860107421875,573.5040283203125 C-329.2860107421875,573.5040283203125 -1.0820000171661377,1.284000039100647 -1.0820000171661377,1.284000039100647z"></path><path stroke-linecap="butt" stroke-linejoin="round" fill-opacity="0" stroke="rgb(120,86,255)" stroke-opacity="1" stroke-width="6" d=" M-1.0820000171661377,1.284000039100647 C-1.0820000171661377,1.284000039100647 660.5059814453125,-1.2589999437332153 660.5059814453125,-1.2589999437332153 C660.5059814453125,-1.2589999437332153 324.6260070800781,557.9829711914062 324.6260070800781,557.9829711914062 C324.6260070800781,557.9829711914062 -329.2860107421875,573.5040283203125 -329.2860107421875,573.5040283203125 C-329.2860107421875,573.5040283203125 -1.0820000171661377,1.284000039100647 -1.0820000171661377,1.284000039100647z"></path></g></g><g transform="matrix(1,0,0,1,750,750)" opacity="1" style="display: none;"><g opacity="1" transform="matrix(1,0,0,1,0,0)"><path fill="rgb(31,31,36)" fill-opacity="1" d=" M-13.314000129699707,-141.85899353027344 C-13.314000129699707,-141.85899353027344 649.6099853515625,-138.5679931640625 649.6099853515625,-138.5679931640625 C649.6099853515625,-138.5679931640625 244.8730010986328,-539.614990234375 244.8730010986328,-539.614990234375 C244.8730010986328,-539.614990234375 -408.6600036621094,-552.0689697265625 -408.6600036621094,-552.0689697265625 C-408.6600036621094,-552.0689697265625 -13.314000129699707,-141.85899353027344 -13.314000129699707,-141.85899353027344z"></path><path stroke-linecap="butt" stroke-linejoin="round" fill-opacity="0" stroke="rgb(120,86,255)" stroke-opacity="1" stroke-width="6" d=" M-13.314000129699707,-141.85899353027344 C-13.314000129699707,-141.85899353027344 649.6099853515625,-138.5679931640625 649.6099853515625,-138.5679931640625 C649.6099853515625,-138.5679931640625 244.8730010986328,-539.614990234375 244.8730010986328,-539.614990234375 C244.8730010986328,-539.614990234375 -408.6600036621094,-552.0689697265625 -408.6600036621094,-552.0689697265625 C-408.6600036621094,-552.0689697265625 -13.314000129699707,-141.85899353027344 -13.314000129699707,-141.85899353027344z"></path></g></g><g transform="matrix(1,0,0,1,750,750)" opacity="1" style="display: none;"><g opacity="1" transform="matrix(1,0,0,1,0,0)"><path fill="rgb(31,31,36)" fill-opacity="1" d=" M165.57899475097656,286.1400146484375 C165.57899475097656,286.1400146484375 333.614013671875,-0.003000000026077032 333.614013671875,-0.003000000026077032 C333.614013671875,-0.003000000026077032 660.5059814453125,-1.2589999437332153 660.5059814453125,-1.2589999437332153 C660.5059814453125,-1.2589999437332153 490.6199951171875,281.60101318359375 490.6199951171875,281.60101318359375 C490.6199951171875,281.60101318359375 165.57899475097656,286.1400146484375 165.57899475097656,286.1400146484375z"></path><path stroke-linecap="butt" stroke-linejoin="round" fill-opacity="0" stroke="rgb(255,117,87)" stroke-opacity="1" stroke-width="6" d=" M165.57899475097656,286.1400146484375 C165.57899475097656,286.1400146484375 333.614013671875,-0.003000000026077032 333.614013671875,-0.003000000026077032 C333.614013671875,-0.003000000026077032 660.5059814453125,-1.2589999437332153 660.5059814453125,-1.2589999437332153 C660.5059814453125,-1.2589999437332153 490.6199951171875,281.60101318359375 490.6199951171875,281.60101318359375 C490.6199951171875,281.60101318359375 165.57899475097656,286.1400146484375 165.57899475097656,286.1400146484375z"></path></g></g><g transform="matrix(1,0,0,1,750,750)" opacity="1" style="display: none;"><g opacity="1" transform="matrix(1,0,0,1,0,0)"><path fill="rgb(31,31,36)" fill-opacity="1" d=" M-1.0820000171661377,1.284000039100647 C-1.0820000171661377,1.284000039100647 -167.1300048828125,290.7860107421875 -167.1300048828125,290.7860107421875 C-167.1300048828125,290.7860107421875 165.57899475097656,286.1400146484375 165.57899475097656,286.1400146484375 C165.57899475097656,286.1400146484375 333.614013671875,-0.003000000026077032 333.614013671875,-0.003000000026077032 C333.614013671875,-0.003000000026077032 -1.0820000171661377,1.284000039100647 -1.0820000171661377,1.284000039100647z"></path><path stroke-linecap="butt" stroke-linejoin="round" fill-opacity="0" stroke="rgb(255,117,87)" stroke-opacity="1" stroke-width="6" d=" M-1.0820000171661377,1.284000039100647 C-1.0820000171661377,1.284000039100647 -167.1300048828125,290.7860107421875 -167.1300048828125,290.7860107421875 C-167.1300048828125,290.7860107421875 165.57899475097656,286.1400146484375 165.57899475097656,286.1400146484375 C165.57899475097656,286.1400146484375 333.614013671875,-0.003000000026077032 333.614013671875,-0.003000000026077032 C333.614013671875,-0.003000000026077032 -1.0820000171661377,1.284000039100647 -1.0820000171661377,1.284000039100647z"></path></g></g><g transform="matrix(1,0,0,1,750,750)" opacity="1" style="display: none;"><g opacity="1" transform="matrix(1,0,0,1,0,0)"><path fill="rgb(31,31,36)" fill-opacity="1" d=" M332.156005859375,-2.611999988555908 C332.156005859375,-2.611999988555908 192.8040008544922,236.88800048828125 192.8040008544922,236.88800048828125 C192.8040008544922,236.88800048828125 464.4909973144531,234.6199951171875 464.4909973144531,234.6199951171875 C464.4909973144531,234.6199951171875 605.135986328125,-2.5869998931884766 605.135986328125,-2.5869998931884766 C605.135986328125,-2.5869998931884766 332.156005859375,-2.611999988555908 332.156005859375,-2.611999988555908z"></path><path stroke-linecap="butt" stroke-linejoin="round" fill-opacity="0" stroke="rgb(255,117,87)" stroke-opacity="1" stroke-width="6" d=" M332.156005859375,-2.611999988555908 C332.156005859375,-2.611999988555908 192.8040008544922,236.88800048828125 192.8040008544922,236.88800048828125 C192.8040008544922,236.88800048828125 464.4909973144531,234.6199951171875 464.4909973144531,234.6199951171875 C464.4909973144531,234.6199951171875 605.135986328125,-2.5869998931884766 605.135986328125,-2.5869998931884766 C605.135986328125,-2.5869998931884766 332.156005859375,-2.611999988555908 332.156005859375,-2.611999988555908z"></path></g></g><g transform="matrix(1,0,0,1,750,750)" opacity="1" style="display: none;"><g opacity="1" transform="matrix(1,0,0,1,0,0)"><path fill="rgb(31,31,36)" fill-opacity="1" d=" M605.135986328125,-2.5869998931884766 C605.135986328125,-2.5869998931884766 463.22900390625,-237.5919952392578 463.22900390625,-237.5919952392578 C463.22900390625,-237.5919952392578 191.5540008544922,-239.88900756835938 191.5540008544922,-239.88900756835938 C191.5540008544922,-239.88900756835938 332.156005859375,-2.611999988555908 332.156005859375,-2.611999988555908 C332.156005859375,-2.611999988555908 605.135986328125,-2.5869998931884766 605.135986328125,-2.5869998931884766z"></path><path stroke-linecap="butt" stroke-linejoin="round" fill-opacity="0" stroke="rgb(255,117,87)" stroke-opacity="1" stroke-width="6" d=" M605.135986328125,-2.5869998931884766 C605.135986328125,-2.5869998931884766 463.22900390625,-237.5919952392578 463.22900390625,-237.5919952392578 C463.22900390625,-237.5919952392578 191.5540008544922,-239.88900756835938 191.5540008544922,-239.88900756835938 C191.5540008544922,-239.88900756835938 332.156005859375,-2.611999988555908 332.156005859375,-2.611999988555908 C332.156005859375,-2.611999988555908 605.135986328125,-2.5869998931884766 605.135986328125,-2.5869998931884766z"></path></g></g><g transform="matrix(1,0,0,1,750,750)" opacity="1" style="display: none;"><g opacity="1" transform="matrix(1,0,0,1,0,0)"><path fill="rgb(31,31,36)" fill-opacity="1" d=" M-33.683998107910156,-243.1739959716797 C-33.683998107910156,-243.1739959716797 -69.85299682617188,-72.802001953125 -69.85299682617188,-72.802001953125 C-69.85299682617188,-72.802001953125 78.11399841308594,-72.4260025024414 78.11399841308594,-72.4260025024414 C78.11399841308594,-72.4260025024414 114.47799682617188,-241.91400146484375 114.47799682617188,-241.91400146484375 C114.47799682617188,-241.91400146484375 -33.683998107910156,-243.1739959716797 -33.683998107910156,-243.1739959716797z"></path><path stroke-linecap="butt" stroke-linejoin="round" fill-opacity="0" stroke="rgb(255,117,87)" stroke-opacity="1" stroke-width="6" d=" M-33.683998107910156,-243.1739959716797 C-33.683998107910156,-243.1739959716797 -69.85299682617188,-72.802001953125 -69.85299682617188,-72.802001953125 C-69.85299682617188,-72.802001953125 78.11399841308594,-72.4260025024414 78.11399841308594,-72.4260025024414 C78.11399841308594,-72.4260025024414 114.47799682617188,-241.91400146484375 114.47799682617188,-241.91400146484375 C114.47799682617188,-241.91400146484375 -33.683998107910156,-243.1739959716797 -33.683998107910156,-243.1739959716797z"></path></g></g><g transform="matrix(1,0,0,1,750,750)" opacity="1" style="display: none;"><g opacity="1" transform="matrix(1,0,0,1,0,0)"><path fill="rgb(31,31,36)" fill-opacity="1" d=" M164.13299560546875,-286.1579895019531 C164.13299560546875,-286.1579895019531 204.218994140625,-517.5800170898438 204.218994140625,-517.5800170898438 C204.218994140625,-517.5800170898438 563.8870239257812,-362.7019958496094 563.8870239257812,-362.7019958496094 C563.8870239257812,-362.7019958496094 529.7260131835938,-129.5540008544922 529.7260131835938,-129.5540008544922 C529.7260131835938,-129.5540008544922 164.13299560546875,-286.1579895019531 164.13299560546875,-286.1579895019531z"></path><path stroke-linecap="butt" stroke-linejoin="round" fill-opacity="0" stroke="rgb(255,117,87)" stroke-opacity="1" stroke-width="6" d=" M164.13299560546875,-286.1579895019531 C164.13299560546875,-286.1579895019531 204.218994140625,-517.5800170898438 204.218994140625,-517.5800170898438 C204.218994140625,-517.5800170898438 563.8870239257812,-362.7019958496094 563.8870239257812,-362.7019958496094 C563.8870239257812,-362.7019958496094 529.7260131835938,-129.5540008544922 529.7260131835938,-129.5540008544922 C529.7260131835938,-129.5540008544922 164.13299560546875,-286.1579895019531 164.13299560546875,-286.1579895019531z"></path></g></g><g transform="matrix(1,0,0,1,750,750)" opacity="1" style="display: none;"><g opacity="1" transform="matrix(1,0,0,1,0,0)"><path fill="rgb(31,31,36)" fill-opacity="1" d=" M-33.683998107910156,-243.1739959716797 C-33.683998107910156,-243.1739959716797 -130.38800048828125,-304.427001953125 -130.38800048828125,-304.427001953125 C-130.38800048828125,-304.427001953125 17.250999450683594,-302.8599853515625 17.250999450683594,-302.8599853515625 C17.250999450683594,-302.8599853515625 114.47799682617188,-241.91400146484375 114.47799682617188,-241.91400146484375 C114.47799682617188,-241.91400146484375 -33.683998107910156,-243.1739959716797 -33.683998107910156,-243.1739959716797z"></path><path stroke-linecap="butt" stroke-linejoin="round" fill-opacity="0" stroke="rgb(255,117,87)" stroke-opacity="1" stroke-width="6" d=" M-33.683998107910156,-243.1739959716797 C-33.683998107910156,-243.1739959716797 -130.38800048828125,-304.427001953125 -130.38800048828125,-304.427001953125 C-130.38800048828125,-304.427001953125 17.250999450683594,-302.8599853515625 17.250999450683594,-302.8599853515625 C17.250999450683594,-302.8599853515625 114.47799682617188,-241.91400146484375 114.47799682617188,-241.91400146484375 C114.47799682617188,-241.91400146484375 -33.683998107910156,-243.1739959716797 -33.683998107910156,-243.1739959716797z"></path></g></g><g transform="matrix(1,0,0,1,750,750)" opacity="1" style="display: none;"><g opacity="1" transform="matrix(1,0,0,1,0,0)"><path fill="rgb(31,31,36)" fill-opacity="1" d=" M-170.0749969482422,-290.80499267578125 C-170.0749969482422,-290.80499267578125 -305.72900390625,-525.2169799804688 -305.72900390625,-525.2169799804688 C-305.72900390625,-525.2169799804688 -29.33799934387207,-520.18798828125 -29.33799934387207,-520.18798828125 C-29.33799934387207,-520.18798828125 107.71600341796875,-287.9930114746094 107.71600341796875,-287.9930114746094 C107.71600341796875,-287.9930114746094 -170.0749969482422,-290.80499267578125 -170.0749969482422,-290.80499267578125z"></path><path stroke-linecap="butt" stroke-linejoin="round" fill-opacity="0" stroke="rgb(255,117,87)" stroke-opacity="1" stroke-width="6" d=" M-170.0749969482422,-290.80499267578125 C-170.0749969482422,-290.80499267578125 -305.72900390625,-525.2169799804688 -305.72900390625,-525.2169799804688 C-305.72900390625,-525.2169799804688 -29.33799934387207,-520.18798828125 -29.33799934387207,-520.18798828125 C-29.33799934387207,-520.18798828125 107.71600341796875,-287.9930114746094 107.71600341796875,-287.9930114746094 C107.71600341796875,-287.9930114746094 -170.0749969482422,-290.80499267578125 -170.0749969482422,-290.80499267578125z"></path></g></g><g transform="matrix(1,0,0,1,750,750)" opacity="1" style="display: block;"><g opacity="1" transform="matrix(1,0,0,1,0,0)"><path fill="rgb(31,31,36)" fill-opacity="1" d=" M-489.8370056152344,-282.8110046386719 C-489.8370056152344,-282.8110046386719 -489.8370056152344,-282.8110046386719 -489.8370056152344,-282.8110046386719 C-489.8370056152344,-282.8110046386719 -489.8370056152344,-282.8110046386719 -489.8370056152344,-282.8110046386719 C-489.8370056152344,-282.8110046386719 -489.8370056152344,-282.8110046386719 -489.8370056152344,-282.8110046386719 C-489.8370056152344,-282.8110046386719 -489.8370056152344,-282.8110046386719 -489.8370056152344,-282.8110046386719z"></path><path stroke-linecap="butt" stroke-linejoin="round" fill-opacity="0" stroke="rgb(255,117,87)" stroke-opacity="1" stroke-width="6" d=" M-489.8370056152344,-282.8110046386719 C-489.8370056152344,-282.8110046386719 -489.8370056152344,-282.8110046386719 -489.8370056152344,-282.8110046386719 C-489.8370056152344,-282.8110046386719 -489.8370056152344,-282.8110046386719 -489.8370056152344,-282.8110046386719 C-489.8370056152344,-282.8110046386719 -489.8370056152344,-282.8110046386719 -489.8370056152344,-282.8110046386719 C-489.8370056152344,-282.8110046386719 -489.8370056152344,-282.8110046386719 -489.8370056152344,-282.8110046386719z"></path></g></g><g transform="matrix(1,0,0,1,750,750)" opacity="1" style="display: block;"><g opacity="1" transform="matrix(1,0,0,1,0,0)"><path fill="rgb(31,31,36)" fill-opacity="1" d=" M-331.4630126953125,-572.25 C-331.4630126953125,-572.25 -331.4630126953125,-572.25 -331.4630126953125,-572.25 C-331.4630126953125,-572.25 -331.4630126953125,-572.25 -331.4630126953125,-572.25 C-331.4630126953125,-572.25 -331.4630126953125,-572.25 -331.4630126953125,-572.25 C-331.4630126953125,-572.25 -331.4630126953125,-572.25 -331.4630126953125,-572.25z"></path><path stroke-linecap="butt" stroke-linejoin="round" fill-opacity="0" stroke="rgb(255,117,87)" stroke-opacity="1" stroke-width="6" d=" M-331.4630126953125,-572.25 C-331.4630126953125,-572.25 -331.4630126953125,-572.25 -331.4630126953125,-572.25 C-331.4630126953125,-572.25 -331.4630126953125,-572.25 -331.4630126953125,-572.25 C-331.4630126953125,-572.25 -331.4630126953125,-572.25 -331.4630126953125,-572.25 C-331.4630126953125,-572.25 -331.4630126953125,-572.25 -331.4630126953125,-572.25z"></path></g></g><g transform="matrix(1,0,0,1,750,750)" opacity="1" style="display: none;"><g opacity="1" transform="matrix(1,0,0,1,0,0)"><path fill="rgb(31,31,36)" fill-opacity="1" d=" M412.3210144042969,-143.70799255371094 C412.3210144042969,-143.70799255371094 412.3210144042969,-143.70799255371094 412.3210144042969,-143.70799255371094 C412.3210144042969,-143.70799255371094 412.3210144042969,-143.70799255371094 412.3210144042969,-143.70799255371094 C412.3210144042969,-143.70799255371094 412.3210144042969,-143.70799255371094 412.3210144042969,-143.70799255371094 C412.3210144042969,-143.70799255371094 412.3210144042969,-143.70799255371094 412.3210144042969,-143.70799255371094z"></path><path stroke-linecap="butt" stroke-linejoin="round" fill-opacity="0" stroke="rgb(128,225,217)" stroke-opacity="1" stroke-width="6" d=" M412.3210144042969,-143.70799255371094 C412.3210144042969,-143.70799255371094 412.3210144042969,-143.70799255371094 412.3210144042969,-143.70799255371094 C412.3210144042969,-143.70799255371094 412.3210144042969,-143.70799255371094 412.3210144042969,-143.70799255371094 C412.3210144042969,-143.70799255371094 412.3210144042969,-143.70799255371094 412.3210144042969,-143.70799255371094 C412.3210144042969,-143.70799255371094 412.3210144042969,-143.70799255371094 412.3210144042969,-143.70799255371094z"></path></g></g><g transform="matrix(1,0,0,1,750,750)" opacity="1" style="display: none;"><g opacity="1" transform="matrix(1,0,0,1,0,0)"><path fill="rgb(31,31,36)" fill-opacity="1" d=" M498.0199890136719,-0.6320000290870667 C498.0199890136719,-0.6320000290870667 498.0199890136719,-0.6320000290870667 498.0199890136719,-0.6320000290870667 C498.0199890136719,-0.6320000290870667 498.0199890136719,-0.6320000290870667 498.0199890136719,-0.6320000290870667 C498.0199890136719,-0.6320000290870667 498.0199890136719,-0.6320000290870667 498.0199890136719,-0.6320000290870667 C498.0199890136719,-0.6320000290870667 498.0199890136719,-0.6320000290870667 498.0199890136719,-0.6320000290870667z"></path><path stroke-linecap="butt" stroke-linejoin="round" fill-opacity="0" stroke="rgb(128,225,217)" stroke-opacity="1" stroke-width="6" d=" M498.0199890136719,-0.6320000290870667 C498.0199890136719,-0.6320000290870667 498.0199890136719,-0.6320000290870667 498.0199890136719,-0.6320000290870667 C498.0199890136719,-0.6320000290870667 498.0199890136719,-0.6320000290870667 498.0199890136719,-0.6320000290870667 C498.0199890136719,-0.6320000290870667 498.0199890136719,-0.6320000290870667 498.0199890136719,-0.6320000290870667 C498.0199890136719,-0.6320000290870667 498.0199890136719,-0.6320000290870667 498.0199890136719,-0.6320000290870667z"></path></g></g><g transform="matrix(1,0,0,1,750,750)" opacity="1" style="display: none;"><g opacity="1" transform="matrix(1,0,0,1,0,0)"><path fill="rgb(31,31,36)" fill-opacity="1" d=" M248.37899780273438,-143.91799926757812 C248.37899780273438,-143.91799926757812 248.37899780273438,-143.91799926757812 248.37899780273438,-143.91799926757812 C248.37899780273438,-143.91799926757812 248.37899780273438,-143.91799926757812 248.37899780273438,-143.91799926757812 C248.37899780273438,-143.91799926757812 248.37899780273438,-143.91799926757812 248.37899780273438,-143.91799926757812 C248.37899780273438,-143.91799926757812 248.37899780273438,-143.91799926757812 248.37899780273438,-143.91799926757812z"></path><path stroke-linecap="butt" stroke-linejoin="round" fill-opacity="0" stroke="rgb(128,225,217)" stroke-opacity="1" stroke-width="6" d=" M248.37899780273438,-143.91799926757812 C248.37899780273438,-143.91799926757812 248.37899780273438,-143.91799926757812 248.37899780273438,-143.91799926757812 C248.37899780273438,-143.91799926757812 248.37899780273438,-143.91799926757812 248.37899780273438,-143.91799926757812 C248.37899780273438,-143.91799926757812 248.37899780273438,-143.91799926757812 248.37899780273438,-143.91799926757812 C248.37899780273438,-143.91799926757812 248.37899780273438,-143.91799926757812 248.37899780273438,-143.91799926757812z"></path></g></g><g transform="matrix(1,0,0,1,750,750)" opacity="1" style="display: none;"><g opacity="1" transform="matrix(1,0,0,1,0,0)"><path fill="rgb(31,31,36)" fill-opacity="1" d=" M248.37899780273438,-143.91900634765625 C248.37899780273438,-143.91900634765625 248.37899780273438,-143.91900634765625 248.37899780273438,-143.91900634765625 C248.37899780273438,-143.91900634765625 248.37899780273438,-143.91900634765625 248.37899780273438,-143.91900634765625 C248.37899780273438,-143.91900634765625 248.37899780273438,-143.91900634765625 248.37899780273438,-143.91900634765625 C248.37899780273438,-143.91900634765625 248.37899780273438,-143.91900634765625 248.37899780273438,-143.91900634765625z"></path><path stroke-linecap="butt" stroke-linejoin="round" fill-opacity="0" stroke="rgb(128,225,217)" stroke-opacity="1" stroke-width="6" d=" M248.37899780273438,-143.91900634765625 C248.37899780273438,-143.91900634765625 248.37899780273438,-143.91900634765625 248.37899780273438,-143.91900634765625 C248.37899780273438,-143.91900634765625 248.37899780273438,-143.91900634765625 248.37899780273438,-143.91900634765625 C248.37899780273438,-143.91900634765625 248.37899780273438,-143.91900634765625 248.37899780273438,-143.91900634765625 C248.37899780273438,-143.91900634765625 248.37899780273438,-143.91900634765625 248.37899780273438,-143.91900634765625z"></path></g></g><g transform="matrix(1,0,0,1,750,750)" opacity="1" style="display: none;"><g opacity="1" transform="matrix(1,0,0,1,0,0)"><path fill="rgb(31,31,36)" fill-opacity="1" d=" M413.03399658203125,142.44900512695312 C413.03399658203125,142.44900512695312 413.03399658203125,142.44900512695312 413.03399658203125,142.44900512695312 C413.03399658203125,142.44900512695312 413.03399658203125,142.44900512695312 413.03399658203125,142.44900512695312 C413.03399658203125,142.44900512695312 413.03399658203125,142.44900512695312 413.03399658203125,142.44900512695312 C413.03399658203125,142.44900512695312 413.03399658203125,142.44900512695312 413.03399658203125,142.44900512695312z"></path><path stroke-linecap="butt" stroke-linejoin="round" fill-opacity="0" stroke="rgb(128,225,217)" stroke-opacity="1" stroke-width="6" d=" M413.03399658203125,142.44900512695312 C413.03399658203125,142.44900512695312 413.03399658203125,142.44900512695312 413.03399658203125,142.44900512695312 C413.03399658203125,142.44900512695312 413.03399658203125,142.44900512695312 413.03399658203125,142.44900512695312 C413.03399658203125,142.44900512695312 413.03399658203125,142.44900512695312 413.03399658203125,142.44900512695312 C413.03399658203125,142.44900512695312 413.03399658203125,142.44900512695312 413.03399658203125,142.44900512695312z"></path></g></g><g transform="matrix(1,0,0,1,750,750)" opacity="1" style="display: none;"><g opacity="1" transform="matrix(1,0,0,1,0,0)"><path fill="rgb(31,31,36)" fill-opacity="1" d=" M498.01800537109375,-0.6290000081062317 C498.01800537109375,-0.6290000081062317 498.01800537109375,-0.6290000081062317 498.01800537109375,-0.6290000081062317 C498.01800537109375,-0.6290000081062317 498.01800537109375,-0.6290000081062317 498.01800537109375,-0.6290000081062317 C498.01800537109375,-0.6290000081062317 498.01800537109375,-0.6290000081062317 498.01800537109375,-0.6290000081062317 C498.01800537109375,-0.6290000081062317 498.01800537109375,-0.6290000081062317 498.01800537109375,-0.6290000081062317z"></path><path stroke-linecap="butt" stroke-linejoin="round" fill-opacity="0" stroke="rgb(128,225,217)" stroke-opacity="1" stroke-width="6" d=" M498.01800537109375,-0.6290000081062317 C498.01800537109375,-0.6290000081062317 498.01800537109375,-0.6290000081062317 498.01800537109375,-0.6290000081062317 C498.01800537109375,-0.6290000081062317 498.01800537109375,-0.6290000081062317 498.01800537109375,-0.6290000081062317 C498.01800537109375,-0.6290000081062317 498.01800537109375,-0.6290000081062317 498.01800537109375,-0.6290000081062317 C498.01800537109375,-0.6290000081062317 498.01800537109375,-0.6290000081062317 498.01800537109375,-0.6290000081062317z"></path></g></g><g transform="matrix(1,0,0,1,750,750)" opacity="1" style="display: none;"><g opacity="1" transform="matrix(1,0,0,1,0,0)"><path fill="rgb(31,31,36)" fill-opacity="1" d=" M249.10000610351562,143.91700744628906 C249.10000610351562,143.91700744628906 249.10000610351562,143.91700744628906 249.10000610351562,143.91700744628906 C249.10000610351562,143.91700744628906 249.10000610351562,143.91700744628906 249.10000610351562,143.91700744628906 C249.10000610351562,143.91700744628906 249.10000610351562,143.91700744628906 249.10000610351562,143.91700744628906 C249.10000610351562,143.91700744628906 249.10000610351562,143.91700744628906 249.10000610351562,143.91700744628906z"></path><path stroke-linecap="butt" stroke-linejoin="round" fill-opacity="0" stroke="rgb(128,225,217)" stroke-opacity="1" stroke-width="6" d=" M249.10000610351562,143.91700744628906 C249.10000610351562,143.91700744628906 249.10000610351562,143.91700744628906 249.10000610351562,143.91700744628906 C249.10000610351562,143.91700744628906 249.10000610351562,143.91700744628906 249.10000610351562,143.91700744628906 C249.10000610351562,143.91700744628906 249.10000610351562,143.91700744628906 249.10000610351562,143.91700744628906 C249.10000610351562,143.91700744628906 249.10000610351562,143.91700744628906 249.10000610351562,143.91700744628906z"></path></g></g><g transform="matrix(1,0,0,1,750,750)" opacity="1" style="display: none;"><g opacity="1" transform="matrix(1,0,0,1,0,0)"><path fill="rgb(31,31,36)" fill-opacity="1" d=" M333.614013671875,0.003000000026077032 C333.614013671875,0.003000000026077032 333.614013671875,0.003000000026077032 333.614013671875,0.003000000026077032 C333.614013671875,0.003000000026077032 333.614013671875,0.003000000026077032 333.614013671875,0.003000000026077032 C333.614013671875,0.003000000026077032 333.614013671875,0.003000000026077032 333.614013671875,0.003000000026077032 C333.614013671875,0.003000000026077032 333.614013671875,0.003000000026077032 333.614013671875,0.003000000026077032z"></path><path stroke-linecap="butt" stroke-linejoin="round" fill-opacity="0" stroke="rgb(128,225,217)" stroke-opacity="1" stroke-width="6" d=" M333.614013671875,0.003000000026077032 C333.614013671875,0.003000000026077032 333.614013671875,0.003000000026077032 333.614013671875,0.003000000026077032 C333.614013671875,0.003000000026077032 333.614013671875,0.003000000026077032 333.614013671875,0.003000000026077032 C333.614013671875,0.003000000026077032 333.614013671875,0.003000000026077032 333.614013671875,0.003000000026077032 C333.614013671875,0.003000000026077032 333.614013671875,0.003000000026077032 333.614013671875,0.003000000026077032z"></path></g></g><g transform="matrix(1,0,0,1,750,750)" opacity="1" style="display: none;"><g opacity="1" transform="matrix(1,0,0,1,0,0)"><path fill="rgb(31,31,36)" fill-opacity="1" d=" M125.52899932861328,-218.98899841308594 C125.52899932861328,-218.98899841308594 170.11000061035156,-143.3040008544922 170.11000061035156,-143.3040008544922 C170.11000061035156,-143.3040008544922 82.09100341796875,-143.4149932861328 82.09100341796875,-143.4149932861328 C82.09100341796875,-143.4149932861328 37.645999908447266,-219.33399963378906 37.645999908447266,-219.33399963378906 C37.645999908447266,-219.33399963378906 125.52899932861328,-218.98899841308594 125.52899932861328,-218.98899841308594z"></path><path stroke-linecap="butt" stroke-linejoin="round" fill-opacity="0" stroke="rgb(128,225,217)" stroke-opacity="1" stroke-width="6" d=" M125.52899932861328,-218.98899841308594 C125.52899932861328,-218.98899841308594 170.11000061035156,-143.3040008544922 170.11000061035156,-143.3040008544922 C170.11000061035156,-143.3040008544922 82.09100341796875,-143.4149932861328 82.09100341796875,-143.4149932861328 C82.09100341796875,-143.4149932861328 37.645999908447266,-219.33399963378906 37.645999908447266,-219.33399963378906 C37.645999908447266,-219.33399963378906 125.52899932861328,-218.98899841308594 125.52899932861328,-218.98899841308594z"></path></g></g><g transform="matrix(1,0,0,1,750,750)" opacity="1" style="display: none;"><g opacity="1" transform="matrix(1,0,0,1,0,0)"><path fill="rgb(31,31,36)" fill-opacity="1" d=" M-39.35200119018555,-219.63800048828125 C-39.35200119018555,-219.63800048828125 4.9730000495910645,-143.51199340820312 4.9730000495910645,-143.51199340820312 C4.9730000495910645,-143.51199340820312 -84.08100128173828,-143.62399291992188 -84.08100128173828,-143.62399291992188 C-84.08100128173828,-143.62399291992188 -128.26499938964844,-219.98800659179688 -128.26499938964844,-219.98800659179688 C-128.26499938964844,-219.98800659179688 -39.35200119018555,-219.63800048828125 -39.35200119018555,-219.63800048828125z"></path><path stroke-linecap="butt" stroke-linejoin="round" fill-opacity="0" stroke="rgb(128,225,217)" stroke-opacity="1" stroke-width="6" d=" M-39.35200119018555,-219.63800048828125 C-39.35200119018555,-219.63800048828125 4.9730000495910645,-143.51199340820312 4.9730000495910645,-143.51199340820312 C4.9730000495910645,-143.51199340820312 -84.08100128173828,-143.62399291992188 -84.08100128173828,-143.62399291992188 C-84.08100128173828,-143.62399291992188 -128.26499938964844,-219.98800659179688 -128.26499938964844,-219.98800659179688 C-128.26499938964844,-219.98800659179688 -39.35200119018555,-219.63800048828125 -39.35200119018555,-219.63800048828125z"></path></g></g><g transform="matrix(1,0,0,1,750,750)" opacity="1" style="display: none;"><g opacity="1" transform="matrix(1,0,0,1,0,0)"><path fill="rgb(31,31,36)" fill-opacity="1" d=" M209.38400268554688,-76.99400329589844 C209.38400268554688,-76.99400329589844 254.48800659179688,-0.42100000381469727 254.48800659179688,-0.42100000381469727 C254.48800659179688,-0.42100000381469727 166.21800231933594,-0.08399999886751175 166.21800231933594,-0.08399999886751175 C166.21800231933594,-0.08399999886751175 121.2490005493164,-76.89700317382812 121.2490005493164,-76.89700317382812 C121.2490005493164,-76.89700317382812 209.38400268554688,-76.99400329589844 209.38400268554688,-76.99400329589844z"></path><path stroke-linecap="butt" stroke-linejoin="round" fill-opacity="0" stroke="rgb(128,225,217)" stroke-opacity="1" stroke-width="6" d=" M209.38400268554688,-76.99400329589844 C209.38400268554688,-76.99400329589844 254.48800659179688,-0.42100000381469727 254.48800659179688,-0.42100000381469727 C254.48800659179688,-0.42100000381469727 166.21800231933594,-0.08399999886751175 166.21800231933594,-0.08399999886751175 C166.21800231933594,-0.08399999886751175 121.2490005493164,-76.89700317382812 121.2490005493164,-76.89700317382812 C121.2490005493164,-76.89700317382812 209.38400268554688,-76.99400329589844 209.38400268554688,-76.99400329589844z"></path></g></g><g transform="matrix(1,0,0,1,750,750)" opacity="1" style="display: none;"><g opacity="1" transform="matrix(1,0,0,1,0,0)"><path fill="rgb(31,31,36)" fill-opacity="1" d=" M81.08300018310547,-141.66200256347656 C81.08300018310547,-141.66200256347656 164.38400268554688,0.6510000228881836 164.38400268554688,0.6510000228881836 C164.38400268554688,0.6510000228881836 -1.0800000429153442,1.2869999408721924 -1.0800000429153442,1.2869999408721924 C-1.0800000429153442,1.2869999408721924 -83.9010009765625,-141.85899353027344 -83.9010009765625,-141.85899353027344 C-83.9010009765625,-141.85899353027344 81.08300018310547,-141.66200256347656 81.08300018310547,-141.66200256347656z"></path><path stroke-linecap="butt" stroke-linejoin="round" fill-opacity="0" stroke="rgb(128,225,217)" stroke-opacity="1" stroke-width="6" d=" M81.08300018310547,-141.66200256347656 C81.08300018310547,-141.66200256347656 164.38400268554688,0.6510000228881836 164.38400268554688,0.6510000228881836 C164.38400268554688,0.6510000228881836 -1.0800000429153442,1.2869999408721924 -1.0800000429153442,1.2869999408721924 C-1.0800000429153442,1.2869999408721924 -83.9010009765625,-141.85899353027344 -83.9010009765625,-141.85899353027344 C-83.9010009765625,-141.85899353027344 81.08300018310547,-141.66200256347656 81.08300018310547,-141.66200256347656z"></path></g></g><g transform="matrix(1,0,0,1,750,750)" opacity="1" style="display: none;"><g opacity="1" transform="matrix(1,0,0,1,0,0)"><path fill="rgb(31,31,36)" fill-opacity="1" d=" M171.24099731445312,144.61300659179688 C171.24099731445312,144.61300659179688 127.04499816894531,220.2830047607422 127.04499816894531,220.2830047607422 C127.04499816894531,220.2830047607422 39.17499923706055,221.3040008544922 39.17499923706055,221.3040008544922 C39.17499923706055,221.3040008544922 83.23300170898438,145.4010009765625 83.23300170898438,145.4010009765625 C83.23300170898438,145.4010009765625 171.24099731445312,144.61300659179688 171.24099731445312,144.61300659179688z"></path><path stroke-linecap="butt" stroke-linejoin="round" fill-opacity="0" stroke="rgb(128,225,217)" stroke-opacity="1" stroke-width="6" d=" M171.24099731445312,144.61300659179688 C171.24099731445312,144.61300659179688 127.04499816894531,220.2830047607422 127.04499816894531,220.2830047607422 C127.04499816894531,220.2830047607422 39.17499923706055,221.3040008544922 39.17499923706055,221.3040008544922 C39.17499923706055,221.3040008544922 83.23300170898438,145.4010009765625 83.23300170898438,145.4010009765625 C83.23300170898438,145.4010009765625 171.24099731445312,144.61300659179688 171.24099731445312,144.61300659179688z"></path></g></g><g transform="matrix(1,0,0,1,750,750)" opacity="1" style="display: none;"><g opacity="1" transform="matrix(1,0,0,1,0,0)"><path fill="rgb(31,31,36)" fill-opacity="1" d=" M254.49000549316406,1.0299999713897705 C254.49000549316406,1.0299999713897705 209.77099609375,77.5979995727539 209.77099609375,77.5979995727539 C209.77099609375,77.5979995727539 121.63899993896484,78.1780014038086 121.63899993896484,78.1780014038086 C121.63899993896484,78.1780014038086 166.218994140625,1.371000051498413 166.218994140625,1.371000051498413 C166.218994140625,1.371000051498413 254.49000549316406,1.0299999713897705 254.49000549316406,1.0299999713897705z"></path><path stroke-linecap="butt" stroke-linejoin="round" fill-opacity="0" stroke="rgb(128,225,217)" stroke-opacity="1" stroke-width="6" d=" M254.49000549316406,1.0299999713897705 C254.49000549316406,1.0299999713897705 209.77099609375,77.5979995727539 209.77099609375,77.5979995727539 C209.77099609375,77.5979995727539 121.63899993896484,78.1780014038086 121.63899993896484,78.1780014038086 C121.63899993896484,78.1780014038086 166.218994140625,1.371000051498413 166.218994140625,1.371000051498413 C166.218994140625,1.371000051498413 254.49000549316406,1.0299999713897705 254.49000549316406,1.0299999713897705z"></path></g></g><g transform="matrix(1,0,0,1,750,750)" opacity="1" style="display: none;"><g opacity="1" transform="matrix(1,0,0,1,0,0)"><path fill="rgb(31,31,36)" fill-opacity="1" d=" M5.703000068664551,145.37899780273438 C5.703000068664551,145.37899780273438 -38.23400115966797,221.4929962158203 -38.23400115966797,221.4929962158203 C-38.23400115966797,221.4929962158203 -127.14099884033203,222.5229949951172 -127.14099884033203,222.5229949951172 C-127.14099884033203,222.5229949951172 -83.34600067138672,146.17300415039062 -83.34600067138672,146.17300415039062 C-83.34600067138672,146.17300415039062 5.703000068664551,145.37899780273438 5.703000068664551,145.37899780273438z"></path><path stroke-linecap="butt" stroke-linejoin="round" fill-opacity="0" stroke="rgb(128,225,217)" stroke-opacity="1" stroke-width="6" d=" M5.703000068664551,145.37899780273438 C5.703000068664551,145.37899780273438 -38.23400115966797,221.4929962158203 -38.23400115966797,221.4929962158203 C-38.23400115966797,221.4929962158203 -127.14099884033203,222.5229949951172 -127.14099884033203,222.5229949951172 C-127.14099884033203,222.5229949951172 -83.34600067138672,146.17300415039062 -83.34600067138672,146.17300415039062 C-83.34600067138672,146.17300415039062 5.703000068664551,145.37899780273438 5.703000068664551,145.37899780273438z"></path></g></g><g transform="matrix(1,0,0,1,750,750)" opacity="1" style="display: none;"><g opacity="1" transform="matrix(1,0,0,1,0,0)"><path fill="rgb(31,31,36)" fill-opacity="1" d=" M164.38299560546875,0.6539999842643738 C164.38299560546875,0.6539999842643738 81.8010025024414,142.9530029296875 81.8010025024414,142.9530029296875 C81.8010025024414,142.9530029296875 -83.17500305175781,144.4149932861328 -83.17500305175781,144.4149932861328 C-83.17500305175781,144.4149932861328 -1.0820000171661377,1.2899999618530273 -1.0820000171661377,1.2899999618530273 C-1.0820000171661377,1.2899999618530273 164.38299560546875,0.6539999842643738 164.38299560546875,0.6539999842643738z"></path><path stroke-linecap="butt" stroke-linejoin="round" fill-opacity="0" stroke="rgb(128,225,217)" stroke-opacity="1" stroke-width="6" d=" M164.38299560546875,0.6539999842643738 C164.38299560546875,0.6539999842643738 81.8010025024414,142.9530029296875 81.8010025024414,142.9530029296875 C81.8010025024414,142.9530029296875 -83.17500305175781,144.4149932861328 -83.17500305175781,144.4149932861328 C-83.17500305175781,144.4149932861328 -1.0820000171661377,1.2899999618530273 -1.0820000171661377,1.2899999618530273 C-1.0820000171661377,1.2899999618530273 164.38299560546875,0.6539999842643738 164.38299560546875,0.6539999842643738z"></path></g></g><g transform="matrix(1,0,0,1,750,750)" opacity="1" style="display: none;"><g opacity="1" transform="matrix(1,0,0,1,0,0)"><path fill="rgb(31,31,36)" fill-opacity="1" d=" M-167.05099487304688,1.2730000019073486 C-167.05099487304688,1.2730000019073486 -210.32699584960938,77.63200378417969 -210.32699584960938,77.63200378417969 C-210.32699584960938,77.63200378417969 -253.72500610351562,1.2660000324249268 -253.72500610351562,1.2660000324249268 C-253.72500610351562,1.2660000324249268 -210.718994140625,-75.09400177001953 -210.718994140625,-75.09400177001953 C-210.718994140625,-75.09400177001953 -167.05099487304688,1.2730000019073486 -167.05099487304688,1.2730000019073486z"></path><path stroke-linecap="butt" stroke-linejoin="round" fill-opacity="0" stroke="rgb(128,225,217)" stroke-opacity="1" stroke-width="6" d=" M-167.05099487304688,1.2730000019073486 C-167.05099487304688,1.2730000019073486 -210.32699584960938,77.63200378417969 -210.32699584960938,77.63200378417969 C-210.32699584960938,77.63200378417969 -253.72500610351562,1.2660000324249268 -253.72500610351562,1.2660000324249268 C-253.72500610351562,1.2660000324249268 -210.718994140625,-75.09400177001953 -210.718994140625,-75.09400177001953 C-210.718994140625,-75.09400177001953 -167.05099487304688,1.2730000019073486 -167.05099487304688,1.2730000019073486z"></path></g></g><g transform="matrix(1,0,0,1,750,750)" opacity="1" style="display: none;"><g opacity="1" transform="matrix(1,0,0,1,0,0)"><path fill="rgb(31,31,36)" fill-opacity="1" d=" M-85.34500122070312,-142.89300537109375 C-85.34500122070312,-142.89300537109375 -129.13299560546875,-65.63099670410156 -129.13299560546875,-65.63099670410156 C-129.13299560546875,-65.63099670410156 -173.03900146484375,-141.9980010986328 -173.03900146484375,-141.9980010986328 C-173.03900146484375,-141.9980010986328 -129.5260009765625,-219.25799560546875 -129.5260009765625,-219.25799560546875 C-129.5260009765625,-219.25799560546875 -85.34500122070312,-142.89300537109375 -85.34500122070312,-142.89300537109375z"></path><path stroke-linecap="butt" stroke-linejoin="round" fill-opacity="0" stroke="rgb(128,225,217)" stroke-opacity="1" stroke-width="6" d=" M-85.34500122070312,-142.89300537109375 C-85.34500122070312,-142.89300537109375 -129.13299560546875,-65.63099670410156 -129.13299560546875,-65.63099670410156 C-129.13299560546875,-65.63099670410156 -173.03900146484375,-141.9980010986328 -173.03900146484375,-141.9980010986328 C-173.03900146484375,-141.9980010986328 -129.5260009765625,-219.25799560546875 -129.5260009765625,-219.25799560546875 C-129.5260009765625,-219.25799560546875 -85.34500122070312,-142.89300537109375 -85.34500122070312,-142.89300537109375z"></path></g></g><g transform="matrix(1,0,0,1,750,750)" opacity="1" style="display: none;"><g opacity="1" transform="matrix(1,0,0,1,0,0)"><path fill="rgb(31,31,36)" fill-opacity="1" d=" M-84.60800170898438,145.44900512695312 C-84.60800170898438,145.44900512695312 -128.3979949951172,221.80099487304688 -128.3979949951172,221.80099487304688 C-128.3979949951172,221.80099487304688 -172.30499267578125,144.53900146484375 -172.30499267578125,144.53900146484375 C-172.30499267578125,144.53900146484375 -128.7899932861328,68.18299865722656 -128.7899932861328,68.18299865722656 C-128.7899932861328,68.18299865722656 -84.60800170898438,145.44900512695312 -84.60800170898438,145.44900512695312z"></path><path stroke-linecap="butt" stroke-linejoin="round" fill-opacity="0" stroke="rgb(128,225,217)" stroke-opacity="1" stroke-width="6" d=" M-84.60800170898438,145.44900512695312 C-84.60800170898438,145.44900512695312 -128.3979949951172,221.80099487304688 -128.3979949951172,221.80099487304688 C-128.3979949951172,221.80099487304688 -172.30499267578125,144.53900146484375 -172.30499267578125,144.53900146484375 C-172.30499267578125,144.53900146484375 -128.7899932861328,68.18299865722656 -128.7899932861328,68.18299865722656 C-128.7899932861328,68.18299865722656 -84.60800170898438,145.44900512695312 -84.60800170898438,145.44900512695312z"></path></g></g><g transform="matrix(1,0,0,1,750,750)" opacity="1" style="display: none;"><g opacity="1" transform="matrix(1,0,0,1,0,0)"><path fill="rgb(31,31,36)" fill-opacity="1" d=" M-1.0870000123977661,1.2869999408721924 C-1.0870000123977661,1.2869999408721924 -83.1780014038086,144.41400146484375 -83.1780014038086,144.41400146484375 C-83.1780014038086,144.41400146484375 -165.0399932861328,1.2730000019073486 -165.0399932861328,1.2730000019073486 C-165.0399932861328,1.2730000019073486 -83.90899658203125,-141.85800170898438 -83.90899658203125,-141.85800170898438 C-83.90899658203125,-141.85800170898438 -1.0870000123977661,1.2869999408721924 -1.0870000123977661,1.2869999408721924z"></path><path stroke-linecap="butt" stroke-linejoin="round" fill-opacity="0" stroke="rgb(128,225,217)" stroke-opacity="1" stroke-width="6" d=" M-1.0870000123977661,1.2869999408721924 C-1.0870000123977661,1.2869999408721924 -83.1780014038086,144.41400146484375 -83.1780014038086,144.41400146484375 C-83.1780014038086,144.41400146484375 -165.0399932861328,1.2730000019073486 -165.0399932861328,1.2730000019073486 C-165.0399932861328,1.2730000019073486 -83.90899658203125,-141.85800170898438 -83.90899658203125,-141.85800170898438 C-83.90899658203125,-141.85800170898438 -1.0870000123977661,1.2869999408721924 -1.0870000123977661,1.2869999408721924z"></path></g></g><g transform="matrix(1,0,0,1,750,750)" opacity="1" style="display: none;"><g opacity="1" transform="matrix(1,0,0,1,0,0)"><path fill="rgb(31,31,36)" fill-opacity="1" d=" M294.7829895019531,566.35498046875 C294.7829895019531,566.35498046875 294.7829895019531,566.35498046875 294.7829895019531,566.35498046875 C294.7829895019531,566.35498046875 294.7829895019531,566.35498046875 294.7829895019531,566.35498046875 C294.7829895019531,566.35498046875 294.7829895019531,566.35498046875 294.7829895019531,566.35498046875 C294.7829895019531,566.35498046875 294.7829895019531,566.35498046875 294.7829895019531,566.35498046875z"></path><path stroke-linecap="butt" stroke-linejoin="round" fill-opacity="0" stroke="rgb(248,188,59)" stroke-opacity="1" stroke-width="6" d=" M294.7829895019531,566.35498046875 C294.7829895019531,566.35498046875 294.7829895019531,566.35498046875 294.7829895019531,566.35498046875 C294.7829895019531,566.35498046875 294.7829895019531,566.35498046875 294.7829895019531,566.35498046875 C294.7829895019531,566.35498046875 294.7829895019531,566.35498046875 294.7829895019531,566.35498046875 C294.7829895019531,566.35498046875 294.7829895019531,566.35498046875 294.7829895019531,566.35498046875z"></path></g></g><g transform="matrix(1,0,0,1,750,750)" opacity="1" style="display: none;"><g opacity="1" transform="matrix(1,0,0,1,0,0)"><path fill="rgb(31,31,36)" fill-opacity="1" d=" M294.7820129394531,566.35498046875 C294.7820129394531,566.35498046875 294.7820129394531,566.35498046875 294.7820129394531,566.35498046875 C294.7820129394531,566.35498046875 294.7820129394531,566.35498046875 294.7820129394531,566.35498046875 C294.7820129394531,566.35498046875 294.7820129394531,566.35498046875 294.7820129394531,566.35498046875 C294.7820129394531,566.35498046875 294.7820129394531,566.35498046875 294.7820129394531,566.35498046875z"></path><path stroke-linecap="butt" stroke-linejoin="round" fill-opacity="0" stroke="rgb(248,188,59)" stroke-opacity="1" stroke-width="6" d=" M294.7820129394531,566.35498046875 C294.7820129394531,566.35498046875 294.7820129394531,566.35498046875 294.7820129394531,566.35498046875 C294.7820129394531,566.35498046875 294.7820129394531,566.35498046875 294.7820129394531,566.35498046875 C294.7820129394531,566.35498046875 294.7820129394531,566.35498046875 294.7820129394531,566.35498046875 C294.7820129394531,566.35498046875 294.7820129394531,566.35498046875 294.7820129394531,566.35498046875z"></path></g></g><g transform="matrix(1,0,0,1,750,750)" opacity="1" style="display: none;"><g opacity="1" transform="matrix(1,0,0,1,0,0)"><path fill="rgb(31,31,36)" fill-opacity="1" d=" M228.11199951171875,535.3670043945312 C228.11199951171875,535.3670043945312 228.11199951171875,535.3670043945312 228.11199951171875,535.3670043945312 C228.11199951171875,535.3670043945312 228.11199951171875,535.3670043945312 228.11199951171875,535.3670043945312 C228.11199951171875,535.3670043945312 228.11199951171875,535.3670043945312 228.11199951171875,535.3670043945312 C228.11199951171875,535.3670043945312 228.11199951171875,535.3670043945312 228.11199951171875,535.3670043945312z"></path><path stroke-linecap="butt" stroke-linejoin="round" fill-opacity="0" stroke="rgb(248,188,59)" stroke-opacity="1" stroke-width="6" d=" M228.11199951171875,535.3670043945312 C228.11199951171875,535.3670043945312 228.11199951171875,535.3670043945312 228.11199951171875,535.3670043945312 C228.11199951171875,535.3670043945312 228.11199951171875,535.3670043945312 228.11199951171875,535.3670043945312 C228.11199951171875,535.3670043945312 228.11199951171875,535.3670043945312 228.11199951171875,535.3670043945312 C228.11199951171875,535.3670043945312 228.11199951171875,535.3670043945312 228.11199951171875,535.3670043945312z"></path></g></g><g transform="matrix(1,0,0,1,750,750)" opacity="1" style="display: none;"><g opacity="1" transform="matrix(1,0,0,1,0,0)"><path fill="rgb(31,31,36)" fill-opacity="1" d=" M228.11199951171875,535.3660278320312 C228.11199951171875,535.3660278320312 228.11199951171875,535.3660278320312 228.11199951171875,535.3660278320312 C228.11199951171875,535.3660278320312 228.11199951171875,535.3660278320312 228.11199951171875,535.3660278320312 C228.11199951171875,535.3660278320312 228.11199951171875,535.3660278320312 228.11199951171875,535.3660278320312 C228.11199951171875,535.3660278320312 228.11199951171875,535.3660278320312 228.11199951171875,535.3660278320312z"></path><path stroke-linecap="butt" stroke-linejoin="round" fill-opacity="0" stroke="rgb(248,188,59)" stroke-opacity="1" stroke-width="6" d=" M228.11199951171875,535.3660278320312 C228.11199951171875,535.3660278320312 228.11199951171875,535.3660278320312 228.11199951171875,535.3660278320312 C228.11199951171875,535.3660278320312 228.11199951171875,535.3660278320312 228.11199951171875,535.3660278320312 C228.11199951171875,535.3660278320312 228.11199951171875,535.3660278320312 228.11199951171875,535.3660278320312 C228.11199951171875,535.3660278320312 228.11199951171875,535.3660278320312 228.11199951171875,535.3660278320312z"></path></g></g><g transform="matrix(1,0,0,1,750,750)" opacity="1" style="display: none;"><g opacity="1" transform="matrix(1,0,0,1,0,0)"><path fill="rgb(31,31,36)" fill-opacity="1" d=" M139.49400329589844,520.3209838867188 C139.49400329589844,520.3209838867188 139.49400329589844,520.3209838867188 139.49400329589844,520.3209838867188 C139.49400329589844,520.3209838867188 139.49400329589844,520.3209838867188 139.49400329589844,520.3209838867188 C139.49400329589844,520.3209838867188 139.49400329589844,520.3209838867188 139.49400329589844,520.3209838867188 C139.49400329589844,520.3209838867188 139.49400329589844,520.3209838867188 139.49400329589844,520.3209838867188z"></path><path stroke-linecap="butt" stroke-linejoin="round" fill-opacity="0" stroke="rgb(248,188,59)" stroke-opacity="1" stroke-width="6" d=" M139.49400329589844,520.3209838867188 C139.49400329589844,520.3209838867188 139.49400329589844,520.3209838867188 139.49400329589844,520.3209838867188 C139.49400329589844,520.3209838867188 139.49400329589844,520.3209838867188 139.49400329589844,520.3209838867188 C139.49400329589844,520.3209838867188 139.49400329589844,520.3209838867188 139.49400329589844,520.3209838867188 C139.49400329589844,520.3209838867188 139.49400329589844,520.3209838867188 139.49400329589844,520.3209838867188z"></path></g></g><g transform="matrix(1,0,0,1,750,750)" opacity="1" style="display: none;"><g opacity="1" transform="matrix(1,0,0,1,0,0)"><path fill="rgb(31,31,36)" fill-opacity="1" d=" M139.49400329589844,520.3200073242188 C139.49400329589844,520.3200073242188 139.49400329589844,520.3200073242188 139.49400329589844,520.3200073242188 C139.49400329589844,520.3200073242188 139.49400329589844,520.3200073242188 139.49400329589844,520.3200073242188 C139.49400329589844,520.3200073242188 139.49400329589844,520.3200073242188 139.49400329589844,520.3200073242188 C139.49400329589844,520.3200073242188 139.49400329589844,520.3200073242188 139.49400329589844,520.3200073242188z"></path><path stroke-linecap="butt" stroke-linejoin="round" fill-opacity="0" stroke="rgb(248,188,59)" stroke-opacity="1" stroke-width="6" d=" M139.49400329589844,520.3200073242188 C139.49400329589844,520.3200073242188 139.49400329589844,520.3200073242188 139.49400329589844,520.3200073242188 C139.49400329589844,520.3200073242188 139.49400329589844,520.3200073242188 139.49400329589844,520.3200073242188 C139.49400329589844,520.3200073242188 139.49400329589844,520.3200073242188 139.49400329589844,520.3200073242188 C139.49400329589844,520.3200073242188 139.49400329589844,520.3200073242188 139.49400329589844,520.3200073242188z"></path></g></g><g transform="matrix(1,0,0,1,750,750)" opacity="1" style="display: none;"><g opacity="1" transform="matrix(1,0,0,1,0,0)"><path fill="rgb(31,31,36)" fill-opacity="1" d=" M122.23699951171875,495.0570068359375 C122.23699951171875,495.0570068359375 122.23699951171875,495.0570068359375 122.23699951171875,495.0570068359375 C122.23699951171875,495.0570068359375 122.23699951171875,495.0570068359375 122.23699951171875,495.0570068359375 C122.23699951171875,495.0570068359375 122.23699951171875,495.0570068359375 122.23699951171875,495.0570068359375 C122.23699951171875,495.0570068359375 122.23699951171875,495.0570068359375 122.23699951171875,495.0570068359375z"></path><path stroke-linecap="butt" stroke-linejoin="round" fill-opacity="0" stroke="rgb(248,188,59)" stroke-opacity="1" stroke-width="6" d=" M122.23699951171875,495.0570068359375 C122.23699951171875,495.0570068359375 122.23699951171875,495.0570068359375 122.23699951171875,495.0570068359375 C122.23699951171875,495.0570068359375 122.23699951171875,495.0570068359375 122.23699951171875,495.0570068359375 C122.23699951171875,495.0570068359375 122.23699951171875,495.0570068359375 122.23699951171875,495.0570068359375 C122.23699951171875,495.0570068359375 122.23699951171875,495.0570068359375 122.23699951171875,495.0570068359375z"></path></g></g><g transform="matrix(1,0,0,1,750,750)" opacity="1" style="display: none;"><g opacity="1" transform="matrix(1,0,0,1,0,0)"><path fill="rgb(31,31,36)" fill-opacity="1" d=" M122.23699951171875,495.0559997558594 C122.23699951171875,495.0559997558594 122.23699951171875,495.0559997558594 122.23699951171875,495.0559997558594 C122.23699951171875,495.0559997558594 122.23699951171875,495.0559997558594 122.23699951171875,495.0559997558594 C122.23699951171875,495.0559997558594 122.23699951171875,495.0559997558594 122.23699951171875,495.0559997558594 C122.23699951171875,495.0559997558594 122.23699951171875,495.0559997558594 122.23699951171875,495.0559997558594z"></path><path stroke-linecap="butt" stroke-linejoin="round" fill-opacity="0" stroke="rgb(248,188,59)" stroke-opacity="1" stroke-width="6" d=" M122.23699951171875,495.0559997558594 C122.23699951171875,495.0559997558594 122.23699951171875,495.0559997558594 122.23699951171875,495.0559997558594 C122.23699951171875,495.0559997558594 122.23699951171875,495.0559997558594 122.23699951171875,495.0559997558594 C122.23699951171875,495.0559997558594 122.23699951171875,495.0559997558594 122.23699951171875,495.0559997558594 C122.23699951171875,495.0559997558594 122.23699951171875,495.0559997558594 122.23699951171875,495.0559997558594z"></path></g></g><g transform="matrix(1,0,0,1,750,750)" opacity="1" style="display: none;"><g opacity="1" transform="matrix(1,0,0,1,0,0)"><path fill="rgb(31,31,36)" fill-opacity="1" d=" M40.4010009765625,496.4209899902344 C40.4010009765625,496.4209899902344 40.4010009765625,496.4209899902344 40.4010009765625,496.4209899902344 C40.4010009765625,496.4209899902344 40.4010009765625,496.4209899902344 40.4010009765625,496.4209899902344 C40.4010009765625,496.4209899902344 40.4010009765625,496.4209899902344 40.4010009765625,496.4209899902344 C40.4010009765625,496.4209899902344 40.4010009765625,496.4209899902344 40.4010009765625,496.4209899902344z"></path><path stroke-linecap="butt" stroke-linejoin="round" fill-opacity="0" stroke="rgb(248,188,59)" stroke-opacity="1" stroke-width="6" d=" M40.4010009765625,496.4209899902344 C40.4010009765625,496.4209899902344 40.4010009765625,496.4209899902344 40.4010009765625,496.4209899902344 C40.4010009765625,496.4209899902344 40.4010009765625,496.4209899902344 40.4010009765625,496.4209899902344 C40.4010009765625,496.4209899902344 40.4010009765625,496.4209899902344 40.4010009765625,496.4209899902344 C40.4010009765625,496.4209899902344 40.4010009765625,496.4209899902344 40.4010009765625,496.4209899902344z"></path></g></g><g transform="matrix(1,0,0,1,750,750)" opacity="1" style="display: none;"><g opacity="1" transform="matrix(1,0,0,1,0,0)"><path fill="rgb(31,31,36)" fill-opacity="1" d=" M40.400001525878906,496.4200134277344 C40.400001525878906,496.4200134277344 40.400001525878906,496.4200134277344 40.400001525878906,496.4200134277344 C40.400001525878906,496.4200134277344 40.400001525878906,496.4200134277344 40.400001525878906,496.4200134277344 C40.400001525878906,496.4200134277344 40.400001525878906,496.4200134277344 40.400001525878906,496.4200134277344 C40.400001525878906,496.4200134277344 40.400001525878906,496.4200134277344 40.400001525878906,496.4200134277344z"></path><path stroke-linecap="butt" stroke-linejoin="round" fill-opacity="0" stroke="rgb(248,188,59)" stroke-opacity="1" stroke-width="6" d=" M40.400001525878906,496.4200134277344 C40.400001525878906,496.4200134277344 40.400001525878906,496.4200134277344 40.400001525878906,496.4200134277344 C40.400001525878906,496.4200134277344 40.400001525878906,496.4200134277344 40.400001525878906,496.4200134277344 C40.400001525878906,496.4200134277344 40.400001525878906,496.4200134277344 40.400001525878906,496.4200134277344 C40.400001525878906,496.4200134277344 40.400001525878906,496.4200134277344 40.400001525878906,496.4200134277344z"></path></g></g><g transform="matrix(1,0,0,1,750,750)" opacity="1" style="display: none;"><g opacity="1" transform="matrix(1,0,0,1,0,0)"><path fill="rgb(31,31,36)" fill-opacity="1" d=" M-40.220001220703125,497.5469970703125 C-40.220001220703125,497.5469970703125 -40.220001220703125,497.5469970703125 -40.220001220703125,497.5469970703125 C-40.220001220703125,497.5469970703125 -40.220001220703125,497.5469970703125 -40.220001220703125,497.5469970703125 C-40.220001220703125,497.5469970703125 -40.220001220703125,497.5469970703125 -40.220001220703125,497.5469970703125 C-40.220001220703125,497.5469970703125 -40.220001220703125,497.5469970703125 -40.220001220703125,497.5469970703125z"></path><path stroke-linecap="butt" stroke-linejoin="round" fill-opacity="0" stroke="rgb(248,188,59)" stroke-opacity="1" stroke-width="6" d=" M-40.220001220703125,497.5469970703125 C-40.220001220703125,497.5469970703125 -40.220001220703125,497.5469970703125 -40.220001220703125,497.5469970703125 C-40.220001220703125,497.5469970703125 -40.220001220703125,497.5469970703125 -40.220001220703125,497.5469970703125 C-40.220001220703125,497.5469970703125 -40.220001220703125,497.5469970703125 -40.220001220703125,497.5469970703125 C-40.220001220703125,497.5469970703125 -40.220001220703125,497.5469970703125 -40.220001220703125,497.5469970703125z"></path></g></g><g transform="matrix(1,0,0,1,750,750)" opacity="1" style="display: none;"><g opacity="1" transform="matrix(1,0,0,1,0,0)"><path fill="rgb(31,31,36)" fill-opacity="1" d=" M-40.220001220703125,497.5459899902344 C-40.220001220703125,497.5459899902344 -40.220001220703125,497.5459899902344 -40.220001220703125,497.5459899902344 C-40.220001220703125,497.5459899902344 -40.220001220703125,497.5459899902344 -40.220001220703125,497.5459899902344 C-40.220001220703125,497.5459899902344 -40.220001220703125,497.5459899902344 -40.220001220703125,497.5459899902344 C-40.220001220703125,497.5459899902344 -40.220001220703125,497.5459899902344 -40.220001220703125,497.5459899902344z"></path><path stroke-linecap="butt" stroke-linejoin="round" fill-opacity="0" stroke="rgb(248,188,59)" stroke-opacity="1" stroke-width="6" d=" M-40.220001220703125,497.5459899902344 C-40.220001220703125,497.5459899902344 -40.220001220703125,497.5459899902344 -40.220001220703125,497.5459899902344 C-40.220001220703125,497.5459899902344 -40.220001220703125,497.5459899902344 -40.220001220703125,497.5459899902344 C-40.220001220703125,497.5459899902344 -40.220001220703125,497.5459899902344 -40.220001220703125,497.5459899902344 C-40.220001220703125,497.5459899902344 -40.220001220703125,497.5459899902344 -40.220001220703125,497.5459899902344z"></path></g></g><g transform="matrix(1,0,0,1,750,750)" opacity="1" style="display: none;"><g opacity="1" transform="matrix(1,0,0,1,0,0)"><path fill="rgb(31,31,36)" fill-opacity="1" d=" M-109.40299987792969,499.531005859375 C-109.40299987792969,499.531005859375 -116.22599792480469,511.3909912109375 -116.22599792480469,511.3909912109375 C-116.22599792480469,511.3909912109375 -130.2449951171875,511.6409912109375 -130.2449951171875,511.6409912109375 C-130.2449951171875,511.6409912109375 -123.4260025024414,499.7749938964844 -123.4260025024414,499.7749938964844 C-123.4260025024414,499.7749938964844 -109.40299987792969,499.531005859375 -109.40299987792969,499.531005859375z"></path><path stroke-linecap="butt" stroke-linejoin="round" fill-opacity="0" stroke="rgb(248,188,59)" stroke-opacity="1" stroke-width="6" d=" M-109.40299987792969,499.531005859375 C-109.40299987792969,499.531005859375 -116.22599792480469,511.3909912109375 -116.22599792480469,511.3909912109375 C-116.22599792480469,511.3909912109375 -130.2449951171875,511.6409912109375 -130.2449951171875,511.6409912109375 C-130.2449951171875,511.6409912109375 -123.4260025024414,499.7749938964844 -123.4260025024414,499.7749938964844 C-123.4260025024414,499.7749938964844 -109.40299987792969,499.531005859375 -109.40299987792969,499.531005859375z"></path></g></g><g transform="matrix(1,0,0,1,750,750)" opacity="1" style="display: none;"><g opacity="1" transform="matrix(1,0,0,1,0,0)"><path fill="rgb(31,31,36)" fill-opacity="1" d=" M-101.66600036621094,486.0799865722656 C-101.66600036621094,486.0799865722656 -108.49600219726562,497.9530029296875 -108.49600219726562,497.9530029296875 C-108.49600219726562,497.9530029296875 -122.5199966430664,498.1960144042969 -122.5199966430664,498.1960144042969 C-122.5199966430664,498.1960144042969 -115.69300079345703,486.3179931640625 -115.69300079345703,486.3179931640625 C-115.69300079345703,486.3179931640625 -101.66600036621094,486.0799865722656 -101.66600036621094,486.0799865722656z"></path><path stroke-linecap="butt" stroke-linejoin="round" fill-opacity="0" stroke="rgb(248,188,59)" stroke-opacity="1" stroke-width="6" d=" M-101.66600036621094,486.0799865722656 C-101.66600036621094,486.0799865722656 -108.49600219726562,497.9530029296875 -108.49600219726562,497.9530029296875 C-108.49600219726562,497.9530029296875 -122.5199966430664,498.1960144042969 -122.5199966430664,498.1960144042969 C-122.5199966430664,498.1960144042969 -115.69300079345703,486.3179931640625 -115.69300079345703,486.3179931640625 C-115.69300079345703,486.3179931640625 -101.66600036621094,486.0799865722656 -101.66600036621094,486.0799865722656z"></path></g></g><g transform="matrix(1,0,0,1,750,750)" opacity="1" style="display: none;"><g opacity="1" transform="matrix(1,0,0,1,0,0)"><path fill="rgb(31,31,36)" fill-opacity="1" d=" M-140.23500061035156,471.75799560546875 C-140.23500061035156,471.75799560546875 -140.23500061035156,471.75799560546875 -140.23500061035156,471.75799560546875 C-140.23500061035156,471.75799560546875 -140.23500061035156,471.75799560546875 -140.23500061035156,471.75799560546875 C-140.23500061035156,471.75799560546875 -140.23500061035156,471.75799560546875 -140.23500061035156,471.75799560546875 C-140.23500061035156,471.75799560546875 -140.23500061035156,471.75799560546875 -140.23500061035156,471.75799560546875z"></path><path stroke-linecap="butt" stroke-linejoin="round" fill-opacity="0" stroke="rgb(248,188,59)" stroke-opacity="1" stroke-width="6" d=" M-140.23500061035156,471.75799560546875 C-140.23500061035156,471.75799560546875 -140.23500061035156,471.75799560546875 -140.23500061035156,471.75799560546875 C-140.23500061035156,471.75799560546875 -140.23500061035156,471.75799560546875 -140.23500061035156,471.75799560546875 C-140.23500061035156,471.75799560546875 -140.23500061035156,471.75799560546875 -140.23500061035156,471.75799560546875 C-140.23500061035156,471.75799560546875 -140.23500061035156,471.75799560546875 -140.23500061035156,471.75799560546875z"></path></g></g><g transform="matrix(1,0,0,1,750,750)" opacity="1" style="display: none;"><g opacity="1" transform="matrix(1,0,0,1,0,0)"><path fill="rgb(31,31,36)" fill-opacity="1" d=" M-139.5679931640625,469.8210144042969 C-139.5679931640625,469.8210144042969 -139.5679931640625,469.8210144042969 -139.5679931640625,469.8210144042969 C-139.5679931640625,469.8210144042969 -139.5679931640625,469.8210144042969 -139.5679931640625,469.8210144042969 C-139.5679931640625,469.8210144042969 -139.5679931640625,469.8210144042969 -139.5679931640625,469.8210144042969 C-139.5679931640625,469.8210144042969 -139.5679931640625,469.8210144042969 -139.5679931640625,469.8210144042969z"></path><path stroke-linecap="butt" stroke-linejoin="round" fill-opacity="0" stroke="rgb(248,188,59)" stroke-opacity="1" stroke-width="6" d=" M-139.5679931640625,469.8210144042969 C-139.5679931640625,469.8210144042969 -139.5679931640625,469.8210144042969 -139.5679931640625,469.8210144042969 C-139.5679931640625,469.8210144042969 -139.5679931640625,469.8210144042969 -139.5679931640625,469.8210144042969 C-139.5679931640625,469.8210144042969 -139.5679931640625,469.8210144042969 -139.5679931640625,469.8210144042969 C-139.5679931640625,469.8210144042969 -139.5679931640625,469.8210144042969 -139.5679931640625,469.8210144042969z"></path></g></g><g transform="matrix(1,0,0,1,750,750)" opacity="1" style="display: none;"><g opacity="1" transform="matrix(1,0,0,1,0,0)"><path fill="rgb(31,31,36)" fill-opacity="1" d=" M-161.05799865722656,471.135986328125 C-161.05799865722656,471.135986328125 -183.21299743652344,535.4639892578125 -183.21299743652344,535.4639892578125 C-183.21299743652344,535.4639892578125 -245.93099975585938,536.6320190429688 -245.93099975585938,536.6320190429688 C-245.93099975585938,536.6320190429688 -223.82899475097656,472.1659851074219 -223.82899475097656,472.1659851074219 C-223.82899475097656,472.1659851074219 -161.05799865722656,471.135986328125 -161.05799865722656,471.135986328125z"></path><path stroke-linecap="butt" stroke-linejoin="round" fill-opacity="0" stroke="rgb(248,188,59)" stroke-opacity="1" stroke-width="6" d=" M-161.05799865722656,471.135986328125 C-161.05799865722656,471.135986328125 -183.21299743652344,535.4639892578125 -183.21299743652344,535.4639892578125 C-183.21299743652344,535.4639892578125 -245.93099975585938,536.6320190429688 -245.93099975585938,536.6320190429688 C-245.93099975585938,536.6320190429688 -223.82899475097656,472.1659851074219 -223.82899475097656,472.1659851074219 C-223.82899475097656,472.1659851074219 -161.05799865722656,471.135986328125 -161.05799865722656,471.135986328125z"></path></g></g><g transform="matrix(1,0,0,1,750,750)" opacity="1" style="display: none;"><g opacity="1" transform="matrix(1,0,0,1,0,0)"><path fill="rgb(31,31,36)" fill-opacity="1" d=" M-138.83299255371094,406.60198974609375 C-138.83299255371094,406.60198974609375 -161.0590057373047,471.135986328125 -161.0590057373047,471.135986328125 C-161.0590057373047,471.135986328125 -223.82899475097656,472.1650085449219 -223.82899475097656,472.1650085449219 C-223.82899475097656,472.1650085449219 -201.656005859375,407.49200439453125 -201.656005859375,407.49200439453125 C-201.656005859375,407.49200439453125 -138.83299255371094,406.60198974609375 -138.83299255371094,406.60198974609375z"></path><path stroke-linecap="butt" stroke-linejoin="round" fill-opacity="0" stroke="rgb(248,188,59)" stroke-opacity="1" stroke-width="6" d=" M-138.83299255371094,406.60198974609375 C-138.83299255371094,406.60198974609375 -161.0590057373047,471.135986328125 -161.0590057373047,471.135986328125 C-161.0590057373047,471.135986328125 -223.82899475097656,472.1650085449219 -223.82899475097656,472.1650085449219 C-223.82899475097656,472.1650085449219 -201.656005859375,407.49200439453125 -201.656005859375,407.49200439453125 C-201.656005859375,407.49200439453125 -138.83299255371094,406.60198974609375 -138.83299255371094,406.60198974609375z"></path></g></g><g transform="matrix(1,0,0,1,750,750)" opacity="1" style="display: none;"><g opacity="1" transform="matrix(1,0,0,1,0,0)"><path fill="rgb(31,31,36)" fill-opacity="1" d=" M-260.60198974609375,431.7879943847656 C-260.60198974609375,431.7879943847656 -282.5870056152344,496.1470031738281 -282.5870056152344,496.1470031738281 C-282.5870056152344,496.1470031738281 -245.93099975585938,536.6320190429688 -245.93099975585938,536.6320190429688 C-245.93099975585938,536.6320190429688 -223.8280029296875,472.1650085449219 -223.8280029296875,472.1650085449219 C-223.8280029296875,472.1650085449219 -260.60198974609375,431.7879943847656 -260.60198974609375,431.7879943847656z"></path><path stroke-linecap="butt" stroke-linejoin="round" fill-opacity="0" stroke="rgb(248,188,59)" stroke-opacity="1" stroke-width="6" d=" M-260.60198974609375,431.7879943847656 C-260.60198974609375,431.7879943847656 -282.5870056152344,496.1470031738281 -282.5870056152344,496.1470031738281 C-282.5870056152344,496.1470031738281 -245.93099975585938,536.6320190429688 -245.93099975585938,536.6320190429688 C-245.93099975585938,536.6320190429688 -223.8280029296875,472.1650085449219 -223.8280029296875,472.1650085449219 C-223.8280029296875,472.1650085449219 -260.60198974609375,431.7879943847656 -260.60198974609375,431.7879943847656z"></path></g></g><g transform="matrix(1,0,0,1,750,750)" opacity="1" style="display: none;"><g opacity="1" transform="matrix(1,0,0,1,0,0)"><path fill="rgb(31,31,36)" fill-opacity="1" d=" M-238.5469970703125,367.22198486328125 C-238.5469970703125,367.22198486328125 -260.6029968261719,431.7879943847656 -260.6029968261719,431.7879943847656 C-260.6029968261719,431.7879943847656 -223.82899475097656,472.1650085449219 -223.82899475097656,472.1650085449219 C-223.82899475097656,472.1650085449219 -201.65499877929688,407.4909973144531 -201.65499877929688,407.4909973144531 C-201.65499877929688,407.4909973144531 -238.5469970703125,367.22198486328125 -238.5469970703125,367.22198486328125z"></path><path stroke-linecap="butt" stroke-linejoin="round" fill-opacity="0" stroke="rgb(248,188,59)" stroke-opacity="1" stroke-width="6" d=" M-238.5469970703125,367.22198486328125 C-238.5469970703125,367.22198486328125 -260.6029968261719,431.7879943847656 -260.6029968261719,431.7879943847656 C-260.6029968261719,431.7879943847656 -223.82899475097656,472.1650085449219 -223.82899475097656,472.1650085449219 C-223.82899475097656,472.1650085449219 -201.65499877929688,407.4909973144531 -201.65499877929688,407.4909973144531 C-201.65499877929688,407.4909973144531 -238.5469970703125,367.22198486328125 -238.5469970703125,367.22198486328125z"></path></g></g><g transform="matrix(1,0,0,1,750,750)" opacity="1" style="display: none;"><g opacity="1" transform="matrix(1,0,0,1,0,0)"><path fill="rgb(31,31,36)" fill-opacity="1" d=" M-272.989013671875,418.18701171875 C-272.989013671875,418.18701171875 -272.989013671875,418.18701171875 -272.989013671875,418.18701171875 C-272.989013671875,418.18701171875 -272.989013671875,418.18701171875 -272.989013671875,418.18701171875 C-272.989013671875,418.18701171875 -272.989013671875,418.18701171875 -272.989013671875,418.18701171875 C-272.989013671875,418.18701171875 -272.989013671875,418.18701171875 -272.989013671875,418.18701171875z"></path><path stroke-linecap="butt" stroke-linejoin="round" fill-opacity="0" stroke="rgb(248,188,59)" stroke-opacity="1" stroke-width="6" d=" M-272.989013671875,418.18701171875 C-272.989013671875,418.18701171875 -272.989013671875,418.18701171875 -272.989013671875,418.18701171875 C-272.989013671875,418.18701171875 -272.989013671875,418.18701171875 -272.989013671875,418.18701171875 C-272.989013671875,418.18701171875 -272.989013671875,418.18701171875 -272.989013671875,418.18701171875 C-272.989013671875,418.18701171875 -272.989013671875,418.18701171875 -272.989013671875,418.18701171875z"></path></g></g><g transform="matrix(1,0,0,1,750,750)" opacity="1" style="display: none;"><g opacity="1" transform="matrix(1,0,0,1,0,0)"><path fill="rgb(31,31,36)" fill-opacity="1" d=" M-272.989013671875,418.18701171875 C-272.989013671875,418.18701171875 -272.989013671875,418.18701171875 -272.989013671875,418.18701171875 C-272.989013671875,418.18701171875 -272.989013671875,418.18701171875 -272.989013671875,418.18701171875 C-272.989013671875,418.18701171875 -272.989013671875,418.18701171875 -272.989013671875,418.18701171875 C-272.989013671875,418.18701171875 -272.989013671875,418.18701171875 -272.989013671875,418.18701171875z"></path><path stroke-linecap="butt" stroke-linejoin="round" fill-opacity="0" stroke="rgb(248,188,59)" stroke-opacity="1" stroke-width="6" d=" M-272.989013671875,418.18701171875 C-272.989013671875,418.18701171875 -272.989013671875,418.18701171875 -272.989013671875,418.18701171875 C-272.989013671875,418.18701171875 -272.989013671875,418.18701171875 -272.989013671875,418.18701171875 C-272.989013671875,418.18701171875 -272.989013671875,418.18701171875 -272.989013671875,418.18701171875 C-272.989013671875,418.18701171875 -272.989013671875,418.18701171875 -272.989013671875,418.18701171875z"></path></g></g><g clip-path="url(#__lottie_element_70649)" transform="matrix(1,0,0,1,0,0)" opacity="1" style="display: block;"><g transform="matrix(1,0,0,1,746.68798828125,750)" opacity="1" style="display: block;"><path fill="rgb(120,86,255)" fill-opacity="1" d=" M0,-15 C8.278499603271484,-15 15,-8.278499603271484 15,0 C15,8.278499603271484 8.278499603271484,15 0,15 C-8.278499603271484,15 -15,8.278499603271484 -15,0 C-15,-8.278499603271484 -8.278499603271484,-15 0,-15z"></path><path stroke-linecap="butt" stroke-linejoin="miter" fill-opacity="0" stroke-miterlimit="4" stroke="rgb(31,31,36)" stroke-opacity="1" stroke-width="6" d=" M0,-15 C8.278499603271484,-15 15,-8.278499603271484 15,0 C15,8.278499603271484 8.278499603271484,15 0,15 C-8.278499603271484,15 -15,8.278499603271484 -15,0 C-15,-8.278499603271484 -8.278499603271484,-15 0,-15z"></path></g><g transform="matrix(1,0,0,1,108.5250015258789,755.18701171875)" opacity="1" style="display: none;"><path fill="rgb(120,86,255)" fill-opacity="1" d=" M0,-15 C8.278499603271484,-15 15,-8.278499603271484 15,0 C15,8.278499603271484 8.278499603271484,15 0,15 C-8.278499603271484,15 -15,8.278499603271484 -15,0 C-15,-8.278499603271484 -8.278499603271484,-15 0,-15z"></path><path stroke-linecap="butt" stroke-linejoin="miter" fill-opacity="0" stroke-miterlimit="4" stroke="rgb(31,31,36)" stroke-opacity="1" stroke-width="6" d=" M0,-15 C8.278499603271484,-15 15,-8.278499603271484 15,0 C15,8.278499603271484 8.278499603271484,15 0,15 C-8.278499603271484,15 -15,8.278499603271484 -15,0 C-15,-8.278499603271484 -8.278499603271484,-15 0,-15z"></path></g><g transform="matrix(1,0,0,1,1056.4329833984375,271.38299560546875)" opacity="1" style="display: none;"><path fill="rgb(120,86,255)" fill-opacity="1" d=" M0,-15 C8.278499603271484,-15 15,-8.278499603271484 15,0 C15,8.278499603271484 8.278499603271484,15 0,15 C-8.278499603271484,15 -15,8.278499603271484 -15,0 C-15,-8.278499603271484 -8.278499603271484,-15 0,-15z"></path><path stroke-linecap="butt" stroke-linejoin="miter" fill-opacity="0" stroke-miterlimit="4" stroke="rgb(31,31,36)" stroke-opacity="1" stroke-width="6" d=" M0,-15 C8.278499603271484,-15 15,-8.278499603271484 15,0 C15,8.278499603271484 8.278499603271484,15 0,15 C-8.278499603271484,15 -15,8.278499603271484 -15,0 C-15,-8.278499603271484 -8.278499603271484,-15 0,-15z"></path></g><g transform="matrix(1,0,0,1,1068.137939453125,190.83599853515625)" opacity="1" style="display: none;"><path fill="rgb(120,86,255)" fill-opacity="1" d=" M0,-15 C8.278499603271484,-15 15,-8.278499603271484 15,0 C15,8.278499603271484 8.278499603271484,15 0,15 C-8.278499603271484,15 -15,8.278499603271484 -15,0 C-15,-8.278499603271484 -8.278499603271484,-15 0,-15z"></path><path stroke-linecap="butt" stroke-linejoin="miter" fill-opacity="0" stroke-miterlimit="4" stroke="rgb(31,31,36)" stroke-opacity="1" stroke-width="6" d=" M0,-15 C8.278499603271484,-15 15,-8.278499603271484 15,0 C15,8.278499603271484 8.278499603271484,15 0,15 C-8.278499603271484,15 -15,8.278499603271484 -15,0 C-15,-8.278499603271484 -8.278499603271484,-15 0,-15z"></path></g><g transform="matrix(1,0,0,1,391.9590148925781,236.48199462890625)" opacity="1" style="display: none;"><path fill="rgb(248,188,59)" fill-opacity="1" d=" M0,-15 C8.278499603271484,-15 15,-8.278499603271484 15,0 C15,8.278499603271484 8.278499603271484,15 0,15 C-8.278499603271484,15 -15,8.278499603271484 -15,0 C-15,-8.278499603271484 -8.278499603271484,-15 0,-15z"></path><path stroke-linecap="butt" stroke-linejoin="miter" fill-opacity="0" stroke-miterlimit="4" stroke="rgb(31,31,36)" stroke-opacity="1" stroke-width="6" d=" M0,-15 C8.278499603271484,-15 15,-8.278499603271484 15,0 C15,8.278499603271484 8.278499603271484,15 0,15 C-8.278499603271484,15 -15,8.278499603271484 -15,0 C-15,-8.278499603271484 -8.278499603271484,-15 0,-15z"></path></g><g transform="matrix(1,0,0,1,1067.60400390625,1309.6319580078125)" opacity="1" style="display: none;"><path fill="rgb(248,188,59)" fill-opacity="1" d=" M0,-15 C8.278499603271484,-15 15,-8.278499603271484 15,0 C15,8.278499603271484 8.278499603271484,15 0,15 C-8.278499603271484,15 -15,8.278499603271484 -15,0 C-15,-8.278499603271484 -8.278499603271484,-15 0,-15z"></path><path stroke-linecap="butt" stroke-linejoin="miter" fill-opacity="0" stroke-miterlimit="4" stroke="rgb(31,31,36)" stroke-opacity="1" stroke-width="6" d=" M0,-15 C8.278499603271484,-15 15,-8.278499603271484 15,0 C15,8.278499603271484 8.278499603271484,15 0,15 C-8.278499603271484,15 -15,8.278499603271484 -15,0 C-15,-8.278499603271484 -8.278499603271484,-15 0,-15z"></path></g><g transform="matrix(1,0,0,1,418.5369873046875,1322.25)" opacity="1" style="display: block;"><path fill="rgb(255,117,87)" fill-opacity="1" d=" M0,-15 C8.278499603271484,-15 15,-8.278499603271484 15,0 C15,8.278499603271484 8.278499603271484,15 0,15 C-8.278499603271484,15 -15,8.278499603271484 -15,0 C-15,-8.278499603271484 -8.278499603271484,-15 0,-15z"></path><path stroke-linecap="butt" stroke-linejoin="miter" fill-opacity="0" stroke-miterlimit="4" stroke="rgb(31,31,36)" stroke-opacity="1" stroke-width="6" d=" M0,-15 C8.278499603271484,-15 15,-8.278499603271484 15,0 C15,8.278499603271484 8.278499603271484,15 0,15 C-8.278499603271484,15 -15,8.278499603271484 -15,0 C-15,-8.278499603271484 -8.278499603271484,-15 0,-15z"></path></g><g transform="matrix(1,0,0,1,1406.5350341796875,755.5360107421875)" opacity="1" style="display: none;"><path fill="rgb(255,117,87)" fill-opacity="1" d=" M0,-15 C8.278499603271484,-15 15,-8.278499603271484 15,0 C15,8.278499603271484 8.278499603271484,15 0,15 C-8.278499603271484,15 -15,8.278499603271484 -15,0 C-15,-8.278499603271484 -8.278499603271484,-15 0,-15z"></path><path stroke-linecap="butt" stroke-linejoin="miter" fill-opacity="0" stroke-miterlimit="4" stroke="rgb(31,31,36)" stroke-opacity="1" stroke-width="6" d=" M0,-15 C8.278499603271484,-15 15,-8.278499603271484 15,0 C15,8.278499603271484 8.278499603271484,15 0,15 C-8.278499603271484,15 -15,8.278499603271484 -15,0 C-15,-8.278499603271484 -8.278499603271484,-15 0,-15z"></path></g><g transform="matrix(1,0,0,1,1241.89404296875,1029.635009765625)" opacity="1" style="display: block;"><path fill="rgb(128,225,217)" fill-opacity="1" d=" M0,-15 C8.278499603271484,-15 15,-8.278499603271484 15,0 C15,8.278499603271484 8.278499603271484,15 0,15 C-8.278499603271484,15 -15,8.278499603271484 -15,0 C-15,-8.278499603271484 -8.278499603271484,-15 0,-15z"></path><path stroke-linecap="butt" stroke-linejoin="miter" fill-opacity="0" stroke-miterlimit="4" stroke="rgb(31,31,36)" stroke-opacity="1" stroke-width="6" d=" M0,-15 C8.278499603271484,-15 15,-8.278499603271484 15,0 C15,8.278499603271484 8.278499603271484,15 0,15 C-8.278499603271484,15 -15,8.278499603271484 -15,0 C-15,-8.278499603271484 -8.278499603271484,-15 0,-15z"></path></g><g transform="matrix(1,0,0,1,988.1259765625,1514.18994140625)" opacity="1" style="display: none;"><g opacity="1" transform="matrix(1,0,0,1,-175,-200)"><path fill="rgb(248,188,59)" fill-opacity="1" d=" M15,-15 C15,-15 15,15 15,15 C15,15 -15,15 -15,15 C-15,15 -15,-15 -15,-15 C-15,-15 15,-15 15,-15z"></path><path stroke-linecap="butt" stroke-linejoin="miter" fill-opacity="0" stroke-miterlimit="4" stroke="rgb(31,31,35)" stroke-opacity="1" stroke-width="6" d=" M15,-15 C15,-15 15,15 15,15 C15,15 -15,15 -15,15 C-15,15 -15,-15 -15,-15 C-15,-15 15,-15 15,-15z"></path></g></g><g transform="matrix(1,0,0,1,773.1680297851562,402.82501220703125)" opacity="1" style="display: none;"><g opacity="1" transform="matrix(1,0,0,1,-175,-200)"><path fill="rgb(248,188,59)" fill-opacity="1" d=" M15,-15 C15,-15 15,15 15,15 C15,15 -15,15 -15,15 C-15,15 -15,-15 -15,-15 C-15,-15 15,-15 15,-15z"></path><path stroke-linecap="butt" stroke-linejoin="miter" fill-opacity="0" stroke-miterlimit="4" stroke="rgb(31,31,35)" stroke-opacity="1" stroke-width="6" d=" M15,-15 C15,-15 15,15 15,15 C15,15 -15,15 -15,15 C-15,15 -15,-15 -15,-15 C-15,-15 15,-15 15,-15z"></path></g></g><g transform="matrix(1,0,0,1,1387.155029296875,949.5029907226562)" opacity="1" style="display: none;"><g opacity="1" transform="matrix(1,0,0,1,-175,-200)"><path fill="rgb(255,117,87)" fill-opacity="1" d=" M15,-15 C15,-15 15,15 15,15 C15,15 -15,15 -15,15 C-15,15 -15,-15 -15,-15 C-15,-15 15,-15 15,-15z"></path><path stroke-linecap="butt" stroke-linejoin="miter" fill-opacity="0" stroke-miterlimit="4" stroke="rgb(31,31,35)" stroke-opacity="1" stroke-width="6" d=" M15,-15 C15,-15 15,15 15,15 C15,15 -15,15 -15,15 C-15,15 -15,-15 -15,-15 C-15,-15 15,-15 15,-15z"></path></g></g></g></g></g></svg>