<?xml version="1.0" encoding="utf-8"?>
<!-- Generator: Adobe Illustrator 27.3.1, SVG Export Plug-In . SVG Version: 6.00 Build 0)  -->
<svg version="1.1" id="Layer_1" xmlns="http://www.w3.org/2000/svg" xmlns:xlink="http://www.w3.org/1999/xlink" x="0px" y="0px"
	 viewBox="0 0 1600 900" style="enable-background:new 0 0 1600 900;" xml:space="preserve">
<style type="text/css">
	.st0{fill:#ECE5FE;}
	.st1{fill:#343CFF;}
	.st2{fill:#2B83FF;}
	.st3{fill:#9269FF;}
	.st4{fill:#87FFD1;}
	.st5{fill:#2FE78E;}
	.st6{fill:#E8FFF4;}
	.st7{fill:#6833FA;}
	.st8{fill:none;stroke:#000000;stroke-width:0.5311;stroke-miterlimit:10;}
	.st9{fill:#E9E0FF;stroke:#000000;stroke-width:0.698;stroke-linejoin:round;stroke-miterlimit:10;}
	.st10{fill:#602FE7;stroke:#000000;stroke-width:0.698;stroke-linejoin:round;stroke-miterlimit:10;}
	.st11{fill:#9269FF;stroke:#000000;stroke-width:0.698;stroke-linejoin:round;stroke-miterlimit:10;}
	.st12{fill:none;stroke:#000000;stroke-width:0.698;stroke-linejoin:round;stroke-miterlimit:10;}
	.st13{fill:#DED1FF;}
	.st14{fill:#602FE7;stroke:#602FE7;stroke-width:0.698;stroke-linejoin:round;stroke-miterlimit:10;}
</style>
<polygon class="st0" points="0,-1.1 0,450.9 0,903 1600.2,903 1600.2,450.9 1600.2,-1.1 "/>
<g>
	<g>
		<path d="M299.5,209.7c0,2.8-0.5,5.3-1.6,7.4c-1,2.1-2.6,3.7-4.7,4.9c-2.1,1.2-4.6,1.7-7.5,1.7c-3,0-5.5-0.6-7.6-1.7
			c-2.1-1.2-3.6-2.8-4.7-4.9c-1.1-2.1-1.6-4.6-1.6-7.3v-35.5h-11.4v34.9c0,5.1,1,9.5,2.9,13.3s4.8,6.7,8.5,8.8
			c3.7,2.1,8.3,3.1,13.8,3.1c5.5,0,10.1-1,13.8-3.1c3.7-2.1,6.6-5,8.5-8.8c1.9-3.8,2.8-8.2,2.8-13.3v-34.9h-11.4V209.7z"/>
		<path d="M359.2,194.3c-1.8-2-3.9-3.6-6.4-4.7c-2.5-1.1-5.3-1.7-8.4-1.7c-3.4,0-6.4,0.7-9.1,2.2c-2.7,1.5-4.9,3.7-6.5,6.7
			c-0.6,1-1,2.1-1.4,3.3v-10.8h-8.8v59.6h11.2V227c1.6,2.3,3.5,4,5.8,5.2c2.7,1.4,5.7,2,8.9,2c3.1,0,5.9-0.6,8.4-1.7
			c2.5-1.1,4.7-2.8,6.5-4.8c1.8-2.1,3.2-4.4,4.1-7.1c0.9-2.7,1.4-5.6,1.4-8.8v-1.7c0-3.1-0.5-6-1.4-8.7
			C362.4,198.7,361,196.3,359.2,194.3z M352.1,218.1c-1,2.1-2.4,3.8-4.2,4.9c-1.8,1.2-3.9,1.8-6.3,1.8c-2.1,0-4.1-0.5-5.9-1.4
			c-1.9-1-3.4-2.3-4.6-4.1c-1.2-1.8-1.8-3.9-1.8-6.4v-3.2c0-2.6,0.6-4.9,1.7-6.7c1.1-1.9,2.6-3.3,4.5-4.3c1.8-1,3.9-1.4,6.1-1.4
			c2.4,0,4.5,0.6,6.3,1.7c1.8,1.2,3.2,2.7,4.2,4.8c1,2,1.5,4.4,1.5,7.2C353.6,213.6,353.1,216,352.1,218.1z"/>
		<polygon points="421.9,189.2 414,223.6 412.3,223.6 404.8,190.7 392,190.7 385.5,223.6 383.8,223.6 374.9,189.2 364,189.2 
			375.9,232.8 380.4,232.8 383.7,232.8 386.2,232.8 389.2,232.8 391.9,232.8 398.3,201.5 405.5,232.8 408.3,232.8 411.9,232.8 
			414.3,232.8 417.2,232.8 421.5,232.8 432,189.2 		"/>
		<path d="M461.6,190.3c-3-1.2-6.7-1.8-11.2-1.8c-1.4,0-3,0-4.6,0c-1.6,0-3.2,0.1-4.8,0.2c-1.6,0.1-2.9,0.2-4.2,0.3v9.5
			c1.5-0.1,3.2-0.2,5.1-0.3c1.9-0.1,3.8-0.1,5.7-0.2c1.9-0.1,3.5-0.1,4.8-0.1c2.6,0,4.5,0.6,5.7,1.8c1.2,1.2,1.8,3.1,1.8,5.6v0.4
			H451c-3.9,0-7.2,0.5-10.1,1.5c-2.9,1-5.1,2.5-6.7,4.6c-1.6,2-2.4,4.7-2.4,7.9c0,2.9,0.7,5.5,2,7.5c1.3,2.1,3.2,3.7,5.5,4.8
			c2.4,1.1,5.1,1.7,8.3,1.7c3,0,5.6-0.5,7.7-1.6s3.8-2.7,5-4.8c0.5-0.9,1-2,1.3-3.1v8.4h8.8v-27c0-4.1-0.8-7.4-2.3-9.9
			C466.8,193.4,464.5,191.5,461.6,190.3z M455.1,225.1c-1.3,0.6-2.7,0.8-4.3,0.8c-2.6,0-4.5-0.6-5.9-1.8c-1.4-1.2-2-2.8-2-4.8
			c0-2,0.7-3.6,2-4.9c1.4-1.3,3.3-1.9,5.9-1.9h9.1v4.1c-0.1,2.4-0.6,4.2-1.5,5.6C457.5,223.6,456.4,224.5,455.1,225.1z"/>
		<path d="M490.3,193.5c-2,2.4-3.3,5.7-3.8,9.9v-14.2h-8.8v43.6h11.2v-22.7c0-3.8,1-6.7,3.1-8.7c2.1-2,5-3,8.7-3h3v-9.7h-1.6
			C496.9,188.6,493,190.2,490.3,193.5z"/>
		<path d="M539.9,174.2v21.2c-1.5-2.3-3.3-4.1-5.5-5.4c-2.6-1.5-5.6-2.2-9-2.2c-3.1,0-5.9,0.6-8.5,1.7c-2.5,1.2-4.7,2.7-6.5,4.8
			c-1.8,2-3.2,4.4-4.2,7.1c-1,2.7-1.5,5.6-1.5,8.7v1.7c0,3.2,0.5,6.1,1.5,8.8c1,2.7,2.5,5.1,4.3,7.1c1.9,2,4.1,3.6,6.7,4.7
			c2.6,1.1,5.4,1.7,8.4,1.7c3.4,0,6.5-0.7,9.2-2.2c2.7-1.5,4.9-3.7,6.5-6.7c0.3-0.5,0.6-1.1,0.8-1.7v9.1h8.8v-58.6H539.9z
			 M540.2,212.3c0,2.6-0.5,4.8-1.6,6.7c-1.1,1.9-2.6,3.3-4.4,4.3c-1.8,1-3.8,1.5-6,1.5c-2.4,0-4.5-0.6-6.3-1.7
			c-1.8-1.1-3.3-2.7-4.4-4.8c-1.1-2.1-1.6-4.5-1.6-7.3c0-2.8,0.5-5.2,1.6-7.3c1-2.1,2.5-3.7,4.3-4.9c1.8-1.2,4-1.7,6.4-1.7
			c2.1,0,4.1,0.5,5.9,1.4c1.8,0.9,3.3,2.3,4.4,4c1.1,1.7,1.7,3.9,1.7,6.5V212.3z"/>
	</g>
	<g>
		<polygon class="st1" points="137.6,132.7 112.8,157.5 88,182.3 137.6,182.3 		"/>
		<polygon class="st2" points="187.2,182.3 236.8,132.7 137.6,132.7 137.6,182.3 		"/>
		<polygon class="st3" points="187.2,182.3 187.2,231.9 236.8,231.9 236.8,132.7 		"/>
		<path class="st4" d="M152,217.4c-8.9-8.9-14.5-21.3-14.5-34.9v-0.2H88v49.4c0,13.8,5.6,26.2,14.6,35.3L152,217.4z"/>
		<path class="st5" d="M187,231.9c-13.6,0-26-5.5-34.9-14.5l-49.5,49.5c9,9,21.5,14.6,35.3,14.6h49.4v-49.6H187z"/>
		<path class="st6" d="M137.6,182.5c0,13.6,5.5,26,14.5,34.9l0,0l0,0c8.9,8.9,21.3,14.5,34.9,14.5h0.2v-49.6h-49.6V182.5z"/>
		<polygon class="st7" points="187.2,281.5 212,256.7 236.8,231.9 187.2,231.9 		"/>
	</g>
	<g>
		<polygon class="st8" points="137.6,132.7 112.8,157.5 88,182.3 137.6,182.3 		"/>
		<polygon class="st8" points="187.2,182.3 236.8,132.7 137.6,132.7 137.6,182.3 		"/>
		<polygon class="st8" points="187.2,182.3 187.2,231.9 236.8,231.9 236.8,132.7 		"/>
		<path class="st8" d="M152,217.4c-8.9-8.9-14.5-21.3-14.5-34.9v-0.2H88v49.4c0,13.8,5.6,26.2,14.6,35.3L152,217.4z"/>
		<path class="st8" d="M187,231.9c-13.6,0-26-5.5-34.9-14.5l-49.5,49.5c9,9,21.5,14.6,35.3,14.6h49.4v-49.6H187z"/>
		<path class="st8" d="M137.6,182.5c0,13.6,5.5,26,14.5,34.9l0,0l0,0c8.9,8.9,21.3,14.5,34.9,14.5h0.2v-49.6h-49.6V182.5z"/>
		<polygon class="st8" points="187.2,281.5 212,256.7 236.8,231.9 187.2,231.9 		"/>
	</g>
</g>
<g>
	<g>
		<polygon class="st9" points="1304.3,298.8 1221.1,382 1221.1,548.3 1304.3,465.1 		"/>
		<path class="st9" d="M1221.1,382h-166.3v0c0,91.8,74.5,166.3,166.3,166.3h0V382z"/>
		<polygon class="st10" points="1304.3,298.8 1138,298.8 1054.9,382 1221.1,382 		"/>
	</g>
	<g>
		<g>
			<g>
				<path class="st9" d="M1304,238v60.9h60.8c-6.7-11.5-14.7-22.2-23.8-31.8c-0.9-0.9-1.8-1.8-2.6-2.7l-1-1
					C1327.5,253.6,1316.2,245.1,1304,238z"/>
			</g>
			<path class="st11" d="M1470.2,298.9l-166.2,0l-83.1,83.1l166.2,0c0,24.4-5.3,47.6-14.7,68.5h0c-7.8,17.2-18.4,32.9-31.4,46.4
				l79-78.9C1451,387.8,1470.2,345.6,1470.2,298.9z"/>
			<path class="st9" d="M1387.1,382l-166.2,0l0,166.2c45.4,0,86.6-18.2,116.6-47.7l1-1c0.9-0.9,1.8-1.8,2.6-2.7
				c12.9-13.5,23.6-29.2,31.4-46.4h0C1381.9,429.6,1387.1,406.4,1387.1,382z"/>
			<g>
				<path class="st9" d="M1220.9,215.8l0,166.2l166.2,0c0-24.4-5.3-47.6-14.7-68.5h0c-2.3-5-4.8-9.9-7.5-14.7
					c-6.7-11.5-14.7-22.2-23.8-31.8c-0.9-0.9-1.8-1.8-2.6-2.7l-1-1c-10-9.8-21.2-18.4-33.4-25.5
					C1279.6,223.8,1251.2,215.8,1220.9,215.8z"/>
			</g>
			<path class="st11" d="M1304,132.6l-83.1,83.1c30.3,0,58.7,8.1,83.1,22.2c12.2,7.1,23.5,15.7,33.4,25.5l1,1
				c0.9,0.9,1.8,1.8,2.6,2.7c9.1,9.6,17.2,20.2,23.8,31.8c2.8,4.8,5.3,9.6,7.5,14.7h0c9.4,20.9,14.7,44.1,14.7,68.5l83.1-83.1
				c0-24.4-5.3-47.6-14.7-68.5h0c-7.8-17.2-18.4-32.9-31.4-46.4c-0.9-0.9-1.8-1.8-2.6-2.7l-1-1
				C1390.6,150.8,1349.4,132.6,1304,132.6z"/>
		</g>
		<path class="st9" d="M1387.1,382l-166.2,0l0,166.2c45.4,0,86.6-18.2,116.6-47.7l1-1c0.9-0.9,1.8-1.8,2.6-2.7
			c12.9-13.5,23.6-29.2,31.4-46.4h0C1381.9,429.6,1387.1,406.4,1387.1,382z"/>
	</g>
	<path class="st12" d="M1019.7,584.2H874.1V448c0-80.4,65.2-145.6,145.6-145.6h0V584.2z"/>
	<path class="st13" d="M1194.4,427.9v38.4c0,10.3-8.4,18.7-18.7,18.7h-38.4c-10.3,0-18.7-8.4-18.7-18.7v-38.4
		c0-10.3,8.4-18.7,18.7-18.7h38.4C1186.1,409.2,1194.4,417.6,1194.4,427.9z"/>
	<g>
		<polygon class="st11" points="1164.1,439.8 1057.6,546.3 981.8,546.3 1088.3,439.8 		"/>
		<rect x="981.8" y="546.3" class="st11" width="75.8" height="75.8"/>
		<polygon class="st11" points="1164.1,439.8 1164.1,515.6 1057.6,622.1 1057.6,546.3 		"/>
	</g>
	<g>
		<polygon class="st14" points="958.3,642.3 845.7,754.9 825.7,754.9 938.3,642.3 		"/>
		<rect x="825.7" y="754.9" class="st14" width="20" height="19.6"/>
		<polygon class="st14" points="958.1,642.5 958.1,662.1 845.7,774.5 845.7,754.9 		"/>
	</g>
	<g>
		<polygon class="st11" points="1199,172.4 1169,202.4 1109,202.4 1139,172.4 		"/>
		<rect x="1109" y="202.4" class="st11" width="60" height="60"/>
		<polygon class="st11" points="1199,172.4 1199,232.4 1169,262.4 1169,202.4 		"/>
	</g>
	<path class="st11" d="M1019.7,302.4V448H874.1C874.1,367.6,939.3,302.4,1019.7,302.4z"/>
	<g>
		<path class="st13" d="M1467.3,596.4l-57.1,57.1c-9.4,9.4-22.1,14.6-35.3,14.6l-310,0c-8.9,0-13.4-10.8-7.1-17.1l57.1-57.1
			c9.4-9.4,22.1-14.6,35.3-14.6l310,0C1469.1,579.3,1473.6,590.1,1467.3,596.4z"/>
		<path class="st13" d="M829.2,826.6l106.1-106.1c3.7-3.7,8.7-5.8,14-5.9l1.9,0c4.2,0,6.3,5,3.3,8L848.4,828.7
			c-3.7,3.7-8.8,5.9-14.1,5.9h-1.8C828.3,834.6,826.2,829.5,829.2,826.6z"/>
		<path class="st13" d="M1032.4,806.5h-39.5c-9.7,0-14.6-11.8-7.7-18.7l90.1-90.1c10.3-10.3,24.4-16.1,39-16l39,0.2
			c9.7,0.1,14.5,11.8,7.7,18.7l-89.8,89.8C1060.8,800.8,1046.9,806.5,1032.4,806.5z"/>
	</g>
</g>
<g>
	<path d="M96.5,782.3c-1.4,0-2.6-0.3-3.6-0.8c-0.9-0.5-1.7-1.3-2.1-2.3s-0.7-2.1-0.7-3.4v-9.6h1.6v9.8c0,1,0.2,1.8,0.5,2.5
		c0.4,0.7,0.9,1.3,1.6,1.7s1.6,0.6,2.7,0.6c1,0,1.9-0.2,2.6-0.6c0.7-0.4,1.2-1,1.6-1.7c0.4-0.7,0.5-1.6,0.5-2.5v-9.8h1.6v9.6
		c0,1.3-0.2,2.4-0.7,3.4s-1.2,1.7-2.1,2.3C99.2,782.1,98,782.3,96.5,782.3z"/>
	<path d="M107.2,786.3v-15.7h1.3v4.9l-0.4,0c0.1-1.1,0.3-2.1,0.7-2.9c0.4-0.8,1-1.4,1.8-1.8c0.8-0.4,1.6-0.6,2.5-0.6
		c0.8,0,1.6,0.2,2.3,0.5s1.3,0.8,1.7,1.3c0.5,0.6,0.8,1.2,1.1,1.9s0.4,1.5,0.4,2.2v0.3c0,0.8-0.1,1.5-0.4,2.2
		c-0.3,0.7-0.6,1.3-1.1,1.9c-0.5,0.6-1.1,1-1.7,1.3s-1.4,0.5-2.3,0.5c-0.9,0-1.7-0.2-2.5-0.6c-0.8-0.4-1.4-1-1.8-1.8s-0.7-1.8-0.8-3
		l0.8,1.6v7.7H107.2z M112.9,780.9c0.9,0,1.6-0.2,2.2-0.6c0.6-0.4,1.1-1,1.4-1.7c0.3-0.7,0.5-1.5,0.5-2.4c0-0.9-0.2-1.7-0.5-2.4
		c-0.3-0.7-0.8-1.2-1.4-1.7s-1.4-0.6-2.2-0.6c-0.8,0-1.5,0.2-2.1,0.5c-0.6,0.3-1.1,0.8-1.5,1.5s-0.5,1.4-0.5,2.2v1.1
		c0,0.8,0.2,1.5,0.5,2.1s0.9,1.1,1.5,1.4C111.4,780.8,112.1,780.9,112.9,780.9z"/>
	<path d="M123.6,782l-3.3-11.4h1.6l3.3,11.4H123.6z M124,782v-1.3h2v1.3H124z M124.9,782l2.4-11h2.3l2.8,11H131l-2.8-11h0.5l-2.5,11
		H124.9z M131.4,782v-1.3h1.9v1.3H131.4z M132.2,782l2.8-11.4h1.5l-2.9,11.4H132.2z"/>
	<path d="M142.6,782.3c-0.8,0-1.5-0.1-2.1-0.4s-1.1-0.7-1.4-1.2c-0.3-0.5-0.5-1.2-0.5-2c0-0.8,0.2-1.4,0.5-1.9
		c0.4-0.5,0.9-0.9,1.5-1.2c0.7-0.3,1.5-0.4,2.4-0.4h3.3v1.2h-3.4c-0.9,0-1.6,0.2-2.1,0.7c-0.5,0.4-0.7,1-0.7,1.7
		c0,0.7,0.3,1.3,0.8,1.7s1.2,0.6,2,0.6c0.5,0,1-0.1,1.5-0.3c0.5-0.2,0.9-0.5,1.2-1c0.3-0.5,0.5-1.1,0.5-1.9l0.5,0.7
		c-0.1,0.8-0.3,1.6-0.6,2.1s-0.8,1-1.4,1.3C144,782.1,143.3,782.3,142.6,782.3z M146.4,782v-3.4h-0.3v-4.1c0-0.8-0.2-1.5-0.7-2
		s-1.1-0.7-2.1-0.7c-0.4,0-0.9,0-1.3,0c-0.4,0-0.9,0-1.2,0.1c-0.4,0-0.7,0-1,0.1v-1.4c0.3,0,0.6-0.1,1-0.1c0.3,0,0.7,0,1-0.1
		s0.7,0,1,0c1.2,0,2.1,0.1,2.8,0.4s1.2,0.7,1.6,1.3s0.5,1.4,0.5,2.4v7.3H146.4z"/>
	<path d="M151.7,782v-11.4h1.3v4.8h-0.1c0-1.7,0.4-2.9,1.1-3.7c0.7-0.8,1.9-1.2,3.4-1.2h0.4v1.5h-0.7c-1.2,0-2.2,0.3-2.8,1
		c-0.6,0.6-1,1.6-1,2.8v6.3H151.7z"/>
	<path d="M164.9,782.3c-0.8,0-1.6-0.2-2.3-0.5c-0.7-0.3-1.3-0.7-1.8-1.3s-0.9-1.2-1.1-1.9s-0.4-1.5-0.4-2.3v-0.3
		c0-0.8,0.1-1.5,0.4-2.2c0.3-0.7,0.6-1.3,1.1-1.9c0.5-0.6,1.1-1,1.7-1.3s1.4-0.5,2.3-0.5c1,0,1.8,0.2,2.5,0.6s1.3,1,1.8,1.8
		c0.4,0.8,0.7,1.7,0.7,2.9l-0.7-1.3v-7.9h1.6V782h-1.3v-5.1h0.5c0,1.2-0.3,2.2-0.7,3s-1.1,1.4-1.8,1.8
		C166.7,782.1,165.9,782.3,164.9,782.3z M165.2,780.9c0.8,0,1.5-0.2,2.1-0.5s1.1-0.8,1.5-1.5c0.4-0.6,0.5-1.4,0.5-2.2v-1
		c0-0.8-0.2-1.5-0.5-2.1c-0.4-0.6-0.9-1.1-1.5-1.4s-1.3-0.5-2.1-0.5c-0.8,0-1.6,0.2-2.2,0.6c-0.6,0.4-1.1,1-1.4,1.7
		c-0.3,0.7-0.5,1.5-0.5,2.4c0,0.9,0.2,1.7,0.5,2.4c0.3,0.7,0.8,1.3,1.5,1.6C163.6,780.7,164.3,780.9,165.2,780.9z"/>
	<path d="M175.4,782v-15.7h1.6V782H175.4z M176.6,767.7v-1.5h7.6v1.5H176.6z M176.6,774.7v-1.5h7.1v1.5H176.6z M176.6,782v-1.5h7.9
		v1.5H176.6z"/>
	<path d="M191.1,782.3c-0.8,0-1.5-0.1-2.1-0.4s-1.1-0.7-1.4-1.2c-0.3-0.5-0.5-1.2-0.5-2c0-0.8,0.2-1.4,0.5-1.9
		c0.4-0.5,0.9-0.9,1.5-1.2c0.7-0.3,1.5-0.4,2.4-0.4h3.3v1.2h-3.4c-0.9,0-1.6,0.2-2.1,0.7c-0.5,0.4-0.7,1-0.7,1.7
		c0,0.7,0.3,1.3,0.8,1.7s1.2,0.6,2,0.6c0.5,0,1-0.1,1.5-0.3c0.5-0.2,0.9-0.5,1.2-1c0.3-0.5,0.5-1.1,0.5-1.9l0.5,0.7
		c-0.1,0.8-0.3,1.6-0.6,2.1s-0.8,1-1.4,1.3C192.6,782.1,191.9,782.3,191.1,782.3z M194.9,782v-3.4h-0.3v-4.1c0-0.8-0.2-1.5-0.7-2
		s-1.1-0.7-2.1-0.7c-0.4,0-0.9,0-1.3,0c-0.4,0-0.9,0-1.2,0.1c-0.4,0-0.7,0-1,0.1v-1.4c0.3,0,0.6-0.1,1-0.1c0.3,0,0.7,0,1-0.1
		s0.7,0,1,0c1.2,0,2.1,0.1,2.8,0.4s1.2,0.7,1.6,1.3s0.5,1.4,0.5,2.4v7.3H194.9z"/>
	<path d="M200.3,782v-11.4h1.3v4.8h-0.1c0-1.7,0.4-2.9,1.1-3.7c0.7-0.8,1.9-1.2,3.4-1.2h0.4v1.5h-0.7c-1.2,0-2.2,0.3-2.8,1
		c-0.6,0.6-1,1.6-1,2.8v6.3H200.3z"/>
	<path d="M208.9,782v-11.4h1.3v4.8H210c0-1.1,0.2-2,0.5-2.7c0.3-0.8,0.8-1.3,1.4-1.8c0.6-0.4,1.4-0.6,2.4-0.6h0.1
		c1.4,0,2.5,0.4,3.2,1.3c0.7,0.9,1.1,2.2,1.1,3.8v6.6H217v-7c0-1-0.3-1.8-0.8-2.4s-1.3-0.9-2.3-0.9c-1,0-1.8,0.3-2.4,0.9
		c-0.6,0.6-0.9,1.4-0.9,2.5v6.9H208.9z"/>
	<path d="M227.4,782.3c-1,0-1.8-0.2-2.5-0.5c-0.7-0.3-1.3-0.8-1.8-1.4c-0.5-0.6-0.8-1.2-1-1.9s-0.3-1.4-0.3-2.2v-0.3
		c0-0.7,0.1-1.5,0.3-2.2c0.2-0.7,0.6-1.3,1-1.9c0.5-0.6,1-1,1.7-1.3c0.7-0.3,1.5-0.5,2.4-0.5c1.2,0,2.2,0.3,3,0.8
		c0.8,0.5,1.4,1.2,1.8,2c0.4,0.8,0.6,1.7,0.6,2.7v0.8h-10.2v-1.2h9.1l-0.4,0.6c0-0.8-0.1-1.6-0.4-2.2c-0.3-0.6-0.7-1.1-1.3-1.5
		c-0.6-0.4-1.3-0.5-2.1-0.5c-0.9,0-1.6,0.2-2.2,0.6c-0.6,0.4-1,1-1.3,1.7s-0.4,1.5-0.4,2.3c0,0.9,0.1,1.6,0.4,2.4s0.7,1.3,1.4,1.7
		c0.6,0.4,1.4,0.6,2.3,0.6c1,0,1.8-0.2,2.4-0.7s1-1,1.1-1.6h1.5c-0.1,0.8-0.4,1.4-0.9,2c-0.5,0.6-1,1-1.7,1.3
		C229.1,782.2,228.3,782.3,227.4,782.3z"/>
	<path d="M235.7,782v-11.4h1.3v4.8h-0.1c0-1.7,0.4-2.9,1.1-3.7c0.7-0.8,1.9-1.2,3.4-1.2h0.4v1.5h-0.7c-1.2,0-2.2,0.3-2.8,1
		c-0.6,0.6-1,1.6-1,2.8v6.3H235.7z"/>
	<path d="M242.8,782v-2.1h2v2.1H242.8z"/>
	<path d="M253.1,782.3c-1,0-1.8-0.2-2.5-0.5c-0.7-0.3-1.3-0.8-1.8-1.4c-0.5-0.6-0.8-1.2-1.1-1.9c-0.2-0.7-0.4-1.4-0.4-2.1v-0.3
		c0-0.7,0.1-1.4,0.4-2.1c0.2-0.7,0.6-1.3,1.1-1.9c0.5-0.6,1.1-1,1.8-1.4c0.7-0.3,1.5-0.5,2.5-0.5c0.9,0,1.8,0.2,2.5,0.5
		c0.7,0.3,1.3,0.8,1.8,1.5c0.5,0.6,0.7,1.4,0.8,2.2h-1.6c-0.1-0.8-0.5-1.4-1.1-2c-0.6-0.5-1.4-0.8-2.5-0.8c-0.9,0-1.7,0.2-2.3,0.6
		s-1,1-1.3,1.7c-0.3,0.7-0.5,1.5-0.5,2.3c0,0.8,0.2,1.6,0.5,2.3c0.3,0.7,0.8,1.3,1.4,1.7c0.6,0.4,1.4,0.6,2.3,0.6
		c0.7,0,1.3-0.1,1.8-0.4c0.5-0.3,0.9-0.6,1.3-1c0.3-0.4,0.5-0.9,0.6-1.4h1.6c-0.1,0.9-0.3,1.6-0.8,2.3c-0.5,0.6-1.1,1.1-1.9,1.5
		C254.9,782.2,254.1,782.3,253.1,782.3z"/>
	<path d="M266.4,782.3c-1,0-1.8-0.2-2.6-0.5c-0.7-0.3-1.4-0.8-1.9-1.4s-0.9-1.2-1.2-1.9s-0.4-1.4-0.4-2.2v-0.3
		c0-0.7,0.1-1.5,0.4-2.2s0.7-1.3,1.2-1.9c0.5-0.6,1.1-1,1.9-1.3c0.7-0.3,1.6-0.5,2.5-0.5c1,0,1.8,0.2,2.6,0.5
		c0.7,0.3,1.4,0.8,1.9,1.3c0.5,0.6,0.9,1.2,1.2,1.9c0.3,0.7,0.4,1.4,0.4,2.2v0.3c0,0.7-0.1,1.5-0.4,2.2c-0.3,0.7-0.6,1.3-1.2,1.9
		s-1.1,1-1.9,1.4C268.3,782.2,267.4,782.3,266.4,782.3z M266.4,780.9c0.9,0,1.7-0.2,2.4-0.6c0.7-0.4,1.2-1,1.5-1.7
		c0.3-0.7,0.5-1.5,0.5-2.3c0-0.9-0.2-1.6-0.5-2.3c-0.4-0.7-0.9-1.2-1.5-1.7c-0.7-0.4-1.5-0.6-2.4-0.6c-0.9,0-1.7,0.2-2.3,0.6
		c-0.7,0.4-1.2,1-1.5,1.7c-0.4,0.7-0.5,1.5-0.5,2.3c0,0.8,0.2,1.6,0.5,2.3c0.3,0.7,0.8,1.3,1.5,1.7
		C264.7,780.7,265.5,780.9,266.4,780.9z"/>
	<path d="M275.7,782v-11.4h1.3v4.8h-0.3c0-1,0.1-2,0.4-2.7c0.3-0.8,0.7-1.4,1.3-1.8c0.6-0.4,1.3-0.6,2.2-0.6h0.1
		c0.9,0,1.7,0.2,2.2,0.6c0.6,0.4,1,1,1.3,1.8c0.3,0.8,0.4,1.7,0.4,2.7h-0.5c0-1,0.1-2,0.4-2.7c0.3-0.8,0.7-1.4,1.3-1.8
		c0.6-0.4,1.3-0.6,2.3-0.6h0.1c0.9,0,1.7,0.2,2.3,0.6c0.6,0.4,1,1,1.3,1.8c0.3,0.8,0.4,1.7,0.4,2.7v6.6h-1.6v-7c0-1-0.2-1.8-0.7-2.4
		c-0.5-0.6-1.2-0.9-2.1-0.9c-0.9,0-1.7,0.3-2.3,0.9c-0.6,0.6-0.8,1.4-0.8,2.5v6.9h-1.6v-7c0-1-0.2-1.8-0.7-2.4
		c-0.5-0.6-1.2-0.9-2.1-0.9c-0.9,0-1.7,0.3-2.3,0.9c-0.6,0.6-0.8,1.4-0.8,2.5v6.9H275.7z"/>
</g>
<g>
	<path class="st7" d="M89,436.6l20.3-56.2h12.8l20.9,56.2h-7.8l-18.9-51.3l3.7,1.8h-9.1l3.9-1.8l-18.3,51.3H89z M101.1,419.8
		l2.5-6.8h24.3l2.5,6.8H101.1z"/>
	<path class="st7" d="M158.5,436.6l-14-41.1h7.7l13.7,41.1H158.5z M160.4,436.6v-5.9h8.9v5.9H160.4z M163.9,436.6l11.9-41.1h7.2
		l-12.2,41.1H163.9z"/>
	<path class="st7" d="M209.4,438c-3.6,0-6.8-0.6-9.5-1.8c-2.7-1.2-5-2.9-6.9-4.9c-1.9-2-3.3-4.3-4.2-6.8c-1-2.5-1.4-5.1-1.4-7.7
		v-1.4c0-2.6,0.5-5.2,1.5-7.7c1-2.5,2.4-4.8,4.3-6.9c1.9-2,4.2-3.6,6.9-4.9c2.7-1.2,5.8-1.8,9.3-1.8c3.5,0,6.6,0.6,9.3,1.8
		c2.7,1.2,5,2.8,6.9,4.9c1.9,2,3.3,4.3,4.3,6.9c1,2.5,1.5,5.1,1.5,7.7v1.4c0,2.6-0.5,5.2-1.4,7.7c-1,2.5-2.4,4.8-4.2,6.8
		c-1.9,2-4.2,3.7-6.9,4.9C216.2,437.4,213,438,209.4,438z M209.4,431.4c3.1,0,5.7-0.7,7.9-2c2.2-1.4,3.9-3.2,5-5.5
		c1.2-2.3,1.7-4.9,1.7-7.8c0-2.9-0.6-5.5-1.8-7.9c-1.2-2.3-2.9-4.1-5-5.5c-2.2-1.3-4.8-2-7.8-2c-3,0-5.6,0.7-7.8,2
		c-2.2,1.3-3.9,3.2-5.1,5.5c-1.2,2.3-1.8,4.9-1.8,7.9c0,2.9,0.6,5.5,1.7,7.8c1.2,2.3,2.8,4.1,5,5.5
		C203.7,430.7,206.4,431.4,209.4,431.4z"/>
	<path class="st7" d="M236.7,401.4v-5.9h13.7v5.9H236.7z M245.1,388.9c-1.6,0-2.9-0.4-3.7-1.3c-0.8-0.9-1.2-2-1.2-3.3
		c0-1.3,0.4-2.4,1.2-3.3c0.8-0.9,2-1.3,3.7-1.3c1.6,0,2.9,0.4,3.7,1.3c0.8,0.9,1.2,2,1.2,3.3c0,1.3-0.4,2.4-1.2,3.3
		C248,388.4,246.7,388.9,245.1,388.9z M243,436.6v-41.1h7.4v41.1H243z"/>
	<path class="st7" d="M280.4,438c-2.9,0-5.6-0.5-8.1-1.6s-4.6-2.6-6.4-4.5c-1.8-2-3.2-4.2-4.2-6.8c-1-2.6-1.5-5.3-1.5-8.3v-1.4
		c0-2.9,0.5-5.7,1.5-8.2c1-2.6,2.4-4.8,4.1-6.8c1.8-2,3.9-3.5,6.3-4.6c2.4-1.1,5.1-1.7,8.1-1.7c3.1,0,6,0.7,8.6,2
		c2.6,1.3,4.7,3.4,6.3,6.1c1.6,2.8,2.6,6.4,2.8,10.8l-3.1-4.9v-27.7h7.4v56.2h-5.9v-18.3h2.2c-0.2,4.7-1.2,8.5-2.9,11.4
		c-1.7,2.9-3.9,5-6.6,6.3C286.2,437.4,283.4,438,280.4,438z M281.4,431.6c2.5,0,4.8-0.6,6.9-1.7c2.1-1.1,3.7-2.8,4.9-4.9
		c1.2-2.1,1.8-4.6,1.8-7.5v-3.5c0-2.8-0.6-5.2-1.9-7.2c-1.3-2-2.9-3.5-5-4.5c-2.1-1.1-4.4-1.6-6.8-1.6c-2.7,0-5.1,0.6-7.2,1.9
		c-2.1,1.3-3.7,3.1-4.9,5.4s-1.7,5-1.7,8.2c0,3.1,0.6,5.9,1.8,8.2c1.2,2.3,2.8,4.1,4.9,5.4C276.3,430.9,278.7,431.6,281.4,431.6z"/>
	<path class="st7" d="M324.7,401.1v-5.5h28.3v5.5H324.7z M346.8,437.1c-3.1,0-5.7-0.4-8-1.3c-2.2-0.9-4-2.4-5.2-4.5
		c-1.2-2.1-1.8-5-1.8-8.7V383h7.1v40.5c0,2.2,0.6,3.9,1.8,5.1c1.2,1.2,2.9,1.8,5.1,1.8h7.2v6.6H346.8z"/>
	<path class="st7" d="M362,436.6v-56.2h7.4V414h-1.8c0-4.1,0.5-7.6,1.6-10.5c1.1-3,2.7-5.2,4.9-6.8c2.2-1.6,5-2.4,8.5-2.4h0.3
		c4.9,0,8.7,1.6,11.2,4.9c2.5,3.3,3.8,7.9,3.8,14v23.5h-7.4v-25c0-3.3-0.9-5.9-2.8-7.8c-1.9-1.8-4.3-2.8-7.3-2.8
		c-3.3,0-5.9,1.1-7.9,3.3c-2,2.2-3,5-3,8.6v23.7H362z"/>
	<path class="st7" d="M427.3,438c-3.6,0-6.7-0.6-9.3-1.8c-2.6-1.2-4.8-2.9-6.4-4.9c-1.6-2-2.9-4.3-3.7-6.8c-0.8-2.5-1.2-5.1-1.2-7.7
		v-1.4c0-2.7,0.4-5.3,1.2-7.8c0.8-2.5,2-4.8,3.7-6.8c1.6-2,3.7-3.6,6.3-4.9c2.5-1.2,5.5-1.8,9-1.8c4.5,0,8.2,1,11.1,2.9
		c2.9,1.9,5.1,4.4,6.5,7.4c1.4,3,2.1,6.3,2.1,9.7v3.3h-36.5v-5.5h31.1l-1.7,3c0-2.9-0.5-5.5-1.4-7.6c-0.9-2.1-2.3-3.8-4.2-5
		c-1.8-1.2-4.2-1.8-7-1.8c-2.9,0-5.4,0.7-7.3,2c-1.9,1.3-3.4,3.2-4.3,5.5c-1,2.3-1.4,5-1.4,8c0,2.9,0.5,5.6,1.4,7.9
		c0.9,2.3,2.4,4.2,4.4,5.5c2,1.4,4.5,2,7.6,2c3.2,0,5.9-0.7,7.9-2.2c2-1.4,3.2-3.1,3.7-5h6.9c-0.6,2.8-1.7,5.3-3.4,7.3
		c-1.7,2.1-3.8,3.6-6.4,4.7C433.4,437.5,430.5,438,427.3,438z"/>
	<path class="st7" d="M480.4,435.7l-14.7-40.2h7.5l14.1,40.2H480.4z M468.6,452.7V446h5.9c1.7,0,3.2-0.2,4.4-0.7
		c1.2-0.4,2.2-1.2,3-2.2c0.8-1,1.5-2.4,2-4.1l12.9-43.6h7.2L490.4,441c-0.8,2.7-2,4.9-3.5,6.7c-1.5,1.7-3.3,3-5.4,3.8
		c-2.1,0.8-4.6,1.2-7.4,1.2H468.6z M481.2,435.7v-6.2h8.9v6.2H481.2z"/>
	<path class="st7" d="M528.7,438c-3.6,0-6.7-0.6-9.3-1.8c-2.6-1.2-4.8-2.9-6.4-4.9c-1.6-2-2.9-4.3-3.7-6.8c-0.8-2.5-1.2-5.1-1.2-7.7
		v-1.4c0-2.7,0.4-5.3,1.2-7.8c0.8-2.5,2-4.8,3.7-6.8c1.6-2,3.7-3.6,6.3-4.9c2.5-1.2,5.5-1.8,9-1.8c4.5,0,8.2,1,11.1,2.9
		c2.9,1.9,5.1,4.4,6.5,7.4c1.4,3,2.1,6.3,2.1,9.7v3.3h-36.5v-5.5h31.1l-1.7,3c0-2.9-0.5-5.5-1.4-7.6c-0.9-2.1-2.3-3.8-4.2-5
		c-1.8-1.2-4.2-1.8-7-1.8c-2.9,0-5.4,0.7-7.3,2c-1.9,1.3-3.4,3.2-4.3,5.5c-1,2.3-1.4,5-1.4,8c0,2.9,0.5,5.6,1.4,7.9
		c0.9,2.3,2.4,4.2,4.4,5.5c2,1.4,4.5,2,7.6,2c3.2,0,5.9-0.7,7.9-2.2c2-1.4,3.2-3.1,3.7-5h6.9c-0.6,2.8-1.7,5.3-3.4,7.3
		c-1.7,2.1-3.8,3.6-6.4,4.7C534.9,437.5,532,438,528.7,438z"/>
	<path class="st7" d="M568.2,437.7c-3.1,0-5.7-0.5-8-1.6c-2.2-1.1-4-2.6-5.2-4.6c-1.2-2-1.8-4.4-1.8-7.2c0-2.9,0.7-5.4,2-7.3
		c1.3-2,3.2-3.4,5.7-4.4c2.5-1,5.5-1.5,9.1-1.5h11.2v5.5h-11.5c-3,0-5.3,0.7-6.9,2.2c-1.6,1.4-2.4,3.3-2.4,5.5
		c0,2.3,0.8,4.1,2.4,5.5c1.6,1.4,3.9,2.1,6.9,2.1c1.7,0,3.4-0.3,5-1c1.6-0.6,2.9-1.7,4-3.2c1.1-1.5,1.6-3.6,1.7-6.3l2,2.9
		c-0.3,2.9-1,5.4-2.1,7.4c-1.2,2-2.7,3.5-4.8,4.5C573.6,437.2,571.1,437.7,568.2,437.7z M581.7,436.6v-12.3h-1.2v-14.3
		c0-2.8-0.7-5-2.2-6.4c-1.5-1.4-3.6-2.2-6.4-2.2c-1.6,0-3.2,0-4.9,0.1c-1.7,0.1-3.3,0.1-4.9,0.2c-1.5,0.1-2.9,0.1-4,0.2v-6.5
		c1.1-0.1,2.3-0.2,3.6-0.3c1.3-0.1,2.6-0.1,3.9-0.2c1.3,0,2.6,0,3.9,0c4.2,0,7.7,0.5,10.3,1.5c2.7,1,4.6,2.6,5.9,4.9
		c1.3,2.3,1.9,5.3,1.9,9.2v26H581.7z"/>
	<path class="st7" d="M599.6,436.6v-41.1h5.9v16.9h-0.3c0-6,1.3-10.4,4-13.2c2.6-2.8,6.6-4.2,11.9-4.2h1.4v6.6h-2.6
		c-4.1,0-7.3,1.1-9.5,3.3c-2.2,2.2-3.3,5.3-3.3,9.4v22.3H599.6z"/>
	<path class="st7" d="M626.9,418.4v-6.3h28.7v6.3H626.9z"/>
	<path class="st7" d="M683.6,438c-3.6,0-6.7-0.6-9.3-1.8c-2.6-1.2-4.8-2.9-6.4-4.9c-1.6-2-2.9-4.3-3.7-6.8c-0.8-2.5-1.2-5.1-1.2-7.7
		v-1.4c0-2.7,0.4-5.3,1.2-7.8c0.8-2.5,2-4.8,3.7-6.8c1.6-2,3.7-3.6,6.3-4.9c2.5-1.2,5.5-1.8,9-1.8c4.5,0,8.2,1,11.1,2.9
		c2.9,1.9,5.1,4.4,6.5,7.4c1.4,3,2.1,6.3,2.1,9.7v3.3h-36.5v-5.5h31.1l-1.7,3c0-2.9-0.5-5.5-1.4-7.6c-0.9-2.1-2.3-3.8-4.2-5
		c-1.8-1.2-4.2-1.8-7-1.8c-2.9,0-5.4,0.7-7.3,2c-1.9,1.3-3.4,3.2-4.3,5.5c-1,2.3-1.4,5-1.4,8c0,2.9,0.5,5.6,1.4,7.9
		c0.9,2.3,2.4,4.2,4.4,5.5c2,1.4,4.5,2,7.6,2c3.2,0,5.9-0.7,7.9-2.2c2-1.4,3.2-3.1,3.7-5h6.9c-0.6,2.8-1.7,5.3-3.4,7.3
		c-1.7,2.1-3.8,3.6-6.4,4.7C689.8,437.5,686.9,438,683.6,438z"/>
	<path class="st7" d="M711.8,436.6v-41.1h5.9v17.6h-0.9c0-4.1,0.6-7.5,1.7-10.3c1.1-2.8,2.8-4.9,5-6.4c2.3-1.5,5.1-2.2,8.6-2.2h0.3
		c5.2,0,9,1.6,11.5,4.9c2.5,3.2,3.7,7.9,3.7,14v23.5h-7.4v-25c0-3.2-0.9-5.7-2.7-7.7c-1.8-1.9-4.3-2.9-7.4-2.9c-3.2,0-5.9,1-7.9,3
		c-2,2-3,4.7-3,8v24.6H711.8z"/>
	<path class="st7" d="M776.7,438c-2.9,0-5.6-0.5-8.1-1.6c-2.5-1.1-4.6-2.6-6.4-4.5c-1.8-2-3.2-4.2-4.2-6.8c-1-2.6-1.5-5.3-1.5-8.3
		v-1.4c0-2.9,0.5-5.7,1.5-8.2c1-2.6,2.4-4.8,4.1-6.8c1.8-2,3.9-3.5,6.3-4.6c2.4-1.1,5.1-1.7,8.1-1.7c3.1,0,6,0.7,8.6,2
		c2.6,1.3,4.7,3.4,6.3,6.1c1.6,2.8,2.6,6.4,2.8,10.8l-3.1-4.9v-27.7h7.4v56.2h-5.9v-18.3h2.2c-0.2,4.7-1.2,8.5-2.9,11.4
		c-1.7,2.9-3.9,5-6.6,6.3C782.6,437.4,779.7,438,776.7,438z M777.7,431.6c2.5,0,4.8-0.6,6.9-1.7c2.1-1.1,3.7-2.8,4.9-4.9
		c1.2-2.1,1.8-4.6,1.8-7.5v-3.5c0-2.8-0.6-5.2-1.9-7.2c-1.3-2-2.9-3.5-5-4.5c-2.1-1.1-4.4-1.6-6.8-1.6c-2.7,0-5.1,0.6-7.2,1.9
		c-2.1,1.3-3.7,3.1-4.9,5.4s-1.7,5-1.7,8.2c0,3.1,0.6,5.9,1.8,8.2c1.2,2.3,2.8,4.1,4.9,5.4C772.6,430.9,775,431.6,777.7,431.6z"/>
	<path class="st7" d="M88,474.1v-5.5h28.3v5.5H88z M110,510.2c-3.1,0-5.7-0.4-8-1.3c-2.2-0.9-4-2.4-5.2-4.5c-1.2-2.1-1.8-5-1.8-8.7
		v-39.6h7.1v40.5c0,2.2,0.6,3.9,1.8,5.1c1.2,1.2,2.9,1.8,5.1,1.8h7.2v6.6H110z"/>
	<path class="st7" d="M136.5,510.8c-3.1,0-5.7-0.5-8-1.6c-2.2-1.1-4-2.6-5.2-4.6c-1.2-2-1.8-4.4-1.8-7.2c0-2.9,0.7-5.4,2-7.3
		c1.3-2,3.2-3.4,5.7-4.4c2.5-1,5.5-1.5,9.1-1.5h11.2v5.5H138c-3,0-5.3,0.7-6.9,2.2c-1.6,1.4-2.4,3.3-2.4,5.5c0,2.3,0.8,4.1,2.4,5.5
		c1.6,1.4,3.9,2.1,6.9,2.1c1.7,0,3.4-0.3,5-1c1.6-0.6,2.9-1.7,4-3.2c1.1-1.5,1.6-3.6,1.7-6.3l2,2.9c-0.3,2.9-1,5.4-2.1,7.4
		c-1.2,2-2.7,3.5-4.8,4.5C141.8,510.3,139.4,510.8,136.5,510.8z M150,509.7v-12.3h-1.2v-14.3c0-2.8-0.7-5-2.2-6.4
		c-1.5-1.4-3.6-2.2-6.4-2.2c-1.6,0-3.2,0-4.9,0.1c-1.7,0.1-3.3,0.1-4.9,0.2c-1.5,0.1-2.9,0.1-4,0.2v-6.5c1.1-0.1,2.3-0.2,3.6-0.3
		c1.3-0.1,2.6-0.1,3.9-0.2c1.3,0,2.6,0,3.9,0c4.2,0,7.7,0.5,10.3,1.5c2.7,1,4.6,2.6,5.9,4.9c1.3,2.3,1.9,5.3,1.9,9.2v26H150z"/>
	<path class="st7" d="M162.9,509.7l14.7-21.6l-0.2,1.5l-13.8-21h8.2l9.9,15.5h1.1l9.4-15.5h7.6l-13,20.5l0.2-1.4l15.4,22h-8.2
		L182.7,493h-1.1l-11.1,16.7H162.9z"/>
	<path class="st7" d="M238.9,510.9c-5.4,0-9.6-1.2-12.5-3.5c-3-2.3-4.5-5.5-4.6-9.5h6.9c0.1,1.6,0.9,3.1,2.4,4.5
		c1.5,1.4,4.1,2.1,7.7,2.1c3.3,0,5.8-0.7,7.5-2c1.7-1.3,2.6-2.9,2.6-4.8c0-1.7-0.6-3-1.9-4c-1.3-0.9-3.4-1.6-6.2-1.9l-4.5-0.5
		c-3.9-0.4-7.1-1.6-9.6-3.5c-2.5-1.9-3.7-4.6-3.7-8.1c0-2.6,0.7-4.9,2-6.7c1.3-1.9,3.2-3.3,5.5-4.3c2.4-1,5.1-1.5,8.2-1.5
		c4.6,0,8.4,1,11.2,3.1c2.9,2.1,4.4,5.1,4.5,9.2h-6.9c-0.1-1.6-0.8-3-2.3-4.2c-1.5-1.2-3.6-1.7-6.5-1.7c-2.9,0-5.1,0.6-6.5,1.8
		c-1.5,1.2-2.2,2.7-2.2,4.5c0,1.5,0.5,2.8,1.6,3.7c1.1,0.9,2.8,1.5,5.2,1.8l4.5,0.5c4.4,0.5,8,1.7,10.6,3.7c2.7,2,4,4.8,4,8.4
		c0,2.6-0.7,4.8-2.2,6.8c-1.5,2-3.5,3.5-6,4.6C245.2,510.4,242.3,510.9,238.9,510.9z"/>
	<path class="st7" d="M282.8,511.1c-3.5,0-6.6-0.6-9.2-1.8c-2.6-1.2-4.7-2.9-6.4-5c-1.7-2.1-3-4.4-3.8-6.9c-0.8-2.5-1.3-5-1.3-7.5
		v-1.4c0-2.6,0.4-5.2,1.3-7.7c0.8-2.5,2.1-4.8,3.9-6.8c1.7-2,3.9-3.7,6.4-4.9c2.6-1.2,5.6-1.8,9-1.8s6.5,0.6,9.3,1.9
		c2.7,1.3,5,3.1,6.6,5.4c1.7,2.3,2.6,5.1,2.8,8.3h-7.1c-0.4-2.6-1.5-4.7-3.5-6.4c-2-1.7-4.7-2.6-8.1-2.6c-2.9,0-5.4,0.7-7.3,2
		c-2,1.3-3.4,3.2-4.4,5.5c-1,2.3-1.5,4.9-1.5,7.9c0,2.8,0.5,5.4,1.5,7.7c1,2.3,2.5,4.2,4.4,5.5c2,1.4,4.5,2,7.4,2
		c2.3,0,4.3-0.4,6-1.2c1.7-0.8,3.1-1.9,4.1-3.3c1-1.4,1.6-3,1.8-4.7h7.1c-0.2,3.2-1.1,6-2.8,8.4c-1.7,2.4-4,4.2-6.8,5.5
		C289.5,510.4,286.3,511.1,282.8,511.1z"/>
	<path class="st7" d="M310.3,509.7v-41.1h5.9v16.9h-0.3c0-6,1.3-10.4,4-13.2c2.6-2.8,6.6-4.2,11.9-4.2h1.4v6.6h-2.6
		c-4.1,0-7.3,1.1-9.5,3.3c-2.2,2.2-3.3,5.3-3.3,9.4v22.3H310.3z"/>
	<path class="st7" d="M351.6,510.8c-3.1,0-5.7-0.5-8-1.6s-4-2.6-5.2-4.6c-1.2-2-1.8-4.4-1.8-7.2c0-2.9,0.7-5.4,2-7.3
		c1.3-2,3.2-3.4,5.7-4.4c2.5-1,5.5-1.5,9.1-1.5h11.2v5.5h-11.5c-3,0-5.3,0.7-6.9,2.2c-1.6,1.4-2.4,3.3-2.4,5.5
		c0,2.3,0.8,4.1,2.4,5.5c1.6,1.4,3.9,2.1,6.9,2.1c1.7,0,3.4-0.3,5-1c1.6-0.6,2.9-1.7,4-3.2c1.1-1.5,1.6-3.6,1.7-6.3l2,2.9
		c-0.3,2.9-1,5.4-2.1,7.4c-1.2,2-2.7,3.5-4.8,4.5C357,510.3,354.5,510.8,351.6,510.8z M365.1,509.7v-12.3h-1.2v-14.3
		c0-2.8-0.7-5-2.2-6.4c-1.5-1.4-3.6-2.2-6.4-2.2c-1.6,0-3.2,0-4.9,0.1c-1.7,0.1-3.3,0.1-4.9,0.2c-1.5,0.1-2.9,0.1-4,0.2v-6.5
		c1.1-0.1,2.3-0.2,3.6-0.3c1.3-0.1,2.6-0.1,3.9-0.2c1.3,0,2.6,0,3.9,0c4.2,0,7.7,0.5,10.3,1.5c2.7,1,4.6,2.6,5.9,4.9
		c1.3,2.3,1.9,5.3,1.9,9.2v26H365.1z"/>
	<path class="st7" d="M383,509.7v-41.1h5.9v17.6h-0.9c0-4,0.5-7.4,1.6-10.2c1.1-2.8,2.6-4.9,4.7-6.4c2.1-1.5,4.8-2.2,8-2.2h0.3
		c3.2,0,5.9,0.7,8,2.2c2.1,1.5,3.7,3.6,4.7,6.4c1,2.8,1.5,6.2,1.5,10.2h-2.2c0-4,0.5-7.4,1.6-10.2c1.1-2.8,2.7-4.9,4.8-6.4
		c2.1-1.5,4.8-2.2,8-2.2h0.3c3.2,0,5.9,0.7,8.1,2.2c2.2,1.5,3.8,3.6,4.8,6.4c1.1,2.8,1.6,6.2,1.6,10.2v23.5h-7.4v-25.1
		c0-3.3-0.8-5.9-2.5-7.7c-1.6-1.8-3.9-2.7-6.9-2.7c-3,0-5.5,1-7.3,2.9c-1.8,1.9-2.8,4.6-2.8,8v24.7h-7.4v-25.1
		c0-3.3-0.8-5.9-2.5-7.7c-1.6-1.8-3.9-2.7-6.9-2.7c-3,0-5.5,1-7.3,2.9c-1.8,1.9-2.8,4.6-2.8,8v24.7H383z"/>
	<path class="st7" d="M477.7,511.1c-3.4,0-6.4-0.7-9.1-2.2c-2.6-1.5-4.7-3.7-6.3-6.5s-2.4-6.3-2.5-10.3h2v17.6H456v-56.2h7.4v27.3
		l-2.6,5.6c0.2-4.5,1.1-8.1,2.7-10.9c1.6-2.8,3.7-4.9,6.3-6.3c2.6-1.4,5.5-2,8.6-2c2.9,0,5.6,0.6,8,1.7c2.4,1.1,4.5,2.6,6.2,4.5
		c1.7,1.9,3.1,4.2,4,6.7c0.9,2.5,1.4,5.3,1.4,8.2v1.4c0,2.9-0.5,5.7-1.4,8.2c-1,2.6-2.3,4.8-4.1,6.8c-1.8,2-3.9,3.5-6.4,4.7
		C483.5,510.5,480.8,511.1,477.7,511.1z M476.9,504.6c2.8,0,5.2-0.7,7.2-2c2.1-1.3,3.6-3.2,4.8-5.5c1.1-2.3,1.7-5,1.7-8.1
		c0-3.1-0.6-5.8-1.7-8.1s-2.8-4.1-4.8-5.4c-2.1-1.3-4.4-1.9-7.2-1.9c-2.5,0-4.8,0.6-6.9,1.7c-2.1,1.1-3.8,2.7-5,4.8
		c-1.3,2.1-1.9,4.6-1.9,7.5v3.5c0,2.8,0.6,5.2,1.9,7.2c1.3,2,3,3.5,5.1,4.6C472.2,504.1,474.5,504.6,476.9,504.6z"/>
	<path class="st7" d="M502.3,459.3v-5.9h13.1v5.9H502.3z M508,509.7v-56.2h7.4v56.2H508z"/>
	<path class="st7" d="M545.5,511.1c-3.6,0-6.7-0.6-9.3-1.8c-2.6-1.2-4.8-2.9-6.4-4.9c-1.6-2-2.9-4.3-3.7-6.8
		c-0.8-2.5-1.2-5.1-1.2-7.7v-1.4c0-2.7,0.4-5.3,1.2-7.8c0.8-2.5,2-4.8,3.7-6.8c1.6-2,3.7-3.6,6.3-4.9c2.5-1.2,5.5-1.8,9-1.8
		c4.5,0,8.2,1,11.1,2.9c2.9,1.9,5.1,4.4,6.5,7.4c1.4,3,2.1,6.3,2.1,9.7v3.3h-36.5V485h31.1l-1.7,3c0-2.9-0.5-5.5-1.4-7.6
		c-0.9-2.1-2.3-3.8-4.2-5c-1.8-1.2-4.2-1.8-7-1.8c-2.9,0-5.4,0.7-7.3,2c-1.9,1.3-3.4,3.2-4.3,5.5c-1,2.3-1.4,5-1.4,8
		c0,2.9,0.5,5.6,1.4,7.9c0.9,2.3,2.4,4.2,4.4,5.5c2,1.4,4.5,2,7.6,2c3.2,0,5.9-0.7,7.9-2.2c2-1.4,3.2-3.1,3.7-5h6.9
		c-0.6,2.8-1.7,5.3-3.4,7.3c-1.7,2.1-3.8,3.6-6.4,4.7C551.7,510.5,548.8,511.1,545.5,511.1z"/>
	<path class="st7" d="M601.1,510.8c-3.1,0-5.7-0.5-8-1.6c-2.2-1.1-4-2.6-5.2-4.6c-1.2-2-1.8-4.4-1.8-7.2c0-2.9,0.7-5.4,2-7.3
		c1.3-2,3.2-3.4,5.7-4.4c2.5-1,5.5-1.5,9.1-1.5h11.2v5.5h-11.5c-3,0-5.3,0.7-6.9,2.2c-1.6,1.4-2.4,3.3-2.4,5.5
		c0,2.3,0.8,4.1,2.4,5.5c1.6,1.4,3.9,2.1,6.9,2.1c1.7,0,3.4-0.3,5-1c1.6-0.6,2.9-1.7,4-3.2c1.1-1.5,1.6-3.6,1.7-6.3l2,2.9
		c-0.3,2.9-1,5.4-2.1,7.4c-1.2,2-2.7,3.5-4.8,4.5C606.4,510.3,603.9,510.8,601.1,510.8z M614.5,509.7v-12.3h-1.2v-14.3
		c0-2.8-0.7-5-2.2-6.4c-1.5-1.4-3.6-2.2-6.4-2.2c-1.6,0-3.2,0-4.9,0.1c-1.7,0.1-3.3,0.1-4.9,0.2c-1.5,0.1-2.9,0.1-4,0.2v-6.5
		c1.1-0.1,2.3-0.2,3.6-0.3c1.3-0.1,2.6-0.1,3.9-0.2c1.3,0,2.6,0,3.9,0c4.2,0,7.7,0.5,10.3,1.5c2.7,1,4.6,2.6,5.9,4.9
		c1.3,2.3,1.9,5.3,1.9,9.2v26H614.5z"/>
	<path class="st7" d="M632.4,509.7v-41.1h5.9v17.6h-0.9c0-4.1,0.6-7.5,1.7-10.3c1.1-2.8,2.8-4.9,5-6.4c2.3-1.5,5.1-2.2,8.6-2.2h0.3
		c5.2,0,9,1.6,11.5,4.9c2.5,3.2,3.7,7.9,3.7,14v23.5h-7.4v-25c0-3.2-0.9-5.7-2.7-7.7c-1.8-1.9-4.3-2.9-7.4-2.9c-3.2,0-5.9,1-7.9,3
		c-2,2-3,4.7-3,8v24.6H632.4z"/>
	<path class="st7" d="M697.3,511.1c-2.9,0-5.6-0.5-8.1-1.6c-2.5-1.1-4.6-2.6-6.4-4.5c-1.8-2-3.2-4.2-4.2-6.8c-1-2.6-1.5-5.3-1.5-8.3
		v-1.4c0-2.9,0.5-5.7,1.5-8.2c1-2.6,2.4-4.8,4.1-6.8c1.8-2,3.9-3.5,6.3-4.6c2.4-1.1,5.1-1.7,8.1-1.7c3.1,0,6,0.7,8.6,2
		c2.6,1.3,4.7,3.4,6.3,6.1c1.6,2.8,2.6,6.4,2.8,10.8l-3.1-4.9v-27.7h7.4v56.2h-5.9v-18.3h2.2c-0.2,4.7-1.2,8.5-2.9,11.4
		c-1.7,2.9-3.9,5-6.6,6.3C703.2,510.4,700.4,511.1,697.3,511.1z M698.4,504.6c2.5,0,4.8-0.6,6.9-1.7c2.1-1.1,3.7-2.8,4.9-4.9
		c1.2-2.1,1.8-4.6,1.8-7.5V487c0-2.8-0.6-5.2-1.9-7.2c-1.3-2-2.9-3.5-5-4.5c-2.1-1.1-4.4-1.6-6.8-1.6c-2.7,0-5.1,0.6-7.2,1.9
		c-2.1,1.3-3.7,3.1-4.9,5.4s-1.7,5-1.7,8.2c0,3.1,0.6,5.9,1.8,8.2c1.2,2.3,2.8,4.1,4.9,5.4C693.3,504,695.7,504.6,698.4,504.6z"/>
	<path class="st7" d="M107.4,584c-5.4,0-9.6-1.2-12.5-3.5c-3-2.3-4.5-5.5-4.6-9.5h6.9c0.1,1.6,0.9,3.1,2.4,4.5
		c1.5,1.4,4.1,2.1,7.7,2.1c3.3,0,5.8-0.7,7.5-2c1.7-1.3,2.6-2.9,2.6-4.8c0-1.7-0.6-3-1.9-4c-1.3-0.9-3.4-1.6-6.2-1.9l-4.5-0.5
		c-3.9-0.4-7.1-1.6-9.6-3.5c-2.5-1.9-3.7-4.6-3.7-8.1c0-2.6,0.7-4.9,2-6.7c1.3-1.9,3.2-3.3,5.5-4.3c2.4-1,5.1-1.5,8.2-1.5
		c4.6,0,8.4,1,11.2,3.1c2.9,2.1,4.4,5.1,4.5,9.2h-6.9c-0.1-1.6-0.8-3-2.3-4.2c-1.5-1.2-3.6-1.7-6.5-1.7c-2.9,0-5.1,0.6-6.5,1.8
		c-1.5,1.2-2.2,2.7-2.2,4.5c0,1.5,0.5,2.8,1.6,3.7c1.1,0.9,2.8,1.5,5.2,1.8l4.5,0.5c4.4,0.5,8,1.7,10.6,3.7c2.7,2,4,4.8,4,8.4
		c0,2.6-0.7,4.8-2.2,6.8c-1.5,2-3.5,3.5-6,4.6C113.7,583.4,110.8,584,107.4,584z"/>
	<path class="st7" d="M145.1,583.8c-3.1,0-5.7-0.5-8-1.6c-2.2-1.1-4-2.6-5.2-4.6c-1.2-2-1.8-4.4-1.8-7.2c0-2.9,0.7-5.4,2-7.3
		c1.3-2,3.2-3.4,5.7-4.4c2.5-1,5.5-1.5,9.1-1.5h11.2v5.5h-11.5c-3,0-5.3,0.7-6.9,2.2c-1.6,1.4-2.4,3.3-2.4,5.5
		c0,2.3,0.8,4.1,2.4,5.5c1.6,1.4,3.9,2.1,6.9,2.1c1.7,0,3.4-0.3,5-1c1.6-0.6,2.9-1.7,4-3.2c1.1-1.5,1.6-3.6,1.7-6.3l2,2.9
		c-0.3,2.9-1,5.4-2.1,7.4c-1.2,2-2.7,3.5-4.8,4.5C150.4,583.3,148,583.8,145.1,583.8z M158.6,582.8v-12.3h-1.2v-14.3
		c0-2.8-0.7-5-2.2-6.4c-1.5-1.4-3.6-2.2-6.4-2.2c-1.6,0-3.2,0-4.9,0.1c-1.7,0.1-3.3,0.1-4.9,0.2c-1.5,0.1-2.9,0.1-4,0.2v-6.5
		c1.1-0.1,2.3-0.2,3.6-0.3c1.3-0.1,2.6-0.1,3.9-0.2c1.3,0,2.6,0,3.9,0c4.2,0,7.7,0.5,10.3,1.5c2.7,1,4.6,2.6,5.9,4.9
		c1.3,2.3,1.9,5.3,1.9,9.2v26H158.6z"/>
	<path class="st7" d="M185.1,582.8l-14-41.1h7.7l13.7,41.1H185.1z M186.9,582.8v-5.9h8.9v5.9H186.9z M190.5,582.8l11.9-41.1h7.2
		l-12.2,41.1H190.5z"/>
	<path class="st7" d="M234.5,584.1c-3.6,0-6.7-0.6-9.3-1.8c-2.6-1.2-4.8-2.9-6.4-4.9c-1.6-2-2.9-4.3-3.7-6.8
		c-0.8-2.5-1.2-5.1-1.2-7.7v-1.4c0-2.7,0.4-5.3,1.2-7.8c0.8-2.5,2-4.8,3.7-6.8c1.6-2,3.7-3.6,6.3-4.9c2.5-1.2,5.5-1.8,9-1.8
		c4.5,0,8.2,1,11.1,2.9c2.9,1.9,5.1,4.4,6.5,7.4c1.4,3,2.1,6.3,2.1,9.7v3.3h-36.5V558h31.1l-1.7,3c0-2.9-0.5-5.5-1.4-7.6
		c-0.9-2.1-2.3-3.8-4.2-5c-1.8-1.2-4.2-1.8-7-1.8c-2.9,0-5.4,0.7-7.3,2c-1.9,1.3-3.4,3.2-4.3,5.5c-1,2.3-1.4,5-1.4,8
		c0,2.9,0.5,5.6,1.4,7.9c0.9,2.3,2.4,4.2,4.4,5.5c2,1.4,4.5,2,7.6,2c3.2,0,5.9-0.7,7.9-2.2c2-1.4,3.2-3.1,3.7-5h6.9
		c-0.6,2.8-1.7,5.3-3.4,7.3c-1.7,2.1-3.8,3.6-6.4,4.7C240.7,583.6,237.8,584.1,234.5,584.1z"/>
	<path class="st7" d="M292.2,584c-5.4,0-9.6-1.2-12.5-3.5c-3-2.3-4.5-5.5-4.6-9.5h6.9c0.1,1.6,0.9,3.1,2.4,4.5
		c1.5,1.4,4.1,2.1,7.7,2.1c3.3,0,5.8-0.7,7.5-2c1.7-1.3,2.6-2.9,2.6-4.8c0-1.7-0.6-3-1.9-4c-1.3-0.9-3.4-1.6-6.2-1.9l-4.5-0.5
		c-3.9-0.4-7.1-1.6-9.6-3.5c-2.5-1.9-3.7-4.6-3.7-8.1c0-2.6,0.7-4.9,2-6.7c1.3-1.9,3.2-3.3,5.5-4.3c2.4-1,5.1-1.5,8.2-1.5
		c4.6,0,8.4,1,11.2,3.1c2.9,2.1,4.4,5.1,4.5,9.2h-6.9c-0.1-1.6-0.8-3-2.3-4.2c-1.5-1.2-3.6-1.7-6.5-1.7c-2.9,0-5.1,0.6-6.5,1.8
		c-1.5,1.2-2.2,2.7-2.2,4.5c0,1.5,0.5,2.8,1.6,3.7c1.1,0.9,2.8,1.5,5.2,1.8l4.5,0.5c4.4,0.5,8,1.7,10.6,3.7c2.7,2,4,4.8,4,8.4
		c0,2.6-0.7,4.8-2.2,6.8c-1.5,2-3.5,3.5-6,4.6C298.5,583.4,295.5,584,292.2,584z"/>
	<path class="st7" d="M337.4,584.1c-3.6,0-6.8-0.6-9.5-1.8c-2.7-1.2-5-2.9-6.9-4.9c-1.9-2-3.3-4.3-4.2-6.8c-1-2.5-1.4-5.1-1.4-7.7
		v-1.4c0-2.6,0.5-5.2,1.5-7.7c1-2.5,2.4-4.8,4.3-6.9c1.9-2,4.2-3.6,6.9-4.9c2.7-1.2,5.8-1.8,9.3-1.8c3.5,0,6.6,0.6,9.3,1.8
		c2.7,1.2,5,2.8,6.9,4.9c1.9,2,3.3,4.3,4.3,6.9c1,2.5,1.5,5.1,1.5,7.7v1.4c0,2.6-0.5,5.2-1.4,7.7c-1,2.5-2.4,4.8-4.2,6.8
		c-1.9,2-4.2,3.7-6.9,4.9C344.1,583.5,341,584.1,337.4,584.1z M337.4,577.5c3.1,0,5.7-0.7,7.9-2c2.2-1.4,3.9-3.2,5-5.5
		c1.2-2.3,1.7-4.9,1.7-7.8c0-2.9-0.6-5.5-1.8-7.9c-1.2-2.3-2.9-4.1-5-5.5c-2.2-1.3-4.8-2-7.8-2c-3,0-5.6,0.7-7.8,2
		c-2.2,1.3-3.9,3.2-5.1,5.5c-1.2,2.3-1.8,4.9-1.8,7.9c0,2.9,0.6,5.5,1.7,7.8c1.2,2.3,2.8,4.1,5,5.5
		C331.7,576.8,334.3,577.5,337.4,577.5z"/>
	<path class="st7" d="M369,582.8v-41.1h5.9v17.6h-0.9c0-4,0.5-7.4,1.6-10.2c1.1-2.8,2.6-4.9,4.7-6.4c2.1-1.5,4.8-2.2,8-2.2h0.3
		c3.2,0,5.9,0.7,8,2.2c2.1,1.5,3.7,3.6,4.7,6.4c1,2.8,1.5,6.2,1.5,10.2h-2.2c0-4,0.5-7.4,1.6-10.2c1.1-2.8,2.7-4.9,4.8-6.4
		c2.1-1.5,4.8-2.2,8-2.2h0.3c3.2,0,5.9,0.7,8.1,2.2c2.2,1.5,3.8,3.6,4.8,6.4c1.1,2.8,1.6,6.2,1.6,10.2v23.5h-7.4v-25.1
		c0-3.3-0.8-5.9-2.5-7.7c-1.6-1.8-3.9-2.7-6.9-2.7c-3,0-5.5,1-7.3,2.9c-1.8,1.9-2.8,4.6-2.8,8v24.7h-7.4v-25.1
		c0-3.3-0.8-5.9-2.5-7.7c-1.6-1.8-3.9-2.7-6.9-2.7c-3,0-5.5,1-7.3,2.9c-1.8,1.9-2.8,4.6-2.8,8v24.7H369z"/>
	<path class="st7" d="M459.5,584.1c-3.6,0-6.7-0.6-9.3-1.8c-2.6-1.2-4.8-2.9-6.4-4.9c-1.6-2-2.9-4.3-3.7-6.8
		c-0.8-2.5-1.2-5.1-1.2-7.7v-1.4c0-2.7,0.4-5.3,1.2-7.8c0.8-2.5,2-4.8,3.7-6.8c1.6-2,3.7-3.6,6.3-4.9c2.5-1.2,5.5-1.8,9-1.8
		c4.5,0,8.2,1,11.1,2.9c2.9,1.9,5.1,4.4,6.5,7.4c1.4,3,2.1,6.3,2.1,9.7v3.3h-36.5V558h31.1l-1.7,3c0-2.9-0.5-5.5-1.4-7.6
		c-0.9-2.1-2.3-3.8-4.2-5c-1.8-1.2-4.2-1.8-7-1.8c-2.9,0-5.4,0.7-7.3,2c-1.9,1.3-3.4,3.2-4.3,5.5c-1,2.3-1.4,5-1.4,8
		c0,2.9,0.5,5.6,1.4,7.9c0.9,2.3,2.4,4.2,4.4,5.5c2,1.4,4.5,2,7.6,2c3.2,0,5.9-0.7,7.9-2.2c2-1.4,3.2-3.1,3.7-5h6.9
		c-0.6,2.8-1.7,5.3-3.4,7.3c-1.7,2.1-3.8,3.6-6.4,4.7C465.6,583.6,462.7,584.1,459.5,584.1z"/>
	<path class="st7" d="M503.6,582.8v-41.1h5.9v17.6h-0.9c0-4,0.5-7.4,1.6-10.2c1.1-2.8,2.6-4.9,4.7-6.4c2.1-1.5,4.8-2.2,8-2.2h0.3
		c3.2,0,5.9,0.7,8,2.2c2.1,1.5,3.7,3.6,4.7,6.4c1,2.8,1.5,6.2,1.5,10.2h-2.2c0-4,0.5-7.4,1.6-10.2c1.1-2.8,2.7-4.9,4.8-6.4
		c2.1-1.5,4.8-2.2,8-2.2h0.3c3.2,0,5.9,0.7,8.1,2.2c2.2,1.5,3.8,3.6,4.8,6.4c1.1,2.8,1.6,6.2,1.6,10.2v23.5h-7.4v-25.1
		c0-3.3-0.8-5.9-2.5-7.7c-1.6-1.8-3.9-2.7-6.9-2.7c-3,0-5.5,1-7.3,2.9c-1.8,1.9-2.8,4.6-2.8,8v24.7h-7.4v-25.1
		c0-3.3-0.8-5.9-2.5-7.7c-1.6-1.8-3.9-2.7-6.9-2.7c-3,0-5.5,1-7.3,2.9c-1.8,1.9-2.8,4.6-2.8,8v24.7H503.6z"/>
	<path class="st7" d="M595.6,584.1c-3.6,0-6.8-0.6-9.5-1.8c-2.7-1.2-5-2.9-6.9-4.9c-1.9-2-3.3-4.3-4.2-6.8c-1-2.5-1.4-5.1-1.4-7.7
		v-1.4c0-2.6,0.5-5.2,1.5-7.7c1-2.5,2.4-4.8,4.3-6.9c1.9-2,4.2-3.6,6.9-4.9c2.7-1.2,5.8-1.8,9.3-1.8c3.5,0,6.6,0.6,9.3,1.8
		c2.7,1.2,5,2.8,6.9,4.9c1.9,2,3.3,4.3,4.3,6.9c1,2.5,1.5,5.1,1.5,7.7v1.4c0,2.6-0.5,5.2-1.4,7.7c-1,2.5-2.4,4.8-4.2,6.8
		c-1.9,2-4.2,3.7-6.9,4.9C602.3,583.5,599.2,584.1,595.6,584.1z M595.6,577.5c3.1,0,5.7-0.7,7.9-2c2.2-1.4,3.9-3.2,5-5.5
		c1.2-2.3,1.7-4.9,1.7-7.8c0-2.9-0.6-5.5-1.8-7.9c-1.2-2.3-2.9-4.1-5-5.5c-2.2-1.3-4.8-2-7.8-2c-3,0-5.6,0.7-7.8,2
		c-2.2,1.3-3.9,3.2-5.1,5.5c-1.2,2.3-1.8,4.9-1.8,7.9c0,2.9,0.6,5.5,1.7,7.8c1.2,2.3,2.8,4.1,5,5.5
		C589.9,576.8,592.5,577.5,595.6,577.5z"/>
	<path class="st7" d="M627.2,582.8v-41.1h5.9v17.6h-0.9c0-4.1,0.6-7.5,1.7-10.3c1.1-2.8,2.8-4.9,5-6.4c2.3-1.5,5.1-2.2,8.6-2.2h0.3
		c5.2,0,9,1.6,11.5,4.9c2.5,3.2,3.7,7.9,3.7,14v23.5h-7.4v-25c0-3.2-0.9-5.7-2.7-7.7c-1.8-1.9-4.3-2.9-7.4-2.9c-3.2,0-5.9,1-7.9,3
		c-2,2-3,4.7-3,8v24.6H627.2z"/>
	<path class="st7" d="M692.4,584.1c-3.6,0-6.7-0.6-9.3-1.8c-2.6-1.2-4.8-2.9-6.4-4.9c-1.6-2-2.9-4.3-3.7-6.8
		c-0.8-2.5-1.2-5.1-1.2-7.7v-1.4c0-2.7,0.4-5.3,1.2-7.8c0.8-2.5,2-4.8,3.7-6.8c1.6-2,3.7-3.6,6.3-4.9c2.5-1.2,5.5-1.8,9-1.8
		c4.5,0,8.2,1,11.1,2.9c2.9,1.9,5.1,4.4,6.5,7.4c1.4,3,2.1,6.3,2.1,9.7v3.3h-36.5V558h31.1l-1.7,3c0-2.9-0.5-5.5-1.4-7.6
		c-0.9-2.1-2.3-3.8-4.2-5c-1.8-1.2-4.2-1.8-7-1.8c-2.9,0-5.4,0.7-7.3,2c-1.9,1.3-3.4,3.2-4.3,5.5c-1,2.3-1.4,5-1.4,8
		c0,2.9,0.5,5.6,1.4,7.9c0.9,2.3,2.4,4.2,4.4,5.5c2,1.4,4.5,2,7.6,2c3.2,0,5.9-0.7,7.9-2.2c2-1.4,3.2-3.1,3.7-5h6.9
		c-0.6,2.8-1.7,5.3-3.4,7.3c-1.7,2.1-3.8,3.6-6.4,4.7C698.6,583.6,695.7,584.1,692.4,584.1z"/>
	<path class="st7" d="M729.2,581.8l-14.7-40.2h7.5l14.1,40.2H729.2z M717.5,598.8v-6.6h5.9c1.7,0,3.2-0.2,4.4-0.7
		c1.2-0.4,2.2-1.2,3-2.2c0.8-1,1.5-2.4,2-4.1l12.9-43.6h7.2l-13.7,45.5c-0.8,2.7-2,4.9-3.5,6.7c-1.5,1.7-3.3,3-5.4,3.8
		c-2.1,0.8-4.6,1.2-7.4,1.2H717.5z M730,581.8v-6.2h8.9v6.2H730z"/>
	<path class="st7" d="M100.5,655.8l-11.6-41.1H96l11.3,41.1H100.5z M102.2,655.8V650h8.6v5.9H102.2z M106,655.8l8.3-39.7h10
		l9.7,39.7h-6.3l-9.7-39.6h2.5l-8.4,39.6H106z M129.2,655.8V650h8.6v5.9H129.2z M132.7,655.8l9.9-41.1h6.7l-10.1,41.1H132.7z"/>
	<path class="st7" d="M157.7,655.8v-56.2h7.4v33.6h-1.8c0-4.1,0.5-7.6,1.6-10.5c1.1-3,2.7-5.2,4.9-6.8c2.2-1.6,5-2.4,8.5-2.4h0.3
		c4.9,0,8.7,1.6,11.2,4.9c2.5,3.3,3.8,7.9,3.8,14v23.5h-7.4v-25c0-3.3-0.9-5.9-2.8-7.8c-1.9-1.8-4.3-2.8-7.3-2.8
		c-3.3,0-5.9,1.1-7.9,3.3c-2,2.2-3,5-3,8.6v23.7H157.7z"/>
	<path class="st7" d="M201.2,620.5v-5.9h13.7v5.9H201.2z M209.6,608.1c-1.6,0-2.9-0.4-3.7-1.3c-0.8-0.9-1.2-2-1.2-3.3
		c0-1.3,0.4-2.4,1.2-3.3c0.8-0.9,2-1.3,3.7-1.3c1.6,0,2.9,0.4,3.7,1.3c0.8,0.9,1.2,2,1.2,3.3c0,1.3-0.4,2.4-1.2,3.3
		C212.4,607.6,211.2,608.1,209.6,608.1z M207.5,655.8v-41.1h7.4v41.1H207.5z"/>
	<path class="st7" d="M222.4,605.4v-5.9h13.1v5.9H222.4z M228.2,655.8v-56.2h7.4v56.2H228.2z"/>
	<path class="st7" d="M265.7,657.2c-3.6,0-6.7-0.6-9.3-1.8c-2.6-1.2-4.8-2.9-6.4-4.9c-1.6-2-2.9-4.3-3.7-6.8
		c-0.8-2.5-1.2-5.1-1.2-7.7v-1.4c0-2.7,0.4-5.3,1.2-7.8c0.8-2.5,2-4.8,3.7-6.8c1.6-2,3.7-3.6,6.3-4.9c2.5-1.2,5.5-1.8,9-1.8
		c4.5,0,8.2,1,11.1,2.9c2.9,1.9,5.1,4.4,6.5,7.4c1.4,3,2.1,6.3,2.1,9.7v3.3h-36.5v-5.5h31.1l-1.7,3c0-2.9-0.5-5.5-1.4-7.6
		c-0.9-2.1-2.3-3.8-4.2-5c-1.8-1.2-4.2-1.8-7-1.8c-2.9,0-5.4,0.7-7.3,2c-1.9,1.3-3.4,3.2-4.3,5.5c-1,2.3-1.4,5-1.4,8
		c0,2.9,0.5,5.6,1.4,7.9c0.9,2.3,2.4,4.2,4.4,5.5c2,1.4,4.5,2,7.6,2c3.2,0,5.9-0.7,7.9-2.2c2-1.4,3.2-3.1,3.7-5h6.9
		c-0.6,2.8-1.7,5.3-3.4,7.3c-1.7,2.1-3.8,3.6-6.4,4.7C271.8,656.7,268.9,657.2,265.7,657.2z"/>
	<path class="st7" d="M318.8,654.9l-14.7-40.2h7.5l14.1,40.2H318.8z M307,671.8v-6.6h5.9c1.7,0,3.2-0.2,4.4-0.7
		c1.2-0.4,2.2-1.2,3-2.2c0.8-1,1.5-2.4,2-4.1l12.9-43.6h7.2l-13.7,45.5c-0.8,2.7-2,4.9-3.5,6.7c-1.5,1.7-3.3,3-5.4,3.8
		c-2.1,0.8-4.6,1.2-7.4,1.2H307z M319.6,654.9v-6.2h8.9v6.2H319.6z"/>
	<path class="st7" d="M368.6,657.2c-3.6,0-6.8-0.6-9.5-1.8c-2.7-1.2-5-2.9-6.9-4.9c-1.9-2-3.3-4.3-4.2-6.8c-1-2.5-1.4-5.1-1.4-7.7
		v-1.4c0-2.6,0.5-5.2,1.5-7.7c1-2.5,2.4-4.8,4.3-6.9c1.9-2,4.2-3.6,6.9-4.9c2.7-1.2,5.8-1.8,9.3-1.8c3.5,0,6.6,0.6,9.3,1.8
		c2.7,1.2,5,2.8,6.9,4.9c1.9,2,3.3,4.3,4.3,6.9c1,2.5,1.5,5.1,1.5,7.7v1.4c0,2.6-0.5,5.2-1.4,7.7c-1,2.5-2.4,4.8-4.2,6.8
		c-1.9,2-4.2,3.7-6.9,4.9C375.3,656.6,372.2,657.2,368.6,657.2z M368.6,650.6c3.1,0,5.7-0.7,7.9-2c2.2-1.4,3.9-3.2,5-5.5
		c1.2-2.3,1.7-4.9,1.7-7.8c0-2.9-0.6-5.5-1.8-7.9c-1.2-2.3-2.9-4.1-5-5.5c-2.2-1.3-4.8-2-7.8-2c-3,0-5.6,0.7-7.8,2
		c-2.2,1.3-3.9,3.2-5.1,5.5c-1.2,2.3-1.8,4.9-1.8,7.9c0,2.9,0.6,5.5,1.7,7.8c1.2,2.3,2.8,4.1,5,5.5
		C362.9,649.9,365.5,650.6,368.6,650.6z"/>
	<path class="st7" d="M414.4,657.1c-4.9,0-8.6-1.6-11.2-4.8c-2.6-3.2-3.9-7.8-3.9-13.8v-23.9h7.4v25.3c0,3.2,0.9,5.8,2.6,7.6
		c1.7,1.8,4.1,2.7,7.1,2.7c3.1,0,5.6-1,7.5-3c2-2,2.9-4.7,2.9-8.1v-24.6h7.4v41.2h-5.9v-17.6h0.9c0,4.1-0.5,7.5-1.6,10.3
		c-1.1,2.8-2.7,4.9-4.8,6.4c-2.1,1.5-4.8,2.2-8.1,2.2H414.4z"/>
	<path class="st7" d="M446.8,620.4v-20.8h6.3v20.8H446.8z"/>
	<path class="st7" d="M466.3,655.8v-41.1h5.9v16.9h-0.3c0-6,1.3-10.4,4-13.2c2.6-2.8,6.6-4.2,11.9-4.2h1.4v6.6h-2.6
		c-4.1,0-7.3,1.1-9.5,3.3c-2.2,2.2-3.3,5.3-3.3,9.4v22.3H466.3z"/>
	<path class="st7" d="M513.4,657.2c-3.6,0-6.7-0.6-9.3-1.8c-2.6-1.2-4.8-2.9-6.4-4.9c-1.6-2-2.9-4.3-3.7-6.8
		c-0.8-2.5-1.2-5.1-1.2-7.7v-1.4c0-2.7,0.4-5.3,1.2-7.8c0.8-2.5,2-4.8,3.7-6.8c1.6-2,3.7-3.6,6.3-4.9c2.5-1.2,5.5-1.8,9-1.8
		c4.5,0,8.2,1,11.1,2.9c2.9,1.9,5.1,4.4,6.5,7.4c1.4,3,2.1,6.3,2.1,9.7v3.3h-36.5v-5.5h31.1l-1.7,3c0-2.9-0.5-5.5-1.4-7.6
		c-0.9-2.1-2.3-3.8-4.2-5c-1.8-1.2-4.2-1.8-7-1.8c-2.9,0-5.4,0.7-7.3,2c-1.9,1.3-3.4,3.2-4.3,5.5c-1,2.3-1.4,5-1.4,8
		c0,2.9,0.5,5.6,1.4,7.9c0.9,2.3,2.4,4.2,4.4,5.5c2,1.4,4.5,2,7.6,2c3.2,0,5.9-0.7,7.9-2.2c2-1.4,3.2-3.1,3.7-5h6.9
		c-0.6,2.8-1.7,5.3-3.4,7.3c-1.7,2.1-3.8,3.6-6.4,4.7C519.5,656.7,516.6,657.2,513.4,657.2z"/>
	<path class="st7" d="M568.9,656.9c-3.1,0-5.7-0.5-8-1.6c-2.2-1.1-4-2.6-5.2-4.6c-1.2-2-1.8-4.4-1.8-7.2c0-2.9,0.7-5.4,2-7.3
		c1.3-2,3.2-3.4,5.7-4.4c2.5-1,5.5-1.5,9.1-1.5H582v5.5h-11.5c-3,0-5.3,0.7-6.9,2.2c-1.6,1.4-2.4,3.3-2.4,5.5c0,2.3,0.8,4.1,2.4,5.5
		c1.6,1.4,3.9,2.1,6.9,2.1c1.7,0,3.4-0.3,5-1c1.6-0.6,2.9-1.7,4-3.2c1.1-1.5,1.6-3.6,1.7-6.3l2,2.9c-0.3,2.9-1,5.4-2.1,7.4
		c-1.2,2-2.7,3.5-4.8,4.5C574.3,656.4,571.8,656.9,568.9,656.9z M582.4,655.8v-12.3h-1.2v-14.3c0-2.8-0.7-5-2.2-6.4
		c-1.5-1.4-3.6-2.2-6.4-2.2c-1.6,0-3.2,0-4.9,0.1c-1.7,0.1-3.3,0.1-4.9,0.2c-1.5,0.1-2.9,0.1-4,0.2v-6.5c1.1-0.1,2.3-0.2,3.6-0.3
		c1.3-0.1,2.6-0.1,3.9-0.2c1.3,0,2.6,0,3.9,0c4.2,0,7.7,0.5,10.3,1.5c2.7,1,4.6,2.6,5.9,4.9c1.3,2.3,1.9,5.3,1.9,9.2v26H582.4z"/>
	<path class="st7" d="M594.3,620.2v-5.5h28.3v5.5H594.3z M616.3,656.3c-3.1,0-5.7-0.4-8-1.3c-2.2-0.9-4-2.4-5.2-4.5
		c-1.2-2.1-1.8-5-1.8-8.7v-39.6h7.1v40.5c0,2.2,0.6,3.9,1.8,5.1c1.2,1.2,2.9,1.8,5.1,1.8h7.2v6.6H616.3z"/>
	<path class="st7" d="M643.3,620.5v-5.9H657v5.9H643.3z M651.7,608.1c-1.6,0-2.9-0.4-3.7-1.3c-0.8-0.9-1.2-2-1.2-3.3
		c0-1.3,0.4-2.4,1.2-3.3c0.8-0.9,2-1.3,3.7-1.3c1.6,0,2.9,0.4,3.7,1.3c0.8,0.9,1.2,2,1.2,3.3c0,1.3-0.4,2.4-1.2,3.3
		C654.5,607.6,653.3,608.1,651.7,608.1z M649.6,655.8v-41.1h7.4v41.1H649.6z"/>
	<path class="st7" d="M663.8,620.2v-5.5h28.3v5.5H663.8z M685.8,656.3c-3.1,0-5.7-0.4-8-1.3c-2.2-0.9-4-2.4-5.2-4.5
		c-1.2-2.1-1.8-5-1.8-8.7v-39.6h7.1v40.5c0,2.2,0.6,3.9,1.8,5.1c1.2,1.2,2.9,1.8,5.1,1.8h7.2v6.6H685.8z"/>
	<path class="st7" d="M699.6,655.8v-9.4h8.9v9.4H699.6z"/>
</g>
</svg>
